%TF.GenerationSoftware,KiCad,Pcbnew,6.0.5-2.fc36*%
%TF.CreationDate,2022-06-13T15:37:21-05:00*%
%TF.ProjectId,right,72696768-742e-46b6-9963-61645f706362,rev?*%
%TF.SameCoordinates,Original*%
%TF.FileFunction,Paste,Top*%
%TF.FilePolarity,Positive*%
%FSLAX46Y46*%
G04 Gerber Fmt 4.6, Leading zero omitted, Abs format (unit mm)*
G04 Created by KiCad (PCBNEW 6.0.5-2.fc36) date 2022-06-13 15:37:21*
%MOMM*%
%LPD*%
G01*
G04 APERTURE LIST*
G04 Aperture macros list*
%AMRoundRect*
0 Rectangle with rounded corners*
0 $1 Rounding radius*
0 $2 $3 $4 $5 $6 $7 $8 $9 X,Y pos of 4 corners*
0 Add a 4 corners polygon primitive as box body*
4,1,4,$2,$3,$4,$5,$6,$7,$8,$9,$2,$3,0*
0 Add four circle primitives for the rounded corners*
1,1,$1+$1,$2,$3*
1,1,$1+$1,$4,$5*
1,1,$1+$1,$6,$7*
1,1,$1+$1,$8,$9*
0 Add four rect primitives between the rounded corners*
20,1,$1+$1,$2,$3,$4,$5,0*
20,1,$1+$1,$4,$5,$6,$7,0*
20,1,$1+$1,$6,$7,$8,$9,0*
20,1,$1+$1,$8,$9,$2,$3,0*%
G04 Aperture macros list end*
%ADD10R,1.500000X1.500000*%
%ADD11RoundRect,0.250000X-0.450000X0.325000X-0.450000X-0.325000X0.450000X-0.325000X0.450000X0.325000X0*%
%ADD12RoundRect,0.250000X0.450000X-0.325000X0.450000X0.325000X-0.450000X0.325000X-0.450000X-0.325000X0*%
%ADD13RoundRect,0.250000X-0.325000X-0.450000X0.325000X-0.450000X0.325000X0.450000X-0.325000X0.450000X0*%
%ADD14R,1.000000X1.000000*%
%ADD15R,0.250000X1.300000*%
%ADD16R,1.300000X0.250000*%
%ADD17R,0.800000X0.900000*%
%ADD18R,0.300000X1.450000*%
%ADD19R,0.600000X1.450000*%
G04 APERTURE END LIST*
D10*
%TO.C,SW2*%
X90678000Y-95668000D03*
X90678000Y-103468000D03*
%TD*%
%TO.C,SW1*%
X96774000Y-95668000D03*
X96774000Y-103468000D03*
%TD*%
D11*
%TO.C,C1*%
X100457000Y-101337000D03*
X100457000Y-103387000D03*
%TD*%
%TO.C,C2*%
X86614000Y-82305000D03*
X86614000Y-80255000D03*
%TD*%
D12*
%TO.C,C3*%
X96266000Y-82559000D03*
X96266000Y-80509000D03*
%TD*%
D13*
%TO.C,C4*%
X99069000Y-92202000D03*
X97019000Y-92202000D03*
%TD*%
D11*
%TO.C,C5*%
X86614000Y-92955000D03*
X86614000Y-95005000D03*
%TD*%
D13*
%TO.C,C6*%
X101355000Y-83312000D03*
X99305000Y-83312000D03*
%TD*%
%TO.C,C7*%
X99305000Y-77216000D03*
X101355000Y-77216000D03*
%TD*%
D14*
%TO.C,D17*%
X87757000Y-126218000D03*
X87757000Y-123718000D03*
%TD*%
%TO.C,D15*%
X87757000Y-112542000D03*
X87757000Y-115042000D03*
%TD*%
%TO.C,D14*%
X87757000Y-109454000D03*
X87757000Y-106954000D03*
%TD*%
%TO.C,D12*%
X93853000Y-123718000D03*
X93853000Y-126218000D03*
%TD*%
%TO.C,D11*%
X93853000Y-120630000D03*
X93853000Y-118130000D03*
%TD*%
%TO.C,D10*%
X93853000Y-112542000D03*
X93853000Y-115042000D03*
%TD*%
%TO.C,D9*%
X93853000Y-109454000D03*
X93853000Y-106954000D03*
%TD*%
%TO.C,D7*%
X97917000Y-118130000D03*
X97917000Y-120630000D03*
%TD*%
%TO.C,D6*%
X97917000Y-115042000D03*
X97917000Y-112542000D03*
%TD*%
%TO.C,D5*%
X97917000Y-106954000D03*
X97917000Y-109454000D03*
%TD*%
%TO.C,D16*%
X87757000Y-120630000D03*
X87757000Y-118130000D03*
%TD*%
%TO.C,D20*%
X95885000Y-112542000D03*
X95885000Y-115042000D03*
%TD*%
%TO.C,D36*%
X89789000Y-126218000D03*
X89789000Y-123718000D03*
%TD*%
%TO.C,D34*%
X89789000Y-112542000D03*
X89789000Y-115042000D03*
%TD*%
%TO.C,D33*%
X89789000Y-109454000D03*
X89789000Y-106954000D03*
%TD*%
%TO.C,D26*%
X91821000Y-123718000D03*
X91821000Y-126218000D03*
%TD*%
%TO.C,D25*%
X91821000Y-120630000D03*
X91821000Y-118130000D03*
%TD*%
%TO.C,D24*%
X91821000Y-112542000D03*
X91821000Y-115042000D03*
%TD*%
%TO.C,D23*%
X91821000Y-109454000D03*
X91821000Y-106954000D03*
%TD*%
%TO.C,D21*%
X95885000Y-118130000D03*
X95885000Y-120630000D03*
%TD*%
%TO.C,D19*%
X95885000Y-109454000D03*
X95885000Y-106954000D03*
%TD*%
%TO.C,D35*%
X89789000Y-118130000D03*
X89789000Y-120630000D03*
%TD*%
D15*
%TO.C,U1*%
X88944000Y-91726000D03*
X89444000Y-91726000D03*
X89944000Y-91726000D03*
X90444000Y-91726000D03*
X90944000Y-91726000D03*
X91444000Y-91726000D03*
X91944000Y-91726000D03*
X92444000Y-91726000D03*
X92944000Y-91726000D03*
X93444000Y-91726000D03*
X93944000Y-91726000D03*
X94444000Y-91726000D03*
D16*
X96044000Y-90126000D03*
X96044000Y-89626000D03*
X96044000Y-89126000D03*
X96044000Y-88626000D03*
X96044000Y-88126000D03*
X96044000Y-87626000D03*
X96044000Y-87126000D03*
X96044000Y-86626000D03*
X96044000Y-86126000D03*
X96044000Y-85626000D03*
X96044000Y-85126000D03*
X96044000Y-84626000D03*
D15*
X94444000Y-83026000D03*
X93944000Y-83026000D03*
X93444000Y-83026000D03*
X92944000Y-83026000D03*
X92444000Y-83026000D03*
X91944000Y-83026000D03*
X91444000Y-83026000D03*
X90944000Y-83026000D03*
X90444000Y-83026000D03*
X89944000Y-83026000D03*
X89444000Y-83026000D03*
X88944000Y-83026000D03*
D16*
X87344000Y-84626000D03*
X87344000Y-85126000D03*
X87344000Y-85626000D03*
X87344000Y-86126000D03*
X87344000Y-86626000D03*
X87344000Y-87126000D03*
X87344000Y-87626000D03*
X87344000Y-88126000D03*
X87344000Y-88626000D03*
X87344000Y-89126000D03*
X87344000Y-89626000D03*
X87344000Y-90126000D03*
%TD*%
D17*
%TO.C,U2*%
X99380000Y-81264000D03*
X101280000Y-81264000D03*
X100330000Y-79264000D03*
%TD*%
D11*
%TO.C,R7*%
X97282000Y-75683000D03*
X97282000Y-77733000D03*
%TD*%
%TO.C,R6*%
X92710000Y-77733000D03*
X92710000Y-75683000D03*
%TD*%
%TO.C,R1*%
X100457000Y-95749000D03*
X100457000Y-97799000D03*
%TD*%
D18*
%TO.C,J1*%
X97024000Y-72752000D03*
X95024000Y-72752000D03*
X95524000Y-72752000D03*
X96024000Y-72752000D03*
X96524000Y-72752000D03*
X97524000Y-72752000D03*
X98024000Y-72752000D03*
X98524000Y-72752000D03*
D19*
X93524000Y-72752000D03*
X94324000Y-72752000D03*
X99224000Y-72752000D03*
X100024000Y-72752000D03*
X100024000Y-72752000D03*
X99224000Y-72752000D03*
X94324000Y-72752000D03*
X93524000Y-72752000D03*
%TD*%
M02*
