%TF.GenerationSoftware,KiCad,Pcbnew,6.0.5-2.fc36*%
%TF.CreationDate,2022-06-13T15:37:22-05:00*%
%TF.ProjectId,right,72696768-742e-46b6-9963-61645f706362,rev?*%
%TF.SameCoordinates,Original*%
%TF.FileFunction,Soldermask,Bot*%
%TF.FilePolarity,Negative*%
%FSLAX46Y46*%
G04 Gerber Fmt 4.6, Leading zero omitted, Abs format (unit mm)*
G04 Created by KiCad (PCBNEW 6.0.5-2.fc36) date 2022-06-13 15:37:22*
%MOMM*%
%LPD*%
G01*
G04 APERTURE LIST*
G04 Aperture macros list*
%AMRoundRect*
0 Rectangle with rounded corners*
0 $1 Rounding radius*
0 $2 $3 $4 $5 $6 $7 $8 $9 X,Y pos of 4 corners*
0 Add a 4 corners polygon primitive as box body*
4,1,4,$2,$3,$4,$5,$6,$7,$8,$9,$2,$3,0*
0 Add four circle primitives for the rounded corners*
1,1,$1+$1,$2,$3*
1,1,$1+$1,$4,$5*
1,1,$1+$1,$6,$7*
1,1,$1+$1,$8,$9*
0 Add four rect primitives between the rounded corners*
20,1,$1+$1,$2,$3,$4,$5,0*
20,1,$1+$1,$4,$5,$6,$7,0*
20,1,$1+$1,$6,$7,$8,$9,0*
20,1,$1+$1,$8,$9,$2,$3,0*%
G04 Aperture macros list end*
%ADD10C,2.302000*%
%ADD11C,4.102000*%
%ADD12C,2.002000*%
%ADD13C,1.802000*%
%ADD14O,1.702000X2.102000*%
%ADD15C,0.902000*%
%ADD16RoundRect,0.051000X1.250000X0.500000X-1.250000X0.500000X-1.250000X-0.500000X1.250000X-0.500000X0*%
%ADD17O,1.102000X1.702000*%
%ADD18C,0.752000*%
%ADD19O,1.102000X2.202000*%
G04 APERTURE END LIST*
D10*
%TO.C,SW12*%
X117114000Y-70522000D03*
D11*
X112014000Y-74422000D03*
D12*
X106514000Y-74422000D03*
X117514000Y-74422000D03*
D10*
X112014000Y-68522000D03*
X114554000Y-69342000D03*
X108204000Y-71882000D03*
D13*
X117094000Y-74422000D03*
X106934000Y-74422000D03*
%TD*%
%TO.C,SW15*%
X94386733Y-138918685D03*
X103479267Y-134385315D03*
D10*
X94389958Y-136078880D03*
X98939448Y-130972391D03*
X96300433Y-131371887D03*
D12*
X103855139Y-134197912D03*
X94010861Y-139106088D03*
D11*
X98933000Y-136652000D03*
D10*
X101756994Y-130886147D03*
%TD*%
%TO.C,SW3*%
X212364000Y-80682000D03*
D11*
X207264000Y-84582000D03*
D12*
X201764000Y-84582000D03*
X212764000Y-84582000D03*
D10*
X207264000Y-78682000D03*
X209804000Y-79502000D03*
X203454000Y-82042000D03*
D13*
X212344000Y-84582000D03*
X202184000Y-84582000D03*
%TD*%
%TO.C,SW4*%
X202184000Y-103632000D03*
X212344000Y-103632000D03*
D10*
X203454000Y-101092000D03*
X209804000Y-98552000D03*
X207264000Y-97732000D03*
D12*
X212764000Y-103632000D03*
X201764000Y-103632000D03*
D11*
X207264000Y-103632000D03*
D10*
X212364000Y-99732000D03*
%TD*%
%TO.C,SW5*%
X212364000Y-118782000D03*
D11*
X207264000Y-122682000D03*
D12*
X201764000Y-122682000D03*
X212764000Y-122682000D03*
D10*
X207264000Y-116782000D03*
X209804000Y-117602000D03*
X203454000Y-120142000D03*
D13*
X212344000Y-122682000D03*
X202184000Y-122682000D03*
%TD*%
%TO.C,SW7*%
X164084000Y-71882000D03*
X174244000Y-71882000D03*
D10*
X165354000Y-69342000D03*
X171704000Y-66802000D03*
X169164000Y-65982000D03*
D12*
X174664000Y-71882000D03*
X163664000Y-71882000D03*
D11*
X169164000Y-71882000D03*
D10*
X174264000Y-67982000D03*
%TD*%
%TO.C,SW13*%
X117114000Y-89572000D03*
D11*
X112014000Y-93472000D03*
D12*
X106514000Y-93472000D03*
X117514000Y-93472000D03*
D10*
X112014000Y-87572000D03*
X114554000Y-88392000D03*
X108204000Y-90932000D03*
D13*
X117094000Y-93472000D03*
X106934000Y-93472000D03*
%TD*%
%TO.C,SW8*%
X164084000Y-90932000D03*
X174244000Y-90932000D03*
D10*
X165354000Y-88392000D03*
X171704000Y-85852000D03*
X169164000Y-85032000D03*
D12*
X174664000Y-90932000D03*
X163664000Y-90932000D03*
D11*
X169164000Y-90932000D03*
D10*
X174264000Y-87032000D03*
%TD*%
%TO.C,SW9*%
X174264000Y-106082000D03*
D11*
X169164000Y-109982000D03*
D12*
X163664000Y-109982000D03*
X174664000Y-109982000D03*
D10*
X169164000Y-104082000D03*
X171704000Y-104902000D03*
X165354000Y-107442000D03*
D13*
X174244000Y-109982000D03*
X164084000Y-109982000D03*
%TD*%
%TO.C,SW10*%
X154559000Y-129032000D03*
X164719000Y-129032000D03*
D10*
X155829000Y-126492000D03*
X162179000Y-123952000D03*
X159639000Y-123132000D03*
D12*
X165139000Y-129032000D03*
X154139000Y-129032000D03*
D11*
X159639000Y-129032000D03*
D10*
X164739000Y-125132000D03*
%TD*%
D13*
%TO.C,SW14*%
X106934000Y-112522000D03*
X117094000Y-112522000D03*
D10*
X108204000Y-109982000D03*
X114554000Y-107442000D03*
X112014000Y-106622000D03*
D12*
X117514000Y-112522000D03*
X106514000Y-112522000D03*
D11*
X112014000Y-112522000D03*
D10*
X117114000Y-108622000D03*
%TD*%
%TO.C,SW17*%
X193314000Y-78142000D03*
D11*
X188214000Y-82042000D03*
D12*
X182714000Y-82042000D03*
X193714000Y-82042000D03*
D10*
X188214000Y-76142000D03*
X190754000Y-76962000D03*
X184404000Y-79502000D03*
D13*
X193294000Y-82042000D03*
X183134000Y-82042000D03*
%TD*%
%TO.C,SW18*%
X183134000Y-101092000D03*
X193294000Y-101092000D03*
D10*
X184404000Y-98552000D03*
X190754000Y-96012000D03*
X188214000Y-95192000D03*
D12*
X193714000Y-101092000D03*
X182714000Y-101092000D03*
D11*
X188214000Y-101092000D03*
D10*
X193314000Y-97192000D03*
%TD*%
%TO.C,SW19*%
X193314000Y-116242000D03*
D11*
X188214000Y-120142000D03*
D12*
X182714000Y-120142000D03*
X193714000Y-120142000D03*
D10*
X188214000Y-114242000D03*
X190754000Y-115062000D03*
X184404000Y-117602000D03*
D13*
X193294000Y-120142000D03*
X183134000Y-120142000D03*
%TD*%
%TO.C,SW21*%
X145034000Y-69342000D03*
X155194000Y-69342000D03*
D10*
X146304000Y-66802000D03*
X152654000Y-64262000D03*
X150114000Y-63442000D03*
D12*
X155614000Y-69342000D03*
X144614000Y-69342000D03*
D11*
X150114000Y-69342000D03*
D10*
X155214000Y-65442000D03*
%TD*%
%TO.C,SW22*%
X155214000Y-84492000D03*
D11*
X150114000Y-88392000D03*
D12*
X144614000Y-88392000D03*
X155614000Y-88392000D03*
D10*
X150114000Y-82492000D03*
X152654000Y-83312000D03*
X146304000Y-85852000D03*
D13*
X155194000Y-88392000D03*
X145034000Y-88392000D03*
%TD*%
%TO.C,SW23*%
X145034000Y-107442000D03*
X155194000Y-107442000D03*
D10*
X146304000Y-104902000D03*
X152654000Y-102362000D03*
X150114000Y-101542000D03*
D12*
X155614000Y-107442000D03*
X144614000Y-107442000D03*
D11*
X150114000Y-107442000D03*
D10*
X155214000Y-103542000D03*
%TD*%
%TO.C,SW31*%
X136164000Y-67982000D03*
D11*
X131064000Y-71882000D03*
D12*
X125564000Y-71882000D03*
X136564000Y-71882000D03*
D10*
X131064000Y-65982000D03*
X133604000Y-66802000D03*
X127254000Y-69342000D03*
D13*
X136144000Y-71882000D03*
X125984000Y-71882000D03*
%TD*%
%TO.C,SW32*%
X125984000Y-90932000D03*
X136144000Y-90932000D03*
D10*
X127254000Y-88392000D03*
X133604000Y-85852000D03*
X131064000Y-85032000D03*
D12*
X136564000Y-90932000D03*
X125564000Y-90932000D03*
D11*
X131064000Y-90932000D03*
D10*
X136164000Y-87032000D03*
%TD*%
%TO.C,SW33*%
X136164000Y-106082000D03*
D11*
X131064000Y-109982000D03*
D12*
X125564000Y-109982000D03*
X136564000Y-109982000D03*
D10*
X131064000Y-104082000D03*
X133604000Y-104902000D03*
X127254000Y-107442000D03*
D13*
X136144000Y-109982000D03*
X125984000Y-109982000D03*
%TD*%
%TO.C,SW34*%
X116459000Y-131572000D03*
X126619000Y-131572000D03*
D10*
X117729000Y-129032000D03*
X124079000Y-126492000D03*
X121539000Y-125672000D03*
D12*
X127039000Y-131572000D03*
X116039000Y-131572000D03*
D11*
X121539000Y-131572000D03*
D10*
X126639000Y-127672000D03*
%TD*%
%TO.C,SW24*%
X145689000Y-125132000D03*
D11*
X140589000Y-129032000D03*
D12*
X135089000Y-129032000D03*
X146089000Y-129032000D03*
D10*
X140589000Y-123132000D03*
X143129000Y-123952000D03*
X136779000Y-126492000D03*
D13*
X145669000Y-129032000D03*
X135509000Y-129032000D03*
%TD*%
D14*
%TO.C,J2*%
X81901000Y-77467000D03*
X86501000Y-76367000D03*
X86501000Y-69367000D03*
D15*
X84201000Y-74767000D03*
X84201000Y-67767000D03*
D14*
X86501000Y-72367000D03*
%TD*%
D16*
%TO.C,J3*%
X83249000Y-80772000D03*
X83249000Y-83312000D03*
X83249000Y-85852000D03*
X83249000Y-88392000D03*
X83249000Y-90932000D03*
X83249000Y-93472000D03*
X83249000Y-96012000D03*
X83249000Y-98552000D03*
X83249000Y-101092000D03*
X83249000Y-103632000D03*
X83249000Y-106172000D03*
X83249000Y-108712000D03*
%TD*%
D17*
%TO.C,J1*%
X92454000Y-67657000D03*
D18*
X93884000Y-71307000D03*
D17*
X101094000Y-67657000D03*
D18*
X99664000Y-71307000D03*
D19*
X101094000Y-71837000D03*
X92454000Y-71837000D03*
%TD*%
D15*
X95631000Y-77724000D03*
X139446000Y-68453000D03*
X118999000Y-68453000D03*
X88773000Y-93726000D03*
X110617000Y-133350000D03*
X132080000Y-128651000D03*
X83185000Y-102235000D03*
X83185000Y-87122000D03*
X97790000Y-98806000D03*
X98044000Y-84963000D03*
X90297000Y-101092000D03*
X85090000Y-80772000D03*
X89408000Y-81026000D03*
X86786000Y-83693000D03*
X98139235Y-90067167D03*
X88773000Y-98552000D03*
X83312000Y-91948000D03*
X87757000Y-99568000D03*
X83312000Y-94615000D03*
X98933000Y-87375998D03*
X86868000Y-100584000D03*
X83312000Y-97028000D03*
X99694996Y-86614000D03*
X85598000Y-109982000D03*
X83312000Y-99822000D03*
X100457000Y-85725000D03*
X85598000Y-87972000D03*
X85598000Y-89408000D03*
X93345000Y-80264000D03*
X91953360Y-80396370D03*
X88994000Y-87376000D03*
X89412660Y-89022340D03*
X85598000Y-86614006D03*
X90043000Y-90042998D03*
X89261000Y-86126000D03*
X85684167Y-85192152D03*
X92075000Y-84455000D03*
X96774000Y-93853000D03*
X94869000Y-106954000D03*
X94107000Y-87630000D03*
X93091000Y-86868000D03*
X92837000Y-112542000D03*
X92837000Y-118130000D03*
X93091000Y-85725000D03*
X94234000Y-84836000D03*
X90805000Y-123718000D03*
G36*
X83516208Y-101642000D02*
G01*
X83516208Y-101644000D01*
X83515039Y-101644919D01*
X83448027Y-101664595D01*
X83402672Y-101716938D01*
X83392815Y-101785491D01*
X83421667Y-101848666D01*
X83439685Y-101865643D01*
X83439988Y-101865876D01*
X83440752Y-101867725D01*
X83439533Y-101869310D01*
X83437681Y-101869140D01*
X83373326Y-101827426D01*
X83251364Y-101790952D01*
X83124066Y-101790175D01*
X83001666Y-101825157D01*
X82932921Y-101868531D01*
X82930923Y-101868610D01*
X82929856Y-101866919D01*
X82930239Y-101865661D01*
X82971189Y-101809581D01*
X82975308Y-101740446D01*
X82941395Y-101680058D01*
X82880045Y-101647499D01*
X82855319Y-101644990D01*
X82853697Y-101643820D01*
X82853899Y-101641830D01*
X82855521Y-101641000D01*
X83514476Y-101641000D01*
X83516208Y-101642000D01*
G37*
G36*
X83772656Y-96562000D02*
G01*
X83772656Y-96564000D01*
X83771487Y-96564919D01*
X83704475Y-96584595D01*
X83659120Y-96636938D01*
X83649259Y-96705524D01*
X83671535Y-96758411D01*
X83671286Y-96760395D01*
X83669443Y-96761171D01*
X83668177Y-96760493D01*
X83607147Y-96689665D01*
X83500326Y-96620426D01*
X83378364Y-96583952D01*
X83251066Y-96583175D01*
X83128666Y-96618157D01*
X83021009Y-96686083D01*
X82955918Y-96759785D01*
X82954022Y-96760421D01*
X82952523Y-96759097D01*
X82952554Y-96757740D01*
X82975562Y-96698227D01*
X82961646Y-96630381D01*
X82913238Y-96580806D01*
X82852567Y-96564935D01*
X82851144Y-96563529D01*
X82851650Y-96561594D01*
X82853073Y-96561000D01*
X83770924Y-96561000D01*
X83772656Y-96562000D01*
G37*
G36*
X83643208Y-94022000D02*
G01*
X83643208Y-94024000D01*
X83642039Y-94024919D01*
X83575027Y-94044595D01*
X83529672Y-94096938D01*
X83519815Y-94165491D01*
X83548667Y-94228666D01*
X83566685Y-94245643D01*
X83566988Y-94245876D01*
X83567752Y-94247725D01*
X83566533Y-94249310D01*
X83564681Y-94249140D01*
X83500326Y-94207426D01*
X83378364Y-94170952D01*
X83251066Y-94170175D01*
X83128666Y-94205157D01*
X83059921Y-94248531D01*
X83057923Y-94248610D01*
X83056856Y-94246919D01*
X83057239Y-94245661D01*
X83098189Y-94189581D01*
X83102308Y-94120446D01*
X83068395Y-94060058D01*
X83007045Y-94027499D01*
X82982319Y-94024990D01*
X82980697Y-94023820D01*
X82980899Y-94021830D01*
X82982521Y-94021000D01*
X83641476Y-94021000D01*
X83643208Y-94022000D01*
G37*
G36*
X83772656Y-91482000D02*
G01*
X83772656Y-91484000D01*
X83771487Y-91484919D01*
X83704475Y-91504595D01*
X83659120Y-91556938D01*
X83649259Y-91625524D01*
X83671535Y-91678411D01*
X83671286Y-91680395D01*
X83669443Y-91681171D01*
X83668177Y-91680493D01*
X83607147Y-91609665D01*
X83500326Y-91540426D01*
X83378364Y-91503952D01*
X83251066Y-91503175D01*
X83128666Y-91538157D01*
X83021009Y-91606083D01*
X82955918Y-91679785D01*
X82954022Y-91680421D01*
X82952523Y-91679097D01*
X82952554Y-91677740D01*
X82975562Y-91618227D01*
X82961646Y-91550381D01*
X82913238Y-91500806D01*
X82852567Y-91484935D01*
X82851144Y-91483529D01*
X82851650Y-91481594D01*
X82853073Y-91481000D01*
X83770924Y-91481000D01*
X83772656Y-91482000D01*
G37*
G36*
X99293093Y-86804140D02*
G01*
X99313825Y-86851258D01*
X99395737Y-86948704D01*
X99491600Y-87012516D01*
X99492488Y-87014308D01*
X99491380Y-87015973D01*
X99490278Y-87016170D01*
X99427563Y-87009428D01*
X99365634Y-87040428D01*
X99330293Y-87099991D01*
X99332774Y-87169468D01*
X99335767Y-87177492D01*
X99339877Y-87187415D01*
X99339616Y-87189398D01*
X99337768Y-87190163D01*
X99336208Y-87189008D01*
X99311243Y-87134100D01*
X99228147Y-87037663D01*
X99135102Y-86977354D01*
X99134193Y-86975573D01*
X99135280Y-86973895D01*
X99136404Y-86973687D01*
X99200433Y-86980570D01*
X99262362Y-86949570D01*
X99297703Y-86890007D01*
X99295222Y-86820530D01*
X99292229Y-86812506D01*
X99289414Y-86805710D01*
X99289675Y-86803727D01*
X99291523Y-86802962D01*
X99293093Y-86804140D01*
G37*
G36*
X84551919Y-80374193D02*
G01*
X84571595Y-80441205D01*
X84623938Y-80486560D01*
X84692491Y-80496417D01*
X84755668Y-80467565D01*
X84768499Y-80453946D01*
X84768737Y-80453730D01*
X84781456Y-80443970D01*
X84783439Y-80443709D01*
X84784657Y-80445296D01*
X84784173Y-80446881D01*
X84714739Y-80525501D01*
X84660639Y-80640730D01*
X84641054Y-80766515D01*
X84657560Y-80892739D01*
X84708829Y-81009258D01*
X84780007Y-81093935D01*
X84780356Y-81095904D01*
X84778825Y-81097191D01*
X84777258Y-81096809D01*
X84758923Y-81082740D01*
X84757650Y-81083267D01*
X84756733Y-81082899D01*
X84716578Y-81053579D01*
X84647443Y-81049462D01*
X84587057Y-81083376D01*
X84554499Y-81144726D01*
X84551990Y-81169450D01*
X84550820Y-81171072D01*
X84548830Y-81170870D01*
X84548000Y-81169248D01*
X84548000Y-80374756D01*
X84549000Y-80373024D01*
X84551000Y-80373024D01*
X84551919Y-80374193D01*
G37*
M02*
