%TF.GenerationSoftware,KiCad,Pcbnew,6.0.5-2.fc36*%
%TF.CreationDate,2022-06-13T15:37:21-05:00*%
%TF.ProjectId,right,72696768-742e-46b6-9963-61645f706362,rev?*%
%TF.SameCoordinates,Original*%
%TF.FileFunction,Soldermask,Top*%
%TF.FilePolarity,Negative*%
%FSLAX46Y46*%
G04 Gerber Fmt 4.6, Leading zero omitted, Abs format (unit mm)*
G04 Created by KiCad (PCBNEW 6.0.5-2.fc36) date 2022-06-13 15:37:21*
%MOMM*%
%LPD*%
G01*
G04 APERTURE LIST*
G04 Aperture macros list*
%AMRoundRect*
0 Rectangle with rounded corners*
0 $1 Rounding radius*
0 $2 $3 $4 $5 $6 $7 $8 $9 X,Y pos of 4 corners*
0 Add a 4 corners polygon primitive as box body*
4,1,4,$2,$3,$4,$5,$6,$7,$8,$9,$2,$3,0*
0 Add four circle primitives for the rounded corners*
1,1,$1+$1,$2,$3*
1,1,$1+$1,$4,$5*
1,1,$1+$1,$6,$7*
1,1,$1+$1,$8,$9*
0 Add four rect primitives between the rounded corners*
20,1,$1+$1,$2,$3,$4,$5,0*
20,1,$1+$1,$4,$5,$6,$7,0*
20,1,$1+$1,$6,$7,$8,$9,0*
20,1,$1+$1,$8,$9,$2,$3,0*%
G04 Aperture macros list end*
%ADD10C,4.102000*%
%ADD11C,2.002000*%
%ADD12C,1.802000*%
%ADD13RoundRect,0.051000X0.750000X-0.750000X0.750000X0.750000X-0.750000X0.750000X-0.750000X-0.750000X0*%
%ADD14RoundRect,0.051000X-0.750000X0.750000X-0.750000X-0.750000X0.750000X-0.750000X0.750000X0.750000X0*%
%ADD15RoundRect,0.301000X-0.450000X0.325000X-0.450000X-0.325000X0.450000X-0.325000X0.450000X0.325000X0*%
%ADD16RoundRect,0.301000X0.450000X-0.325000X0.450000X0.325000X-0.450000X0.325000X-0.450000X-0.325000X0*%
%ADD17RoundRect,0.301000X-0.325000X-0.450000X0.325000X-0.450000X0.325000X0.450000X-0.325000X0.450000X0*%
%ADD18RoundRect,0.051000X-0.500000X0.500000X-0.500000X-0.500000X0.500000X-0.500000X0.500000X0.500000X0*%
%ADD19RoundRect,0.051000X0.125000X-0.650000X0.125000X0.650000X-0.125000X0.650000X-0.125000X-0.650000X0*%
%ADD20RoundRect,0.051000X0.650000X0.125000X-0.650000X0.125000X-0.650000X-0.125000X0.650000X-0.125000X0*%
%ADD21RoundRect,0.051000X0.400000X-0.450000X0.400000X0.450000X-0.400000X0.450000X-0.400000X-0.450000X0*%
%ADD22C,0.902000*%
%ADD23O,1.102000X1.502000*%
%ADD24O,1.102000X1.702000*%
%ADD25C,0.752000*%
%ADD26O,1.102000X2.202000*%
%ADD27RoundRect,0.051000X0.150000X0.725000X-0.150000X0.725000X-0.150000X-0.725000X0.150000X-0.725000X0*%
%ADD28RoundRect,0.051000X0.300000X0.725000X-0.300000X0.725000X-0.300000X-0.725000X0.300000X-0.725000X0*%
G04 APERTURE END LIST*
D10*
%TO.C,SW12*%
X112014000Y-74422000D03*
D11*
X106514000Y-74422000D03*
X117514000Y-74422000D03*
D12*
X117094000Y-74422000D03*
X106934000Y-74422000D03*
%TD*%
%TO.C,SW15*%
X94386733Y-138918685D03*
X103479267Y-134385315D03*
D11*
X103855139Y-134197912D03*
X94010861Y-139106088D03*
D10*
X98933000Y-136652000D03*
%TD*%
%TO.C,SW3*%
X207264000Y-84582000D03*
D11*
X201764000Y-84582000D03*
X212764000Y-84582000D03*
D12*
X212344000Y-84582000D03*
X202184000Y-84582000D03*
%TD*%
%TO.C,SW4*%
X202184000Y-103632000D03*
X212344000Y-103632000D03*
D11*
X212764000Y-103632000D03*
X201764000Y-103632000D03*
D10*
X207264000Y-103632000D03*
%TD*%
%TO.C,SW5*%
X207264000Y-122682000D03*
D11*
X201764000Y-122682000D03*
X212764000Y-122682000D03*
D12*
X212344000Y-122682000D03*
X202184000Y-122682000D03*
%TD*%
%TO.C,SW7*%
X164084000Y-71882000D03*
X174244000Y-71882000D03*
D11*
X174664000Y-71882000D03*
X163664000Y-71882000D03*
D10*
X169164000Y-71882000D03*
%TD*%
%TO.C,SW13*%
X112014000Y-93472000D03*
D11*
X106514000Y-93472000D03*
X117514000Y-93472000D03*
D12*
X117094000Y-93472000D03*
X106934000Y-93472000D03*
%TD*%
%TO.C,SW8*%
X164084000Y-90932000D03*
X174244000Y-90932000D03*
D11*
X174664000Y-90932000D03*
X163664000Y-90932000D03*
D10*
X169164000Y-90932000D03*
%TD*%
%TO.C,SW9*%
X169164000Y-109982000D03*
D11*
X163664000Y-109982000D03*
X174664000Y-109982000D03*
D12*
X174244000Y-109982000D03*
X164084000Y-109982000D03*
%TD*%
%TO.C,SW10*%
X154559000Y-129032000D03*
X164719000Y-129032000D03*
D11*
X165139000Y-129032000D03*
X154139000Y-129032000D03*
D10*
X159639000Y-129032000D03*
%TD*%
D12*
%TO.C,SW14*%
X106934000Y-112522000D03*
X117094000Y-112522000D03*
D11*
X117514000Y-112522000D03*
X106514000Y-112522000D03*
D10*
X112014000Y-112522000D03*
%TD*%
%TO.C,SW17*%
X188214000Y-82042000D03*
D11*
X182714000Y-82042000D03*
X193714000Y-82042000D03*
D12*
X193294000Y-82042000D03*
X183134000Y-82042000D03*
%TD*%
%TO.C,SW18*%
X183134000Y-101092000D03*
X193294000Y-101092000D03*
D11*
X193714000Y-101092000D03*
X182714000Y-101092000D03*
D10*
X188214000Y-101092000D03*
%TD*%
%TO.C,SW19*%
X188214000Y-120142000D03*
D11*
X182714000Y-120142000D03*
X193714000Y-120142000D03*
D12*
X193294000Y-120142000D03*
X183134000Y-120142000D03*
%TD*%
%TO.C,SW21*%
X145034000Y-69342000D03*
X155194000Y-69342000D03*
D11*
X155614000Y-69342000D03*
X144614000Y-69342000D03*
D10*
X150114000Y-69342000D03*
%TD*%
%TO.C,SW22*%
X150114000Y-88392000D03*
D11*
X144614000Y-88392000D03*
X155614000Y-88392000D03*
D12*
X155194000Y-88392000D03*
X145034000Y-88392000D03*
%TD*%
%TO.C,SW23*%
X145034000Y-107442000D03*
X155194000Y-107442000D03*
D11*
X155614000Y-107442000D03*
X144614000Y-107442000D03*
D10*
X150114000Y-107442000D03*
%TD*%
%TO.C,SW31*%
X131064000Y-71882000D03*
D11*
X125564000Y-71882000D03*
X136564000Y-71882000D03*
D12*
X136144000Y-71882000D03*
X125984000Y-71882000D03*
%TD*%
%TO.C,SW32*%
X125984000Y-90932000D03*
X136144000Y-90932000D03*
D11*
X136564000Y-90932000D03*
X125564000Y-90932000D03*
D10*
X131064000Y-90932000D03*
%TD*%
%TO.C,SW33*%
X131064000Y-109982000D03*
D11*
X125564000Y-109982000D03*
X136564000Y-109982000D03*
D12*
X136144000Y-109982000D03*
X125984000Y-109982000D03*
%TD*%
%TO.C,SW34*%
X116459000Y-131572000D03*
X126619000Y-131572000D03*
D11*
X127039000Y-131572000D03*
X116039000Y-131572000D03*
D10*
X121539000Y-131572000D03*
%TD*%
%TO.C,SW24*%
X140589000Y-129032000D03*
D11*
X135089000Y-129032000D03*
X146089000Y-129032000D03*
D12*
X145669000Y-129032000D03*
X135509000Y-129032000D03*
%TD*%
D13*
%TO.C,SW2*%
X90678000Y-95668000D03*
X90678000Y-103468000D03*
%TD*%
D14*
%TO.C,SW1*%
X96774000Y-95668000D03*
X96774000Y-103468000D03*
%TD*%
D15*
%TO.C,C1*%
X100457000Y-101337000D03*
X100457000Y-103387000D03*
%TD*%
%TO.C,C2*%
X86614000Y-82305000D03*
X86614000Y-80255000D03*
%TD*%
D16*
%TO.C,C3*%
X96266000Y-82559000D03*
X96266000Y-80509000D03*
%TD*%
D17*
%TO.C,C4*%
X99069000Y-92202000D03*
X97019000Y-92202000D03*
%TD*%
D15*
%TO.C,C5*%
X86614000Y-92955000D03*
X86614000Y-95005000D03*
%TD*%
D17*
%TO.C,C6*%
X101355000Y-83312000D03*
X99305000Y-83312000D03*
%TD*%
%TO.C,C7*%
X99305000Y-77216000D03*
X101355000Y-77216000D03*
%TD*%
D18*
%TO.C,D17*%
X87757000Y-126218000D03*
X87757000Y-123718000D03*
%TD*%
%TO.C,D15*%
X87757000Y-112542000D03*
X87757000Y-115042000D03*
%TD*%
%TO.C,D14*%
X87757000Y-109454000D03*
X87757000Y-106954000D03*
%TD*%
%TO.C,D12*%
X93853000Y-123718000D03*
X93853000Y-126218000D03*
%TD*%
%TO.C,D11*%
X93853000Y-120630000D03*
X93853000Y-118130000D03*
%TD*%
%TO.C,D10*%
X93853000Y-112542000D03*
X93853000Y-115042000D03*
%TD*%
%TO.C,D9*%
X93853000Y-109454000D03*
X93853000Y-106954000D03*
%TD*%
%TO.C,D7*%
X97917000Y-118130000D03*
X97917000Y-120630000D03*
%TD*%
%TO.C,D6*%
X97917000Y-115042000D03*
X97917000Y-112542000D03*
%TD*%
%TO.C,D5*%
X97917000Y-106954000D03*
X97917000Y-109454000D03*
%TD*%
%TO.C,D16*%
X87757000Y-120630000D03*
X87757000Y-118130000D03*
%TD*%
%TO.C,D20*%
X95885000Y-112542000D03*
X95885000Y-115042000D03*
%TD*%
%TO.C,D36*%
X89789000Y-126218000D03*
X89789000Y-123718000D03*
%TD*%
%TO.C,D34*%
X89789000Y-112542000D03*
X89789000Y-115042000D03*
%TD*%
%TO.C,D33*%
X89789000Y-109454000D03*
X89789000Y-106954000D03*
%TD*%
%TO.C,D26*%
X91821000Y-123718000D03*
X91821000Y-126218000D03*
%TD*%
%TO.C,D25*%
X91821000Y-120630000D03*
X91821000Y-118130000D03*
%TD*%
%TO.C,D24*%
X91821000Y-112542000D03*
X91821000Y-115042000D03*
%TD*%
%TO.C,D23*%
X91821000Y-109454000D03*
X91821000Y-106954000D03*
%TD*%
%TO.C,D21*%
X95885000Y-118130000D03*
X95885000Y-120630000D03*
%TD*%
%TO.C,D19*%
X95885000Y-109454000D03*
X95885000Y-106954000D03*
%TD*%
%TO.C,D35*%
X89789000Y-118130000D03*
X89789000Y-120630000D03*
%TD*%
D19*
%TO.C,U1*%
X88944000Y-91726000D03*
X89444000Y-91726000D03*
X89944000Y-91726000D03*
X90444000Y-91726000D03*
X90944000Y-91726000D03*
X91444000Y-91726000D03*
X91944000Y-91726000D03*
X92444000Y-91726000D03*
X92944000Y-91726000D03*
X93444000Y-91726000D03*
X93944000Y-91726000D03*
X94444000Y-91726000D03*
D20*
X96044000Y-90126000D03*
X96044000Y-89626000D03*
X96044000Y-89126000D03*
X96044000Y-88626000D03*
X96044000Y-88126000D03*
X96044000Y-87626000D03*
X96044000Y-87126000D03*
X96044000Y-86626000D03*
X96044000Y-86126000D03*
X96044000Y-85626000D03*
X96044000Y-85126000D03*
X96044000Y-84626000D03*
D19*
X94444000Y-83026000D03*
X93944000Y-83026000D03*
X93444000Y-83026000D03*
X92944000Y-83026000D03*
X92444000Y-83026000D03*
X91944000Y-83026000D03*
X91444000Y-83026000D03*
X90944000Y-83026000D03*
X90444000Y-83026000D03*
X89944000Y-83026000D03*
X89444000Y-83026000D03*
X88944000Y-83026000D03*
D20*
X87344000Y-84626000D03*
X87344000Y-85126000D03*
X87344000Y-85626000D03*
X87344000Y-86126000D03*
X87344000Y-86626000D03*
X87344000Y-87126000D03*
X87344000Y-87626000D03*
X87344000Y-88126000D03*
X87344000Y-88626000D03*
X87344000Y-89126000D03*
X87344000Y-89626000D03*
X87344000Y-90126000D03*
%TD*%
D21*
%TO.C,U2*%
X99380000Y-81264000D03*
X101280000Y-81264000D03*
X100330000Y-79264000D03*
%TD*%
D15*
%TO.C,R7*%
X97282000Y-75683000D03*
X97282000Y-77733000D03*
%TD*%
%TO.C,R6*%
X92710000Y-77733000D03*
X92710000Y-75683000D03*
%TD*%
%TO.C,R1*%
X100457000Y-95749000D03*
X100457000Y-97799000D03*
%TD*%
D22*
%TO.C,J2*%
X84201000Y-74767000D03*
X84201000Y-67767000D03*
D23*
X86501000Y-69367000D03*
X86501000Y-72367000D03*
X86501000Y-76367000D03*
X81901000Y-77467000D03*
%TD*%
D24*
%TO.C,J1*%
X92454000Y-67657000D03*
D25*
X93884000Y-71307000D03*
D24*
X101094000Y-67657000D03*
D25*
X99664000Y-71307000D03*
D26*
X101094000Y-71837000D03*
X92454000Y-71837000D03*
D27*
X97024000Y-72752000D03*
X95024000Y-72752000D03*
X95524000Y-72752000D03*
X96024000Y-72752000D03*
X96524000Y-72752000D03*
X97524000Y-72752000D03*
X98024000Y-72752000D03*
X98524000Y-72752000D03*
D28*
X93524000Y-72752000D03*
X94324000Y-72752000D03*
X99224000Y-72752000D03*
X100024000Y-72752000D03*
X100024000Y-72752000D03*
X99224000Y-72752000D03*
X94324000Y-72752000D03*
X93524000Y-72752000D03*
%TD*%
D22*
X95631000Y-77724000D03*
X139446000Y-68453000D03*
X118999000Y-68453000D03*
X88773000Y-93726000D03*
X110617000Y-133350000D03*
X132080000Y-128651000D03*
X83185000Y-102235000D03*
X83185000Y-87122000D03*
X97790000Y-98806000D03*
X98044000Y-84963000D03*
X90297000Y-101092000D03*
X85090000Y-80772000D03*
X89408000Y-81026000D03*
X86786000Y-83693000D03*
X98139235Y-90067167D03*
X88773000Y-98552000D03*
X83312000Y-91948000D03*
X87757000Y-99568000D03*
X83312000Y-94615000D03*
X98933000Y-87375998D03*
X86868000Y-100584000D03*
X83312000Y-97028000D03*
X99694996Y-86614000D03*
X85598000Y-109982000D03*
X83312000Y-99822000D03*
X100457000Y-85725000D03*
X85598000Y-87972000D03*
X85598000Y-89408000D03*
X93345000Y-80264000D03*
X91953360Y-80396370D03*
X88994000Y-87376000D03*
X89412660Y-89022340D03*
X85598000Y-86614006D03*
X90043000Y-90042998D03*
X89261000Y-86126000D03*
X85684167Y-85192152D03*
X92075000Y-84455000D03*
X96774000Y-93853000D03*
X94869000Y-106954000D03*
X94107000Y-87630000D03*
X93091000Y-86868000D03*
X92837000Y-112542000D03*
X92837000Y-118130000D03*
X93091000Y-85725000D03*
X94234000Y-84836000D03*
X90805000Y-123718000D03*
G36*
X90341919Y-123258513D02*
G01*
X90361595Y-123325525D01*
X90413938Y-123370880D01*
X90482523Y-123380741D01*
X90532635Y-123359634D01*
X90534619Y-123359883D01*
X90535395Y-123361726D01*
X90534478Y-123363168D01*
X90514009Y-123376083D01*
X90429739Y-123471501D01*
X90375639Y-123586730D01*
X90356054Y-123712515D01*
X90372560Y-123838739D01*
X90423829Y-123955258D01*
X90505741Y-124052704D01*
X90539050Y-124074876D01*
X90539938Y-124076668D01*
X90538830Y-124078333D01*
X90537221Y-124078406D01*
X90475227Y-124054439D01*
X90407380Y-124068355D01*
X90357806Y-124116764D01*
X90341935Y-124177433D01*
X90340529Y-124178856D01*
X90338594Y-124178350D01*
X90338000Y-124176927D01*
X90338000Y-123259076D01*
X90339000Y-123257344D01*
X90341000Y-123257344D01*
X90341919Y-123258513D01*
G37*
G36*
X91271406Y-123257650D02*
G01*
X91272000Y-123259073D01*
X91272000Y-124176924D01*
X91271000Y-124178656D01*
X91269000Y-124178656D01*
X91268081Y-124177487D01*
X91248405Y-124110475D01*
X91196062Y-124065120D01*
X91127476Y-124055259D01*
X91080496Y-124075047D01*
X91078512Y-124074798D01*
X91077736Y-124072955D01*
X91078674Y-124071500D01*
X91091792Y-124063446D01*
X91177221Y-123969066D01*
X91232726Y-123854504D01*
X91253867Y-123728842D01*
X91253998Y-123718131D01*
X91235933Y-123591987D01*
X91183243Y-123476102D01*
X91100147Y-123379665D01*
X91072436Y-123361704D01*
X91071527Y-123359923D01*
X91072614Y-123358245D01*
X91074245Y-123358161D01*
X91134773Y-123381561D01*
X91202620Y-123367645D01*
X91252194Y-123319236D01*
X91268065Y-123258567D01*
X91269471Y-123257144D01*
X91271406Y-123257650D01*
G37*
G36*
X92373919Y-117670513D02*
G01*
X92393595Y-117737525D01*
X92445938Y-117782880D01*
X92514523Y-117792741D01*
X92564635Y-117771634D01*
X92566619Y-117771883D01*
X92567395Y-117773726D01*
X92566478Y-117775168D01*
X92546009Y-117788083D01*
X92461739Y-117883501D01*
X92407639Y-117998730D01*
X92388054Y-118124515D01*
X92404560Y-118250739D01*
X92455829Y-118367258D01*
X92537741Y-118464704D01*
X92571050Y-118486876D01*
X92571938Y-118488668D01*
X92570830Y-118490333D01*
X92569221Y-118490406D01*
X92507227Y-118466439D01*
X92439380Y-118480355D01*
X92389806Y-118528764D01*
X92373935Y-118589433D01*
X92372529Y-118590856D01*
X92370594Y-118590350D01*
X92370000Y-118588927D01*
X92370000Y-117671076D01*
X92371000Y-117669344D01*
X92373000Y-117669344D01*
X92373919Y-117670513D01*
G37*
G36*
X93303406Y-117669650D02*
G01*
X93304000Y-117671073D01*
X93304000Y-118588924D01*
X93303000Y-118590656D01*
X93301000Y-118590656D01*
X93300081Y-118589487D01*
X93280405Y-118522475D01*
X93228062Y-118477120D01*
X93159476Y-118467259D01*
X93112496Y-118487047D01*
X93110512Y-118486798D01*
X93109736Y-118484955D01*
X93110674Y-118483500D01*
X93123792Y-118475446D01*
X93209221Y-118381066D01*
X93264726Y-118266504D01*
X93285867Y-118140842D01*
X93285998Y-118130131D01*
X93267933Y-118003987D01*
X93215243Y-117888102D01*
X93132147Y-117791665D01*
X93104436Y-117773704D01*
X93103527Y-117771923D01*
X93104614Y-117770245D01*
X93106245Y-117770161D01*
X93166773Y-117793561D01*
X93234620Y-117779645D01*
X93284194Y-117731236D01*
X93300065Y-117670567D01*
X93301471Y-117669144D01*
X93303406Y-117669650D01*
G37*
G36*
X92373919Y-112082513D02*
G01*
X92393595Y-112149525D01*
X92445938Y-112194880D01*
X92514523Y-112204741D01*
X92564635Y-112183634D01*
X92566619Y-112183883D01*
X92567395Y-112185726D01*
X92566478Y-112187168D01*
X92546009Y-112200083D01*
X92461739Y-112295501D01*
X92407639Y-112410730D01*
X92388054Y-112536515D01*
X92404560Y-112662739D01*
X92455829Y-112779258D01*
X92537741Y-112876704D01*
X92571050Y-112898876D01*
X92571938Y-112900668D01*
X92570830Y-112902333D01*
X92569221Y-112902406D01*
X92507227Y-112878439D01*
X92439380Y-112892355D01*
X92389806Y-112940764D01*
X92373935Y-113001433D01*
X92372529Y-113002856D01*
X92370594Y-113002350D01*
X92370000Y-113000927D01*
X92370000Y-112083076D01*
X92371000Y-112081344D01*
X92373000Y-112081344D01*
X92373919Y-112082513D01*
G37*
G36*
X93303406Y-112081650D02*
G01*
X93304000Y-112083073D01*
X93304000Y-113000924D01*
X93303000Y-113002656D01*
X93301000Y-113002656D01*
X93300081Y-113001487D01*
X93280405Y-112934475D01*
X93228062Y-112889120D01*
X93159476Y-112879259D01*
X93112496Y-112899047D01*
X93110512Y-112898798D01*
X93109736Y-112896955D01*
X93110674Y-112895500D01*
X93123792Y-112887446D01*
X93209221Y-112793066D01*
X93264726Y-112678504D01*
X93285867Y-112552842D01*
X93285998Y-112542131D01*
X93267933Y-112415987D01*
X93215243Y-112300102D01*
X93132147Y-112203665D01*
X93104436Y-112185704D01*
X93103527Y-112183923D01*
X93104614Y-112182245D01*
X93106245Y-112182161D01*
X93166773Y-112205561D01*
X93234620Y-112191645D01*
X93284194Y-112143236D01*
X93300065Y-112082567D01*
X93301471Y-112081144D01*
X93303406Y-112081650D01*
G37*
G36*
X94405919Y-106494513D02*
G01*
X94425595Y-106561525D01*
X94477938Y-106606880D01*
X94546523Y-106616741D01*
X94596635Y-106595634D01*
X94598619Y-106595883D01*
X94599395Y-106597726D01*
X94598478Y-106599168D01*
X94578009Y-106612083D01*
X94493739Y-106707501D01*
X94439639Y-106822730D01*
X94420054Y-106948515D01*
X94436560Y-107074739D01*
X94487829Y-107191258D01*
X94569741Y-107288704D01*
X94603050Y-107310876D01*
X94603938Y-107312668D01*
X94602830Y-107314333D01*
X94601221Y-107314406D01*
X94539227Y-107290439D01*
X94471380Y-107304355D01*
X94421806Y-107352764D01*
X94405935Y-107413433D01*
X94404529Y-107414856D01*
X94402594Y-107414350D01*
X94402000Y-107412927D01*
X94402000Y-106495076D01*
X94403000Y-106493344D01*
X94405000Y-106493344D01*
X94405919Y-106494513D01*
G37*
G36*
X95335406Y-106493650D02*
G01*
X95336000Y-106495073D01*
X95336000Y-107412924D01*
X95335000Y-107414656D01*
X95333000Y-107414656D01*
X95332081Y-107413487D01*
X95312405Y-107346475D01*
X95260062Y-107301120D01*
X95191476Y-107291259D01*
X95144496Y-107311047D01*
X95142512Y-107310798D01*
X95141736Y-107308955D01*
X95142674Y-107307500D01*
X95155792Y-107299446D01*
X95241221Y-107205066D01*
X95296726Y-107090504D01*
X95317867Y-106964842D01*
X95317998Y-106954131D01*
X95299933Y-106827987D01*
X95247243Y-106712102D01*
X95164147Y-106615665D01*
X95136436Y-106597704D01*
X95135527Y-106595923D01*
X95136614Y-106594245D01*
X95138245Y-106594161D01*
X95198773Y-106617561D01*
X95266620Y-106603645D01*
X95316194Y-106555236D01*
X95332065Y-106494567D01*
X95333471Y-106493144D01*
X95335406Y-106493650D01*
G37*
G36*
X89109660Y-91043493D02*
G01*
X89123452Y-91052709D01*
X89124615Y-91050969D01*
X89126409Y-91050084D01*
X89127560Y-91050545D01*
X89144952Y-91065078D01*
X89213670Y-91073704D01*
X89261288Y-91050918D01*
X89263282Y-91051072D01*
X89263814Y-91051611D01*
X89264548Y-91052709D01*
X89278340Y-91043493D01*
X89280336Y-91043362D01*
X89281447Y-91045025D01*
X89281114Y-91046267D01*
X89273767Y-91057262D01*
X89270000Y-91076199D01*
X89270000Y-92375801D01*
X89273767Y-92394738D01*
X89281114Y-92405733D01*
X89281245Y-92407729D01*
X89279582Y-92408840D01*
X89278340Y-92408507D01*
X89264548Y-92399291D01*
X89263385Y-92401031D01*
X89261591Y-92401916D01*
X89260440Y-92401455D01*
X89243048Y-92386922D01*
X89174330Y-92378296D01*
X89126712Y-92401082D01*
X89124718Y-92400928D01*
X89124186Y-92400389D01*
X89123452Y-92399291D01*
X89109660Y-92408507D01*
X89107664Y-92408638D01*
X89106553Y-92406975D01*
X89106886Y-92405733D01*
X89114233Y-92394738D01*
X89118000Y-92375801D01*
X89118000Y-91076199D01*
X89114233Y-91057262D01*
X89106886Y-91046267D01*
X89106755Y-91044271D01*
X89108418Y-91043160D01*
X89109660Y-91043493D01*
G37*
G36*
X91109660Y-91043493D02*
G01*
X91123452Y-91052709D01*
X91124615Y-91050969D01*
X91126409Y-91050084D01*
X91127560Y-91050545D01*
X91144952Y-91065078D01*
X91213670Y-91073704D01*
X91261288Y-91050918D01*
X91263282Y-91051072D01*
X91263814Y-91051611D01*
X91264548Y-91052709D01*
X91278340Y-91043493D01*
X91280336Y-91043362D01*
X91281447Y-91045025D01*
X91281114Y-91046267D01*
X91273767Y-91057262D01*
X91270000Y-91076199D01*
X91270000Y-92375801D01*
X91273767Y-92394738D01*
X91281114Y-92405733D01*
X91281245Y-92407729D01*
X91279582Y-92408840D01*
X91278340Y-92408507D01*
X91264548Y-92399291D01*
X91263385Y-92401031D01*
X91261591Y-92401916D01*
X91260440Y-92401455D01*
X91243048Y-92386922D01*
X91174330Y-92378296D01*
X91126712Y-92401082D01*
X91124718Y-92400928D01*
X91124186Y-92400389D01*
X91123452Y-92399291D01*
X91109660Y-92408507D01*
X91107664Y-92408638D01*
X91106553Y-92406975D01*
X91106886Y-92405733D01*
X91114233Y-92394738D01*
X91118000Y-92375801D01*
X91118000Y-91076199D01*
X91114233Y-91057262D01*
X91106886Y-91046267D01*
X91106755Y-91044271D01*
X91108418Y-91043160D01*
X91109660Y-91043493D01*
G37*
G36*
X92109660Y-91043493D02*
G01*
X92123452Y-91052709D01*
X92124615Y-91050969D01*
X92126409Y-91050084D01*
X92127560Y-91050545D01*
X92144952Y-91065078D01*
X92213670Y-91073704D01*
X92261288Y-91050918D01*
X92263282Y-91051072D01*
X92263814Y-91051611D01*
X92264548Y-91052709D01*
X92278340Y-91043493D01*
X92280336Y-91043362D01*
X92281447Y-91045025D01*
X92281114Y-91046267D01*
X92273767Y-91057262D01*
X92270000Y-91076199D01*
X92270000Y-92375801D01*
X92273767Y-92394738D01*
X92281114Y-92405733D01*
X92281245Y-92407729D01*
X92279582Y-92408840D01*
X92278340Y-92408507D01*
X92264548Y-92399291D01*
X92263385Y-92401031D01*
X92261591Y-92401916D01*
X92260440Y-92401455D01*
X92243048Y-92386922D01*
X92174330Y-92378296D01*
X92126712Y-92401082D01*
X92124718Y-92400928D01*
X92124186Y-92400389D01*
X92123452Y-92399291D01*
X92109660Y-92408507D01*
X92107664Y-92408638D01*
X92106553Y-92406975D01*
X92106886Y-92405733D01*
X92114233Y-92394738D01*
X92118000Y-92375801D01*
X92118000Y-91076199D01*
X92114233Y-91057262D01*
X92106886Y-91046267D01*
X92106755Y-91044271D01*
X92108418Y-91043160D01*
X92109660Y-91043493D01*
G37*
G36*
X93109660Y-91043493D02*
G01*
X93123452Y-91052709D01*
X93124615Y-91050969D01*
X93126409Y-91050084D01*
X93127560Y-91050545D01*
X93144952Y-91065078D01*
X93213670Y-91073704D01*
X93261288Y-91050918D01*
X93263282Y-91051072D01*
X93263814Y-91051611D01*
X93264548Y-91052709D01*
X93278340Y-91043493D01*
X93280336Y-91043362D01*
X93281447Y-91045025D01*
X93281114Y-91046267D01*
X93273767Y-91057262D01*
X93270000Y-91076199D01*
X93270000Y-92375801D01*
X93273767Y-92394738D01*
X93281114Y-92405733D01*
X93281245Y-92407729D01*
X93279582Y-92408840D01*
X93278340Y-92408507D01*
X93264548Y-92399291D01*
X93263385Y-92401031D01*
X93261591Y-92401916D01*
X93260440Y-92401455D01*
X93243048Y-92386922D01*
X93174330Y-92378296D01*
X93126712Y-92401082D01*
X93124718Y-92400928D01*
X93124186Y-92400389D01*
X93123452Y-92399291D01*
X93109660Y-92408507D01*
X93107664Y-92408638D01*
X93106553Y-92406975D01*
X93106886Y-92405733D01*
X93114233Y-92394738D01*
X93118000Y-92375801D01*
X93118000Y-91076199D01*
X93114233Y-91057262D01*
X93106886Y-91046267D01*
X93106755Y-91044271D01*
X93108418Y-91043160D01*
X93109660Y-91043493D01*
G37*
G36*
X90609660Y-91043493D02*
G01*
X90623452Y-91052709D01*
X90624615Y-91050969D01*
X90626409Y-91050084D01*
X90627560Y-91050545D01*
X90644952Y-91065078D01*
X90713670Y-91073704D01*
X90761288Y-91050918D01*
X90763282Y-91051072D01*
X90763814Y-91051611D01*
X90764548Y-91052709D01*
X90778340Y-91043493D01*
X90780336Y-91043362D01*
X90781447Y-91045025D01*
X90781114Y-91046267D01*
X90773767Y-91057262D01*
X90770000Y-91076199D01*
X90770000Y-92375801D01*
X90773767Y-92394738D01*
X90781114Y-92405733D01*
X90781245Y-92407729D01*
X90779582Y-92408840D01*
X90778340Y-92408507D01*
X90764548Y-92399291D01*
X90763385Y-92401031D01*
X90761591Y-92401916D01*
X90760440Y-92401455D01*
X90743048Y-92386922D01*
X90674330Y-92378296D01*
X90626712Y-92401082D01*
X90624718Y-92400928D01*
X90624186Y-92400389D01*
X90623452Y-92399291D01*
X90609660Y-92408507D01*
X90607664Y-92408638D01*
X90606553Y-92406975D01*
X90606886Y-92405733D01*
X90614233Y-92394738D01*
X90618000Y-92375801D01*
X90618000Y-91076199D01*
X90614233Y-91057262D01*
X90606886Y-91046267D01*
X90606755Y-91044271D01*
X90608418Y-91043160D01*
X90609660Y-91043493D01*
G37*
G36*
X89609660Y-91043493D02*
G01*
X89623452Y-91052709D01*
X89624615Y-91050969D01*
X89626409Y-91050084D01*
X89627560Y-91050545D01*
X89644952Y-91065078D01*
X89713670Y-91073704D01*
X89761288Y-91050918D01*
X89763282Y-91051072D01*
X89763814Y-91051611D01*
X89764548Y-91052709D01*
X89778340Y-91043493D01*
X89780336Y-91043362D01*
X89781447Y-91045025D01*
X89781114Y-91046267D01*
X89773767Y-91057262D01*
X89770000Y-91076199D01*
X89770000Y-92375801D01*
X89773767Y-92394738D01*
X89781114Y-92405733D01*
X89781245Y-92407729D01*
X89779582Y-92408840D01*
X89778340Y-92408507D01*
X89764548Y-92399291D01*
X89763385Y-92401031D01*
X89761591Y-92401916D01*
X89760440Y-92401455D01*
X89743048Y-92386922D01*
X89674330Y-92378296D01*
X89626712Y-92401082D01*
X89624718Y-92400928D01*
X89624186Y-92400389D01*
X89623452Y-92399291D01*
X89609660Y-92408507D01*
X89607664Y-92408638D01*
X89606553Y-92406975D01*
X89606886Y-92405733D01*
X89614233Y-92394738D01*
X89618000Y-92375801D01*
X89618000Y-91076199D01*
X89614233Y-91057262D01*
X89606886Y-91046267D01*
X89606755Y-91044271D01*
X89608418Y-91043160D01*
X89609660Y-91043493D01*
G37*
G36*
X94109660Y-91043493D02*
G01*
X94123452Y-91052709D01*
X94124615Y-91050969D01*
X94126409Y-91050084D01*
X94127560Y-91050545D01*
X94144952Y-91065078D01*
X94213670Y-91073704D01*
X94261288Y-91050918D01*
X94263282Y-91051072D01*
X94263814Y-91051611D01*
X94264548Y-91052709D01*
X94278340Y-91043493D01*
X94280336Y-91043362D01*
X94281447Y-91045025D01*
X94281114Y-91046267D01*
X94273767Y-91057262D01*
X94270000Y-91076199D01*
X94270000Y-92375801D01*
X94273767Y-92394738D01*
X94281114Y-92405733D01*
X94281245Y-92407729D01*
X94279582Y-92408840D01*
X94278340Y-92408507D01*
X94264548Y-92399291D01*
X94263385Y-92401031D01*
X94261591Y-92401916D01*
X94260440Y-92401455D01*
X94243048Y-92386922D01*
X94174330Y-92378296D01*
X94126712Y-92401082D01*
X94124718Y-92400928D01*
X94124186Y-92400389D01*
X94123452Y-92399291D01*
X94109660Y-92408507D01*
X94107664Y-92408638D01*
X94106553Y-92406975D01*
X94106886Y-92405733D01*
X94114233Y-92394738D01*
X94118000Y-92375801D01*
X94118000Y-91076199D01*
X94114233Y-91057262D01*
X94106886Y-91046267D01*
X94106755Y-91044271D01*
X94108418Y-91043160D01*
X94109660Y-91043493D01*
G37*
G36*
X91609660Y-91043493D02*
G01*
X91623452Y-91052709D01*
X91624615Y-91050969D01*
X91626409Y-91050084D01*
X91627560Y-91050545D01*
X91644952Y-91065078D01*
X91713670Y-91073704D01*
X91761288Y-91050918D01*
X91763282Y-91051072D01*
X91763814Y-91051611D01*
X91764548Y-91052709D01*
X91778340Y-91043493D01*
X91780336Y-91043362D01*
X91781447Y-91045025D01*
X91781114Y-91046267D01*
X91773767Y-91057262D01*
X91770000Y-91076199D01*
X91770000Y-92375801D01*
X91773767Y-92394738D01*
X91781114Y-92405733D01*
X91781245Y-92407729D01*
X91779582Y-92408840D01*
X91778340Y-92408507D01*
X91764548Y-92399291D01*
X91763385Y-92401031D01*
X91761591Y-92401916D01*
X91760440Y-92401455D01*
X91743048Y-92386922D01*
X91674330Y-92378296D01*
X91626712Y-92401082D01*
X91624718Y-92400928D01*
X91624186Y-92400389D01*
X91623452Y-92399291D01*
X91609660Y-92408507D01*
X91607664Y-92408638D01*
X91606553Y-92406975D01*
X91606886Y-92405733D01*
X91614233Y-92394738D01*
X91618000Y-92375801D01*
X91618000Y-91076199D01*
X91614233Y-91057262D01*
X91606886Y-91046267D01*
X91606755Y-91044271D01*
X91608418Y-91043160D01*
X91609660Y-91043493D01*
G37*
G36*
X92609660Y-91043493D02*
G01*
X92623452Y-91052709D01*
X92624615Y-91050969D01*
X92626409Y-91050084D01*
X92627560Y-91050545D01*
X92644952Y-91065078D01*
X92713670Y-91073704D01*
X92761288Y-91050918D01*
X92763282Y-91051072D01*
X92763814Y-91051611D01*
X92764548Y-91052709D01*
X92778340Y-91043493D01*
X92780336Y-91043362D01*
X92781447Y-91045025D01*
X92781114Y-91046267D01*
X92773767Y-91057262D01*
X92770000Y-91076199D01*
X92770000Y-92375801D01*
X92773767Y-92394738D01*
X92781114Y-92405733D01*
X92781245Y-92407729D01*
X92779582Y-92408840D01*
X92778340Y-92408507D01*
X92764548Y-92399291D01*
X92763385Y-92401031D01*
X92761591Y-92401916D01*
X92760440Y-92401455D01*
X92743048Y-92386922D01*
X92674330Y-92378296D01*
X92626712Y-92401082D01*
X92624718Y-92400928D01*
X92624186Y-92400389D01*
X92623452Y-92399291D01*
X92609660Y-92408507D01*
X92607664Y-92408638D01*
X92606553Y-92406975D01*
X92606886Y-92405733D01*
X92614233Y-92394738D01*
X92618000Y-92375801D01*
X92618000Y-91076199D01*
X92614233Y-91057262D01*
X92606886Y-91046267D01*
X92606755Y-91044271D01*
X92608418Y-91043160D01*
X92609660Y-91043493D01*
G37*
G36*
X93609660Y-91043493D02*
G01*
X93623452Y-91052709D01*
X93624615Y-91050969D01*
X93626409Y-91050084D01*
X93627560Y-91050545D01*
X93644952Y-91065078D01*
X93713670Y-91073704D01*
X93761288Y-91050918D01*
X93763282Y-91051072D01*
X93763814Y-91051611D01*
X93764548Y-91052709D01*
X93778340Y-91043493D01*
X93780336Y-91043362D01*
X93781447Y-91045025D01*
X93781114Y-91046267D01*
X93773767Y-91057262D01*
X93770000Y-91076199D01*
X93770000Y-92375801D01*
X93773767Y-92394738D01*
X93781114Y-92405733D01*
X93781245Y-92407729D01*
X93779582Y-92408840D01*
X93778340Y-92408507D01*
X93764548Y-92399291D01*
X93763385Y-92401031D01*
X93761591Y-92401916D01*
X93760440Y-92401455D01*
X93743048Y-92386922D01*
X93674330Y-92378296D01*
X93626712Y-92401082D01*
X93624718Y-92400928D01*
X93624186Y-92400389D01*
X93623452Y-92399291D01*
X93609660Y-92408507D01*
X93607664Y-92408638D01*
X93606553Y-92406975D01*
X93606886Y-92405733D01*
X93614233Y-92394738D01*
X93618000Y-92375801D01*
X93618000Y-91076199D01*
X93614233Y-91057262D01*
X93606886Y-91046267D01*
X93606755Y-91044271D01*
X93608418Y-91043160D01*
X93609660Y-91043493D01*
G37*
G36*
X90109660Y-91043493D02*
G01*
X90123452Y-91052709D01*
X90124615Y-91050969D01*
X90126409Y-91050084D01*
X90127560Y-91050545D01*
X90144952Y-91065078D01*
X90213670Y-91073704D01*
X90261288Y-91050918D01*
X90263282Y-91051072D01*
X90263814Y-91051611D01*
X90264548Y-91052709D01*
X90278340Y-91043493D01*
X90280336Y-91043362D01*
X90281447Y-91045025D01*
X90281114Y-91046267D01*
X90273767Y-91057262D01*
X90270000Y-91076199D01*
X90270000Y-92375801D01*
X90273767Y-92394738D01*
X90281114Y-92405733D01*
X90281245Y-92407729D01*
X90279582Y-92408840D01*
X90278340Y-92408507D01*
X90264548Y-92399291D01*
X90263385Y-92401031D01*
X90261591Y-92401916D01*
X90260440Y-92401455D01*
X90243048Y-92386922D01*
X90174330Y-92378296D01*
X90126712Y-92401082D01*
X90124718Y-92400928D01*
X90124186Y-92400389D01*
X90123452Y-92399291D01*
X90109660Y-92408507D01*
X90107664Y-92408638D01*
X90106553Y-92406975D01*
X90106886Y-92405733D01*
X90114233Y-92394738D01*
X90118000Y-92375801D01*
X90118000Y-91076199D01*
X90114233Y-91057262D01*
X90106886Y-91046267D01*
X90106755Y-91044271D01*
X90108418Y-91043160D01*
X90109660Y-91043493D01*
G37*
G36*
X95364267Y-89788886D02*
G01*
X95375262Y-89796233D01*
X95394199Y-89800000D01*
X96693801Y-89800000D01*
X96712738Y-89796233D01*
X96723733Y-89788886D01*
X96725729Y-89788755D01*
X96726840Y-89790418D01*
X96726507Y-89791660D01*
X96717291Y-89805452D01*
X96719031Y-89806615D01*
X96719916Y-89808409D01*
X96719455Y-89809560D01*
X96704922Y-89826952D01*
X96696296Y-89895670D01*
X96719082Y-89943288D01*
X96718928Y-89945282D01*
X96718389Y-89945814D01*
X96717291Y-89946548D01*
X96726507Y-89960340D01*
X96726638Y-89962336D01*
X96724975Y-89963447D01*
X96723733Y-89963114D01*
X96712738Y-89955767D01*
X96693801Y-89952000D01*
X95394199Y-89952000D01*
X95375262Y-89955767D01*
X95364267Y-89963114D01*
X95362271Y-89963245D01*
X95361160Y-89961582D01*
X95361493Y-89960340D01*
X95370709Y-89946548D01*
X95368969Y-89945385D01*
X95368084Y-89943591D01*
X95368545Y-89942440D01*
X95383078Y-89925048D01*
X95391704Y-89856330D01*
X95368918Y-89808712D01*
X95369072Y-89806718D01*
X95369611Y-89806186D01*
X95370709Y-89805452D01*
X95361493Y-89791660D01*
X95361362Y-89789664D01*
X95363025Y-89788553D01*
X95364267Y-89788886D01*
G37*
G36*
X86664267Y-89788886D02*
G01*
X86675262Y-89796233D01*
X86694199Y-89800000D01*
X87993801Y-89800000D01*
X88012738Y-89796233D01*
X88023733Y-89788886D01*
X88025729Y-89788755D01*
X88026840Y-89790418D01*
X88026507Y-89791660D01*
X88017291Y-89805452D01*
X88019031Y-89806615D01*
X88019916Y-89808409D01*
X88019455Y-89809560D01*
X88004922Y-89826952D01*
X87996296Y-89895670D01*
X88019082Y-89943288D01*
X88018928Y-89945282D01*
X88018389Y-89945814D01*
X88017291Y-89946548D01*
X88026507Y-89960340D01*
X88026638Y-89962336D01*
X88024975Y-89963447D01*
X88023733Y-89963114D01*
X88012738Y-89955767D01*
X87993801Y-89952000D01*
X86694199Y-89952000D01*
X86675262Y-89955767D01*
X86664267Y-89963114D01*
X86662271Y-89963245D01*
X86661160Y-89961582D01*
X86661493Y-89960340D01*
X86670709Y-89946548D01*
X86668969Y-89945385D01*
X86668084Y-89943591D01*
X86668545Y-89942440D01*
X86683078Y-89925048D01*
X86691704Y-89856330D01*
X86668918Y-89808712D01*
X86669072Y-89806718D01*
X86669611Y-89806186D01*
X86670709Y-89805452D01*
X86661493Y-89791660D01*
X86661362Y-89789664D01*
X86663025Y-89788553D01*
X86664267Y-89788886D01*
G37*
G36*
X95364267Y-89288886D02*
G01*
X95375262Y-89296233D01*
X95394199Y-89300000D01*
X96693801Y-89300000D01*
X96712738Y-89296233D01*
X96723733Y-89288886D01*
X96725729Y-89288755D01*
X96726840Y-89290418D01*
X96726507Y-89291660D01*
X96717291Y-89305452D01*
X96719031Y-89306615D01*
X96719916Y-89308409D01*
X96719455Y-89309560D01*
X96704922Y-89326952D01*
X96696296Y-89395670D01*
X96719082Y-89443288D01*
X96718928Y-89445282D01*
X96718389Y-89445814D01*
X96717291Y-89446548D01*
X96726507Y-89460340D01*
X96726638Y-89462336D01*
X96724975Y-89463447D01*
X96723733Y-89463114D01*
X96712738Y-89455767D01*
X96693801Y-89452000D01*
X95394199Y-89452000D01*
X95375262Y-89455767D01*
X95364267Y-89463114D01*
X95362271Y-89463245D01*
X95361160Y-89461582D01*
X95361493Y-89460340D01*
X95370709Y-89446548D01*
X95368969Y-89445385D01*
X95368084Y-89443591D01*
X95368545Y-89442440D01*
X95383078Y-89425048D01*
X95391704Y-89356330D01*
X95368918Y-89308712D01*
X95369072Y-89306718D01*
X95369611Y-89306186D01*
X95370709Y-89305452D01*
X95361493Y-89291660D01*
X95361362Y-89289664D01*
X95363025Y-89288553D01*
X95364267Y-89288886D01*
G37*
G36*
X86664267Y-89288886D02*
G01*
X86675262Y-89296233D01*
X86694199Y-89300000D01*
X87993801Y-89300000D01*
X88012738Y-89296233D01*
X88023733Y-89288886D01*
X88025729Y-89288755D01*
X88026840Y-89290418D01*
X88026507Y-89291660D01*
X88017291Y-89305452D01*
X88019031Y-89306615D01*
X88019916Y-89308409D01*
X88019455Y-89309560D01*
X88004922Y-89326952D01*
X87996296Y-89395670D01*
X88019082Y-89443288D01*
X88018928Y-89445282D01*
X88018389Y-89445814D01*
X88017291Y-89446548D01*
X88026507Y-89460340D01*
X88026638Y-89462336D01*
X88024975Y-89463447D01*
X88023733Y-89463114D01*
X88012738Y-89455767D01*
X87993801Y-89452000D01*
X86694199Y-89452000D01*
X86675262Y-89455767D01*
X86664267Y-89463114D01*
X86662271Y-89463245D01*
X86661160Y-89461582D01*
X86661493Y-89460340D01*
X86670709Y-89446548D01*
X86668969Y-89445385D01*
X86668084Y-89443591D01*
X86668545Y-89442440D01*
X86683078Y-89425048D01*
X86691704Y-89356330D01*
X86668918Y-89308712D01*
X86669072Y-89306718D01*
X86669611Y-89306186D01*
X86670709Y-89305452D01*
X86661493Y-89291660D01*
X86661362Y-89289664D01*
X86663025Y-89288553D01*
X86664267Y-89288886D01*
G37*
G36*
X95364267Y-88788886D02*
G01*
X95375262Y-88796233D01*
X95394199Y-88800000D01*
X96693801Y-88800000D01*
X96712738Y-88796233D01*
X96723733Y-88788886D01*
X96725729Y-88788755D01*
X96726840Y-88790418D01*
X96726507Y-88791660D01*
X96717291Y-88805452D01*
X96719031Y-88806615D01*
X96719916Y-88808409D01*
X96719455Y-88809560D01*
X96704922Y-88826952D01*
X96696296Y-88895670D01*
X96719082Y-88943288D01*
X96718928Y-88945282D01*
X96718389Y-88945814D01*
X96717291Y-88946548D01*
X96726507Y-88960340D01*
X96726638Y-88962336D01*
X96724975Y-88963447D01*
X96723733Y-88963114D01*
X96712738Y-88955767D01*
X96693801Y-88952000D01*
X95394199Y-88952000D01*
X95375262Y-88955767D01*
X95364267Y-88963114D01*
X95362271Y-88963245D01*
X95361160Y-88961582D01*
X95361493Y-88960340D01*
X95370709Y-88946548D01*
X95368969Y-88945385D01*
X95368084Y-88943591D01*
X95368545Y-88942440D01*
X95383078Y-88925048D01*
X95391704Y-88856330D01*
X95368918Y-88808712D01*
X95369072Y-88806718D01*
X95369611Y-88806186D01*
X95370709Y-88805452D01*
X95361493Y-88791660D01*
X95361362Y-88789664D01*
X95363025Y-88788553D01*
X95364267Y-88788886D01*
G37*
G36*
X86664267Y-88788886D02*
G01*
X86675262Y-88796233D01*
X86694199Y-88800000D01*
X87993801Y-88800000D01*
X88012738Y-88796233D01*
X88023733Y-88788886D01*
X88025729Y-88788755D01*
X88026840Y-88790418D01*
X88026507Y-88791660D01*
X88017291Y-88805452D01*
X88019031Y-88806615D01*
X88019916Y-88808409D01*
X88019455Y-88809560D01*
X88004922Y-88826952D01*
X87996296Y-88895670D01*
X88019082Y-88943288D01*
X88018928Y-88945282D01*
X88018389Y-88945814D01*
X88017291Y-88946548D01*
X88026507Y-88960340D01*
X88026638Y-88962336D01*
X88024975Y-88963447D01*
X88023733Y-88963114D01*
X88012738Y-88955767D01*
X87993801Y-88952000D01*
X86694199Y-88952000D01*
X86675262Y-88955767D01*
X86664267Y-88963114D01*
X86662271Y-88963245D01*
X86661160Y-88961582D01*
X86661493Y-88960340D01*
X86670709Y-88946548D01*
X86668969Y-88945385D01*
X86668084Y-88943591D01*
X86668545Y-88942440D01*
X86683078Y-88925048D01*
X86691704Y-88856330D01*
X86668918Y-88808712D01*
X86669072Y-88806718D01*
X86669611Y-88806186D01*
X86670709Y-88805452D01*
X86661493Y-88791660D01*
X86661362Y-88789664D01*
X86663025Y-88788553D01*
X86664267Y-88788886D01*
G37*
G36*
X95364267Y-88288886D02*
G01*
X95375262Y-88296233D01*
X95394199Y-88300000D01*
X96693801Y-88300000D01*
X96712738Y-88296233D01*
X96723733Y-88288886D01*
X96725729Y-88288755D01*
X96726840Y-88290418D01*
X96726507Y-88291660D01*
X96717291Y-88305452D01*
X96719031Y-88306615D01*
X96719916Y-88308409D01*
X96719455Y-88309560D01*
X96704922Y-88326952D01*
X96696296Y-88395670D01*
X96719082Y-88443288D01*
X96718928Y-88445282D01*
X96718389Y-88445814D01*
X96717291Y-88446548D01*
X96726507Y-88460340D01*
X96726638Y-88462336D01*
X96724975Y-88463447D01*
X96723733Y-88463114D01*
X96712738Y-88455767D01*
X96693801Y-88452000D01*
X95394199Y-88452000D01*
X95375262Y-88455767D01*
X95364267Y-88463114D01*
X95362271Y-88463245D01*
X95361160Y-88461582D01*
X95361493Y-88460340D01*
X95370709Y-88446548D01*
X95368969Y-88445385D01*
X95368084Y-88443591D01*
X95368545Y-88442440D01*
X95383078Y-88425048D01*
X95391704Y-88356330D01*
X95368918Y-88308712D01*
X95369072Y-88306718D01*
X95369611Y-88306186D01*
X95370709Y-88305452D01*
X95361493Y-88291660D01*
X95361362Y-88289664D01*
X95363025Y-88288553D01*
X95364267Y-88288886D01*
G37*
G36*
X86664267Y-88288886D02*
G01*
X86675262Y-88296233D01*
X86694199Y-88300000D01*
X87993801Y-88300000D01*
X88012738Y-88296233D01*
X88023733Y-88288886D01*
X88025729Y-88288755D01*
X88026840Y-88290418D01*
X88026507Y-88291660D01*
X88017291Y-88305452D01*
X88019031Y-88306615D01*
X88019916Y-88308409D01*
X88019455Y-88309560D01*
X88004922Y-88326952D01*
X87996296Y-88395670D01*
X88019082Y-88443288D01*
X88018928Y-88445282D01*
X88018389Y-88445814D01*
X88017291Y-88446548D01*
X88026507Y-88460340D01*
X88026638Y-88462336D01*
X88024975Y-88463447D01*
X88023733Y-88463114D01*
X88012738Y-88455767D01*
X87993801Y-88452000D01*
X86694199Y-88452000D01*
X86675262Y-88455767D01*
X86664267Y-88463114D01*
X86662271Y-88463245D01*
X86661160Y-88461582D01*
X86661493Y-88460340D01*
X86670709Y-88446548D01*
X86668969Y-88445385D01*
X86668084Y-88443591D01*
X86668545Y-88442440D01*
X86683078Y-88425048D01*
X86691704Y-88356330D01*
X86668918Y-88308712D01*
X86669072Y-88306718D01*
X86669611Y-88306186D01*
X86670709Y-88305452D01*
X86661493Y-88291660D01*
X86661362Y-88289664D01*
X86663025Y-88288553D01*
X86664267Y-88288886D01*
G37*
G36*
X95364267Y-87788886D02*
G01*
X95375262Y-87796233D01*
X95394199Y-87800000D01*
X96693801Y-87800000D01*
X96712738Y-87796233D01*
X96723733Y-87788886D01*
X96725729Y-87788755D01*
X96726840Y-87790418D01*
X96726507Y-87791660D01*
X96717291Y-87805452D01*
X96719031Y-87806615D01*
X96719916Y-87808409D01*
X96719455Y-87809560D01*
X96704922Y-87826952D01*
X96696296Y-87895670D01*
X96719082Y-87943288D01*
X96718928Y-87945282D01*
X96718389Y-87945814D01*
X96717291Y-87946548D01*
X96726507Y-87960340D01*
X96726638Y-87962336D01*
X96724975Y-87963447D01*
X96723733Y-87963114D01*
X96712738Y-87955767D01*
X96693801Y-87952000D01*
X95394199Y-87952000D01*
X95375262Y-87955767D01*
X95364267Y-87963114D01*
X95362271Y-87963245D01*
X95361160Y-87961582D01*
X95361493Y-87960340D01*
X95370709Y-87946548D01*
X95368969Y-87945385D01*
X95368084Y-87943591D01*
X95368545Y-87942440D01*
X95383078Y-87925048D01*
X95391704Y-87856330D01*
X95368918Y-87808712D01*
X95369072Y-87806718D01*
X95369611Y-87806186D01*
X95370709Y-87805452D01*
X95361493Y-87791660D01*
X95361362Y-87789664D01*
X95363025Y-87788553D01*
X95364267Y-87788886D01*
G37*
G36*
X86664267Y-87788886D02*
G01*
X86675262Y-87796233D01*
X86694199Y-87800000D01*
X87993801Y-87800000D01*
X88012738Y-87796233D01*
X88023733Y-87788886D01*
X88025729Y-87788755D01*
X88026840Y-87790418D01*
X88026507Y-87791660D01*
X88017291Y-87805452D01*
X88019031Y-87806615D01*
X88019916Y-87808409D01*
X88019455Y-87809560D01*
X88004922Y-87826952D01*
X87996296Y-87895670D01*
X88019082Y-87943288D01*
X88018928Y-87945282D01*
X88018389Y-87945814D01*
X88017291Y-87946548D01*
X88026507Y-87960340D01*
X88026638Y-87962336D01*
X88024975Y-87963447D01*
X88023733Y-87963114D01*
X88012738Y-87955767D01*
X87993801Y-87952000D01*
X86694199Y-87952000D01*
X86675262Y-87955767D01*
X86664267Y-87963114D01*
X86662271Y-87963245D01*
X86661160Y-87961582D01*
X86661493Y-87960340D01*
X86670709Y-87946548D01*
X86668969Y-87945385D01*
X86668084Y-87943591D01*
X86668545Y-87942440D01*
X86683078Y-87925048D01*
X86691704Y-87856330D01*
X86668918Y-87808712D01*
X86669072Y-87806718D01*
X86669611Y-87806186D01*
X86670709Y-87805452D01*
X86661493Y-87791660D01*
X86661362Y-87789664D01*
X86663025Y-87788553D01*
X86664267Y-87788886D01*
G37*
G36*
X95364267Y-87288886D02*
G01*
X95375262Y-87296233D01*
X95394199Y-87300000D01*
X96693801Y-87300000D01*
X96712738Y-87296233D01*
X96723733Y-87288886D01*
X96725729Y-87288755D01*
X96726840Y-87290418D01*
X96726507Y-87291660D01*
X96717291Y-87305452D01*
X96719031Y-87306615D01*
X96719916Y-87308409D01*
X96719455Y-87309560D01*
X96704922Y-87326952D01*
X96696296Y-87395670D01*
X96719082Y-87443288D01*
X96718928Y-87445282D01*
X96718389Y-87445814D01*
X96717291Y-87446548D01*
X96726507Y-87460340D01*
X96726638Y-87462336D01*
X96724975Y-87463447D01*
X96723733Y-87463114D01*
X96712738Y-87455767D01*
X96693801Y-87452000D01*
X95394199Y-87452000D01*
X95375262Y-87455767D01*
X95364267Y-87463114D01*
X95362271Y-87463245D01*
X95361160Y-87461582D01*
X95361493Y-87460340D01*
X95370709Y-87446548D01*
X95368969Y-87445385D01*
X95368084Y-87443591D01*
X95368545Y-87442440D01*
X95383078Y-87425048D01*
X95391704Y-87356330D01*
X95368918Y-87308712D01*
X95369072Y-87306718D01*
X95369611Y-87306186D01*
X95370709Y-87305452D01*
X95361493Y-87291660D01*
X95361362Y-87289664D01*
X95363025Y-87288553D01*
X95364267Y-87288886D01*
G37*
G36*
X86664267Y-87288886D02*
G01*
X86675262Y-87296233D01*
X86694199Y-87300000D01*
X87993801Y-87300000D01*
X88012738Y-87296233D01*
X88023733Y-87288886D01*
X88025729Y-87288755D01*
X88026840Y-87290418D01*
X88026507Y-87291660D01*
X88017291Y-87305452D01*
X88019031Y-87306615D01*
X88019916Y-87308409D01*
X88019455Y-87309560D01*
X88004922Y-87326952D01*
X87996296Y-87395670D01*
X88019082Y-87443288D01*
X88018928Y-87445282D01*
X88018389Y-87445814D01*
X88017291Y-87446548D01*
X88026507Y-87460340D01*
X88026638Y-87462336D01*
X88024975Y-87463447D01*
X88023733Y-87463114D01*
X88012738Y-87455767D01*
X87993801Y-87452000D01*
X86694199Y-87452000D01*
X86675262Y-87455767D01*
X86664267Y-87463114D01*
X86662271Y-87463245D01*
X86661160Y-87461582D01*
X86661493Y-87460340D01*
X86670709Y-87446548D01*
X86668969Y-87445385D01*
X86668084Y-87443591D01*
X86668545Y-87442440D01*
X86683078Y-87425048D01*
X86691704Y-87356330D01*
X86668918Y-87308712D01*
X86669072Y-87306718D01*
X86669611Y-87306186D01*
X86670709Y-87305452D01*
X86661493Y-87291660D01*
X86661362Y-87289664D01*
X86663025Y-87288553D01*
X86664267Y-87288886D01*
G37*
G36*
X99293093Y-86804140D02*
G01*
X99313825Y-86851258D01*
X99395737Y-86948704D01*
X99491600Y-87012516D01*
X99492488Y-87014308D01*
X99491380Y-87015973D01*
X99490278Y-87016170D01*
X99427563Y-87009428D01*
X99365634Y-87040428D01*
X99330293Y-87099991D01*
X99332774Y-87169468D01*
X99335767Y-87177492D01*
X99339877Y-87187415D01*
X99339616Y-87189398D01*
X99337768Y-87190163D01*
X99336208Y-87189008D01*
X99311243Y-87134100D01*
X99228147Y-87037663D01*
X99135102Y-86977354D01*
X99134193Y-86975573D01*
X99135280Y-86973895D01*
X99136404Y-86973687D01*
X99200433Y-86980570D01*
X99262362Y-86949570D01*
X99297703Y-86890007D01*
X99295222Y-86820530D01*
X99292229Y-86812506D01*
X99289414Y-86805710D01*
X99289675Y-86803727D01*
X99291523Y-86802962D01*
X99293093Y-86804140D01*
G37*
G36*
X95364267Y-86788886D02*
G01*
X95375262Y-86796233D01*
X95394199Y-86800000D01*
X96693801Y-86800000D01*
X96712738Y-86796233D01*
X96723733Y-86788886D01*
X96725729Y-86788755D01*
X96726840Y-86790418D01*
X96726507Y-86791660D01*
X96717291Y-86805452D01*
X96719031Y-86806615D01*
X96719916Y-86808409D01*
X96719455Y-86809560D01*
X96704922Y-86826952D01*
X96696296Y-86895670D01*
X96719082Y-86943288D01*
X96718928Y-86945282D01*
X96718389Y-86945814D01*
X96717291Y-86946548D01*
X96726507Y-86960340D01*
X96726638Y-86962336D01*
X96724975Y-86963447D01*
X96723733Y-86963114D01*
X96712738Y-86955767D01*
X96693801Y-86952000D01*
X95394199Y-86952000D01*
X95375262Y-86955767D01*
X95364267Y-86963114D01*
X95362271Y-86963245D01*
X95361160Y-86961582D01*
X95361493Y-86960340D01*
X95370709Y-86946548D01*
X95368969Y-86945385D01*
X95368084Y-86943591D01*
X95368545Y-86942440D01*
X95383078Y-86925048D01*
X95391704Y-86856330D01*
X95368918Y-86808712D01*
X95369072Y-86806718D01*
X95369611Y-86806186D01*
X95370709Y-86805452D01*
X95361493Y-86791660D01*
X95361362Y-86789664D01*
X95363025Y-86788553D01*
X95364267Y-86788886D01*
G37*
G36*
X86664267Y-86788886D02*
G01*
X86675262Y-86796233D01*
X86694199Y-86800000D01*
X87993801Y-86800000D01*
X88012738Y-86796233D01*
X88023733Y-86788886D01*
X88025729Y-86788755D01*
X88026840Y-86790418D01*
X88026507Y-86791660D01*
X88017291Y-86805452D01*
X88019031Y-86806615D01*
X88019916Y-86808409D01*
X88019455Y-86809560D01*
X88004922Y-86826952D01*
X87996296Y-86895670D01*
X88019082Y-86943288D01*
X88018928Y-86945282D01*
X88018389Y-86945814D01*
X88017291Y-86946548D01*
X88026507Y-86960340D01*
X88026638Y-86962336D01*
X88024975Y-86963447D01*
X88023733Y-86963114D01*
X88012738Y-86955767D01*
X87993801Y-86952000D01*
X86694199Y-86952000D01*
X86675262Y-86955767D01*
X86664267Y-86963114D01*
X86662271Y-86963245D01*
X86661160Y-86961582D01*
X86661493Y-86960340D01*
X86670709Y-86946548D01*
X86668969Y-86945385D01*
X86668084Y-86943591D01*
X86668545Y-86942440D01*
X86683078Y-86925048D01*
X86691704Y-86856330D01*
X86668918Y-86808712D01*
X86669072Y-86806718D01*
X86669611Y-86806186D01*
X86670709Y-86805452D01*
X86661493Y-86791660D01*
X86661362Y-86789664D01*
X86663025Y-86788553D01*
X86664267Y-86788886D01*
G37*
G36*
X86664267Y-86288886D02*
G01*
X86675262Y-86296233D01*
X86694199Y-86300000D01*
X87993801Y-86300000D01*
X88012738Y-86296233D01*
X88023733Y-86288886D01*
X88025729Y-86288755D01*
X88026840Y-86290418D01*
X88026507Y-86291660D01*
X88017291Y-86305452D01*
X88019031Y-86306615D01*
X88019916Y-86308409D01*
X88019455Y-86309560D01*
X88004922Y-86326952D01*
X87996296Y-86395670D01*
X88019082Y-86443288D01*
X88018928Y-86445282D01*
X88018389Y-86445814D01*
X88017291Y-86446548D01*
X88026507Y-86460340D01*
X88026638Y-86462336D01*
X88024975Y-86463447D01*
X88023733Y-86463114D01*
X88012738Y-86455767D01*
X87993801Y-86452000D01*
X86694199Y-86452000D01*
X86675262Y-86455767D01*
X86664267Y-86463114D01*
X86662271Y-86463245D01*
X86661160Y-86461582D01*
X86661493Y-86460340D01*
X86670709Y-86446548D01*
X86668969Y-86445385D01*
X86668084Y-86443591D01*
X86668545Y-86442440D01*
X86683078Y-86425048D01*
X86691704Y-86356330D01*
X86668918Y-86308712D01*
X86669072Y-86306718D01*
X86669611Y-86306186D01*
X86670709Y-86305452D01*
X86661493Y-86291660D01*
X86661362Y-86289664D01*
X86663025Y-86288553D01*
X86664267Y-86288886D01*
G37*
G36*
X95364267Y-86288886D02*
G01*
X95375262Y-86296233D01*
X95394199Y-86300000D01*
X96693801Y-86300000D01*
X96712738Y-86296233D01*
X96723733Y-86288886D01*
X96725729Y-86288755D01*
X96726840Y-86290418D01*
X96726507Y-86291660D01*
X96717291Y-86305452D01*
X96719031Y-86306615D01*
X96719916Y-86308409D01*
X96719455Y-86309560D01*
X96704922Y-86326952D01*
X96696296Y-86395670D01*
X96719082Y-86443288D01*
X96718928Y-86445282D01*
X96718389Y-86445814D01*
X96717291Y-86446548D01*
X96726507Y-86460340D01*
X96726638Y-86462336D01*
X96724975Y-86463447D01*
X96723733Y-86463114D01*
X96712738Y-86455767D01*
X96693801Y-86452000D01*
X95394199Y-86452000D01*
X95375262Y-86455767D01*
X95364267Y-86463114D01*
X95362271Y-86463245D01*
X95361160Y-86461582D01*
X95361493Y-86460340D01*
X95370709Y-86446548D01*
X95368969Y-86445385D01*
X95368084Y-86443591D01*
X95368545Y-86442440D01*
X95383078Y-86425048D01*
X95391704Y-86356330D01*
X95368918Y-86308712D01*
X95369072Y-86306718D01*
X95369611Y-86306186D01*
X95370709Y-86305452D01*
X95361493Y-86291660D01*
X95361362Y-86289664D01*
X95363025Y-86288553D01*
X95364267Y-86288886D01*
G37*
G36*
X86664267Y-85788886D02*
G01*
X86675262Y-85796233D01*
X86694199Y-85800000D01*
X87993801Y-85800000D01*
X88012738Y-85796233D01*
X88023733Y-85788886D01*
X88025729Y-85788755D01*
X88026840Y-85790418D01*
X88026507Y-85791660D01*
X88017291Y-85805452D01*
X88019031Y-85806615D01*
X88019916Y-85808409D01*
X88019455Y-85809560D01*
X88004922Y-85826952D01*
X87996296Y-85895670D01*
X88019082Y-85943288D01*
X88018928Y-85945282D01*
X88018389Y-85945814D01*
X88017291Y-85946548D01*
X88026507Y-85960340D01*
X88026638Y-85962336D01*
X88024975Y-85963447D01*
X88023733Y-85963114D01*
X88012738Y-85955767D01*
X87993801Y-85952000D01*
X86694199Y-85952000D01*
X86675262Y-85955767D01*
X86664267Y-85963114D01*
X86662271Y-85963245D01*
X86661160Y-85961582D01*
X86661493Y-85960340D01*
X86670709Y-85946548D01*
X86668969Y-85945385D01*
X86668084Y-85943591D01*
X86668545Y-85942440D01*
X86683078Y-85925048D01*
X86691704Y-85856330D01*
X86668918Y-85808712D01*
X86669072Y-85806718D01*
X86669611Y-85806186D01*
X86670709Y-85805452D01*
X86661493Y-85791660D01*
X86661362Y-85789664D01*
X86663025Y-85788553D01*
X86664267Y-85788886D01*
G37*
G36*
X95364267Y-85788886D02*
G01*
X95375262Y-85796233D01*
X95394199Y-85800000D01*
X96693801Y-85800000D01*
X96712738Y-85796233D01*
X96723733Y-85788886D01*
X96725729Y-85788755D01*
X96726840Y-85790418D01*
X96726507Y-85791660D01*
X96717291Y-85805452D01*
X96719031Y-85806615D01*
X96719916Y-85808409D01*
X96719455Y-85809560D01*
X96704922Y-85826952D01*
X96696296Y-85895670D01*
X96719082Y-85943288D01*
X96718928Y-85945282D01*
X96718389Y-85945814D01*
X96717291Y-85946548D01*
X96726507Y-85960340D01*
X96726638Y-85962336D01*
X96724975Y-85963447D01*
X96723733Y-85963114D01*
X96712738Y-85955767D01*
X96693801Y-85952000D01*
X95394199Y-85952000D01*
X95375262Y-85955767D01*
X95364267Y-85963114D01*
X95362271Y-85963245D01*
X95361160Y-85961582D01*
X95361493Y-85960340D01*
X95370709Y-85946548D01*
X95368969Y-85945385D01*
X95368084Y-85943591D01*
X95368545Y-85942440D01*
X95383078Y-85925048D01*
X95391704Y-85856330D01*
X95368918Y-85808712D01*
X95369072Y-85806718D01*
X95369611Y-85806186D01*
X95370709Y-85805452D01*
X95361493Y-85791660D01*
X95361362Y-85789664D01*
X95363025Y-85788553D01*
X95364267Y-85788886D01*
G37*
G36*
X95364267Y-85288886D02*
G01*
X95375262Y-85296233D01*
X95394199Y-85300000D01*
X96693801Y-85300000D01*
X96712738Y-85296233D01*
X96723733Y-85288886D01*
X96725729Y-85288755D01*
X96726840Y-85290418D01*
X96726507Y-85291660D01*
X96717291Y-85305452D01*
X96719031Y-85306615D01*
X96719916Y-85308409D01*
X96719455Y-85309560D01*
X96704922Y-85326952D01*
X96696296Y-85395670D01*
X96719082Y-85443288D01*
X96718928Y-85445282D01*
X96718389Y-85445814D01*
X96717291Y-85446548D01*
X96726507Y-85460340D01*
X96726638Y-85462336D01*
X96724975Y-85463447D01*
X96723733Y-85463114D01*
X96712738Y-85455767D01*
X96693801Y-85452000D01*
X95394199Y-85452000D01*
X95375262Y-85455767D01*
X95364267Y-85463114D01*
X95362271Y-85463245D01*
X95361160Y-85461582D01*
X95361493Y-85460340D01*
X95370709Y-85446548D01*
X95368969Y-85445385D01*
X95368084Y-85443591D01*
X95368545Y-85442440D01*
X95383078Y-85425048D01*
X95391704Y-85356330D01*
X95368918Y-85308712D01*
X95369072Y-85306718D01*
X95369611Y-85306186D01*
X95370709Y-85305452D01*
X95361493Y-85291660D01*
X95361362Y-85289664D01*
X95363025Y-85288553D01*
X95364267Y-85288886D01*
G37*
G36*
X86664267Y-85288886D02*
G01*
X86675262Y-85296233D01*
X86694199Y-85300000D01*
X87993801Y-85300000D01*
X88012738Y-85296233D01*
X88023733Y-85288886D01*
X88025729Y-85288755D01*
X88026840Y-85290418D01*
X88026507Y-85291660D01*
X88017291Y-85305452D01*
X88019031Y-85306615D01*
X88019916Y-85308409D01*
X88019455Y-85309560D01*
X88004922Y-85326952D01*
X87996296Y-85395670D01*
X88019082Y-85443288D01*
X88018928Y-85445282D01*
X88018389Y-85445814D01*
X88017291Y-85446548D01*
X88026507Y-85460340D01*
X88026638Y-85462336D01*
X88024975Y-85463447D01*
X88023733Y-85463114D01*
X88012738Y-85455767D01*
X87993801Y-85452000D01*
X86694199Y-85452000D01*
X86675262Y-85455767D01*
X86664267Y-85463114D01*
X86662271Y-85463245D01*
X86661160Y-85461582D01*
X86661493Y-85460340D01*
X86670709Y-85446548D01*
X86668969Y-85445385D01*
X86668084Y-85443591D01*
X86668545Y-85442440D01*
X86683078Y-85425048D01*
X86691704Y-85356330D01*
X86668918Y-85308712D01*
X86669072Y-85306718D01*
X86669611Y-85306186D01*
X86670709Y-85305452D01*
X86661493Y-85291660D01*
X86661362Y-85289664D01*
X86663025Y-85288553D01*
X86664267Y-85288886D01*
G37*
G36*
X95364267Y-84788886D02*
G01*
X95375262Y-84796233D01*
X95394199Y-84800000D01*
X96693801Y-84800000D01*
X96712738Y-84796233D01*
X96723733Y-84788886D01*
X96725729Y-84788755D01*
X96726840Y-84790418D01*
X96726507Y-84791660D01*
X96717291Y-84805452D01*
X96719031Y-84806615D01*
X96719916Y-84808409D01*
X96719455Y-84809560D01*
X96704922Y-84826952D01*
X96696296Y-84895670D01*
X96719082Y-84943288D01*
X96718928Y-84945282D01*
X96718389Y-84945814D01*
X96717291Y-84946548D01*
X96726507Y-84960340D01*
X96726638Y-84962336D01*
X96724975Y-84963447D01*
X96723733Y-84963114D01*
X96712738Y-84955767D01*
X96693801Y-84952000D01*
X95394199Y-84952000D01*
X95375262Y-84955767D01*
X95364267Y-84963114D01*
X95362271Y-84963245D01*
X95361160Y-84961582D01*
X95361493Y-84960340D01*
X95370709Y-84946548D01*
X95368969Y-84945385D01*
X95368084Y-84943591D01*
X95368545Y-84942440D01*
X95383078Y-84925048D01*
X95391704Y-84856330D01*
X95368918Y-84808712D01*
X95369072Y-84806718D01*
X95369611Y-84806186D01*
X95370709Y-84805452D01*
X95361493Y-84791660D01*
X95361362Y-84789664D01*
X95363025Y-84788553D01*
X95364267Y-84788886D01*
G37*
G36*
X86664267Y-84788886D02*
G01*
X86675262Y-84796233D01*
X86694199Y-84800000D01*
X87993801Y-84800000D01*
X88012738Y-84796233D01*
X88023733Y-84788886D01*
X88025729Y-84788755D01*
X88026840Y-84790418D01*
X88026507Y-84791660D01*
X88017291Y-84805452D01*
X88019031Y-84806615D01*
X88019916Y-84808409D01*
X88019455Y-84809560D01*
X88004922Y-84826952D01*
X87996296Y-84895670D01*
X88019082Y-84943288D01*
X88018928Y-84945282D01*
X88018389Y-84945814D01*
X88017291Y-84946548D01*
X88026507Y-84960340D01*
X88026638Y-84962336D01*
X88024975Y-84963447D01*
X88023733Y-84963114D01*
X88012738Y-84955767D01*
X87993801Y-84952000D01*
X86694199Y-84952000D01*
X86675262Y-84955767D01*
X86664267Y-84963114D01*
X86662271Y-84963245D01*
X86661160Y-84961582D01*
X86661493Y-84960340D01*
X86670709Y-84946548D01*
X86668969Y-84945385D01*
X86668084Y-84943591D01*
X86668545Y-84942440D01*
X86683078Y-84925048D01*
X86691704Y-84856330D01*
X86668918Y-84808712D01*
X86669072Y-84806718D01*
X86669611Y-84806186D01*
X86670709Y-84805452D01*
X86661493Y-84791660D01*
X86661362Y-84789664D01*
X86663025Y-84788553D01*
X86664267Y-84788886D01*
G37*
G36*
X89109660Y-82343493D02*
G01*
X89123452Y-82352709D01*
X89124615Y-82350969D01*
X89126409Y-82350084D01*
X89127560Y-82350545D01*
X89144952Y-82365078D01*
X89213670Y-82373704D01*
X89261288Y-82350918D01*
X89263282Y-82351072D01*
X89263814Y-82351611D01*
X89264548Y-82352709D01*
X89278340Y-82343493D01*
X89280336Y-82343362D01*
X89281447Y-82345025D01*
X89281114Y-82346267D01*
X89273767Y-82357262D01*
X89270000Y-82376199D01*
X89270000Y-83675801D01*
X89273767Y-83694738D01*
X89281114Y-83705733D01*
X89281245Y-83707729D01*
X89279582Y-83708840D01*
X89278340Y-83708507D01*
X89264548Y-83699291D01*
X89263385Y-83701031D01*
X89261591Y-83701916D01*
X89260440Y-83701455D01*
X89243048Y-83686922D01*
X89174330Y-83678296D01*
X89126712Y-83701082D01*
X89124718Y-83700928D01*
X89124186Y-83700389D01*
X89123452Y-83699291D01*
X89109660Y-83708507D01*
X89107664Y-83708638D01*
X89106553Y-83706975D01*
X89106886Y-83705733D01*
X89114233Y-83694738D01*
X89118000Y-83675801D01*
X89118000Y-82376199D01*
X89114233Y-82357262D01*
X89106886Y-82346267D01*
X89106755Y-82344271D01*
X89108418Y-82343160D01*
X89109660Y-82343493D01*
G37*
G36*
X89609660Y-82343493D02*
G01*
X89623452Y-82352709D01*
X89624615Y-82350969D01*
X89626409Y-82350084D01*
X89627560Y-82350545D01*
X89644952Y-82365078D01*
X89713670Y-82373704D01*
X89761288Y-82350918D01*
X89763282Y-82351072D01*
X89763814Y-82351611D01*
X89764548Y-82352709D01*
X89778340Y-82343493D01*
X89780336Y-82343362D01*
X89781447Y-82345025D01*
X89781114Y-82346267D01*
X89773767Y-82357262D01*
X89770000Y-82376199D01*
X89770000Y-83675801D01*
X89773767Y-83694738D01*
X89781114Y-83705733D01*
X89781245Y-83707729D01*
X89779582Y-83708840D01*
X89778340Y-83708507D01*
X89764548Y-83699291D01*
X89763385Y-83701031D01*
X89761591Y-83701916D01*
X89760440Y-83701455D01*
X89743048Y-83686922D01*
X89674330Y-83678296D01*
X89626712Y-83701082D01*
X89624718Y-83700928D01*
X89624186Y-83700389D01*
X89623452Y-83699291D01*
X89609660Y-83708507D01*
X89607664Y-83708638D01*
X89606553Y-83706975D01*
X89606886Y-83705733D01*
X89614233Y-83694738D01*
X89618000Y-83675801D01*
X89618000Y-82376199D01*
X89614233Y-82357262D01*
X89606886Y-82346267D01*
X89606755Y-82344271D01*
X89608418Y-82343160D01*
X89609660Y-82343493D01*
G37*
G36*
X91109660Y-82343493D02*
G01*
X91123452Y-82352709D01*
X91124615Y-82350969D01*
X91126409Y-82350084D01*
X91127560Y-82350545D01*
X91144952Y-82365078D01*
X91213670Y-82373704D01*
X91261288Y-82350918D01*
X91263282Y-82351072D01*
X91263814Y-82351611D01*
X91264548Y-82352709D01*
X91278340Y-82343493D01*
X91280336Y-82343362D01*
X91281447Y-82345025D01*
X91281114Y-82346267D01*
X91273767Y-82357262D01*
X91270000Y-82376199D01*
X91270000Y-83675801D01*
X91273767Y-83694738D01*
X91281114Y-83705733D01*
X91281245Y-83707729D01*
X91279582Y-83708840D01*
X91278340Y-83708507D01*
X91264548Y-83699291D01*
X91263385Y-83701031D01*
X91261591Y-83701916D01*
X91260440Y-83701455D01*
X91243048Y-83686922D01*
X91174330Y-83678296D01*
X91126712Y-83701082D01*
X91124718Y-83700928D01*
X91124186Y-83700389D01*
X91123452Y-83699291D01*
X91109660Y-83708507D01*
X91107664Y-83708638D01*
X91106553Y-83706975D01*
X91106886Y-83705733D01*
X91114233Y-83694738D01*
X91118000Y-83675801D01*
X91118000Y-82376199D01*
X91114233Y-82357262D01*
X91106886Y-82346267D01*
X91106755Y-82344271D01*
X91108418Y-82343160D01*
X91109660Y-82343493D01*
G37*
G36*
X91609660Y-82343493D02*
G01*
X91623452Y-82352709D01*
X91624615Y-82350969D01*
X91626409Y-82350084D01*
X91627560Y-82350545D01*
X91644952Y-82365078D01*
X91713670Y-82373704D01*
X91761288Y-82350918D01*
X91763282Y-82351072D01*
X91763814Y-82351611D01*
X91764548Y-82352709D01*
X91778340Y-82343493D01*
X91780336Y-82343362D01*
X91781447Y-82345025D01*
X91781114Y-82346267D01*
X91773767Y-82357262D01*
X91770000Y-82376199D01*
X91770000Y-83675801D01*
X91773767Y-83694738D01*
X91781114Y-83705733D01*
X91781245Y-83707729D01*
X91779582Y-83708840D01*
X91778340Y-83708507D01*
X91764548Y-83699291D01*
X91763385Y-83701031D01*
X91761591Y-83701916D01*
X91760440Y-83701455D01*
X91743048Y-83686922D01*
X91674330Y-83678296D01*
X91626712Y-83701082D01*
X91624718Y-83700928D01*
X91624186Y-83700389D01*
X91623452Y-83699291D01*
X91609660Y-83708507D01*
X91607664Y-83708638D01*
X91606553Y-83706975D01*
X91606886Y-83705733D01*
X91614233Y-83694738D01*
X91618000Y-83675801D01*
X91618000Y-82376199D01*
X91614233Y-82357262D01*
X91606886Y-82346267D01*
X91606755Y-82344271D01*
X91608418Y-82343160D01*
X91609660Y-82343493D01*
G37*
G36*
X93609660Y-82343493D02*
G01*
X93623452Y-82352709D01*
X93624615Y-82350969D01*
X93626409Y-82350084D01*
X93627560Y-82350545D01*
X93644952Y-82365078D01*
X93713670Y-82373704D01*
X93761288Y-82350918D01*
X93763282Y-82351072D01*
X93763814Y-82351611D01*
X93764548Y-82352709D01*
X93778340Y-82343493D01*
X93780336Y-82343362D01*
X93781447Y-82345025D01*
X93781114Y-82346267D01*
X93773767Y-82357262D01*
X93770000Y-82376199D01*
X93770000Y-83675801D01*
X93773767Y-83694738D01*
X93781114Y-83705733D01*
X93781245Y-83707729D01*
X93779582Y-83708840D01*
X93778340Y-83708507D01*
X93764548Y-83699291D01*
X93763385Y-83701031D01*
X93761591Y-83701916D01*
X93760440Y-83701455D01*
X93743048Y-83686922D01*
X93674330Y-83678296D01*
X93626712Y-83701082D01*
X93624718Y-83700928D01*
X93624186Y-83700389D01*
X93623452Y-83699291D01*
X93609660Y-83708507D01*
X93607664Y-83708638D01*
X93606553Y-83706975D01*
X93606886Y-83705733D01*
X93614233Y-83694738D01*
X93618000Y-83675801D01*
X93618000Y-82376199D01*
X93614233Y-82357262D01*
X93606886Y-82346267D01*
X93606755Y-82344271D01*
X93608418Y-82343160D01*
X93609660Y-82343493D01*
G37*
G36*
X90109660Y-82343493D02*
G01*
X90123452Y-82352709D01*
X90124615Y-82350969D01*
X90126409Y-82350084D01*
X90127560Y-82350545D01*
X90144952Y-82365078D01*
X90213670Y-82373704D01*
X90261288Y-82350918D01*
X90263282Y-82351072D01*
X90263814Y-82351611D01*
X90264548Y-82352709D01*
X90278340Y-82343493D01*
X90280336Y-82343362D01*
X90281447Y-82345025D01*
X90281114Y-82346267D01*
X90273767Y-82357262D01*
X90270000Y-82376199D01*
X90270000Y-83675801D01*
X90273767Y-83694738D01*
X90281114Y-83705733D01*
X90281245Y-83707729D01*
X90279582Y-83708840D01*
X90278340Y-83708507D01*
X90264548Y-83699291D01*
X90263385Y-83701031D01*
X90261591Y-83701916D01*
X90260440Y-83701455D01*
X90243048Y-83686922D01*
X90174330Y-83678296D01*
X90126712Y-83701082D01*
X90124718Y-83700928D01*
X90124186Y-83700389D01*
X90123452Y-83699291D01*
X90109660Y-83708507D01*
X90107664Y-83708638D01*
X90106553Y-83706975D01*
X90106886Y-83705733D01*
X90114233Y-83694738D01*
X90118000Y-83675801D01*
X90118000Y-82376199D01*
X90114233Y-82357262D01*
X90106886Y-82346267D01*
X90106755Y-82344271D01*
X90108418Y-82343160D01*
X90109660Y-82343493D01*
G37*
G36*
X92609660Y-82343493D02*
G01*
X92623452Y-82352709D01*
X92624615Y-82350969D01*
X92626409Y-82350084D01*
X92627560Y-82350545D01*
X92644952Y-82365078D01*
X92713670Y-82373704D01*
X92761288Y-82350918D01*
X92763282Y-82351072D01*
X92763814Y-82351611D01*
X92764548Y-82352709D01*
X92778340Y-82343493D01*
X92780336Y-82343362D01*
X92781447Y-82345025D01*
X92781114Y-82346267D01*
X92773767Y-82357262D01*
X92770000Y-82376199D01*
X92770000Y-83675801D01*
X92773767Y-83694738D01*
X92781114Y-83705733D01*
X92781245Y-83707729D01*
X92779582Y-83708840D01*
X92778340Y-83708507D01*
X92764548Y-83699291D01*
X92763385Y-83701031D01*
X92761591Y-83701916D01*
X92760440Y-83701455D01*
X92743048Y-83686922D01*
X92674330Y-83678296D01*
X92626712Y-83701082D01*
X92624718Y-83700928D01*
X92624186Y-83700389D01*
X92623452Y-83699291D01*
X92609660Y-83708507D01*
X92607664Y-83708638D01*
X92606553Y-83706975D01*
X92606886Y-83705733D01*
X92614233Y-83694738D01*
X92618000Y-83675801D01*
X92618000Y-82376199D01*
X92614233Y-82357262D01*
X92606886Y-82346267D01*
X92606755Y-82344271D01*
X92608418Y-82343160D01*
X92609660Y-82343493D01*
G37*
G36*
X92109660Y-82343493D02*
G01*
X92123452Y-82352709D01*
X92124615Y-82350969D01*
X92126409Y-82350084D01*
X92127560Y-82350545D01*
X92144952Y-82365078D01*
X92213670Y-82373704D01*
X92261288Y-82350918D01*
X92263282Y-82351072D01*
X92263814Y-82351611D01*
X92264548Y-82352709D01*
X92278340Y-82343493D01*
X92280336Y-82343362D01*
X92281447Y-82345025D01*
X92281114Y-82346267D01*
X92273767Y-82357262D01*
X92270000Y-82376199D01*
X92270000Y-83675801D01*
X92273767Y-83694738D01*
X92281114Y-83705733D01*
X92281245Y-83707729D01*
X92279582Y-83708840D01*
X92278340Y-83708507D01*
X92264548Y-83699291D01*
X92263385Y-83701031D01*
X92261591Y-83701916D01*
X92260440Y-83701455D01*
X92243048Y-83686922D01*
X92174330Y-83678296D01*
X92126712Y-83701082D01*
X92124718Y-83700928D01*
X92124186Y-83700389D01*
X92123452Y-83699291D01*
X92109660Y-83708507D01*
X92107664Y-83708638D01*
X92106553Y-83706975D01*
X92106886Y-83705733D01*
X92114233Y-83694738D01*
X92118000Y-83675801D01*
X92118000Y-82376199D01*
X92114233Y-82357262D01*
X92106886Y-82346267D01*
X92106755Y-82344271D01*
X92108418Y-82343160D01*
X92109660Y-82343493D01*
G37*
G36*
X94109660Y-82343493D02*
G01*
X94123452Y-82352709D01*
X94124615Y-82350969D01*
X94126409Y-82350084D01*
X94127560Y-82350545D01*
X94144952Y-82365078D01*
X94213670Y-82373704D01*
X94261288Y-82350918D01*
X94263282Y-82351072D01*
X94263814Y-82351611D01*
X94264548Y-82352709D01*
X94278340Y-82343493D01*
X94280336Y-82343362D01*
X94281447Y-82345025D01*
X94281114Y-82346267D01*
X94273767Y-82357262D01*
X94270000Y-82376199D01*
X94270000Y-83675801D01*
X94273767Y-83694738D01*
X94281114Y-83705733D01*
X94281245Y-83707729D01*
X94279582Y-83708840D01*
X94278340Y-83708507D01*
X94264548Y-83699291D01*
X94263385Y-83701031D01*
X94261591Y-83701916D01*
X94260440Y-83701455D01*
X94243048Y-83686922D01*
X94174330Y-83678296D01*
X94126712Y-83701082D01*
X94124718Y-83700928D01*
X94124186Y-83700389D01*
X94123452Y-83699291D01*
X94109660Y-83708507D01*
X94107664Y-83708638D01*
X94106553Y-83706975D01*
X94106886Y-83705733D01*
X94114233Y-83694738D01*
X94118000Y-83675801D01*
X94118000Y-82376199D01*
X94114233Y-82357262D01*
X94106886Y-82346267D01*
X94106755Y-82344271D01*
X94108418Y-82343160D01*
X94109660Y-82343493D01*
G37*
G36*
X90609660Y-82343493D02*
G01*
X90623452Y-82352709D01*
X90624615Y-82350969D01*
X90626409Y-82350084D01*
X90627560Y-82350545D01*
X90644952Y-82365078D01*
X90713670Y-82373704D01*
X90761288Y-82350918D01*
X90763282Y-82351072D01*
X90763814Y-82351611D01*
X90764548Y-82352709D01*
X90778340Y-82343493D01*
X90780336Y-82343362D01*
X90781447Y-82345025D01*
X90781114Y-82346267D01*
X90773767Y-82357262D01*
X90770000Y-82376199D01*
X90770000Y-83675801D01*
X90773767Y-83694738D01*
X90781114Y-83705733D01*
X90781245Y-83707729D01*
X90779582Y-83708840D01*
X90778340Y-83708507D01*
X90764548Y-83699291D01*
X90763385Y-83701031D01*
X90761591Y-83701916D01*
X90760440Y-83701455D01*
X90743048Y-83686922D01*
X90674330Y-83678296D01*
X90626712Y-83701082D01*
X90624718Y-83700928D01*
X90624186Y-83700389D01*
X90623452Y-83699291D01*
X90609660Y-83708507D01*
X90607664Y-83708638D01*
X90606553Y-83706975D01*
X90606886Y-83705733D01*
X90614233Y-83694738D01*
X90618000Y-83675801D01*
X90618000Y-82376199D01*
X90614233Y-82357262D01*
X90606886Y-82346267D01*
X90606755Y-82344271D01*
X90608418Y-82343160D01*
X90609660Y-82343493D01*
G37*
G36*
X93109660Y-82343493D02*
G01*
X93123452Y-82352709D01*
X93124615Y-82350969D01*
X93126409Y-82350084D01*
X93127560Y-82350545D01*
X93144952Y-82365078D01*
X93213670Y-82373704D01*
X93261288Y-82350918D01*
X93263282Y-82351072D01*
X93263814Y-82351611D01*
X93264548Y-82352709D01*
X93278340Y-82343493D01*
X93280336Y-82343362D01*
X93281447Y-82345025D01*
X93281114Y-82346267D01*
X93273767Y-82357262D01*
X93270000Y-82376199D01*
X93270000Y-83675801D01*
X93273767Y-83694738D01*
X93281114Y-83705733D01*
X93281245Y-83707729D01*
X93279582Y-83708840D01*
X93278340Y-83708507D01*
X93264548Y-83699291D01*
X93263385Y-83701031D01*
X93261591Y-83701916D01*
X93260440Y-83701455D01*
X93243048Y-83686922D01*
X93174330Y-83678296D01*
X93126712Y-83701082D01*
X93124718Y-83700928D01*
X93124186Y-83700389D01*
X93123452Y-83699291D01*
X93109660Y-83708507D01*
X93107664Y-83708638D01*
X93106553Y-83706975D01*
X93106886Y-83705733D01*
X93114233Y-83694738D01*
X93118000Y-83675801D01*
X93118000Y-82376199D01*
X93114233Y-82357262D01*
X93106886Y-82346267D01*
X93106755Y-82344271D01*
X93108418Y-82343160D01*
X93109660Y-82343493D01*
G37*
G36*
X97338633Y-71990517D02*
G01*
X97339197Y-71992436D01*
X97338916Y-71993075D01*
X97328767Y-72008263D01*
X97325000Y-72027199D01*
X97325000Y-73476801D01*
X97328767Y-73495738D01*
X97338814Y-73510773D01*
X97338945Y-73512768D01*
X97337282Y-73513880D01*
X97336553Y-73513793D01*
X97276212Y-73494898D01*
X97211310Y-73513955D01*
X97209367Y-73513483D01*
X97208803Y-73511564D01*
X97209084Y-73510925D01*
X97219233Y-73495737D01*
X97223000Y-73476801D01*
X97223000Y-72027199D01*
X97219233Y-72008262D01*
X97209186Y-71993227D01*
X97209055Y-71991232D01*
X97210718Y-71990120D01*
X97211447Y-71990207D01*
X97271788Y-72009102D01*
X97336690Y-71990045D01*
X97338633Y-71990517D01*
G37*
G36*
X98338633Y-71990517D02*
G01*
X98339197Y-71992436D01*
X98338916Y-71993075D01*
X98328767Y-72008263D01*
X98325000Y-72027199D01*
X98325000Y-73476801D01*
X98328767Y-73495738D01*
X98338814Y-73510773D01*
X98338945Y-73512768D01*
X98337282Y-73513880D01*
X98336553Y-73513793D01*
X98276212Y-73494898D01*
X98211310Y-73513955D01*
X98209367Y-73513483D01*
X98208803Y-73511564D01*
X98209084Y-73510925D01*
X98219233Y-73495737D01*
X98223000Y-73476801D01*
X98223000Y-72027199D01*
X98219233Y-72008262D01*
X98209186Y-71993227D01*
X98209055Y-71991232D01*
X98210718Y-71990120D01*
X98211447Y-71990207D01*
X98271788Y-72009102D01*
X98336690Y-71990045D01*
X98338633Y-71990517D01*
G37*
G36*
X97838633Y-71990517D02*
G01*
X97839197Y-71992436D01*
X97838916Y-71993075D01*
X97828767Y-72008263D01*
X97825000Y-72027199D01*
X97825000Y-73476801D01*
X97828767Y-73495738D01*
X97838814Y-73510773D01*
X97838945Y-73512768D01*
X97837282Y-73513880D01*
X97836553Y-73513793D01*
X97776212Y-73494898D01*
X97711310Y-73513955D01*
X97709367Y-73513483D01*
X97708803Y-73511564D01*
X97709084Y-73510925D01*
X97719233Y-73495737D01*
X97723000Y-73476801D01*
X97723000Y-72027199D01*
X97719233Y-72008262D01*
X97709186Y-71993227D01*
X97709055Y-71991232D01*
X97710718Y-71990120D01*
X97711447Y-71990207D01*
X97771788Y-72009102D01*
X97836690Y-71990045D01*
X97838633Y-71990517D01*
G37*
G36*
X93988633Y-71990517D02*
G01*
X93989197Y-71992436D01*
X93988916Y-71993075D01*
X93978767Y-72008263D01*
X93975000Y-72027199D01*
X93975000Y-73476801D01*
X93978767Y-73495738D01*
X93988814Y-73510773D01*
X93988945Y-73512768D01*
X93987282Y-73513880D01*
X93986553Y-73513793D01*
X93926212Y-73494898D01*
X93861310Y-73513955D01*
X93859367Y-73513483D01*
X93858803Y-73511564D01*
X93859084Y-73510925D01*
X93869233Y-73495737D01*
X93873000Y-73476801D01*
X93873000Y-72027199D01*
X93869233Y-72008262D01*
X93859186Y-71993227D01*
X93859055Y-71991232D01*
X93860718Y-71990120D01*
X93861447Y-71990207D01*
X93921788Y-72009102D01*
X93986690Y-71990045D01*
X93988633Y-71990517D01*
G37*
G36*
X96838633Y-71990517D02*
G01*
X96839197Y-71992436D01*
X96838916Y-71993075D01*
X96828767Y-72008263D01*
X96825000Y-72027199D01*
X96825000Y-73476801D01*
X96828767Y-73495738D01*
X96838814Y-73510773D01*
X96838945Y-73512768D01*
X96837282Y-73513880D01*
X96836553Y-73513793D01*
X96776212Y-73494898D01*
X96711310Y-73513955D01*
X96709367Y-73513483D01*
X96708803Y-73511564D01*
X96709084Y-73510925D01*
X96719233Y-73495737D01*
X96723000Y-73476801D01*
X96723000Y-72027199D01*
X96719233Y-72008262D01*
X96709186Y-71993227D01*
X96709055Y-71991232D01*
X96710718Y-71990120D01*
X96711447Y-71990207D01*
X96771788Y-72009102D01*
X96836690Y-71990045D01*
X96838633Y-71990517D01*
G37*
G36*
X99688633Y-71990517D02*
G01*
X99689197Y-71992436D01*
X99688916Y-71993075D01*
X99678767Y-72008263D01*
X99675000Y-72027199D01*
X99675000Y-73476801D01*
X99678767Y-73495738D01*
X99688814Y-73510773D01*
X99688945Y-73512768D01*
X99687282Y-73513880D01*
X99686553Y-73513793D01*
X99626212Y-73494898D01*
X99561310Y-73513955D01*
X99559367Y-73513483D01*
X99558803Y-73511564D01*
X99559084Y-73510925D01*
X99569233Y-73495737D01*
X99573000Y-73476801D01*
X99573000Y-72027199D01*
X99569233Y-72008262D01*
X99559186Y-71993227D01*
X99559055Y-71991232D01*
X99560718Y-71990120D01*
X99561447Y-71990207D01*
X99621788Y-72009102D01*
X99686690Y-71990045D01*
X99688633Y-71990517D01*
G37*
G36*
X95338633Y-71990517D02*
G01*
X95339197Y-71992436D01*
X95338916Y-71993075D01*
X95328767Y-72008263D01*
X95325000Y-72027199D01*
X95325000Y-73476801D01*
X95328767Y-73495738D01*
X95338814Y-73510773D01*
X95338945Y-73512768D01*
X95337282Y-73513880D01*
X95336553Y-73513793D01*
X95276212Y-73494898D01*
X95211310Y-73513955D01*
X95209367Y-73513483D01*
X95208803Y-73511564D01*
X95209084Y-73510925D01*
X95219233Y-73495737D01*
X95223000Y-73476801D01*
X95223000Y-72027199D01*
X95219233Y-72008262D01*
X95209186Y-71993227D01*
X95209055Y-71991232D01*
X95210718Y-71990120D01*
X95211447Y-71990207D01*
X95271788Y-72009102D01*
X95336690Y-71990045D01*
X95338633Y-71990517D01*
G37*
G36*
X95838633Y-71990517D02*
G01*
X95839197Y-71992436D01*
X95838916Y-71993075D01*
X95828767Y-72008263D01*
X95825000Y-72027199D01*
X95825000Y-73476801D01*
X95828767Y-73495738D01*
X95838814Y-73510773D01*
X95838945Y-73512768D01*
X95837282Y-73513880D01*
X95836553Y-73513793D01*
X95776212Y-73494898D01*
X95711310Y-73513955D01*
X95709367Y-73513483D01*
X95708803Y-73511564D01*
X95709084Y-73510925D01*
X95719233Y-73495737D01*
X95723000Y-73476801D01*
X95723000Y-72027199D01*
X95719233Y-72008262D01*
X95709186Y-71993227D01*
X95709055Y-71991232D01*
X95710718Y-71990120D01*
X95711447Y-71990207D01*
X95771788Y-72009102D01*
X95836690Y-71990045D01*
X95838633Y-71990517D01*
G37*
G36*
X96338633Y-71990517D02*
G01*
X96339197Y-71992436D01*
X96338916Y-71993075D01*
X96328767Y-72008263D01*
X96325000Y-72027199D01*
X96325000Y-73476801D01*
X96328767Y-73495738D01*
X96338814Y-73510773D01*
X96338945Y-73512768D01*
X96337282Y-73513880D01*
X96336553Y-73513793D01*
X96276212Y-73494898D01*
X96211310Y-73513955D01*
X96209367Y-73513483D01*
X96208803Y-73511564D01*
X96209084Y-73510925D01*
X96219233Y-73495737D01*
X96223000Y-73476801D01*
X96223000Y-72027199D01*
X96219233Y-72008262D01*
X96209186Y-71993227D01*
X96209055Y-71991232D01*
X96210718Y-71990120D01*
X96211447Y-71990207D01*
X96271788Y-72009102D01*
X96336690Y-71990045D01*
X96338633Y-71990517D01*
G37*
G36*
X94664660Y-71994493D02*
G01*
X94678452Y-72003709D01*
X94679615Y-72001969D01*
X94681409Y-72001084D01*
X94682560Y-72001545D01*
X94699952Y-72016078D01*
X94768670Y-72024704D01*
X94816288Y-72001918D01*
X94818282Y-72002072D01*
X94818814Y-72002611D01*
X94819548Y-72003709D01*
X94833340Y-71994493D01*
X94835336Y-71994362D01*
X94836447Y-71996025D01*
X94836114Y-71997267D01*
X94828767Y-72008262D01*
X94825000Y-72027199D01*
X94825000Y-73476801D01*
X94828767Y-73495738D01*
X94836114Y-73506733D01*
X94836245Y-73508729D01*
X94834582Y-73509840D01*
X94833340Y-73509507D01*
X94819548Y-73500291D01*
X94818385Y-73502031D01*
X94816591Y-73502916D01*
X94815440Y-73502455D01*
X94798048Y-73487922D01*
X94729330Y-73479296D01*
X94681712Y-73502082D01*
X94679718Y-73501928D01*
X94679186Y-73501389D01*
X94678452Y-73500291D01*
X94664660Y-73509507D01*
X94662664Y-73509638D01*
X94661553Y-73507975D01*
X94661886Y-73506733D01*
X94669233Y-73495738D01*
X94673000Y-73476801D01*
X94673000Y-72027199D01*
X94669233Y-72008262D01*
X94661886Y-71997267D01*
X94661755Y-71995271D01*
X94663418Y-71994160D01*
X94664660Y-71994493D01*
G37*
G36*
X98714660Y-71994493D02*
G01*
X98728452Y-72003709D01*
X98729615Y-72001969D01*
X98731409Y-72001084D01*
X98732560Y-72001545D01*
X98749952Y-72016078D01*
X98818670Y-72024704D01*
X98866288Y-72001918D01*
X98868282Y-72002072D01*
X98868814Y-72002611D01*
X98869548Y-72003709D01*
X98883340Y-71994493D01*
X98885336Y-71994362D01*
X98886447Y-71996025D01*
X98886114Y-71997267D01*
X98878767Y-72008262D01*
X98875000Y-72027199D01*
X98875000Y-73476801D01*
X98878767Y-73495738D01*
X98886114Y-73506733D01*
X98886245Y-73508729D01*
X98884582Y-73509840D01*
X98883340Y-73509507D01*
X98869548Y-73500291D01*
X98868385Y-73502031D01*
X98866591Y-73502916D01*
X98865440Y-73502455D01*
X98848048Y-73487922D01*
X98779330Y-73479296D01*
X98731712Y-73502082D01*
X98729718Y-73501928D01*
X98729186Y-73501389D01*
X98728452Y-73500291D01*
X98714660Y-73509507D01*
X98712664Y-73509638D01*
X98711553Y-73507975D01*
X98711886Y-73506733D01*
X98719233Y-73495738D01*
X98723000Y-73476801D01*
X98723000Y-72027199D01*
X98719233Y-72008262D01*
X98711886Y-71997267D01*
X98711755Y-71995271D01*
X98713418Y-71994160D01*
X98714660Y-71994493D01*
G37*
G36*
X93006919Y-71881641D02*
G01*
X93026596Y-71948656D01*
X93078939Y-71994011D01*
X93147558Y-72003877D01*
X93188597Y-71988151D01*
X93190573Y-71988465D01*
X93191288Y-71990333D01*
X93190424Y-71991682D01*
X93189380Y-71992380D01*
X93178767Y-72008262D01*
X93175000Y-72027199D01*
X93175000Y-72708946D01*
X93174000Y-72710678D01*
X93172000Y-72710678D01*
X93171081Y-72709509D01*
X93151404Y-72642494D01*
X93099061Y-72597139D01*
X93030508Y-72587282D01*
X92967352Y-72616125D01*
X92947297Y-72638323D01*
X92909466Y-72692152D01*
X92907652Y-72692994D01*
X92906016Y-72691844D01*
X92906130Y-72689948D01*
X92955519Y-72610291D01*
X92997109Y-72467136D01*
X93003000Y-72386922D01*
X93003000Y-71882204D01*
X93004000Y-71880472D01*
X93006000Y-71880472D01*
X93006919Y-71881641D01*
G37*
G36*
X100544358Y-71880736D02*
G01*
X100545000Y-71882204D01*
X100545000Y-72386868D01*
X100565240Y-72534629D01*
X100616316Y-72652658D01*
X100616086Y-72654644D01*
X100614250Y-72655439D01*
X100612832Y-72654585D01*
X100601526Y-72638135D01*
X100547576Y-72594235D01*
X100478749Y-72586504D01*
X100416670Y-72617210D01*
X100380961Y-72676748D01*
X100376984Y-72707813D01*
X100375772Y-72709404D01*
X100373788Y-72709150D01*
X100373000Y-72707559D01*
X100373000Y-72027199D01*
X100369233Y-72008262D01*
X100358620Y-71992380D01*
X100355577Y-71990346D01*
X100354692Y-71988552D01*
X100355804Y-71986889D01*
X100357286Y-71986774D01*
X100415809Y-72005099D01*
X100482599Y-71986775D01*
X100528925Y-71935201D01*
X100541050Y-71881761D01*
X100542408Y-71880294D01*
X100544358Y-71880736D01*
G37*
M02*
