M48
;DRILL file {KiCad 5.0.2+dfsg1-1} date sam. 05 sept. 2020 17:33:37 CEST
;FORMAT={-:-/ absolute / inch / decimal}
FMAT,2
INCH,TZ
T1C0.0256
T2C0.0315
T3C0.0669
T4C0.0748
T5C0.1575
%
G90
G05
T1
X3.6962Y-2.8074
X3.9238Y-2.8074
T2
X3.315Y-2.668
X3.315Y-2.9436
T3
X6.46Y-4.33
X6.86Y-4.33
X4.61Y-5.18
X5.01Y-5.18
X5.71Y-4.23
X6.11Y-4.23
X7.21Y-3.23
X7.61Y-3.23
X7.96Y-4.83
X8.36Y-4.83
X3.741Y-5.4692
X4.099Y-5.2908
X4.21Y-4.43
X4.61Y-4.43
X7.21Y-4.73
X7.61Y-4.73
X6.46Y-3.58
X6.86Y-3.58
X6.46Y-2.83
X6.86Y-2.83
X6.11Y-5.08
X6.51Y-5.08
X7.21Y-3.98
X7.61Y-3.98
X4.96Y-2.83
X5.36Y-2.83
X5.71Y-2.73
X6.11Y-2.73
X5.71Y-3.48
X6.11Y-3.48
X4.96Y-3.58
X5.36Y-3.58
X4.21Y-2.93
X4.61Y-2.93
X4.96Y-4.33
X5.36Y-4.33
X5.36Y-5.08
X5.76Y-5.08
X4.21Y-3.68
X4.61Y-3.68
X7.96Y-4.08
X8.36Y-4.08
X7.96Y-3.33
X8.36Y-3.33
T4
X4.1935Y-3.68
X4.6265Y-3.68
X7.9435Y-4.08
X8.3765Y-4.08
X7.9435Y-3.33
X8.3765Y-3.33
X6.4435Y-4.33
X6.8765Y-4.33
X4.5935Y-5.18
X5.0265Y-5.18
X5.6935Y-4.23
X6.1265Y-4.23
X7.1935Y-3.23
X7.6265Y-3.23
X7.9435Y-4.83
X8.3765Y-4.83
X3.7262Y-5.4766
X4.1138Y-5.2834
X4.1935Y-4.43
X4.6265Y-4.43
X7.1935Y-4.73
X7.6265Y-4.73
X6.4435Y-3.58
X6.8765Y-3.58
X6.4435Y-2.83
X6.8765Y-2.83
X6.0935Y-5.08
X6.5265Y-5.08
X7.1935Y-3.98
X7.6265Y-3.98
X4.9435Y-2.83
X5.3765Y-2.83
X5.6935Y-2.73
X6.1265Y-2.73
X5.6935Y-3.48
X6.1265Y-3.48
X4.9435Y-3.58
X5.3765Y-3.58
X4.1935Y-2.93
X4.6265Y-2.93
X4.9435Y-4.33
X5.3765Y-4.33
X5.3435Y-5.08
X5.7765Y-5.08
T5
X6.66Y-4.33
X4.81Y-5.18
X5.91Y-4.23
X7.41Y-3.23
X8.16Y-4.83
X3.92Y-5.38
X4.41Y-4.43
X7.41Y-4.73
X6.66Y-3.58
X6.66Y-2.83
X6.31Y-5.08
X7.41Y-3.98
X5.16Y-2.83
X5.91Y-2.73
X5.91Y-3.48
X5.16Y-3.58
X4.41Y-2.93
X5.16Y-4.33
X5.56Y-5.08
X4.41Y-3.68
X8.16Y-4.08
X8.16Y-3.33
T0
M30
