G04 #@! TF.GenerationSoftware,KiCad,Pcbnew,5.1.9+dfsg1-1*
G04 #@! TF.CreationDate,2021-12-26T21:48:47+01:00*
G04 #@! TF.ProjectId,left,6c656674-2e6b-4696-9361-645f70636258,rev?*
G04 #@! TF.SameCoordinates,Original*
G04 #@! TF.FileFunction,Legend,Bot*
G04 #@! TF.FilePolarity,Positive*
%FSLAX46Y46*%
G04 Gerber Fmt 4.6, Leading zero omitted, Abs format (unit mm)*
G04 Created by KiCad (PCBNEW 5.1.9+dfsg1-1) date 2021-12-26 21:48:47*
%MOMM*%
%LPD*%
G01*
G04 APERTURE LIST*
%ADD10C,0.300000*%
%ADD11C,0.120000*%
%ADD12C,0.150000*%
%ADD13C,2.200000*%
%ADD14C,4.000000*%
%ADD15C,1.900000*%
%ADD16C,1.700000*%
%ADD17O,1.600000X2.000000*%
%ADD18C,0.800000*%
%ADD19R,2.500000X1.000000*%
%ADD20O,1.000000X2.100000*%
%ADD21C,0.650000*%
%ADD22O,1.000000X1.600000*%
G04 APERTURE END LIST*
D10*
X234953571Y-62043571D02*
X235667857Y-62043571D01*
X235739285Y-62757857D01*
X235667857Y-62686428D01*
X235525000Y-62615000D01*
X235167857Y-62615000D01*
X235025000Y-62686428D01*
X234953571Y-62757857D01*
X234882142Y-62900714D01*
X234882142Y-63257857D01*
X234953571Y-63400714D01*
X235025000Y-63472142D01*
X235167857Y-63543571D01*
X235525000Y-63543571D01*
X235667857Y-63472142D01*
X235739285Y-63400714D01*
X234453571Y-62043571D02*
X233953571Y-63543571D01*
X233453571Y-62043571D01*
X235667857Y-66083571D02*
X235667857Y-64583571D01*
X235096428Y-64583571D01*
X234953571Y-64655000D01*
X234882142Y-64726428D01*
X234810714Y-64869285D01*
X234810714Y-65083571D01*
X234882142Y-65226428D01*
X234953571Y-65297857D01*
X235096428Y-65369285D01*
X235667857Y-65369285D01*
X233667857Y-65297857D02*
X233453571Y-65369285D01*
X233382142Y-65440714D01*
X233310714Y-65583571D01*
X233310714Y-65797857D01*
X233382142Y-65940714D01*
X233453571Y-66012142D01*
X233596428Y-66083571D01*
X234167857Y-66083571D01*
X234167857Y-64583571D01*
X233667857Y-64583571D01*
X233525000Y-64655000D01*
X233453571Y-64726428D01*
X233382142Y-64869285D01*
X233382142Y-65012142D01*
X233453571Y-65155000D01*
X233525000Y-65226428D01*
X233667857Y-65297857D01*
X234167857Y-65297857D01*
X232810714Y-64583571D02*
X231810714Y-64583571D01*
X232453571Y-66083571D01*
X235667857Y-68623571D02*
X235667857Y-67123571D01*
X235096428Y-67123571D01*
X234953571Y-67195000D01*
X234882142Y-67266428D01*
X234810714Y-67409285D01*
X234810714Y-67623571D01*
X234882142Y-67766428D01*
X234953571Y-67837857D01*
X235096428Y-67909285D01*
X235667857Y-67909285D01*
X233667857Y-67837857D02*
X233453571Y-67909285D01*
X233382142Y-67980714D01*
X233310714Y-68123571D01*
X233310714Y-68337857D01*
X233382142Y-68480714D01*
X233453571Y-68552142D01*
X233596428Y-68623571D01*
X234167857Y-68623571D01*
X234167857Y-67123571D01*
X233667857Y-67123571D01*
X233525000Y-67195000D01*
X233453571Y-67266428D01*
X233382142Y-67409285D01*
X233382142Y-67552142D01*
X233453571Y-67695000D01*
X233525000Y-67766428D01*
X233667857Y-67837857D01*
X234167857Y-67837857D01*
X232025000Y-67123571D02*
X232310714Y-67123571D01*
X232453571Y-67195000D01*
X232525000Y-67266428D01*
X232667857Y-67480714D01*
X232739285Y-67766428D01*
X232739285Y-68337857D01*
X232667857Y-68480714D01*
X232596428Y-68552142D01*
X232453571Y-68623571D01*
X232167857Y-68623571D01*
X232025000Y-68552142D01*
X231953571Y-68480714D01*
X231882142Y-68337857D01*
X231882142Y-67980714D01*
X231953571Y-67837857D01*
X232025000Y-67766428D01*
X232167857Y-67695000D01*
X232453571Y-67695000D01*
X232596428Y-67766428D01*
X232667857Y-67837857D01*
X232739285Y-67980714D01*
X234882142Y-69735000D02*
X235025000Y-69663571D01*
X235239285Y-69663571D01*
X235453571Y-69735000D01*
X235596428Y-69877857D01*
X235667857Y-70020714D01*
X235739285Y-70306428D01*
X235739285Y-70520714D01*
X235667857Y-70806428D01*
X235596428Y-70949285D01*
X235453571Y-71092142D01*
X235239285Y-71163571D01*
X235096428Y-71163571D01*
X234882142Y-71092142D01*
X234810714Y-71020714D01*
X234810714Y-70520714D01*
X235096428Y-70520714D01*
X234167857Y-71163571D02*
X234167857Y-69663571D01*
X233310714Y-71163571D01*
X233310714Y-69663571D01*
X232596428Y-71163571D02*
X232596428Y-69663571D01*
X232239285Y-69663571D01*
X232025000Y-69735000D01*
X231882142Y-69877857D01*
X231810714Y-70020714D01*
X231739285Y-70306428D01*
X231739285Y-70520714D01*
X231810714Y-70806428D01*
X231882142Y-70949285D01*
X232025000Y-71092142D01*
X232239285Y-71163571D01*
X232596428Y-71163571D01*
X235667857Y-73703571D02*
X235667857Y-72203571D01*
X235096428Y-72203571D01*
X234953571Y-72275000D01*
X234882142Y-72346428D01*
X234810714Y-72489285D01*
X234810714Y-72703571D01*
X234882142Y-72846428D01*
X234953571Y-72917857D01*
X235096428Y-72989285D01*
X235667857Y-72989285D01*
X234239285Y-73275000D02*
X233525000Y-73275000D01*
X234382142Y-73703571D02*
X233882142Y-72203571D01*
X233382142Y-73703571D01*
X233025000Y-72203571D02*
X232025000Y-72203571D01*
X232667857Y-73703571D01*
X235667857Y-76243571D02*
X235667857Y-74743571D01*
X235096428Y-74743571D01*
X234953571Y-74815000D01*
X234882142Y-74886428D01*
X234810714Y-75029285D01*
X234810714Y-75243571D01*
X234882142Y-75386428D01*
X234953571Y-75457857D01*
X235096428Y-75529285D01*
X235667857Y-75529285D01*
X234239285Y-75815000D02*
X233525000Y-75815000D01*
X234382142Y-76243571D02*
X233882142Y-74743571D01*
X233382142Y-76243571D01*
X232239285Y-74743571D02*
X232525000Y-74743571D01*
X232667857Y-74815000D01*
X232739285Y-74886428D01*
X232882142Y-75100714D01*
X232953571Y-75386428D01*
X232953571Y-75957857D01*
X232882142Y-76100714D01*
X232810714Y-76172142D01*
X232667857Y-76243571D01*
X232382142Y-76243571D01*
X232239285Y-76172142D01*
X232167857Y-76100714D01*
X232096428Y-75957857D01*
X232096428Y-75600714D01*
X232167857Y-75457857D01*
X232239285Y-75386428D01*
X232382142Y-75315000D01*
X232667857Y-75315000D01*
X232810714Y-75386428D01*
X232882142Y-75457857D01*
X232953571Y-75600714D01*
X235667857Y-78783571D02*
X235667857Y-77283571D01*
X235096428Y-77283571D01*
X234953571Y-77355000D01*
X234882142Y-77426428D01*
X234810714Y-77569285D01*
X234810714Y-77783571D01*
X234882142Y-77926428D01*
X234953571Y-77997857D01*
X235096428Y-78069285D01*
X235667857Y-78069285D01*
X234239285Y-78355000D02*
X233525000Y-78355000D01*
X234382142Y-78783571D02*
X233882142Y-77283571D01*
X233382142Y-78783571D01*
X232167857Y-77283571D02*
X232882142Y-77283571D01*
X232953571Y-77997857D01*
X232882142Y-77926428D01*
X232739285Y-77855000D01*
X232382142Y-77855000D01*
X232239285Y-77926428D01*
X232167857Y-77997857D01*
X232096428Y-78140714D01*
X232096428Y-78497857D01*
X232167857Y-78640714D01*
X232239285Y-78712142D01*
X232382142Y-78783571D01*
X232739285Y-78783571D01*
X232882142Y-78712142D01*
X232953571Y-78640714D01*
X235667857Y-81323571D02*
X235667857Y-79823571D01*
X235096428Y-79823571D01*
X234953571Y-79895000D01*
X234882142Y-79966428D01*
X234810714Y-80109285D01*
X234810714Y-80323571D01*
X234882142Y-80466428D01*
X234953571Y-80537857D01*
X235096428Y-80609285D01*
X235667857Y-80609285D01*
X234239285Y-80895000D02*
X233525000Y-80895000D01*
X234382142Y-81323571D02*
X233882142Y-79823571D01*
X233382142Y-81323571D01*
X232239285Y-80323571D02*
X232239285Y-81323571D01*
X232596428Y-79752142D02*
X232953571Y-80823571D01*
X232025000Y-80823571D01*
X234882142Y-82435000D02*
X235025000Y-82363571D01*
X235239285Y-82363571D01*
X235453571Y-82435000D01*
X235596428Y-82577857D01*
X235667857Y-82720714D01*
X235739285Y-83006428D01*
X235739285Y-83220714D01*
X235667857Y-83506428D01*
X235596428Y-83649285D01*
X235453571Y-83792142D01*
X235239285Y-83863571D01*
X235096428Y-83863571D01*
X234882142Y-83792142D01*
X234810714Y-83720714D01*
X234810714Y-83220714D01*
X235096428Y-83220714D01*
X234167857Y-83863571D02*
X234167857Y-82363571D01*
X233310714Y-83863571D01*
X233310714Y-82363571D01*
X232596428Y-83863571D02*
X232596428Y-82363571D01*
X232239285Y-82363571D01*
X232025000Y-82435000D01*
X231882142Y-82577857D01*
X231810714Y-82720714D01*
X231739285Y-83006428D01*
X231739285Y-83220714D01*
X231810714Y-83506428D01*
X231882142Y-83649285D01*
X232025000Y-83792142D01*
X232239285Y-83863571D01*
X232596428Y-83863571D01*
X235739285Y-86332142D02*
X235525000Y-86403571D01*
X235167857Y-86403571D01*
X235025000Y-86332142D01*
X234953571Y-86260714D01*
X234882142Y-86117857D01*
X234882142Y-85975000D01*
X234953571Y-85832142D01*
X235025000Y-85760714D01*
X235167857Y-85689285D01*
X235453571Y-85617857D01*
X235596428Y-85546428D01*
X235667857Y-85475000D01*
X235739285Y-85332142D01*
X235739285Y-85189285D01*
X235667857Y-85046428D01*
X235596428Y-84975000D01*
X235453571Y-84903571D01*
X235096428Y-84903571D01*
X234882142Y-84975000D01*
X234382142Y-84903571D02*
X234025000Y-86403571D01*
X233739285Y-85332142D01*
X233453571Y-86403571D01*
X233096428Y-84903571D01*
X232525000Y-86403571D02*
X232525000Y-84903571D01*
X232167857Y-84903571D01*
X231953571Y-84975000D01*
X231810714Y-85117857D01*
X231739285Y-85260714D01*
X231667857Y-85546428D01*
X231667857Y-85760714D01*
X231739285Y-86046428D01*
X231810714Y-86189285D01*
X231953571Y-86332142D01*
X232167857Y-86403571D01*
X232525000Y-86403571D01*
X230167857Y-86260714D02*
X230239285Y-86332142D01*
X230453571Y-86403571D01*
X230596428Y-86403571D01*
X230810714Y-86332142D01*
X230953571Y-86189285D01*
X231025000Y-86046428D01*
X231096428Y-85760714D01*
X231096428Y-85546428D01*
X231025000Y-85260714D01*
X230953571Y-85117857D01*
X230810714Y-84975000D01*
X230596428Y-84903571D01*
X230453571Y-84903571D01*
X230239285Y-84975000D01*
X230167857Y-85046428D01*
X228810714Y-86403571D02*
X229525000Y-86403571D01*
X229525000Y-84903571D01*
X228310714Y-86403571D02*
X228310714Y-84903571D01*
X227453571Y-86403571D02*
X228096428Y-85546428D01*
X227453571Y-84903571D02*
X228310714Y-85760714D01*
X235739285Y-88872142D02*
X235525000Y-88943571D01*
X235167857Y-88943571D01*
X235025000Y-88872142D01*
X234953571Y-88800714D01*
X234882142Y-88657857D01*
X234882142Y-88515000D01*
X234953571Y-88372142D01*
X235025000Y-88300714D01*
X235167857Y-88229285D01*
X235453571Y-88157857D01*
X235596428Y-88086428D01*
X235667857Y-88015000D01*
X235739285Y-87872142D01*
X235739285Y-87729285D01*
X235667857Y-87586428D01*
X235596428Y-87515000D01*
X235453571Y-87443571D01*
X235096428Y-87443571D01*
X234882142Y-87515000D01*
X234382142Y-87443571D02*
X234025000Y-88943571D01*
X233739285Y-87872142D01*
X233453571Y-88943571D01*
X233096428Y-87443571D01*
X232525000Y-88943571D02*
X232525000Y-87443571D01*
X232167857Y-87443571D01*
X231953571Y-87515000D01*
X231810714Y-87657857D01*
X231739285Y-87800714D01*
X231667857Y-88086428D01*
X231667857Y-88300714D01*
X231739285Y-88586428D01*
X231810714Y-88729285D01*
X231953571Y-88872142D01*
X232167857Y-88943571D01*
X232525000Y-88943571D01*
X231025000Y-88943571D02*
X231025000Y-87443571D01*
X230025000Y-87443571D02*
X229739285Y-87443571D01*
X229596428Y-87515000D01*
X229453571Y-87657857D01*
X229382142Y-87943571D01*
X229382142Y-88443571D01*
X229453571Y-88729285D01*
X229596428Y-88872142D01*
X229739285Y-88943571D01*
X230025000Y-88943571D01*
X230167857Y-88872142D01*
X230310714Y-88729285D01*
X230382142Y-88443571D01*
X230382142Y-87943571D01*
X230310714Y-87657857D01*
X230167857Y-87515000D01*
X230025000Y-87443571D01*
X235810714Y-89983571D02*
X234882142Y-89983571D01*
X235382142Y-90555000D01*
X235167857Y-90555000D01*
X235025000Y-90626428D01*
X234953571Y-90697857D01*
X234882142Y-90840714D01*
X234882142Y-91197857D01*
X234953571Y-91340714D01*
X235025000Y-91412142D01*
X235167857Y-91483571D01*
X235596428Y-91483571D01*
X235739285Y-91412142D01*
X235810714Y-91340714D01*
X234239285Y-91340714D02*
X234167857Y-91412142D01*
X234239285Y-91483571D01*
X234310714Y-91412142D01*
X234239285Y-91340714D01*
X234239285Y-91483571D01*
X233667857Y-89983571D02*
X232739285Y-89983571D01*
X233239285Y-90555000D01*
X233025000Y-90555000D01*
X232882142Y-90626428D01*
X232810714Y-90697857D01*
X232739285Y-90840714D01*
X232739285Y-91197857D01*
X232810714Y-91340714D01*
X232882142Y-91412142D01*
X233025000Y-91483571D01*
X233453571Y-91483571D01*
X233596428Y-91412142D01*
X233667857Y-91340714D01*
X232310714Y-89983571D02*
X231810714Y-91483571D01*
X231310714Y-89983571D01*
D11*
X241995000Y-92195000D02*
X244735000Y-92195000D01*
X244735000Y-92195000D02*
X244735000Y-61475000D01*
X244735000Y-61475000D02*
X241995000Y-61475000D01*
X241995000Y-61475000D02*
X241995000Y-92195000D01*
X239885000Y-91245000D02*
X241995000Y-91245000D01*
X239885000Y-90365000D02*
X241995000Y-90365000D01*
X244735000Y-91245000D02*
X250735000Y-91245000D01*
X250735000Y-91245000D02*
X250735000Y-90365000D01*
X250735000Y-90365000D02*
X244735000Y-90365000D01*
X239885000Y-88705000D02*
X241995000Y-88705000D01*
X239885000Y-87825000D02*
X241995000Y-87825000D01*
X244735000Y-88705000D02*
X250735000Y-88705000D01*
X250735000Y-88705000D02*
X250735000Y-87825000D01*
X250735000Y-87825000D02*
X244735000Y-87825000D01*
X239885000Y-86165000D02*
X241995000Y-86165000D01*
X239885000Y-85285000D02*
X241995000Y-85285000D01*
X244735000Y-86165000D02*
X250735000Y-86165000D01*
X250735000Y-86165000D02*
X250735000Y-85285000D01*
X250735000Y-85285000D02*
X244735000Y-85285000D01*
X239885000Y-83625000D02*
X241995000Y-83625000D01*
X239885000Y-82745000D02*
X241995000Y-82745000D01*
X244735000Y-83625000D02*
X250735000Y-83625000D01*
X250735000Y-83625000D02*
X250735000Y-82745000D01*
X250735000Y-82745000D02*
X244735000Y-82745000D01*
X239885000Y-81085000D02*
X241995000Y-81085000D01*
X239885000Y-80205000D02*
X241995000Y-80205000D01*
X244735000Y-81085000D02*
X250735000Y-81085000D01*
X250735000Y-81085000D02*
X250735000Y-80205000D01*
X250735000Y-80205000D02*
X244735000Y-80205000D01*
X239885000Y-78545000D02*
X241995000Y-78545000D01*
X239885000Y-77665000D02*
X241995000Y-77665000D01*
X244735000Y-78545000D02*
X250735000Y-78545000D01*
X250735000Y-78545000D02*
X250735000Y-77665000D01*
X250735000Y-77665000D02*
X244735000Y-77665000D01*
X239885000Y-76005000D02*
X241995000Y-76005000D01*
X239885000Y-75125000D02*
X241995000Y-75125000D01*
X244735000Y-76005000D02*
X250735000Y-76005000D01*
X250735000Y-76005000D02*
X250735000Y-75125000D01*
X250735000Y-75125000D02*
X244735000Y-75125000D01*
X239885000Y-73465000D02*
X241995000Y-73465000D01*
X239885000Y-72585000D02*
X241995000Y-72585000D01*
X244735000Y-73465000D02*
X250735000Y-73465000D01*
X250735000Y-73465000D02*
X250735000Y-72585000D01*
X250735000Y-72585000D02*
X244735000Y-72585000D01*
X239885000Y-70925000D02*
X241995000Y-70925000D01*
X239885000Y-70045000D02*
X241995000Y-70045000D01*
X244735000Y-70925000D02*
X250735000Y-70925000D01*
X250735000Y-70925000D02*
X250735000Y-70045000D01*
X250735000Y-70045000D02*
X244735000Y-70045000D01*
X239885000Y-68385000D02*
X241995000Y-68385000D01*
X239885000Y-67505000D02*
X241995000Y-67505000D01*
X244735000Y-68385000D02*
X250735000Y-68385000D01*
X250735000Y-68385000D02*
X250735000Y-67505000D01*
X250735000Y-67505000D02*
X244735000Y-67505000D01*
X239885000Y-65845000D02*
X241995000Y-65845000D01*
X239885000Y-64965000D02*
X241995000Y-64965000D01*
X244735000Y-65845000D02*
X250735000Y-65845000D01*
X250735000Y-65845000D02*
X250735000Y-64965000D01*
X250735000Y-64965000D02*
X244735000Y-64965000D01*
X239885000Y-63305000D02*
X241995000Y-63305000D01*
X239885000Y-62425000D02*
X241995000Y-62425000D01*
X244735000Y-63305000D02*
X250735000Y-63305000D01*
X250735000Y-63305000D02*
X250735000Y-62425000D01*
X250735000Y-62425000D02*
X244735000Y-62425000D01*
X236745000Y-90805000D02*
X236745000Y-91625000D01*
X236745000Y-91625000D02*
X238315000Y-91625000D01*
D12*
X243693333Y-92727380D02*
X243693333Y-93441666D01*
X243740952Y-93584523D01*
X243836190Y-93679761D01*
X243979047Y-93727380D01*
X244074285Y-93727380D01*
X243312380Y-92727380D02*
X242693333Y-92727380D01*
X243026666Y-93108333D01*
X242883809Y-93108333D01*
X242788571Y-93155952D01*
X242740952Y-93203571D01*
X242693333Y-93298809D01*
X242693333Y-93536904D01*
X242740952Y-93632142D01*
X242788571Y-93679761D01*
X242883809Y-93727380D01*
X243169523Y-93727380D01*
X243264761Y-93679761D01*
X243312380Y-93632142D01*
%LPC*%
D13*
X228935337Y-117530365D03*
D14*
X222631000Y-118745000D03*
D15*
X217708861Y-116290912D03*
X227553139Y-121199088D03*
D13*
X225263567Y-113464887D03*
X227170818Y-115332076D03*
X220354643Y-114771853D03*
D16*
X227177267Y-121011685D03*
X218084733Y-116478315D03*
X109220000Y-85725000D03*
X119380000Y-85725000D03*
D13*
X110490000Y-83185000D03*
X116840000Y-80645000D03*
X114300000Y-79825000D03*
D15*
X119800000Y-85725000D03*
X108800000Y-85725000D03*
D14*
X114300000Y-85725000D03*
D13*
X119400000Y-81825000D03*
X119400000Y-100875000D03*
D14*
X114300000Y-104775000D03*
D15*
X108800000Y-104775000D03*
X119800000Y-104775000D03*
D13*
X114300000Y-98875000D03*
X116840000Y-99695000D03*
X110490000Y-102235000D03*
D16*
X119380000Y-104775000D03*
X109220000Y-104775000D03*
X147320000Y-53975000D03*
X157480000Y-53975000D03*
D13*
X148590000Y-51435000D03*
X154940000Y-48895000D03*
X152400000Y-48075000D03*
D15*
X157900000Y-53975000D03*
X146900000Y-53975000D03*
D14*
X152400000Y-53975000D03*
D13*
X157500000Y-50075000D03*
X214650000Y-71665000D03*
D14*
X209550000Y-75565000D03*
D15*
X204050000Y-75565000D03*
X215050000Y-75565000D03*
D13*
X209550000Y-69665000D03*
X212090000Y-70485000D03*
X205740000Y-73025000D03*
D16*
X214630000Y-75565000D03*
X204470000Y-75565000D03*
X147320000Y-73025000D03*
X157480000Y-73025000D03*
D13*
X148590000Y-70485000D03*
X154940000Y-67945000D03*
X152400000Y-67125000D03*
D15*
X157900000Y-73025000D03*
X146900000Y-73025000D03*
D14*
X152400000Y-73025000D03*
D13*
X157500000Y-69125000D03*
X157500000Y-88175000D03*
D14*
X152400000Y-92075000D03*
D15*
X146900000Y-92075000D03*
X157900000Y-92075000D03*
D13*
X152400000Y-86175000D03*
X154940000Y-86995000D03*
X148590000Y-89535000D03*
D16*
X157480000Y-92075000D03*
X147320000Y-92075000D03*
X156845000Y-111125000D03*
X167005000Y-111125000D03*
D13*
X158115000Y-108585000D03*
X164465000Y-106045000D03*
X161925000Y-105225000D03*
D15*
X167425000Y-111125000D03*
X156425000Y-111125000D03*
D14*
X161925000Y-111125000D03*
D13*
X167025000Y-107225000D03*
X214650000Y-52615000D03*
D14*
X209550000Y-56515000D03*
D15*
X204050000Y-56515000D03*
X215050000Y-56515000D03*
D13*
X209550000Y-50615000D03*
X212090000Y-51435000D03*
X205740000Y-53975000D03*
D16*
X214630000Y-56515000D03*
X204470000Y-56515000D03*
X204470000Y-94615000D03*
X214630000Y-94615000D03*
D13*
X205740000Y-92075000D03*
X212090000Y-89535000D03*
X209550000Y-88715000D03*
D15*
X215050000Y-94615000D03*
X204050000Y-94615000D03*
D14*
X209550000Y-94615000D03*
D13*
X214650000Y-90715000D03*
X138450000Y-60235000D03*
D14*
X133350000Y-64135000D03*
D15*
X127850000Y-64135000D03*
X138850000Y-64135000D03*
D13*
X133350000Y-58235000D03*
X135890000Y-59055000D03*
X129540000Y-61595000D03*
D16*
X138430000Y-64135000D03*
X128270000Y-64135000D03*
X128270000Y-83185000D03*
X138430000Y-83185000D03*
D13*
X129540000Y-80645000D03*
X135890000Y-78105000D03*
X133350000Y-77285000D03*
D15*
X138850000Y-83185000D03*
X127850000Y-83185000D03*
D14*
X133350000Y-83185000D03*
D13*
X138450000Y-79285000D03*
X138450000Y-98335000D03*
D14*
X133350000Y-102235000D03*
D15*
X127850000Y-102235000D03*
X138850000Y-102235000D03*
D13*
X133350000Y-96335000D03*
X135890000Y-97155000D03*
X129540000Y-99695000D03*
D16*
X138430000Y-102235000D03*
X128270000Y-102235000D03*
X166370000Y-51435000D03*
X176530000Y-51435000D03*
D13*
X167640000Y-48895000D03*
X173990000Y-46355000D03*
X171450000Y-45535000D03*
D15*
X176950000Y-51435000D03*
X165950000Y-51435000D03*
D14*
X171450000Y-51435000D03*
D13*
X176550000Y-47535000D03*
X176550000Y-66585000D03*
D14*
X171450000Y-70485000D03*
D15*
X165950000Y-70485000D03*
X176950000Y-70485000D03*
D13*
X171450000Y-64585000D03*
X173990000Y-65405000D03*
X167640000Y-67945000D03*
D16*
X176530000Y-70485000D03*
X166370000Y-70485000D03*
X166370000Y-89535000D03*
X176530000Y-89535000D03*
D13*
X167640000Y-86995000D03*
X173990000Y-84455000D03*
X171450000Y-83635000D03*
D15*
X176950000Y-89535000D03*
X165950000Y-89535000D03*
D14*
X171450000Y-89535000D03*
D13*
X176550000Y-85635000D03*
X195600000Y-50075000D03*
D14*
X190500000Y-53975000D03*
D15*
X185000000Y-53975000D03*
X196000000Y-53975000D03*
D13*
X190500000Y-48075000D03*
X193040000Y-48895000D03*
X186690000Y-51435000D03*
D16*
X195580000Y-53975000D03*
X185420000Y-53975000D03*
X185420000Y-73025000D03*
X195580000Y-73025000D03*
D13*
X186690000Y-70485000D03*
X193040000Y-67945000D03*
X190500000Y-67125000D03*
D15*
X196000000Y-73025000D03*
X185000000Y-73025000D03*
D14*
X190500000Y-73025000D03*
D13*
X195600000Y-69125000D03*
X195600000Y-88175000D03*
D14*
X190500000Y-92075000D03*
D15*
X185000000Y-92075000D03*
X196000000Y-92075000D03*
D13*
X190500000Y-86175000D03*
X193040000Y-86995000D03*
X186690000Y-89535000D03*
D16*
X195580000Y-92075000D03*
X185420000Y-92075000D03*
X194945000Y-113665000D03*
X205105000Y-113665000D03*
D13*
X196215000Y-111125000D03*
X202565000Y-108585000D03*
X200025000Y-107765000D03*
D15*
X205525000Y-113665000D03*
X194525000Y-113665000D03*
D14*
X200025000Y-113665000D03*
D13*
X205125000Y-109765000D03*
X186075000Y-107225000D03*
D14*
X180975000Y-111125000D03*
D15*
X175475000Y-111125000D03*
X186475000Y-111125000D03*
D13*
X180975000Y-105225000D03*
X183515000Y-106045000D03*
X177165000Y-108585000D03*
D16*
X186055000Y-111125000D03*
X175895000Y-111125000D03*
D13*
X119400000Y-62775000D03*
D14*
X114300000Y-66675000D03*
D15*
X108800000Y-66675000D03*
X119800000Y-66675000D03*
D13*
X114300000Y-60775000D03*
X116840000Y-61595000D03*
X110490000Y-64135000D03*
D16*
X119380000Y-66675000D03*
X109220000Y-66675000D03*
D17*
X235063000Y-59560000D03*
X239663000Y-58460000D03*
X239663000Y-51460000D03*
D18*
X237363000Y-56860000D03*
X237363000Y-49860000D03*
D17*
X239663000Y-54460000D03*
D19*
X238315000Y-62865000D03*
X238315000Y-65405000D03*
X238315000Y-67945000D03*
X238315000Y-70485000D03*
X238315000Y-73025000D03*
X238315000Y-75565000D03*
X238315000Y-78105000D03*
X238315000Y-80645000D03*
X238315000Y-83185000D03*
X238315000Y-85725000D03*
X238315000Y-88265000D03*
X238315000Y-90805000D03*
D20*
X220470000Y-53930000D03*
X229110000Y-53930000D03*
D21*
X227680000Y-53400000D03*
D22*
X229110000Y-49750000D03*
D21*
X221900000Y-53400000D03*
D22*
X220470000Y-49750000D03*
M02*
