G04 #@! TF.GenerationSoftware,KiCad,Pcbnew,5.1.9+dfsg1-1*
G04 #@! TF.CreationDate,2021-12-26T21:48:47+01:00*
G04 #@! TF.ProjectId,left,6c656674-2e6b-4696-9361-645f70636258,rev?*
G04 #@! TF.SameCoordinates,Original*
G04 #@! TF.FileFunction,Soldermask,Top*
G04 #@! TF.FilePolarity,Negative*
%FSLAX46Y46*%
G04 Gerber Fmt 4.6, Leading zero omitted, Abs format (unit mm)*
G04 Created by KiCad (PCBNEW 5.1.9+dfsg1-1) date 2021-12-26 21:48:47*
%MOMM*%
%LPD*%
G01*
G04 APERTURE LIST*
%ADD10C,4.000000*%
%ADD11C,1.900000*%
%ADD12C,1.700000*%
%ADD13C,0.800000*%
%ADD14O,1.000000X1.400000*%
%ADD15R,1.500000X1.500000*%
%ADD16R,1.000000X1.000000*%
%ADD17R,1.300000X0.250000*%
%ADD18R,0.250000X1.300000*%
%ADD19R,0.800000X0.900000*%
%ADD20R,0.600000X1.450000*%
%ADD21R,0.300000X1.450000*%
%ADD22O,1.000000X2.100000*%
%ADD23C,0.650000*%
%ADD24O,1.000000X1.600000*%
%ADD25C,0.100000*%
G04 APERTURE END LIST*
D10*
X222631000Y-118745000D03*
D11*
X217708861Y-116290912D03*
X227553139Y-121199088D03*
D12*
X227177267Y-121011685D03*
X218084733Y-116478315D03*
X109220000Y-85725000D03*
X119380000Y-85725000D03*
D11*
X119800000Y-85725000D03*
X108800000Y-85725000D03*
D10*
X114300000Y-85725000D03*
X114300000Y-104775000D03*
D11*
X108800000Y-104775000D03*
X119800000Y-104775000D03*
D12*
X119380000Y-104775000D03*
X109220000Y-104775000D03*
X147320000Y-53975000D03*
X157480000Y-53975000D03*
D11*
X157900000Y-53975000D03*
X146900000Y-53975000D03*
D10*
X152400000Y-53975000D03*
X209550000Y-75565000D03*
D11*
X204050000Y-75565000D03*
X215050000Y-75565000D03*
D12*
X214630000Y-75565000D03*
X204470000Y-75565000D03*
X147320000Y-73025000D03*
X157480000Y-73025000D03*
D11*
X157900000Y-73025000D03*
X146900000Y-73025000D03*
D10*
X152400000Y-73025000D03*
X152400000Y-92075000D03*
D11*
X146900000Y-92075000D03*
X157900000Y-92075000D03*
D12*
X157480000Y-92075000D03*
X147320000Y-92075000D03*
X156845000Y-111125000D03*
X167005000Y-111125000D03*
D11*
X167425000Y-111125000D03*
X156425000Y-111125000D03*
D10*
X161925000Y-111125000D03*
X209550000Y-56515000D03*
D11*
X204050000Y-56515000D03*
X215050000Y-56515000D03*
D12*
X214630000Y-56515000D03*
X204470000Y-56515000D03*
X204470000Y-94615000D03*
X214630000Y-94615000D03*
D11*
X215050000Y-94615000D03*
X204050000Y-94615000D03*
D10*
X209550000Y-94615000D03*
X133350000Y-64135000D03*
D11*
X127850000Y-64135000D03*
X138850000Y-64135000D03*
D12*
X138430000Y-64135000D03*
X128270000Y-64135000D03*
X128270000Y-83185000D03*
X138430000Y-83185000D03*
D11*
X138850000Y-83185000D03*
X127850000Y-83185000D03*
D10*
X133350000Y-83185000D03*
X133350000Y-102235000D03*
D11*
X127850000Y-102235000D03*
X138850000Y-102235000D03*
D12*
X138430000Y-102235000D03*
X128270000Y-102235000D03*
X166370000Y-51435000D03*
X176530000Y-51435000D03*
D11*
X176950000Y-51435000D03*
X165950000Y-51435000D03*
D10*
X171450000Y-51435000D03*
X171450000Y-70485000D03*
D11*
X165950000Y-70485000D03*
X176950000Y-70485000D03*
D12*
X176530000Y-70485000D03*
X166370000Y-70485000D03*
X166370000Y-89535000D03*
X176530000Y-89535000D03*
D11*
X176950000Y-89535000D03*
X165950000Y-89535000D03*
D10*
X171450000Y-89535000D03*
X190500000Y-53975000D03*
D11*
X185000000Y-53975000D03*
X196000000Y-53975000D03*
D12*
X195580000Y-53975000D03*
X185420000Y-53975000D03*
X185420000Y-73025000D03*
X195580000Y-73025000D03*
D11*
X196000000Y-73025000D03*
X185000000Y-73025000D03*
D10*
X190500000Y-73025000D03*
X190500000Y-92075000D03*
D11*
X185000000Y-92075000D03*
X196000000Y-92075000D03*
D12*
X195580000Y-92075000D03*
X185420000Y-92075000D03*
X194945000Y-113665000D03*
X205105000Y-113665000D03*
D11*
X205525000Y-113665000D03*
X194525000Y-113665000D03*
D10*
X200025000Y-113665000D03*
X180975000Y-111125000D03*
D11*
X175475000Y-111125000D03*
X186475000Y-111125000D03*
D12*
X186055000Y-111125000D03*
X175895000Y-111125000D03*
D10*
X114300000Y-66675000D03*
D11*
X108800000Y-66675000D03*
X119800000Y-66675000D03*
D12*
X119380000Y-66675000D03*
X109220000Y-66675000D03*
D13*
X237363000Y-56860000D03*
X237363000Y-49860000D03*
D14*
X239663000Y-51460000D03*
X239663000Y-54460000D03*
X239663000Y-58460000D03*
X235063000Y-59560000D03*
D15*
X230759000Y-77634000D03*
X230759000Y-85434000D03*
X224663000Y-77634000D03*
X224663000Y-85434000D03*
G36*
G01*
X221557000Y-59632001D02*
X221557000Y-58731999D01*
G75*
G02*
X221806999Y-58482000I249999J0D01*
G01*
X222457001Y-58482000D01*
G75*
G02*
X222707000Y-58731999I0J-249999D01*
G01*
X222707000Y-59632001D01*
G75*
G02*
X222457001Y-59882000I-249999J0D01*
G01*
X221806999Y-59882000D01*
G75*
G02*
X221557000Y-59632001I0J249999D01*
G01*
G37*
G36*
G01*
X219507000Y-59632001D02*
X219507000Y-58731999D01*
G75*
G02*
X219756999Y-58482000I249999J0D01*
G01*
X220407001Y-58482000D01*
G75*
G02*
X220657000Y-58731999I0J-249999D01*
G01*
X220657000Y-59632001D01*
G75*
G02*
X220407001Y-59882000I-249999J0D01*
G01*
X219756999Y-59882000D01*
G75*
G02*
X219507000Y-59632001I0J249999D01*
G01*
G37*
G36*
G01*
X224593999Y-63696000D02*
X225494001Y-63696000D01*
G75*
G02*
X225744000Y-63945999I0J-249999D01*
G01*
X225744000Y-64596001D01*
G75*
G02*
X225494001Y-64846000I-249999J0D01*
G01*
X224593999Y-64846000D01*
G75*
G02*
X224344000Y-64596001I0J249999D01*
G01*
X224344000Y-63945999D01*
G75*
G02*
X224593999Y-63696000I249999J0D01*
G01*
G37*
G36*
G01*
X224593999Y-61646000D02*
X225494001Y-61646000D01*
G75*
G02*
X225744000Y-61895999I0J-249999D01*
G01*
X225744000Y-62546001D01*
G75*
G02*
X225494001Y-62796000I-249999J0D01*
G01*
X224593999Y-62796000D01*
G75*
G02*
X224344000Y-62546001I0J249999D01*
G01*
X224344000Y-61895999D01*
G75*
G02*
X224593999Y-61646000I249999J0D01*
G01*
G37*
G36*
G01*
X221672999Y-71570000D02*
X222573001Y-71570000D01*
G75*
G02*
X222823000Y-71819999I0J-249999D01*
G01*
X222823000Y-72470001D01*
G75*
G02*
X222573001Y-72720000I-249999J0D01*
G01*
X221672999Y-72720000D01*
G75*
G02*
X221423000Y-72470001I0J249999D01*
G01*
X221423000Y-71819999D01*
G75*
G02*
X221672999Y-71570000I249999J0D01*
G01*
G37*
G36*
G01*
X221672999Y-69520000D02*
X222573001Y-69520000D01*
G75*
G02*
X222823000Y-69769999I0J-249999D01*
G01*
X222823000Y-70420001D01*
G75*
G02*
X222573001Y-70670000I-249999J0D01*
G01*
X221672999Y-70670000D01*
G75*
G02*
X221423000Y-70420001I0J249999D01*
G01*
X221423000Y-69769999D01*
G75*
G02*
X221672999Y-69520000I249999J0D01*
G01*
G37*
G36*
G01*
X234765001Y-74988000D02*
X233864999Y-74988000D01*
G75*
G02*
X233615000Y-74738001I0J249999D01*
G01*
X233615000Y-74087999D01*
G75*
G02*
X233864999Y-73838000I249999J0D01*
G01*
X234765001Y-73838000D01*
G75*
G02*
X235015000Y-74087999I0J-249999D01*
G01*
X235015000Y-74738001D01*
G75*
G02*
X234765001Y-74988000I-249999J0D01*
G01*
G37*
G36*
G01*
X234765001Y-77038000D02*
X233864999Y-77038000D01*
G75*
G02*
X233615000Y-76788001I0J249999D01*
G01*
X233615000Y-76137999D01*
G75*
G02*
X233864999Y-75888000I249999J0D01*
G01*
X234765001Y-75888000D01*
G75*
G02*
X235015000Y-76137999I0J-249999D01*
G01*
X235015000Y-76788001D01*
G75*
G02*
X234765001Y-77038000I-249999J0D01*
G01*
G37*
G36*
G01*
X221557000Y-65728001D02*
X221557000Y-64827999D01*
G75*
G02*
X221806999Y-64578000I249999J0D01*
G01*
X222457001Y-64578000D01*
G75*
G02*
X222707000Y-64827999I0J-249999D01*
G01*
X222707000Y-65728001D01*
G75*
G02*
X222457001Y-65978000I-249999J0D01*
G01*
X221806999Y-65978000D01*
G75*
G02*
X221557000Y-65728001I0J249999D01*
G01*
G37*
G36*
G01*
X219507000Y-65728001D02*
X219507000Y-64827999D01*
G75*
G02*
X219756999Y-64578000I249999J0D01*
G01*
X220407001Y-64578000D01*
G75*
G02*
X220657000Y-64827999I0J-249999D01*
G01*
X220657000Y-65728001D01*
G75*
G02*
X220407001Y-65978000I-249999J0D01*
G01*
X219756999Y-65978000D01*
G75*
G02*
X219507000Y-65728001I0J249999D01*
G01*
G37*
G36*
G01*
X221176001Y-78163000D02*
X220275999Y-78163000D01*
G75*
G02*
X220026000Y-77913001I0J249999D01*
G01*
X220026000Y-77262999D01*
G75*
G02*
X220275999Y-77013000I249999J0D01*
G01*
X221176001Y-77013000D01*
G75*
G02*
X221426000Y-77262999I0J-249999D01*
G01*
X221426000Y-77913001D01*
G75*
G02*
X221176001Y-78163000I-249999J0D01*
G01*
G37*
G36*
G01*
X221176001Y-80213000D02*
X220275999Y-80213000D01*
G75*
G02*
X220026000Y-79963001I0J249999D01*
G01*
X220026000Y-79312999D01*
G75*
G02*
X220275999Y-79063000I249999J0D01*
G01*
X221176001Y-79063000D01*
G75*
G02*
X221426000Y-79312999I0J-249999D01*
G01*
X221426000Y-79963001D01*
G75*
G02*
X221176001Y-80213000I-249999J0D01*
G01*
G37*
G36*
G01*
X235273001Y-63304000D02*
X234372999Y-63304000D01*
G75*
G02*
X234123000Y-63054001I0J249999D01*
G01*
X234123000Y-62403999D01*
G75*
G02*
X234372999Y-62154000I249999J0D01*
G01*
X235273001Y-62154000D01*
G75*
G02*
X235523000Y-62403999I0J-249999D01*
G01*
X235523000Y-63054001D01*
G75*
G02*
X235273001Y-63304000I-249999J0D01*
G01*
G37*
G36*
G01*
X235273001Y-65354000D02*
X234372999Y-65354000D01*
G75*
G02*
X234123000Y-65104001I0J249999D01*
G01*
X234123000Y-64453999D01*
G75*
G02*
X234372999Y-64204000I249999J0D01*
G01*
X235273001Y-64204000D01*
G75*
G02*
X235523000Y-64453999I0J-249999D01*
G01*
X235523000Y-65104001D01*
G75*
G02*
X235273001Y-65354000I-249999J0D01*
G01*
G37*
D16*
X233759440Y-102794927D03*
X233759440Y-100294927D03*
X233759440Y-91618927D03*
X233759440Y-89118927D03*
X227663440Y-108382927D03*
X227663440Y-105882927D03*
X227663440Y-102794927D03*
X227663440Y-100294927D03*
X227663440Y-97206927D03*
X227663440Y-94706927D03*
X227663440Y-91618927D03*
X227663440Y-89118927D03*
X223599440Y-102794927D03*
X223599440Y-100294927D03*
X223599440Y-97206927D03*
X223599440Y-94706927D03*
X223599440Y-91618927D03*
X223599440Y-89118927D03*
X231727440Y-108382927D03*
X231727440Y-105882927D03*
X233759440Y-97206927D03*
X233759440Y-94706927D03*
X231727440Y-102794927D03*
X231727440Y-100294927D03*
X231727440Y-97206927D03*
X231727440Y-94706927D03*
X231727440Y-91618927D03*
X231727440Y-89118927D03*
X229695440Y-108382927D03*
X229695440Y-105882927D03*
X229695440Y-102794927D03*
X229695440Y-100294927D03*
X229695440Y-97206927D03*
X229695440Y-94706927D03*
X229695440Y-91618927D03*
X229695440Y-89118927D03*
X225631440Y-102794927D03*
X225631440Y-100294927D03*
X225631440Y-97206927D03*
X225631440Y-94706927D03*
X225631440Y-91618927D03*
X225631440Y-89118927D03*
X233759440Y-108382927D03*
X233759440Y-105882927D03*
D17*
X225393000Y-72092000D03*
X225393000Y-71592000D03*
X225393000Y-71092000D03*
X225393000Y-70592000D03*
X225393000Y-70092000D03*
X225393000Y-69592000D03*
X225393000Y-69092000D03*
X225393000Y-68592000D03*
X225393000Y-68092000D03*
X225393000Y-67592000D03*
X225393000Y-67092000D03*
X225393000Y-66592000D03*
D18*
X226993000Y-64992000D03*
X227493000Y-64992000D03*
X227993000Y-64992000D03*
X228493000Y-64992000D03*
X228993000Y-64992000D03*
X229493000Y-64992000D03*
X229993000Y-64992000D03*
X230493000Y-64992000D03*
X230993000Y-64992000D03*
X231493000Y-64992000D03*
X231993000Y-64992000D03*
X232493000Y-64992000D03*
D17*
X234093000Y-66592000D03*
X234093000Y-67092000D03*
X234093000Y-67592000D03*
X234093000Y-68092000D03*
X234093000Y-68592000D03*
X234093000Y-69092000D03*
X234093000Y-69592000D03*
X234093000Y-70092000D03*
X234093000Y-70592000D03*
X234093000Y-71092000D03*
X234093000Y-71592000D03*
X234093000Y-72092000D03*
D18*
X232493000Y-73692000D03*
X231993000Y-73692000D03*
X231493000Y-73692000D03*
X230993000Y-73692000D03*
X230493000Y-73692000D03*
X229993000Y-73692000D03*
X229493000Y-73692000D03*
X228993000Y-73692000D03*
X228493000Y-73692000D03*
X227993000Y-73692000D03*
X227493000Y-73692000D03*
X226993000Y-73692000D03*
D19*
X221107000Y-61230000D03*
X222057000Y-63230000D03*
X220157000Y-63230000D03*
G36*
G01*
X222680000Y-73971999D02*
X222680000Y-74872001D01*
G75*
G02*
X222430001Y-75122000I-249999J0D01*
G01*
X221779999Y-75122000D01*
G75*
G02*
X221530000Y-74872001I0J249999D01*
G01*
X221530000Y-73971999D01*
G75*
G02*
X221779999Y-73722000I249999J0D01*
G01*
X222430001Y-73722000D01*
G75*
G02*
X222680000Y-73971999I0J-249999D01*
G01*
G37*
G36*
G01*
X224730000Y-73971999D02*
X224730000Y-74872001D01*
G75*
G02*
X224480001Y-75122000I-249999J0D01*
G01*
X223829999Y-75122000D01*
G75*
G02*
X223580000Y-74872001I0J249999D01*
G01*
X223580000Y-73971999D01*
G75*
G02*
X223829999Y-73722000I249999J0D01*
G01*
X224480001Y-73722000D01*
G75*
G02*
X224730000Y-73971999I0J-249999D01*
G01*
G37*
G36*
G01*
X223704999Y-59124000D02*
X224605001Y-59124000D01*
G75*
G02*
X224855000Y-59373999I0J-249999D01*
G01*
X224855000Y-60024001D01*
G75*
G02*
X224605001Y-60274000I-249999J0D01*
G01*
X223704999Y-60274000D01*
G75*
G02*
X223455000Y-60024001I0J249999D01*
G01*
X223455000Y-59373999D01*
G75*
G02*
X223704999Y-59124000I249999J0D01*
G01*
G37*
G36*
G01*
X223704999Y-57074000D02*
X224605001Y-57074000D01*
G75*
G02*
X224855000Y-57323999I0J-249999D01*
G01*
X224855000Y-57974001D01*
G75*
G02*
X224605001Y-58224000I-249999J0D01*
G01*
X223704999Y-58224000D01*
G75*
G02*
X223455000Y-57974001I0J249999D01*
G01*
X223455000Y-57323999D01*
G75*
G02*
X223704999Y-57074000I249999J0D01*
G01*
G37*
G36*
G01*
X228276999Y-59124000D02*
X229177001Y-59124000D01*
G75*
G02*
X229427000Y-59373999I0J-249999D01*
G01*
X229427000Y-60024001D01*
G75*
G02*
X229177001Y-60274000I-249999J0D01*
G01*
X228276999Y-60274000D01*
G75*
G02*
X228027000Y-60024001I0J249999D01*
G01*
X228027000Y-59373999D01*
G75*
G02*
X228276999Y-59124000I249999J0D01*
G01*
G37*
G36*
G01*
X228276999Y-57074000D02*
X229177001Y-57074000D01*
G75*
G02*
X229427000Y-57323999I0J-249999D01*
G01*
X229427000Y-57974001D01*
G75*
G02*
X229177001Y-58224000I-249999J0D01*
G01*
X228276999Y-58224000D01*
G75*
G02*
X228027000Y-57974001I0J249999D01*
G01*
X228027000Y-57323999D01*
G75*
G02*
X228276999Y-57074000I249999J0D01*
G01*
G37*
D20*
X221540000Y-54845000D03*
X222340000Y-54845000D03*
X227240000Y-54845000D03*
X228040000Y-54845000D03*
X228040000Y-54845000D03*
X227240000Y-54845000D03*
X222340000Y-54845000D03*
X221540000Y-54845000D03*
D21*
X226540000Y-54845000D03*
X226040000Y-54845000D03*
X225540000Y-54845000D03*
X224540000Y-54845000D03*
X224040000Y-54845000D03*
X223540000Y-54845000D03*
X223040000Y-54845000D03*
X225040000Y-54845000D03*
D22*
X220470000Y-53930000D03*
X229110000Y-53930000D03*
D23*
X227680000Y-53400000D03*
D24*
X229110000Y-49750000D03*
D23*
X221900000Y-53400000D03*
D24*
X220470000Y-49750000D03*
D25*
G36*
X223391732Y-54119000D02*
G01*
X223392000Y-54120000D01*
X223392000Y-55570000D01*
X223391000Y-55571732D01*
X223390000Y-55572000D01*
X223190000Y-55572000D01*
X223188268Y-55571000D01*
X223188000Y-55570000D01*
X223188000Y-54120000D01*
X223189000Y-54118268D01*
X223190000Y-54118000D01*
X223390000Y-54118000D01*
X223391732Y-54119000D01*
G37*
G36*
X222041732Y-54119000D02*
G01*
X222042000Y-54120000D01*
X222042000Y-55570000D01*
X222041000Y-55571732D01*
X222040000Y-55572000D01*
X221840000Y-55572000D01*
X221838268Y-55571000D01*
X221838000Y-55570000D01*
X221838000Y-54120000D01*
X221839000Y-54118268D01*
X221840000Y-54118000D01*
X222040000Y-54118000D01*
X222041732Y-54119000D01*
G37*
G36*
X226391732Y-54119000D02*
G01*
X226392000Y-54120000D01*
X226392000Y-55570000D01*
X226391000Y-55571732D01*
X226390000Y-55572000D01*
X226190000Y-55572000D01*
X226188268Y-55571000D01*
X226188000Y-55570000D01*
X226188000Y-54120000D01*
X226189000Y-54118268D01*
X226190000Y-54118000D01*
X226390000Y-54118000D01*
X226391732Y-54119000D01*
G37*
G36*
X227741732Y-54119000D02*
G01*
X227742000Y-54120000D01*
X227742000Y-55570000D01*
X227741000Y-55571732D01*
X227740000Y-55572000D01*
X227540000Y-55572000D01*
X227538268Y-55571000D01*
X227538000Y-55570000D01*
X227538000Y-54120000D01*
X227539000Y-54118268D01*
X227540000Y-54118000D01*
X227740000Y-54118000D01*
X227741732Y-54119000D01*
G37*
G36*
X225891732Y-54119000D02*
G01*
X225892000Y-54120000D01*
X225892000Y-55570000D01*
X225891000Y-55571732D01*
X225890000Y-55572000D01*
X225690000Y-55572000D01*
X225688268Y-55571000D01*
X225688000Y-55570000D01*
X225688000Y-54120000D01*
X225689000Y-54118268D01*
X225690000Y-54118000D01*
X225890000Y-54118000D01*
X225891732Y-54119000D01*
G37*
G36*
X224891732Y-54119000D02*
G01*
X224892000Y-54120000D01*
X224892000Y-55570000D01*
X224891000Y-55571732D01*
X224890000Y-55572000D01*
X224690000Y-55572000D01*
X224688268Y-55571000D01*
X224688000Y-55570000D01*
X224688000Y-54120000D01*
X224689000Y-54118268D01*
X224690000Y-54118000D01*
X224890000Y-54118000D01*
X224891732Y-54119000D01*
G37*
G36*
X224391732Y-54119000D02*
G01*
X224392000Y-54120000D01*
X224392000Y-55570000D01*
X224391000Y-55571732D01*
X224390000Y-55572000D01*
X224190000Y-55572000D01*
X224188268Y-55571000D01*
X224188000Y-55570000D01*
X224188000Y-54120000D01*
X224189000Y-54118268D01*
X224190000Y-54118000D01*
X224390000Y-54118000D01*
X224391732Y-54119000D01*
G37*
G36*
X223891732Y-54119000D02*
G01*
X223892000Y-54120000D01*
X223892000Y-55570000D01*
X223891000Y-55571732D01*
X223890000Y-55572000D01*
X223690000Y-55572000D01*
X223688268Y-55571000D01*
X223688000Y-55570000D01*
X223688000Y-54120000D01*
X223689000Y-54118268D01*
X223690000Y-54118000D01*
X223890000Y-54118000D01*
X223891732Y-54119000D01*
G37*
G36*
X225391732Y-54119000D02*
G01*
X225392000Y-54120000D01*
X225392000Y-55570000D01*
X225391000Y-55571732D01*
X225390000Y-55572000D01*
X225190000Y-55572000D01*
X225188268Y-55571000D01*
X225188000Y-55570000D01*
X225188000Y-54120000D01*
X225189000Y-54118268D01*
X225190000Y-54118000D01*
X225390000Y-54118000D01*
X225391732Y-54119000D01*
G37*
M02*
