%TF.GenerationSoftware,KiCad,Pcbnew,6.0.5-2.fc36*%
%TF.CreationDate,2022-06-13T15:26:01-05:00*%
%TF.ProjectId,left,6c656674-2e6b-4696-9361-645f70636258,rev?*%
%TF.SameCoordinates,Original*%
%TF.FileFunction,Soldermask,Top*%
%TF.FilePolarity,Negative*%
%FSLAX46Y46*%
G04 Gerber Fmt 4.6, Leading zero omitted, Abs format (unit mm)*
G04 Created by KiCad (PCBNEW 6.0.5-2.fc36) date 2022-06-13 15:26:01*
%MOMM*%
%LPD*%
G01*
G04 APERTURE LIST*
G04 Aperture macros list*
%AMRoundRect*
0 Rectangle with rounded corners*
0 $1 Rounding radius*
0 $2 $3 $4 $5 $6 $7 $8 $9 X,Y pos of 4 corners*
0 Add a 4 corners polygon primitive as box body*
4,1,4,$2,$3,$4,$5,$6,$7,$8,$9,$2,$3,0*
0 Add four circle primitives for the rounded corners*
1,1,$1+$1,$2,$3*
1,1,$1+$1,$4,$5*
1,1,$1+$1,$6,$7*
1,1,$1+$1,$8,$9*
0 Add four rect primitives between the rounded corners*
20,1,$1+$1,$2,$3,$4,$5,0*
20,1,$1+$1,$4,$5,$6,$7,0*
20,1,$1+$1,$6,$7,$8,$9,0*
20,1,$1+$1,$8,$9,$2,$3,0*%
G04 Aperture macros list end*
%ADD10RoundRect,0.249999X-0.450001X0.325001X-0.450001X-0.325001X0.450001X-0.325001X0.450001X0.325001X0*%
%ADD11RoundRect,0.249999X0.325001X0.450001X-0.325001X0.450001X-0.325001X-0.450001X0.325001X-0.450001X0*%
%ADD12R,0.800000X0.900000*%
%ADD13R,1.000000X1.000000*%
%ADD14RoundRect,0.249999X0.450001X-0.325001X0.450001X0.325001X-0.450001X0.325001X-0.450001X-0.325001X0*%
%ADD15RoundRect,0.249999X-0.325001X-0.450001X0.325001X-0.450001X0.325001X0.450001X-0.325001X0.450001X0*%
%ADD16R,1.500000X1.500000*%
%ADD17C,0.650000*%
%ADD18R,0.600000X1.450000*%
%ADD19R,0.300000X1.450000*%
%ADD20O,1.000000X1.600000*%
%ADD21O,1.000000X2.100000*%
%ADD22R,0.250000X1.300000*%
%ADD23R,1.300000X0.250000*%
%ADD24C,0.800000*%
%ADD25O,1.000000X1.400000*%
%ADD26C,4.000000*%
%ADD27C,1.700000*%
%ADD28C,1.900000*%
G04 APERTURE END LIST*
D10*
%TO.C,R7*%
X228727000Y-57649000D03*
X228727000Y-59699000D03*
%TD*%
%TO.C,R6*%
X224155000Y-57649000D03*
X224155000Y-59699000D03*
%TD*%
D11*
%TO.C,R1*%
X224155000Y-74422000D03*
X222105000Y-74422000D03*
%TD*%
D12*
%TO.C,U2*%
X220157000Y-63230000D03*
X222057000Y-63230000D03*
X221107000Y-61230000D03*
%TD*%
D13*
%TO.C,D17*%
X233759440Y-105882927D03*
X233759440Y-108382927D03*
%TD*%
%TO.C,D19*%
X225631440Y-89118927D03*
X225631440Y-91618927D03*
%TD*%
%TO.C,D20*%
X225631440Y-94706927D03*
X225631440Y-97206927D03*
%TD*%
%TO.C,D21*%
X225631440Y-100294927D03*
X225631440Y-102794927D03*
%TD*%
%TO.C,D23*%
X229695440Y-89118927D03*
X229695440Y-91618927D03*
%TD*%
%TO.C,D24*%
X229695440Y-94706927D03*
X229695440Y-97206927D03*
%TD*%
%TO.C,D25*%
X229695440Y-100294927D03*
X229695440Y-102794927D03*
%TD*%
%TO.C,D26*%
X229695440Y-105882927D03*
X229695440Y-108382927D03*
%TD*%
%TO.C,D33*%
X231727440Y-89118927D03*
X231727440Y-91618927D03*
%TD*%
%TO.C,D34*%
X231727440Y-94706927D03*
X231727440Y-97206927D03*
%TD*%
%TO.C,D15*%
X233759440Y-94706927D03*
X233759440Y-97206927D03*
%TD*%
%TO.C,D36*%
X231727440Y-105882927D03*
X231727440Y-108382927D03*
%TD*%
%TO.C,D5*%
X223599440Y-89118927D03*
X223599440Y-91618927D03*
%TD*%
%TO.C,D6*%
X223599440Y-94706927D03*
X223599440Y-97206927D03*
%TD*%
%TO.C,D7*%
X223599440Y-100294927D03*
X223599440Y-102794927D03*
%TD*%
%TO.C,D9*%
X227663440Y-89118927D03*
X227663440Y-91618927D03*
%TD*%
%TO.C,D10*%
X227663440Y-94706927D03*
X227663440Y-97206927D03*
%TD*%
%TO.C,D11*%
X227663440Y-100294927D03*
X227663440Y-102794927D03*
%TD*%
%TO.C,D12*%
X227663440Y-105882927D03*
X227663440Y-108382927D03*
%TD*%
%TO.C,D14*%
X233759440Y-89118927D03*
X233759440Y-91618927D03*
%TD*%
%TO.C,D16*%
X233759440Y-100294927D03*
X233759440Y-102794927D03*
%TD*%
D14*
%TO.C,C1*%
X220726000Y-79638000D03*
X220726000Y-77588000D03*
%TD*%
D15*
%TO.C,C6*%
X220082000Y-65278000D03*
X222132000Y-65278000D03*
%TD*%
D14*
%TO.C,C3*%
X234315000Y-76463000D03*
X234315000Y-74413000D03*
%TD*%
D10*
%TO.C,C5*%
X225044000Y-62221000D03*
X225044000Y-64271000D03*
%TD*%
D15*
%TO.C,C7*%
X220082000Y-59182000D03*
X222132000Y-59182000D03*
%TD*%
D16*
%TO.C,SW2*%
X224663000Y-85434000D03*
X224663000Y-77634000D03*
%TD*%
%TO.C,SW1*%
X230759000Y-85434000D03*
X230759000Y-77634000D03*
%TD*%
D17*
%TO.C,J1*%
X227680000Y-53400000D03*
X221900000Y-53400000D03*
D18*
X228040000Y-54845000D03*
X227240000Y-54845000D03*
D19*
X226040000Y-54845000D03*
X225040000Y-54845000D03*
X224540000Y-54845000D03*
X223540000Y-54845000D03*
D18*
X222340000Y-54845000D03*
X221540000Y-54845000D03*
X221540000Y-54845000D03*
X222340000Y-54845000D03*
D19*
X223040000Y-54845000D03*
X224040000Y-54845000D03*
X225540000Y-54845000D03*
X226540000Y-54845000D03*
D18*
X227240000Y-54845000D03*
X228040000Y-54845000D03*
D20*
X229110000Y-49750000D03*
D21*
X229110000Y-53930000D03*
X220470000Y-53930000D03*
D20*
X220470000Y-49750000D03*
%TD*%
D22*
%TO.C,U1*%
X226993000Y-73692000D03*
X227493000Y-73692000D03*
X227993000Y-73692000D03*
X228493000Y-73692000D03*
X228993000Y-73692000D03*
X229493000Y-73692000D03*
X229993000Y-73692000D03*
X230493000Y-73692000D03*
X230993000Y-73692000D03*
X231493000Y-73692000D03*
X231993000Y-73692000D03*
X232493000Y-73692000D03*
D23*
X234093000Y-72092000D03*
X234093000Y-71592000D03*
X234093000Y-71092000D03*
X234093000Y-70592000D03*
X234093000Y-70092000D03*
X234093000Y-69592000D03*
X234093000Y-69092000D03*
X234093000Y-68592000D03*
X234093000Y-68092000D03*
X234093000Y-67592000D03*
X234093000Y-67092000D03*
X234093000Y-66592000D03*
D22*
X232493000Y-64992000D03*
X231993000Y-64992000D03*
X231493000Y-64992000D03*
X230993000Y-64992000D03*
X230493000Y-64992000D03*
X229993000Y-64992000D03*
X229493000Y-64992000D03*
X228993000Y-64992000D03*
X228493000Y-64992000D03*
X227993000Y-64992000D03*
X227493000Y-64992000D03*
X226993000Y-64992000D03*
D23*
X225393000Y-66592000D03*
X225393000Y-67092000D03*
X225393000Y-67592000D03*
X225393000Y-68092000D03*
X225393000Y-68592000D03*
X225393000Y-69092000D03*
X225393000Y-69592000D03*
X225393000Y-70092000D03*
X225393000Y-70592000D03*
X225393000Y-71092000D03*
X225393000Y-71592000D03*
X225393000Y-72092000D03*
%TD*%
D14*
%TO.C,C2*%
X234823000Y-64779000D03*
X234823000Y-62729000D03*
%TD*%
D13*
%TO.C,D35*%
X231727440Y-100294927D03*
X231727440Y-102794927D03*
%TD*%
D10*
%TO.C,C4*%
X222123000Y-70095000D03*
X222123000Y-72145000D03*
%TD*%
D24*
%TO.C,J2*%
X237363000Y-49860000D03*
X237363000Y-56860000D03*
D25*
X235063000Y-59560000D03*
X239663000Y-58460000D03*
X239663000Y-54460000D03*
X239663000Y-51460000D03*
%TD*%
D26*
%TO.C,SW3*%
X114300000Y-66675000D03*
D27*
X109220000Y-66675000D03*
X119380000Y-66675000D03*
D28*
X119800000Y-66675000D03*
X108800000Y-66675000D03*
%TD*%
%TO.C,SW24*%
X186475000Y-111125000D03*
D26*
X180975000Y-111125000D03*
D27*
X175895000Y-111125000D03*
D28*
X175475000Y-111125000D03*
D27*
X186055000Y-111125000D03*
%TD*%
D28*
%TO.C,SW34*%
X194525000Y-113665000D03*
D27*
X205105000Y-113665000D03*
X194945000Y-113665000D03*
D28*
X205525000Y-113665000D03*
D26*
X200025000Y-113665000D03*
%TD*%
D28*
%TO.C,SW33*%
X196000000Y-92075000D03*
X185000000Y-92075000D03*
D27*
X185420000Y-92075000D03*
D26*
X190500000Y-92075000D03*
D27*
X195580000Y-92075000D03*
%TD*%
D28*
%TO.C,SW32*%
X196000000Y-73025000D03*
X185000000Y-73025000D03*
D27*
X195580000Y-73025000D03*
X185420000Y-73025000D03*
D26*
X190500000Y-73025000D03*
%TD*%
D27*
%TO.C,SW31*%
X195580000Y-53975000D03*
X185420000Y-53975000D03*
D26*
X190500000Y-53975000D03*
D28*
X196000000Y-53975000D03*
X185000000Y-53975000D03*
%TD*%
D27*
%TO.C,SW23*%
X176530000Y-89535000D03*
D26*
X171450000Y-89535000D03*
D27*
X166370000Y-89535000D03*
D28*
X176950000Y-89535000D03*
X165950000Y-89535000D03*
%TD*%
D27*
%TO.C,SW22*%
X176530000Y-70485000D03*
D28*
X165950000Y-70485000D03*
X176950000Y-70485000D03*
D27*
X166370000Y-70485000D03*
D26*
X171450000Y-70485000D03*
%TD*%
%TO.C,SW21*%
X171450000Y-51435000D03*
D28*
X165950000Y-51435000D03*
D27*
X166370000Y-51435000D03*
X176530000Y-51435000D03*
D28*
X176950000Y-51435000D03*
%TD*%
%TO.C,SW19*%
X127850000Y-102235000D03*
X138850000Y-102235000D03*
D27*
X138430000Y-102235000D03*
D26*
X133350000Y-102235000D03*
D27*
X128270000Y-102235000D03*
%TD*%
D28*
%TO.C,SW18*%
X138850000Y-83185000D03*
D26*
X133350000Y-83185000D03*
D28*
X127850000Y-83185000D03*
D27*
X128270000Y-83185000D03*
X138430000Y-83185000D03*
%TD*%
%TO.C,SW17*%
X128270000Y-64135000D03*
D28*
X127850000Y-64135000D03*
D27*
X138430000Y-64135000D03*
D28*
X138850000Y-64135000D03*
D26*
X133350000Y-64135000D03*
%TD*%
D27*
%TO.C,SW14*%
X214630000Y-94615000D03*
D28*
X215050000Y-94615000D03*
D27*
X204470000Y-94615000D03*
D26*
X209550000Y-94615000D03*
D28*
X204050000Y-94615000D03*
%TD*%
D27*
%TO.C,SW12*%
X204470000Y-56515000D03*
D28*
X215050000Y-56515000D03*
D26*
X209550000Y-56515000D03*
D27*
X214630000Y-56515000D03*
D28*
X204050000Y-56515000D03*
%TD*%
D27*
%TO.C,SW10*%
X167005000Y-111125000D03*
X156845000Y-111125000D03*
D28*
X167425000Y-111125000D03*
X156425000Y-111125000D03*
D26*
X161925000Y-111125000D03*
%TD*%
D28*
%TO.C,SW9*%
X146900000Y-92075000D03*
D26*
X152400000Y-92075000D03*
D27*
X147320000Y-92075000D03*
X157480000Y-92075000D03*
D28*
X157900000Y-92075000D03*
%TD*%
D27*
%TO.C,SW8*%
X157480000Y-73025000D03*
D26*
X152400000Y-73025000D03*
D28*
X146900000Y-73025000D03*
D27*
X147320000Y-73025000D03*
D28*
X157900000Y-73025000D03*
%TD*%
D27*
%TO.C,SW13*%
X204470000Y-75565000D03*
D26*
X209550000Y-75565000D03*
D28*
X204050000Y-75565000D03*
X215050000Y-75565000D03*
D27*
X214630000Y-75565000D03*
%TD*%
D26*
%TO.C,SW7*%
X152400000Y-53975000D03*
D28*
X146900000Y-53975000D03*
D27*
X147320000Y-53975000D03*
X157480000Y-53975000D03*
D28*
X157900000Y-53975000D03*
%TD*%
D26*
%TO.C,SW5*%
X114300000Y-104775000D03*
D27*
X109220000Y-104775000D03*
D28*
X119800000Y-104775000D03*
X108800000Y-104775000D03*
D27*
X119380000Y-104775000D03*
%TD*%
%TO.C,SW4*%
X109220000Y-85725000D03*
D28*
X119800000Y-85725000D03*
D26*
X114300000Y-85725000D03*
D27*
X119380000Y-85725000D03*
D28*
X108800000Y-85725000D03*
%TD*%
%TO.C,SW15*%
X217708861Y-116290912D03*
X227553139Y-121199088D03*
D26*
X222631000Y-118745000D03*
D27*
X227177267Y-121011685D03*
X218084733Y-116478315D03*
%TD*%
D24*
X220726000Y-69596000D03*
X220345000Y-74422000D03*
X227965000Y-80137000D03*
X238252000Y-71755000D03*
X221996000Y-83947000D03*
X236347000Y-63627000D03*
X235712000Y-81280000D03*
X223520000Y-61214000D03*
X230505000Y-59690000D03*
X226507489Y-53279489D03*
X238315000Y-92710000D03*
X234823000Y-73025000D03*
X235966000Y-71628000D03*
X235819000Y-70592000D03*
X235616000Y-69469000D03*
X228727000Y-89118927D03*
X230505000Y-70358000D03*
X230759000Y-94706927D03*
X231295661Y-69612394D03*
X230759000Y-100294927D03*
X232035892Y-68843108D03*
X232727096Y-67934685D03*
X232791000Y-105882927D03*
X231733288Y-67744851D03*
X231039426Y-68464974D03*
X227075996Y-66802000D03*
X227035097Y-67928177D03*
X227296223Y-68893494D03*
X223773988Y-68199000D03*
X230377996Y-69215000D03*
X229743000Y-71120000D03*
X223830091Y-69450510D03*
X223647000Y-70484902D03*
G36*
X233260846Y-105488951D02*
G01*
X233261440Y-105490374D01*
X233261440Y-106275477D01*
X233260440Y-106277209D01*
X233258440Y-106277209D01*
X233257521Y-106276040D01*
X233237845Y-106209028D01*
X233185502Y-106163673D01*
X233116917Y-106153812D01*
X233059363Y-106178054D01*
X233050922Y-106184531D01*
X233048939Y-106184792D01*
X233047721Y-106183205D01*
X233048290Y-106181530D01*
X233112968Y-106116852D01*
X233169498Y-106005907D01*
X233188975Y-105882927D01*
X233169498Y-105759947D01*
X233112968Y-105649002D01*
X233048293Y-105584327D01*
X233047775Y-105582395D01*
X233049189Y-105580981D01*
X233050925Y-105581326D01*
X233059338Y-105587782D01*
X233124213Y-105612863D01*
X233192059Y-105598947D01*
X233241634Y-105550539D01*
X233257505Y-105489868D01*
X233258911Y-105488445D01*
X233260846Y-105488951D01*
G37*
G36*
X232229359Y-105598886D02*
G01*
X232249035Y-105665898D01*
X232301378Y-105711253D01*
X232369931Y-105721110D01*
X232433108Y-105692258D01*
X232450077Y-105674247D01*
X232454958Y-105667886D01*
X232456806Y-105667121D01*
X232458393Y-105668339D01*
X232458327Y-105670012D01*
X232412502Y-105759947D01*
X232393025Y-105882927D01*
X232412502Y-106005907D01*
X232458324Y-106095838D01*
X232458219Y-106097835D01*
X232456437Y-106098743D01*
X232454955Y-106097963D01*
X232450196Y-106091760D01*
X232394020Y-106050741D01*
X232324885Y-106046622D01*
X232264498Y-106080535D01*
X232231939Y-106141886D01*
X232229430Y-106166611D01*
X232228260Y-106168233D01*
X232226270Y-106168031D01*
X232225440Y-106166409D01*
X232225440Y-105599449D01*
X232226440Y-105597717D01*
X232228440Y-105597717D01*
X232229359Y-105598886D01*
G37*
G36*
X231228846Y-99900951D02*
G01*
X231229440Y-99902374D01*
X231229440Y-100687477D01*
X231228440Y-100689209D01*
X231226440Y-100689209D01*
X231225521Y-100688040D01*
X231205845Y-100621028D01*
X231153502Y-100575673D01*
X231084917Y-100565812D01*
X231027363Y-100590054D01*
X231018922Y-100596531D01*
X231016939Y-100596792D01*
X231015721Y-100595205D01*
X231016290Y-100593530D01*
X231080968Y-100528852D01*
X231137498Y-100417907D01*
X231156975Y-100294927D01*
X231137498Y-100171947D01*
X231080968Y-100061002D01*
X231016293Y-99996327D01*
X231015775Y-99994395D01*
X231017189Y-99992981D01*
X231018925Y-99993326D01*
X231027338Y-99999782D01*
X231092213Y-100024863D01*
X231160059Y-100010947D01*
X231209634Y-99962539D01*
X231225505Y-99901868D01*
X231226911Y-99900445D01*
X231228846Y-99900951D01*
G37*
G36*
X230197359Y-100010886D02*
G01*
X230217035Y-100077898D01*
X230269378Y-100123253D01*
X230337931Y-100133110D01*
X230401108Y-100104258D01*
X230418077Y-100086247D01*
X230422958Y-100079886D01*
X230424806Y-100079121D01*
X230426393Y-100080339D01*
X230426327Y-100082012D01*
X230380502Y-100171947D01*
X230361025Y-100294927D01*
X230380502Y-100417907D01*
X230426324Y-100507838D01*
X230426219Y-100509835D01*
X230424437Y-100510743D01*
X230422955Y-100509963D01*
X230418196Y-100503760D01*
X230362020Y-100462741D01*
X230292885Y-100458622D01*
X230232498Y-100492535D01*
X230199939Y-100553886D01*
X230197430Y-100578611D01*
X230196260Y-100580233D01*
X230194270Y-100580031D01*
X230193440Y-100578409D01*
X230193440Y-100011449D01*
X230194440Y-100009717D01*
X230196440Y-100009717D01*
X230197359Y-100010886D01*
G37*
G36*
X231228846Y-94312951D02*
G01*
X231229440Y-94314374D01*
X231229440Y-95099477D01*
X231228440Y-95101209D01*
X231226440Y-95101209D01*
X231225521Y-95100040D01*
X231205845Y-95033028D01*
X231153502Y-94987673D01*
X231084917Y-94977812D01*
X231027363Y-95002054D01*
X231018922Y-95008531D01*
X231016939Y-95008792D01*
X231015721Y-95007205D01*
X231016290Y-95005530D01*
X231080968Y-94940852D01*
X231137498Y-94829907D01*
X231156975Y-94706927D01*
X231137498Y-94583947D01*
X231080968Y-94473002D01*
X231016293Y-94408327D01*
X231015775Y-94406395D01*
X231017189Y-94404981D01*
X231018925Y-94405326D01*
X231027338Y-94411782D01*
X231092213Y-94436863D01*
X231160059Y-94422947D01*
X231209634Y-94374539D01*
X231225505Y-94313868D01*
X231226911Y-94312445D01*
X231228846Y-94312951D01*
G37*
G36*
X230197359Y-94422886D02*
G01*
X230217035Y-94489898D01*
X230269378Y-94535253D01*
X230337931Y-94545110D01*
X230401108Y-94516258D01*
X230418077Y-94498247D01*
X230422958Y-94491886D01*
X230424806Y-94491121D01*
X230426393Y-94492339D01*
X230426327Y-94494012D01*
X230380502Y-94583947D01*
X230361025Y-94706927D01*
X230380502Y-94829907D01*
X230426324Y-94919838D01*
X230426219Y-94921835D01*
X230424437Y-94922743D01*
X230422955Y-94921963D01*
X230418196Y-94915760D01*
X230362020Y-94874741D01*
X230292885Y-94870622D01*
X230232498Y-94904535D01*
X230199939Y-94965886D01*
X230197430Y-94990611D01*
X230196260Y-94992233D01*
X230194270Y-94992031D01*
X230193440Y-94990409D01*
X230193440Y-94423449D01*
X230194440Y-94421717D01*
X230196440Y-94421717D01*
X230197359Y-94422886D01*
G37*
G36*
X229196846Y-88724951D02*
G01*
X229197440Y-88726374D01*
X229197440Y-89511477D01*
X229196440Y-89513209D01*
X229194440Y-89513209D01*
X229193521Y-89512040D01*
X229173845Y-89445028D01*
X229121502Y-89399673D01*
X229052917Y-89389812D01*
X228995363Y-89414054D01*
X228986922Y-89420531D01*
X228984939Y-89420792D01*
X228983721Y-89419205D01*
X228984290Y-89417530D01*
X229048968Y-89352852D01*
X229105498Y-89241907D01*
X229124975Y-89118927D01*
X229105498Y-88995947D01*
X229048968Y-88885002D01*
X228984293Y-88820327D01*
X228983775Y-88818395D01*
X228985189Y-88816981D01*
X228986925Y-88817326D01*
X228995338Y-88823782D01*
X229060213Y-88848863D01*
X229128059Y-88834947D01*
X229177634Y-88786539D01*
X229193505Y-88725868D01*
X229194911Y-88724445D01*
X229196846Y-88724951D01*
G37*
G36*
X228165359Y-88834886D02*
G01*
X228185035Y-88901898D01*
X228237378Y-88947253D01*
X228305931Y-88957110D01*
X228369108Y-88928258D01*
X228386077Y-88910247D01*
X228390958Y-88903886D01*
X228392806Y-88903121D01*
X228394393Y-88904339D01*
X228394327Y-88906012D01*
X228348502Y-88995947D01*
X228329025Y-89118927D01*
X228348502Y-89241907D01*
X228394324Y-89331838D01*
X228394219Y-89333835D01*
X228392437Y-89334743D01*
X228390955Y-89333963D01*
X228386196Y-89327760D01*
X228330020Y-89286741D01*
X228260885Y-89282622D01*
X228200498Y-89316535D01*
X228167939Y-89377886D01*
X228165430Y-89402611D01*
X228164260Y-89404233D01*
X228162270Y-89404031D01*
X228161440Y-89402409D01*
X228161440Y-88835449D01*
X228162440Y-88833717D01*
X228164440Y-88833717D01*
X228165359Y-88834886D01*
G37*
G36*
X230772859Y-69253830D02*
G01*
X230773583Y-69255645D01*
X230772487Y-69263966D01*
X230783205Y-69332691D01*
X230829179Y-69384490D01*
X230895861Y-69403211D01*
X230962195Y-69382873D01*
X230983054Y-69363453D01*
X230985003Y-69363005D01*
X230986366Y-69364469D01*
X230985831Y-69366331D01*
X230973693Y-69378469D01*
X230917163Y-69489414D01*
X230904032Y-69572323D01*
X230902774Y-69573877D01*
X230900798Y-69573564D01*
X230900074Y-69571749D01*
X230901170Y-69563428D01*
X230890452Y-69494703D01*
X230844478Y-69442904D01*
X230777796Y-69424183D01*
X230711462Y-69444521D01*
X230690603Y-69463941D01*
X230688654Y-69464389D01*
X230687291Y-69462925D01*
X230687826Y-69461063D01*
X230699964Y-69448925D01*
X230756494Y-69337980D01*
X230769625Y-69255071D01*
X230770883Y-69253517D01*
X230772859Y-69253830D01*
G37*
G36*
X230679645Y-68624687D02*
G01*
X230717458Y-68698899D01*
X230805501Y-68786942D01*
X230879712Y-68824755D01*
X230880801Y-68826432D01*
X230879893Y-68828214D01*
X230878039Y-68828385D01*
X230868995Y-68824638D01*
X230799832Y-68817203D01*
X230737902Y-68848203D01*
X230702561Y-68907765D01*
X230705038Y-68977106D01*
X230724177Y-69013173D01*
X230725058Y-69014321D01*
X230725319Y-69014774D01*
X230741407Y-69053614D01*
X230741146Y-69055597D01*
X230739298Y-69056362D01*
X230737777Y-69055287D01*
X230699964Y-68981075D01*
X230611921Y-68893032D01*
X230537710Y-68855219D01*
X230536621Y-68853542D01*
X230537529Y-68851760D01*
X230539383Y-68851589D01*
X230548427Y-68855336D01*
X230617590Y-68862771D01*
X230679520Y-68831771D01*
X230714861Y-68772209D01*
X230712384Y-68702868D01*
X230693245Y-68666801D01*
X230692364Y-68665653D01*
X230692103Y-68665200D01*
X230676015Y-68626360D01*
X230676276Y-68624377D01*
X230678124Y-68623612D01*
X230679645Y-68624687D01*
G37*
G36*
X227250010Y-68260955D02*
G01*
X227250918Y-68262737D01*
X227250139Y-68264219D01*
X227238700Y-68272996D01*
X227197683Y-68329170D01*
X227193566Y-68398305D01*
X227227479Y-68458692D01*
X227288892Y-68491282D01*
X227293342Y-68492031D01*
X227294884Y-68493304D01*
X227294552Y-68495277D01*
X227293323Y-68495978D01*
X227173243Y-68514996D01*
X227083310Y-68560819D01*
X227081313Y-68560714D01*
X227080405Y-68558932D01*
X227081185Y-68557450D01*
X227092619Y-68548677D01*
X227133637Y-68492502D01*
X227137756Y-68423367D01*
X227103843Y-68362980D01*
X227042430Y-68330389D01*
X227037978Y-68329640D01*
X227036436Y-68328367D01*
X227036768Y-68326395D01*
X227037997Y-68325693D01*
X227158077Y-68306675D01*
X227248013Y-68260850D01*
X227250010Y-68260955D01*
G37*
G36*
X231373504Y-67904559D02*
G01*
X231411320Y-67978776D01*
X231499363Y-68066819D01*
X231573583Y-68104636D01*
X231574672Y-68106313D01*
X231573764Y-68108095D01*
X231571910Y-68108266D01*
X231544770Y-68097024D01*
X231475607Y-68089589D01*
X231413677Y-68120589D01*
X231378337Y-68180152D01*
X231380818Y-68249630D01*
X231383811Y-68257654D01*
X231402840Y-68303593D01*
X231402579Y-68305576D01*
X231400731Y-68306341D01*
X231399210Y-68305266D01*
X231361394Y-68231049D01*
X231273351Y-68143006D01*
X231199131Y-68105189D01*
X231198042Y-68103512D01*
X231198950Y-68101730D01*
X231200804Y-68101559D01*
X231227944Y-68112801D01*
X231297107Y-68120236D01*
X231359037Y-68089236D01*
X231394377Y-68029673D01*
X231391896Y-67960195D01*
X231388903Y-67952171D01*
X231369874Y-67906232D01*
X231370135Y-67904249D01*
X231371983Y-67903484D01*
X231373504Y-67904559D01*
G37*
G36*
X232394489Y-67720097D02*
G01*
X232394423Y-67721770D01*
X232348598Y-67811705D01*
X232329121Y-67934685D01*
X232330706Y-67944695D01*
X232329990Y-67946562D01*
X232328014Y-67946875D01*
X232326902Y-67945817D01*
X232299788Y-67884528D01*
X232241974Y-67846393D01*
X232172720Y-67845569D01*
X232113908Y-67882384D01*
X232092245Y-67916991D01*
X232080611Y-67945078D01*
X232080350Y-67945531D01*
X232069330Y-67959892D01*
X232067482Y-67960657D01*
X232065895Y-67959439D01*
X232065961Y-67957766D01*
X232111786Y-67867831D01*
X232131263Y-67744851D01*
X232129678Y-67734841D01*
X232130394Y-67732974D01*
X232132370Y-67732661D01*
X232133482Y-67733719D01*
X232160596Y-67795008D01*
X232218410Y-67833143D01*
X232287664Y-67833967D01*
X232346476Y-67797152D01*
X232368139Y-67762545D01*
X232379773Y-67734458D01*
X232380034Y-67734005D01*
X232391054Y-67719644D01*
X232392902Y-67718879D01*
X232394489Y-67720097D01*
G37*
G36*
X223391890Y-54122322D02*
G01*
X223392000Y-54122976D01*
X223392000Y-55567111D01*
X223391000Y-55568843D01*
X223388889Y-55568774D01*
X223381935Y-55564128D01*
X223381763Y-55564000D01*
X223339056Y-55528309D01*
X223270341Y-55519676D01*
X223207710Y-55549640D01*
X223191511Y-55568334D01*
X223189621Y-55568988D01*
X223188110Y-55567678D01*
X223188000Y-55567024D01*
X223188000Y-54122889D01*
X223189000Y-54121157D01*
X223191111Y-54121226D01*
X223198065Y-54125872D01*
X223198237Y-54126000D01*
X223240944Y-54161691D01*
X223309659Y-54170324D01*
X223372290Y-54140360D01*
X223388489Y-54121666D01*
X223390379Y-54121012D01*
X223391890Y-54122322D01*
G37*
G36*
X225391890Y-54122322D02*
G01*
X225392000Y-54122976D01*
X225392000Y-55567111D01*
X225391000Y-55568843D01*
X225388889Y-55568774D01*
X225381935Y-55564128D01*
X225381763Y-55564000D01*
X225339056Y-55528309D01*
X225270341Y-55519676D01*
X225207710Y-55549640D01*
X225191511Y-55568334D01*
X225189621Y-55568988D01*
X225188110Y-55567678D01*
X225188000Y-55567024D01*
X225188000Y-54122889D01*
X225189000Y-54121157D01*
X225191111Y-54121226D01*
X225198065Y-54125872D01*
X225198237Y-54126000D01*
X225240944Y-54161691D01*
X225309659Y-54170324D01*
X225372290Y-54140360D01*
X225388489Y-54121666D01*
X225390379Y-54121012D01*
X225391890Y-54122322D01*
G37*
G36*
X222041890Y-54122322D02*
G01*
X222042000Y-54122976D01*
X222042000Y-55567111D01*
X222041000Y-55568843D01*
X222038889Y-55568774D01*
X222031935Y-55564128D01*
X222031763Y-55564000D01*
X221989056Y-55528309D01*
X221920341Y-55519676D01*
X221857710Y-55549640D01*
X221841511Y-55568334D01*
X221839621Y-55568988D01*
X221838110Y-55567678D01*
X221838000Y-55567024D01*
X221838000Y-54122889D01*
X221839000Y-54121157D01*
X221841111Y-54121226D01*
X221848065Y-54125872D01*
X221848237Y-54126000D01*
X221890944Y-54161691D01*
X221959659Y-54170324D01*
X222022290Y-54140360D01*
X222038489Y-54121666D01*
X222040379Y-54121012D01*
X222041890Y-54122322D01*
G37*
G36*
X224891890Y-54122322D02*
G01*
X224892000Y-54122976D01*
X224892000Y-55567111D01*
X224891000Y-55568843D01*
X224888889Y-55568774D01*
X224881935Y-55564128D01*
X224881763Y-55564000D01*
X224839056Y-55528309D01*
X224770341Y-55519676D01*
X224707710Y-55549640D01*
X224691511Y-55568334D01*
X224689621Y-55568988D01*
X224688110Y-55567678D01*
X224688000Y-55567024D01*
X224688000Y-54122889D01*
X224689000Y-54121157D01*
X224691111Y-54121226D01*
X224698065Y-54125872D01*
X224698237Y-54126000D01*
X224740944Y-54161691D01*
X224809659Y-54170324D01*
X224872290Y-54140360D01*
X224888489Y-54121666D01*
X224890379Y-54121012D01*
X224891890Y-54122322D01*
G37*
G36*
X226391890Y-54122322D02*
G01*
X226392000Y-54122976D01*
X226392000Y-55567111D01*
X226391000Y-55568843D01*
X226388889Y-55568774D01*
X226381935Y-55564128D01*
X226381763Y-55564000D01*
X226339056Y-55528309D01*
X226270341Y-55519676D01*
X226207710Y-55549640D01*
X226191511Y-55568334D01*
X226189621Y-55568988D01*
X226188110Y-55567678D01*
X226188000Y-55567024D01*
X226188000Y-54122889D01*
X226189000Y-54121157D01*
X226191111Y-54121226D01*
X226198065Y-54125872D01*
X226198237Y-54126000D01*
X226240944Y-54161691D01*
X226309659Y-54170324D01*
X226372290Y-54140360D01*
X226388489Y-54121666D01*
X226390379Y-54121012D01*
X226391890Y-54122322D01*
G37*
G36*
X227741890Y-54122322D02*
G01*
X227742000Y-54122976D01*
X227742000Y-55567111D01*
X227741000Y-55568843D01*
X227738889Y-55568774D01*
X227731935Y-55564128D01*
X227731763Y-55564000D01*
X227689056Y-55528309D01*
X227620341Y-55519676D01*
X227557710Y-55549640D01*
X227541511Y-55568334D01*
X227539621Y-55568988D01*
X227538110Y-55567678D01*
X227538000Y-55567024D01*
X227538000Y-54122889D01*
X227539000Y-54121157D01*
X227541111Y-54121226D01*
X227548065Y-54125872D01*
X227548237Y-54126000D01*
X227590944Y-54161691D01*
X227659659Y-54170324D01*
X227722290Y-54140360D01*
X227738489Y-54121666D01*
X227740379Y-54121012D01*
X227741890Y-54122322D01*
G37*
G36*
X224391890Y-54122322D02*
G01*
X224392000Y-54122976D01*
X224392000Y-55567111D01*
X224391000Y-55568843D01*
X224388889Y-55568774D01*
X224381935Y-55564128D01*
X224381763Y-55564000D01*
X224339056Y-55528309D01*
X224270341Y-55519676D01*
X224207710Y-55549640D01*
X224191511Y-55568334D01*
X224189621Y-55568988D01*
X224188110Y-55567678D01*
X224188000Y-55567024D01*
X224188000Y-54122889D01*
X224189000Y-54121157D01*
X224191111Y-54121226D01*
X224198065Y-54125872D01*
X224198237Y-54126000D01*
X224240944Y-54161691D01*
X224309659Y-54170324D01*
X224372290Y-54140360D01*
X224388489Y-54121666D01*
X224390379Y-54121012D01*
X224391890Y-54122322D01*
G37*
G36*
X225891890Y-54122322D02*
G01*
X225892000Y-54122976D01*
X225892000Y-55567111D01*
X225891000Y-55568843D01*
X225888889Y-55568774D01*
X225881935Y-55564128D01*
X225881763Y-55564000D01*
X225839056Y-55528309D01*
X225770341Y-55519676D01*
X225707710Y-55549640D01*
X225691511Y-55568334D01*
X225689621Y-55568988D01*
X225688110Y-55567678D01*
X225688000Y-55567024D01*
X225688000Y-54122889D01*
X225689000Y-54121157D01*
X225691111Y-54121226D01*
X225698065Y-54125872D01*
X225698237Y-54126000D01*
X225740944Y-54161691D01*
X225809659Y-54170324D01*
X225872290Y-54140360D01*
X225888489Y-54121666D01*
X225890379Y-54121012D01*
X225891890Y-54122322D01*
G37*
G36*
X223891890Y-54122322D02*
G01*
X223892000Y-54122976D01*
X223892000Y-55567111D01*
X223891000Y-55568843D01*
X223888889Y-55568774D01*
X223881935Y-55564128D01*
X223881763Y-55564000D01*
X223839056Y-55528309D01*
X223770341Y-55519676D01*
X223707710Y-55549640D01*
X223691511Y-55568334D01*
X223689621Y-55568988D01*
X223688110Y-55567678D01*
X223688000Y-55567024D01*
X223688000Y-54122889D01*
X223689000Y-54121157D01*
X223691111Y-54121226D01*
X223698065Y-54125872D01*
X223698237Y-54126000D01*
X223740944Y-54161691D01*
X223809659Y-54170324D01*
X223872290Y-54140360D01*
X223888489Y-54121666D01*
X223890379Y-54121012D01*
X223891890Y-54122322D01*
G37*
M02*
