%TF.GenerationSoftware,KiCad,Pcbnew,6.0.5-2.fc36*%
%TF.CreationDate,2022-06-13T15:26:01-05:00*%
%TF.ProjectId,left,6c656674-2e6b-4696-9361-645f70636258,rev?*%
%TF.SameCoordinates,Original*%
%TF.FileFunction,Paste,Top*%
%TF.FilePolarity,Positive*%
%FSLAX46Y46*%
G04 Gerber Fmt 4.6, Leading zero omitted, Abs format (unit mm)*
G04 Created by KiCad (PCBNEW 6.0.5-2.fc36) date 2022-06-13 15:26:01*
%MOMM*%
%LPD*%
G01*
G04 APERTURE LIST*
G04 Aperture macros list*
%AMRoundRect*
0 Rectangle with rounded corners*
0 $1 Rounding radius*
0 $2 $3 $4 $5 $6 $7 $8 $9 X,Y pos of 4 corners*
0 Add a 4 corners polygon primitive as box body*
4,1,4,$2,$3,$4,$5,$6,$7,$8,$9,$2,$3,0*
0 Add four circle primitives for the rounded corners*
1,1,$1+$1,$2,$3*
1,1,$1+$1,$4,$5*
1,1,$1+$1,$6,$7*
1,1,$1+$1,$8,$9*
0 Add four rect primitives between the rounded corners*
20,1,$1+$1,$2,$3,$4,$5,0*
20,1,$1+$1,$4,$5,$6,$7,0*
20,1,$1+$1,$6,$7,$8,$9,0*
20,1,$1+$1,$8,$9,$2,$3,0*%
G04 Aperture macros list end*
%ADD10RoundRect,0.249999X-0.450001X0.325001X-0.450001X-0.325001X0.450001X-0.325001X0.450001X0.325001X0*%
%ADD11RoundRect,0.249999X0.325001X0.450001X-0.325001X0.450001X-0.325001X-0.450001X0.325001X-0.450001X0*%
%ADD12R,0.800000X0.900000*%
%ADD13R,1.000000X1.000000*%
%ADD14RoundRect,0.249999X0.450001X-0.325001X0.450001X0.325001X-0.450001X0.325001X-0.450001X-0.325001X0*%
%ADD15RoundRect,0.249999X-0.325001X-0.450001X0.325001X-0.450001X0.325001X0.450001X-0.325001X0.450001X0*%
%ADD16R,1.500000X1.500000*%
%ADD17R,0.600000X1.450000*%
%ADD18R,0.300000X1.450000*%
%ADD19R,0.250000X1.300000*%
%ADD20R,1.300000X0.250000*%
G04 APERTURE END LIST*
D10*
%TO.C,R7*%
X228727000Y-57649000D03*
X228727000Y-59699000D03*
%TD*%
%TO.C,R6*%
X224155000Y-57649000D03*
X224155000Y-59699000D03*
%TD*%
D11*
%TO.C,R1*%
X224155000Y-74422000D03*
X222105000Y-74422000D03*
%TD*%
D12*
%TO.C,U2*%
X220157000Y-63230000D03*
X222057000Y-63230000D03*
X221107000Y-61230000D03*
%TD*%
D13*
%TO.C,D17*%
X233759440Y-105882927D03*
X233759440Y-108382927D03*
%TD*%
%TO.C,D19*%
X225631440Y-89118927D03*
X225631440Y-91618927D03*
%TD*%
%TO.C,D20*%
X225631440Y-94706927D03*
X225631440Y-97206927D03*
%TD*%
%TO.C,D21*%
X225631440Y-100294927D03*
X225631440Y-102794927D03*
%TD*%
%TO.C,D23*%
X229695440Y-89118927D03*
X229695440Y-91618927D03*
%TD*%
%TO.C,D24*%
X229695440Y-94706927D03*
X229695440Y-97206927D03*
%TD*%
%TO.C,D25*%
X229695440Y-100294927D03*
X229695440Y-102794927D03*
%TD*%
%TO.C,D26*%
X229695440Y-105882927D03*
X229695440Y-108382927D03*
%TD*%
%TO.C,D33*%
X231727440Y-89118927D03*
X231727440Y-91618927D03*
%TD*%
%TO.C,D34*%
X231727440Y-94706927D03*
X231727440Y-97206927D03*
%TD*%
%TO.C,D15*%
X233759440Y-94706927D03*
X233759440Y-97206927D03*
%TD*%
%TO.C,D36*%
X231727440Y-105882927D03*
X231727440Y-108382927D03*
%TD*%
%TO.C,D5*%
X223599440Y-89118927D03*
X223599440Y-91618927D03*
%TD*%
%TO.C,D6*%
X223599440Y-94706927D03*
X223599440Y-97206927D03*
%TD*%
%TO.C,D7*%
X223599440Y-100294927D03*
X223599440Y-102794927D03*
%TD*%
%TO.C,D9*%
X227663440Y-89118927D03*
X227663440Y-91618927D03*
%TD*%
%TO.C,D10*%
X227663440Y-94706927D03*
X227663440Y-97206927D03*
%TD*%
%TO.C,D11*%
X227663440Y-100294927D03*
X227663440Y-102794927D03*
%TD*%
%TO.C,D12*%
X227663440Y-105882927D03*
X227663440Y-108382927D03*
%TD*%
%TO.C,D14*%
X233759440Y-89118927D03*
X233759440Y-91618927D03*
%TD*%
%TO.C,D16*%
X233759440Y-100294927D03*
X233759440Y-102794927D03*
%TD*%
D14*
%TO.C,C1*%
X220726000Y-79638000D03*
X220726000Y-77588000D03*
%TD*%
D15*
%TO.C,C6*%
X220082000Y-65278000D03*
X222132000Y-65278000D03*
%TD*%
D14*
%TO.C,C3*%
X234315000Y-76463000D03*
X234315000Y-74413000D03*
%TD*%
D10*
%TO.C,C5*%
X225044000Y-62221000D03*
X225044000Y-64271000D03*
%TD*%
D15*
%TO.C,C7*%
X220082000Y-59182000D03*
X222132000Y-59182000D03*
%TD*%
D16*
%TO.C,SW2*%
X224663000Y-85434000D03*
X224663000Y-77634000D03*
%TD*%
%TO.C,SW1*%
X230759000Y-85434000D03*
X230759000Y-77634000D03*
%TD*%
D17*
%TO.C,J1*%
X228040000Y-54845000D03*
X227240000Y-54845000D03*
D18*
X226040000Y-54845000D03*
X225040000Y-54845000D03*
X224540000Y-54845000D03*
X223540000Y-54845000D03*
D17*
X222340000Y-54845000D03*
X221540000Y-54845000D03*
X221540000Y-54845000D03*
X222340000Y-54845000D03*
D18*
X223040000Y-54845000D03*
X224040000Y-54845000D03*
X225540000Y-54845000D03*
X226540000Y-54845000D03*
D17*
X227240000Y-54845000D03*
X228040000Y-54845000D03*
%TD*%
D19*
%TO.C,U1*%
X226993000Y-73692000D03*
X227493000Y-73692000D03*
X227993000Y-73692000D03*
X228493000Y-73692000D03*
X228993000Y-73692000D03*
X229493000Y-73692000D03*
X229993000Y-73692000D03*
X230493000Y-73692000D03*
X230993000Y-73692000D03*
X231493000Y-73692000D03*
X231993000Y-73692000D03*
X232493000Y-73692000D03*
D20*
X234093000Y-72092000D03*
X234093000Y-71592000D03*
X234093000Y-71092000D03*
X234093000Y-70592000D03*
X234093000Y-70092000D03*
X234093000Y-69592000D03*
X234093000Y-69092000D03*
X234093000Y-68592000D03*
X234093000Y-68092000D03*
X234093000Y-67592000D03*
X234093000Y-67092000D03*
X234093000Y-66592000D03*
D19*
X232493000Y-64992000D03*
X231993000Y-64992000D03*
X231493000Y-64992000D03*
X230993000Y-64992000D03*
X230493000Y-64992000D03*
X229993000Y-64992000D03*
X229493000Y-64992000D03*
X228993000Y-64992000D03*
X228493000Y-64992000D03*
X227993000Y-64992000D03*
X227493000Y-64992000D03*
X226993000Y-64992000D03*
D20*
X225393000Y-66592000D03*
X225393000Y-67092000D03*
X225393000Y-67592000D03*
X225393000Y-68092000D03*
X225393000Y-68592000D03*
X225393000Y-69092000D03*
X225393000Y-69592000D03*
X225393000Y-70092000D03*
X225393000Y-70592000D03*
X225393000Y-71092000D03*
X225393000Y-71592000D03*
X225393000Y-72092000D03*
%TD*%
D14*
%TO.C,C2*%
X234823000Y-64779000D03*
X234823000Y-62729000D03*
%TD*%
D13*
%TO.C,D35*%
X231727440Y-100294927D03*
X231727440Y-102794927D03*
%TD*%
D10*
%TO.C,C4*%
X222123000Y-70095000D03*
X222123000Y-72145000D03*
%TD*%
M02*
