%TF.GenerationSoftware,KiCad,Pcbnew,6.0.5-2.fc36*%
%TF.CreationDate,2022-06-13T15:26:01-05:00*%
%TF.ProjectId,left,6c656674-2e6b-4696-9361-645f70636258,rev?*%
%TF.SameCoordinates,Original*%
%TF.FileFunction,Legend,Top*%
%TF.FilePolarity,Positive*%
%FSLAX46Y46*%
G04 Gerber Fmt 4.6, Leading zero omitted, Abs format (unit mm)*
G04 Created by KiCad (PCBNEW 6.0.5-2.fc36) date 2022-06-13 15:26:01*
%MOMM*%
%LPD*%
G01*
G04 APERTURE LIST*
G04 Aperture macros list*
%AMRoundRect*
0 Rectangle with rounded corners*
0 $1 Rounding radius*
0 $2 $3 $4 $5 $6 $7 $8 $9 X,Y pos of 4 corners*
0 Add a 4 corners polygon primitive as box body*
4,1,4,$2,$3,$4,$5,$6,$7,$8,$9,$2,$3,0*
0 Add four circle primitives for the rounded corners*
1,1,$1+$1,$2,$3*
1,1,$1+$1,$4,$5*
1,1,$1+$1,$6,$7*
1,1,$1+$1,$8,$9*
0 Add four rect primitives between the rounded corners*
20,1,$1+$1,$2,$3,$4,$5,0*
20,1,$1+$1,$4,$5,$6,$7,0*
20,1,$1+$1,$6,$7,$8,$9,0*
20,1,$1+$1,$8,$9,$2,$3,0*%
G04 Aperture macros list end*
%ADD10C,0.200000*%
%ADD11C,0.150000*%
%ADD12C,0.120000*%
%ADD13C,2.200000*%
%ADD14RoundRect,0.249999X-0.450001X0.325001X-0.450001X-0.325001X0.450001X-0.325001X0.450001X0.325001X0*%
%ADD15RoundRect,0.249999X0.325001X0.450001X-0.325001X0.450001X-0.325001X-0.450001X0.325001X-0.450001X0*%
%ADD16R,0.800000X0.900000*%
%ADD17R,1.000000X1.000000*%
%ADD18RoundRect,0.249999X0.450001X-0.325001X0.450001X0.325001X-0.450001X0.325001X-0.450001X-0.325001X0*%
%ADD19RoundRect,0.249999X-0.325001X-0.450001X0.325001X-0.450001X0.325001X0.450001X-0.325001X0.450001X0*%
%ADD20R,1.500000X1.500000*%
%ADD21C,0.650000*%
%ADD22R,0.600000X1.450000*%
%ADD23R,0.300000X1.450000*%
%ADD24O,1.000000X1.600000*%
%ADD25O,1.000000X2.100000*%
%ADD26R,0.250000X1.300000*%
%ADD27R,1.300000X0.250000*%
%ADD28C,0.800000*%
%ADD29O,1.000000X1.400000*%
%ADD30C,4.000000*%
%ADD31C,1.700000*%
%ADD32C,1.900000*%
G04 APERTURE END LIST*
D10*
X167754761Y-55060904D02*
X167754761Y-55632333D01*
X167716666Y-55746619D01*
X167640476Y-55822809D01*
X167526190Y-55860904D01*
X167450000Y-55860904D01*
X168516666Y-55860904D02*
X168135714Y-55860904D01*
X168135714Y-55060904D01*
X169240476Y-55784714D02*
X169202380Y-55822809D01*
X169088095Y-55860904D01*
X169011904Y-55860904D01*
X168897619Y-55822809D01*
X168821428Y-55746619D01*
X168783333Y-55670428D01*
X168745238Y-55518047D01*
X168745238Y-55403761D01*
X168783333Y-55251380D01*
X168821428Y-55175190D01*
X168897619Y-55099000D01*
X169011904Y-55060904D01*
X169088095Y-55060904D01*
X169202380Y-55099000D01*
X169240476Y-55137095D01*
X169811904Y-55060904D02*
X169811904Y-55632333D01*
X169773809Y-55746619D01*
X169697619Y-55822809D01*
X169583333Y-55860904D01*
X169507142Y-55860904D01*
X170573809Y-55860904D02*
X170192857Y-55860904D01*
X170192857Y-55060904D01*
X171297619Y-55784714D02*
X171259523Y-55822809D01*
X171145238Y-55860904D01*
X171069047Y-55860904D01*
X170954761Y-55822809D01*
X170878571Y-55746619D01*
X170840476Y-55670428D01*
X170802380Y-55518047D01*
X170802380Y-55403761D01*
X170840476Y-55251380D01*
X170878571Y-55175190D01*
X170954761Y-55099000D01*
X171069047Y-55060904D01*
X171145238Y-55060904D01*
X171259523Y-55099000D01*
X171297619Y-55137095D01*
X171869047Y-55060904D02*
X171869047Y-55632333D01*
X171830952Y-55746619D01*
X171754761Y-55822809D01*
X171640476Y-55860904D01*
X171564285Y-55860904D01*
X172630952Y-55860904D02*
X172250000Y-55860904D01*
X172250000Y-55060904D01*
X173354761Y-55784714D02*
X173316666Y-55822809D01*
X173202380Y-55860904D01*
X173126190Y-55860904D01*
X173011904Y-55822809D01*
X172935714Y-55746619D01*
X172897619Y-55670428D01*
X172859523Y-55518047D01*
X172859523Y-55403761D01*
X172897619Y-55251380D01*
X172935714Y-55175190D01*
X173011904Y-55099000D01*
X173126190Y-55060904D01*
X173202380Y-55060904D01*
X173316666Y-55099000D01*
X173354761Y-55137095D01*
X173926190Y-55060904D02*
X173926190Y-55632333D01*
X173888095Y-55746619D01*
X173811904Y-55822809D01*
X173697619Y-55860904D01*
X173621428Y-55860904D01*
X174688095Y-55860904D02*
X174307142Y-55860904D01*
X174307142Y-55060904D01*
X175411904Y-55784714D02*
X175373809Y-55822809D01*
X175259523Y-55860904D01*
X175183333Y-55860904D01*
X175069047Y-55822809D01*
X174992857Y-55746619D01*
X174954761Y-55670428D01*
X174916666Y-55518047D01*
X174916666Y-55403761D01*
X174954761Y-55251380D01*
X174992857Y-55175190D01*
X175069047Y-55099000D01*
X175183333Y-55060904D01*
X175259523Y-55060904D01*
X175373809Y-55099000D01*
X175411904Y-55137095D01*
X239212380Y-103771904D02*
X238212380Y-103771904D01*
X239212380Y-103200476D02*
X238640952Y-103629047D01*
X238212380Y-103200476D02*
X238783809Y-103771904D01*
X239164761Y-102390952D02*
X239212380Y-102486190D01*
X239212380Y-102676666D01*
X239164761Y-102771904D01*
X239069523Y-102819523D01*
X238688571Y-102819523D01*
X238593333Y-102771904D01*
X238545714Y-102676666D01*
X238545714Y-102486190D01*
X238593333Y-102390952D01*
X238688571Y-102343333D01*
X238783809Y-102343333D01*
X238879047Y-102819523D01*
X238545714Y-102010000D02*
X239212380Y-101771904D01*
X238545714Y-101533809D02*
X239212380Y-101771904D01*
X239450476Y-101867142D01*
X239498095Y-101914761D01*
X239545714Y-102010000D01*
X239164761Y-101200476D02*
X239212380Y-101057619D01*
X239212380Y-100819523D01*
X239164761Y-100724285D01*
X239117142Y-100676666D01*
X239021904Y-100629047D01*
X238926666Y-100629047D01*
X238831428Y-100676666D01*
X238783809Y-100724285D01*
X238736190Y-100819523D01*
X238688571Y-101010000D01*
X238640952Y-101105238D01*
X238593333Y-101152857D01*
X238498095Y-101200476D01*
X238402857Y-101200476D01*
X238307619Y-101152857D01*
X238260000Y-101105238D01*
X238212380Y-101010000D01*
X238212380Y-100771904D01*
X238260000Y-100629047D01*
X239164761Y-99819523D02*
X239212380Y-99914761D01*
X239212380Y-100105238D01*
X239164761Y-100200476D01*
X239069523Y-100248095D01*
X238688571Y-100248095D01*
X238593333Y-100200476D01*
X238545714Y-100105238D01*
X238545714Y-99914761D01*
X238593333Y-99819523D01*
X238688571Y-99771904D01*
X238783809Y-99771904D01*
X238879047Y-100248095D01*
X239164761Y-98962380D02*
X239212380Y-99057619D01*
X239212380Y-99248095D01*
X239164761Y-99343333D01*
X239069523Y-99390952D01*
X238688571Y-99390952D01*
X238593333Y-99343333D01*
X238545714Y-99248095D01*
X238545714Y-99057619D01*
X238593333Y-98962380D01*
X238688571Y-98914761D01*
X238783809Y-98914761D01*
X238879047Y-99390952D01*
X238688571Y-98152857D02*
X238736190Y-98010000D01*
X238783809Y-97962380D01*
X238879047Y-97914761D01*
X239021904Y-97914761D01*
X239117142Y-97962380D01*
X239164761Y-98010000D01*
X239212380Y-98105238D01*
X239212380Y-98486190D01*
X238212380Y-98486190D01*
X238212380Y-98152857D01*
X238260000Y-98057619D01*
X238307619Y-98010000D01*
X238402857Y-97962380D01*
X238498095Y-97962380D01*
X238593333Y-98010000D01*
X238640952Y-98057619D01*
X238688571Y-98152857D01*
X238688571Y-98486190D01*
X239164761Y-97105238D02*
X239212380Y-97200476D01*
X239212380Y-97390952D01*
X239164761Y-97486190D01*
X239069523Y-97533809D01*
X238688571Y-97533809D01*
X238593333Y-97486190D01*
X238545714Y-97390952D01*
X238545714Y-97200476D01*
X238593333Y-97105238D01*
X238688571Y-97057619D01*
X238783809Y-97057619D01*
X238879047Y-97533809D01*
X239164761Y-96248095D02*
X239212380Y-96343333D01*
X239212380Y-96533809D01*
X239164761Y-96629047D01*
X239069523Y-96676666D01*
X238688571Y-96676666D01*
X238593333Y-96629047D01*
X238545714Y-96533809D01*
X238545714Y-96343333D01*
X238593333Y-96248095D01*
X238688571Y-96200476D01*
X238783809Y-96200476D01*
X238879047Y-96676666D01*
X238545714Y-95105238D02*
X239212380Y-94867142D01*
X238545714Y-94629047D01*
X238212380Y-94057619D02*
X238212380Y-93962380D01*
X238260000Y-93867142D01*
X238307619Y-93819523D01*
X238402857Y-93771904D01*
X238593333Y-93724285D01*
X238831428Y-93724285D01*
X239021904Y-93771904D01*
X239117142Y-93819523D01*
X239164761Y-93867142D01*
X239212380Y-93962380D01*
X239212380Y-94057619D01*
X239164761Y-94152857D01*
X239117142Y-94200476D01*
X239021904Y-94248095D01*
X238831428Y-94295714D01*
X238593333Y-94295714D01*
X238402857Y-94248095D01*
X238307619Y-94200476D01*
X238260000Y-94152857D01*
X238212380Y-94057619D01*
X239117142Y-93295714D02*
X239164761Y-93248095D01*
X239212380Y-93295714D01*
X239164761Y-93343333D01*
X239117142Y-93295714D01*
X239212380Y-93295714D01*
X238545714Y-92390952D02*
X239212380Y-92390952D01*
X238164761Y-92629047D02*
X238879047Y-92867142D01*
X238879047Y-92248095D01*
X239212380Y-91105238D02*
X238212380Y-91105238D01*
X238593333Y-91105238D02*
X238545714Y-91010000D01*
X238545714Y-90819523D01*
X238593333Y-90724285D01*
X238640952Y-90676666D01*
X238736190Y-90629047D01*
X239021904Y-90629047D01*
X239117142Y-90676666D01*
X239164761Y-90724285D01*
X239212380Y-90819523D01*
X239212380Y-91010000D01*
X239164761Y-91105238D01*
X238545714Y-90295714D02*
X239212380Y-90057619D01*
X238545714Y-89819523D02*
X239212380Y-90057619D01*
X239450476Y-90152857D01*
X239498095Y-90200476D01*
X239545714Y-90295714D01*
X238212380Y-88819523D02*
X238212380Y-88248095D01*
X239212380Y-88533809D02*
X238212380Y-88533809D01*
X239164761Y-87533809D02*
X239212380Y-87629047D01*
X239212380Y-87819523D01*
X239164761Y-87914761D01*
X239069523Y-87962380D01*
X238688571Y-87962380D01*
X238593333Y-87914761D01*
X238545714Y-87819523D01*
X238545714Y-87629047D01*
X238593333Y-87533809D01*
X238688571Y-87486190D01*
X238783809Y-87486190D01*
X238879047Y-87962380D01*
X238212380Y-87152857D02*
X239212380Y-86486190D01*
X238212380Y-86486190D02*
X239212380Y-87152857D01*
X239212380Y-86105238D02*
X238545714Y-86105238D01*
X238212380Y-86105238D02*
X238260000Y-86152857D01*
X238307619Y-86105238D01*
X238260000Y-86057619D01*
X238212380Y-86105238D01*
X238307619Y-86105238D01*
X238545714Y-85771904D02*
X238545714Y-85390952D01*
X238212380Y-85629047D02*
X239069523Y-85629047D01*
X239164761Y-85581428D01*
X239212380Y-85486190D01*
X239212380Y-85390952D01*
X239212380Y-84914761D02*
X239164761Y-85010000D01*
X239117142Y-85057619D01*
X239021904Y-85105238D01*
X238736190Y-85105238D01*
X238640952Y-85057619D01*
X238593333Y-85010000D01*
X238545714Y-84914761D01*
X238545714Y-84771904D01*
X238593333Y-84676666D01*
X238640952Y-84629047D01*
X238736190Y-84581428D01*
X239021904Y-84581428D01*
X239117142Y-84629047D01*
X239164761Y-84676666D01*
X239212380Y-84771904D01*
X239212380Y-84914761D01*
X239212380Y-84152857D02*
X238545714Y-84152857D01*
X238212380Y-84152857D02*
X238260000Y-84200476D01*
X238307619Y-84152857D01*
X238260000Y-84105238D01*
X238212380Y-84152857D01*
X238307619Y-84152857D01*
D11*
%TO.C,R7*%
X229829380Y-59554952D02*
X229829380Y-60031142D01*
X230305571Y-60078761D01*
X230257952Y-60031142D01*
X230210333Y-59935904D01*
X230210333Y-59697809D01*
X230257952Y-59602571D01*
X230305571Y-59554952D01*
X230400809Y-59507333D01*
X230638904Y-59507333D01*
X230734142Y-59554952D01*
X230781761Y-59602571D01*
X230829380Y-59697809D01*
X230829380Y-59935904D01*
X230781761Y-60031142D01*
X230734142Y-60078761D01*
X230734142Y-59078761D02*
X230781761Y-59031142D01*
X230829380Y-59078761D01*
X230781761Y-59126380D01*
X230734142Y-59078761D01*
X230829380Y-59078761D01*
X230829380Y-58078761D02*
X230829380Y-58650190D01*
X230829380Y-58364476D02*
X229829380Y-58364476D01*
X229972238Y-58459714D01*
X230067476Y-58554952D01*
X230115095Y-58650190D01*
X230829380Y-57650190D02*
X229829380Y-57650190D01*
X230448428Y-57554952D02*
X230829380Y-57269238D01*
X230162714Y-57269238D02*
X230543666Y-57650190D01*
%TO.C,R6*%
X225257380Y-59554952D02*
X225257380Y-60031142D01*
X225733571Y-60078761D01*
X225685952Y-60031142D01*
X225638333Y-59935904D01*
X225638333Y-59697809D01*
X225685952Y-59602571D01*
X225733571Y-59554952D01*
X225828809Y-59507333D01*
X226066904Y-59507333D01*
X226162142Y-59554952D01*
X226209761Y-59602571D01*
X226257380Y-59697809D01*
X226257380Y-59935904D01*
X226209761Y-60031142D01*
X226162142Y-60078761D01*
X226162142Y-59078761D02*
X226209761Y-59031142D01*
X226257380Y-59078761D01*
X226209761Y-59126380D01*
X226162142Y-59078761D01*
X226257380Y-59078761D01*
X226257380Y-58078761D02*
X226257380Y-58650190D01*
X226257380Y-58364476D02*
X225257380Y-58364476D01*
X225400238Y-58459714D01*
X225495476Y-58554952D01*
X225543095Y-58650190D01*
X226257380Y-57650190D02*
X225257380Y-57650190D01*
X225876428Y-57554952D02*
X226257380Y-57269238D01*
X225590714Y-57269238D02*
X225971666Y-57650190D01*
%TO.C,R1*%
X222249047Y-75524380D02*
X221772857Y-75524380D01*
X221725238Y-76000571D01*
X221772857Y-75952952D01*
X221868095Y-75905333D01*
X222106190Y-75905333D01*
X222201428Y-75952952D01*
X222249047Y-76000571D01*
X222296666Y-76095809D01*
X222296666Y-76333904D01*
X222249047Y-76429142D01*
X222201428Y-76476761D01*
X222106190Y-76524380D01*
X221868095Y-76524380D01*
X221772857Y-76476761D01*
X221725238Y-76429142D01*
X222725238Y-76429142D02*
X222772857Y-76476761D01*
X222725238Y-76524380D01*
X222677619Y-76476761D01*
X222725238Y-76429142D01*
X222725238Y-76524380D01*
X223725238Y-76524380D02*
X223153809Y-76524380D01*
X223439523Y-76524380D02*
X223439523Y-75524380D01*
X223344285Y-75667238D01*
X223249047Y-75762476D01*
X223153809Y-75810095D01*
X224153809Y-76524380D02*
X224153809Y-75524380D01*
X224249047Y-76143428D02*
X224534761Y-76524380D01*
X224534761Y-75857714D02*
X224153809Y-76238666D01*
%TO.C,C1*%
X219528380Y-80160619D02*
X219528380Y-80732047D01*
X219528380Y-80446333D02*
X218528380Y-80446333D01*
X218671238Y-80541571D01*
X218766476Y-80636809D01*
X218814095Y-80732047D01*
X218528380Y-79541571D02*
X218528380Y-79446333D01*
X218576000Y-79351095D01*
X218623619Y-79303476D01*
X218718857Y-79255857D01*
X218909333Y-79208238D01*
X219147428Y-79208238D01*
X219337904Y-79255857D01*
X219433142Y-79303476D01*
X219480761Y-79351095D01*
X219528380Y-79446333D01*
X219528380Y-79541571D01*
X219480761Y-79636809D01*
X219433142Y-79684428D01*
X219337904Y-79732047D01*
X219147428Y-79779666D01*
X218909333Y-79779666D01*
X218718857Y-79732047D01*
X218623619Y-79684428D01*
X218576000Y-79636809D01*
X218528380Y-79541571D01*
X218528380Y-78589190D02*
X218528380Y-78493952D01*
X218576000Y-78398714D01*
X218623619Y-78351095D01*
X218718857Y-78303476D01*
X218909333Y-78255857D01*
X219147428Y-78255857D01*
X219337904Y-78303476D01*
X219433142Y-78351095D01*
X219480761Y-78398714D01*
X219528380Y-78493952D01*
X219528380Y-78589190D01*
X219480761Y-78684428D01*
X219433142Y-78732047D01*
X219337904Y-78779666D01*
X219147428Y-78827285D01*
X218909333Y-78827285D01*
X218718857Y-78779666D01*
X218623619Y-78732047D01*
X218576000Y-78684428D01*
X218528380Y-78589190D01*
X218861714Y-77827285D02*
X219528380Y-77827285D01*
X218956952Y-77827285D02*
X218909333Y-77779666D01*
X218861714Y-77684428D01*
X218861714Y-77541571D01*
X218909333Y-77446333D01*
X219004571Y-77398714D01*
X219528380Y-77398714D01*
X219004571Y-76589190D02*
X219004571Y-76922523D01*
X219528380Y-76922523D02*
X218528380Y-76922523D01*
X218528380Y-76446333D01*
%TO.C,C6*%
X220440333Y-67380380D02*
X219868904Y-67380380D01*
X220154619Y-67380380D02*
X220154619Y-66380380D01*
X220059380Y-66523238D01*
X219964142Y-66618476D01*
X219868904Y-66666095D01*
X220868904Y-66713714D02*
X220868904Y-67713714D01*
X221345095Y-67237523D02*
X221392714Y-67332761D01*
X221487952Y-67380380D01*
X220868904Y-67237523D02*
X220916523Y-67332761D01*
X221011761Y-67380380D01*
X221202238Y-67380380D01*
X221297476Y-67332761D01*
X221345095Y-67237523D01*
X221345095Y-66713714D01*
X222249857Y-66856571D02*
X221916523Y-66856571D01*
X221916523Y-67380380D02*
X221916523Y-66380380D01*
X222392714Y-66380380D01*
%TO.C,C3*%
X236417380Y-76985619D02*
X236417380Y-77557047D01*
X236417380Y-77271333D02*
X235417380Y-77271333D01*
X235560238Y-77366571D01*
X235655476Y-77461809D01*
X235703095Y-77557047D01*
X235417380Y-76366571D02*
X235417380Y-76271333D01*
X235465000Y-76176095D01*
X235512619Y-76128476D01*
X235607857Y-76080857D01*
X235798333Y-76033238D01*
X236036428Y-76033238D01*
X236226904Y-76080857D01*
X236322142Y-76128476D01*
X236369761Y-76176095D01*
X236417380Y-76271333D01*
X236417380Y-76366571D01*
X236369761Y-76461809D01*
X236322142Y-76509428D01*
X236226904Y-76557047D01*
X236036428Y-76604666D01*
X235798333Y-76604666D01*
X235607857Y-76557047D01*
X235512619Y-76509428D01*
X235465000Y-76461809D01*
X235417380Y-76366571D01*
X235417380Y-75414190D02*
X235417380Y-75318952D01*
X235465000Y-75223714D01*
X235512619Y-75176095D01*
X235607857Y-75128476D01*
X235798333Y-75080857D01*
X236036428Y-75080857D01*
X236226904Y-75128476D01*
X236322142Y-75176095D01*
X236369761Y-75223714D01*
X236417380Y-75318952D01*
X236417380Y-75414190D01*
X236369761Y-75509428D01*
X236322142Y-75557047D01*
X236226904Y-75604666D01*
X236036428Y-75652285D01*
X235798333Y-75652285D01*
X235607857Y-75604666D01*
X235512619Y-75557047D01*
X235465000Y-75509428D01*
X235417380Y-75414190D01*
X235750714Y-74652285D02*
X236417380Y-74652285D01*
X235845952Y-74652285D02*
X235798333Y-74604666D01*
X235750714Y-74509428D01*
X235750714Y-74366571D01*
X235798333Y-74271333D01*
X235893571Y-74223714D01*
X236417380Y-74223714D01*
X235893571Y-73414190D02*
X235893571Y-73747523D01*
X236417380Y-73747523D02*
X235417380Y-73747523D01*
X235417380Y-73271333D01*
%TO.C,C5*%
X223972380Y-64793619D02*
X223972380Y-65365047D01*
X223972380Y-65079333D02*
X222972380Y-65079333D01*
X223115238Y-65174571D01*
X223210476Y-65269809D01*
X223258095Y-65365047D01*
X222972380Y-64174571D02*
X222972380Y-64079333D01*
X223020000Y-63984095D01*
X223067619Y-63936476D01*
X223162857Y-63888857D01*
X223353333Y-63841238D01*
X223591428Y-63841238D01*
X223781904Y-63888857D01*
X223877142Y-63936476D01*
X223924761Y-63984095D01*
X223972380Y-64079333D01*
X223972380Y-64174571D01*
X223924761Y-64269809D01*
X223877142Y-64317428D01*
X223781904Y-64365047D01*
X223591428Y-64412666D01*
X223353333Y-64412666D01*
X223162857Y-64365047D01*
X223067619Y-64317428D01*
X223020000Y-64269809D01*
X222972380Y-64174571D01*
X222972380Y-63222190D02*
X222972380Y-63126952D01*
X223020000Y-63031714D01*
X223067619Y-62984095D01*
X223162857Y-62936476D01*
X223353333Y-62888857D01*
X223591428Y-62888857D01*
X223781904Y-62936476D01*
X223877142Y-62984095D01*
X223924761Y-63031714D01*
X223972380Y-63126952D01*
X223972380Y-63222190D01*
X223924761Y-63317428D01*
X223877142Y-63365047D01*
X223781904Y-63412666D01*
X223591428Y-63460285D01*
X223353333Y-63460285D01*
X223162857Y-63412666D01*
X223067619Y-63365047D01*
X223020000Y-63317428D01*
X222972380Y-63222190D01*
X223305714Y-62460285D02*
X223972380Y-62460285D01*
X223400952Y-62460285D02*
X223353333Y-62412666D01*
X223305714Y-62317428D01*
X223305714Y-62174571D01*
X223353333Y-62079333D01*
X223448571Y-62031714D01*
X223972380Y-62031714D01*
X223448571Y-61222190D02*
X223448571Y-61555523D01*
X223972380Y-61555523D02*
X222972380Y-61555523D01*
X222972380Y-61079333D01*
%TO.C,C7*%
X220440333Y-57984380D02*
X219868904Y-57984380D01*
X220154619Y-57984380D02*
X220154619Y-56984380D01*
X220059380Y-57127238D01*
X219964142Y-57222476D01*
X219868904Y-57270095D01*
X220868904Y-57317714D02*
X220868904Y-58317714D01*
X221345095Y-57841523D02*
X221392714Y-57936761D01*
X221487952Y-57984380D01*
X220868904Y-57841523D02*
X220916523Y-57936761D01*
X221011761Y-57984380D01*
X221202238Y-57984380D01*
X221297476Y-57936761D01*
X221345095Y-57841523D01*
X221345095Y-57317714D01*
X222249857Y-57460571D02*
X221916523Y-57460571D01*
X221916523Y-57984380D02*
X221916523Y-56984380D01*
X222392714Y-56984380D01*
%TO.C,SW2*%
X227909380Y-82986380D02*
X227433190Y-83319714D01*
X227909380Y-83557809D02*
X226909380Y-83557809D01*
X226909380Y-83176857D01*
X226957000Y-83081619D01*
X227004619Y-83034000D01*
X227099857Y-82986380D01*
X227242714Y-82986380D01*
X227337952Y-83034000D01*
X227385571Y-83081619D01*
X227433190Y-83176857D01*
X227433190Y-83557809D01*
X227385571Y-82557809D02*
X227385571Y-82224476D01*
X227909380Y-82081619D02*
X227909380Y-82557809D01*
X226909380Y-82557809D01*
X226909380Y-82081619D01*
X227861761Y-81700666D02*
X227909380Y-81557809D01*
X227909380Y-81319714D01*
X227861761Y-81224476D01*
X227814142Y-81176857D01*
X227718904Y-81129238D01*
X227623666Y-81129238D01*
X227528428Y-81176857D01*
X227480809Y-81224476D01*
X227433190Y-81319714D01*
X227385571Y-81510190D01*
X227337952Y-81605428D01*
X227290333Y-81653047D01*
X227195095Y-81700666D01*
X227099857Y-81700666D01*
X227004619Y-81653047D01*
X226957000Y-81605428D01*
X226909380Y-81510190D01*
X226909380Y-81272095D01*
X226957000Y-81129238D01*
X227385571Y-80700666D02*
X227385571Y-80367333D01*
X227909380Y-80224476D02*
X227909380Y-80700666D01*
X226909380Y-80700666D01*
X226909380Y-80224476D01*
X226909380Y-79938761D02*
X226909380Y-79367333D01*
X227909380Y-79653047D02*
X226909380Y-79653047D01*
%TO.C,SW1*%
X233481571Y-82891142D02*
X233529190Y-82748285D01*
X233576809Y-82700666D01*
X233672047Y-82653047D01*
X233814904Y-82653047D01*
X233910142Y-82700666D01*
X233957761Y-82748285D01*
X234005380Y-82843523D01*
X234005380Y-83224476D01*
X233005380Y-83224476D01*
X233005380Y-82891142D01*
X233053000Y-82795904D01*
X233100619Y-82748285D01*
X233195857Y-82700666D01*
X233291095Y-82700666D01*
X233386333Y-82748285D01*
X233433952Y-82795904D01*
X233481571Y-82891142D01*
X233481571Y-83224476D01*
X233005380Y-82034000D02*
X233005380Y-81843523D01*
X233053000Y-81748285D01*
X233148238Y-81653047D01*
X233338714Y-81605428D01*
X233672047Y-81605428D01*
X233862523Y-81653047D01*
X233957761Y-81748285D01*
X234005380Y-81843523D01*
X234005380Y-82034000D01*
X233957761Y-82129238D01*
X233862523Y-82224476D01*
X233672047Y-82272095D01*
X233338714Y-82272095D01*
X233148238Y-82224476D01*
X233053000Y-82129238D01*
X233005380Y-82034000D01*
X233005380Y-80986380D02*
X233005380Y-80795904D01*
X233053000Y-80700666D01*
X233148238Y-80605428D01*
X233338714Y-80557809D01*
X233672047Y-80557809D01*
X233862523Y-80605428D01*
X233957761Y-80700666D01*
X234005380Y-80795904D01*
X234005380Y-80986380D01*
X233957761Y-81081619D01*
X233862523Y-81176857D01*
X233672047Y-81224476D01*
X233338714Y-81224476D01*
X233148238Y-81176857D01*
X233053000Y-81081619D01*
X233005380Y-80986380D01*
X233005380Y-80272095D02*
X233005380Y-79700666D01*
X234005380Y-79986380D02*
X233005380Y-79986380D01*
%TO.C,C2*%
X236925380Y-65301619D02*
X236925380Y-65873047D01*
X236925380Y-65587333D02*
X235925380Y-65587333D01*
X236068238Y-65682571D01*
X236163476Y-65777809D01*
X236211095Y-65873047D01*
X235925380Y-64682571D02*
X235925380Y-64587333D01*
X235973000Y-64492095D01*
X236020619Y-64444476D01*
X236115857Y-64396857D01*
X236306333Y-64349238D01*
X236544428Y-64349238D01*
X236734904Y-64396857D01*
X236830142Y-64444476D01*
X236877761Y-64492095D01*
X236925380Y-64587333D01*
X236925380Y-64682571D01*
X236877761Y-64777809D01*
X236830142Y-64825428D01*
X236734904Y-64873047D01*
X236544428Y-64920666D01*
X236306333Y-64920666D01*
X236115857Y-64873047D01*
X236020619Y-64825428D01*
X235973000Y-64777809D01*
X235925380Y-64682571D01*
X235925380Y-63730190D02*
X235925380Y-63634952D01*
X235973000Y-63539714D01*
X236020619Y-63492095D01*
X236115857Y-63444476D01*
X236306333Y-63396857D01*
X236544428Y-63396857D01*
X236734904Y-63444476D01*
X236830142Y-63492095D01*
X236877761Y-63539714D01*
X236925380Y-63634952D01*
X236925380Y-63730190D01*
X236877761Y-63825428D01*
X236830142Y-63873047D01*
X236734904Y-63920666D01*
X236544428Y-63968285D01*
X236306333Y-63968285D01*
X236115857Y-63920666D01*
X236020619Y-63873047D01*
X235973000Y-63825428D01*
X235925380Y-63730190D01*
X236258714Y-62968285D02*
X236925380Y-62968285D01*
X236353952Y-62968285D02*
X236306333Y-62920666D01*
X236258714Y-62825428D01*
X236258714Y-62682571D01*
X236306333Y-62587333D01*
X236401571Y-62539714D01*
X236925380Y-62539714D01*
X236401571Y-61730190D02*
X236401571Y-62063523D01*
X236925380Y-62063523D02*
X235925380Y-62063523D01*
X235925380Y-61587333D01*
%TO.C,C4*%
X220925380Y-72667619D02*
X220925380Y-73239047D01*
X220925380Y-72953333D02*
X219925380Y-72953333D01*
X220068238Y-73048571D01*
X220163476Y-73143809D01*
X220211095Y-73239047D01*
X219925380Y-72048571D02*
X219925380Y-71953333D01*
X219973000Y-71858095D01*
X220020619Y-71810476D01*
X220115857Y-71762857D01*
X220306333Y-71715238D01*
X220544428Y-71715238D01*
X220734904Y-71762857D01*
X220830142Y-71810476D01*
X220877761Y-71858095D01*
X220925380Y-71953333D01*
X220925380Y-72048571D01*
X220877761Y-72143809D01*
X220830142Y-72191428D01*
X220734904Y-72239047D01*
X220544428Y-72286666D01*
X220306333Y-72286666D01*
X220115857Y-72239047D01*
X220020619Y-72191428D01*
X219973000Y-72143809D01*
X219925380Y-72048571D01*
X219925380Y-71096190D02*
X219925380Y-71000952D01*
X219973000Y-70905714D01*
X220020619Y-70858095D01*
X220115857Y-70810476D01*
X220306333Y-70762857D01*
X220544428Y-70762857D01*
X220734904Y-70810476D01*
X220830142Y-70858095D01*
X220877761Y-70905714D01*
X220925380Y-71000952D01*
X220925380Y-71096190D01*
X220877761Y-71191428D01*
X220830142Y-71239047D01*
X220734904Y-71286666D01*
X220544428Y-71334285D01*
X220306333Y-71334285D01*
X220115857Y-71286666D01*
X220020619Y-71239047D01*
X219973000Y-71191428D01*
X219925380Y-71096190D01*
X220258714Y-70334285D02*
X220925380Y-70334285D01*
X220353952Y-70334285D02*
X220306333Y-70286666D01*
X220258714Y-70191428D01*
X220258714Y-70048571D01*
X220306333Y-69953333D01*
X220401571Y-69905714D01*
X220925380Y-69905714D01*
X220401571Y-69096190D02*
X220401571Y-69429523D01*
X220925380Y-69429523D02*
X219925380Y-69429523D01*
X219925380Y-68953333D01*
D12*
%TO.C,R7*%
X229437000Y-58412748D02*
X229437000Y-58935252D01*
X228017000Y-58412748D02*
X228017000Y-58935252D01*
%TO.C,R6*%
X224865000Y-58412748D02*
X224865000Y-58935252D01*
X223445000Y-58412748D02*
X223445000Y-58935252D01*
%TO.C,R1*%
X223391252Y-75132000D02*
X222868748Y-75132000D01*
X223391252Y-73712000D02*
X222868748Y-73712000D01*
%TO.C,U2*%
X222687000Y-61470000D02*
X222687000Y-62930000D01*
X219527000Y-61470000D02*
X220457000Y-61470000D01*
X222687000Y-61470000D02*
X221757000Y-61470000D01*
X219527000Y-61470000D02*
X219527000Y-63630000D01*
%TO.C,D17*%
X234609440Y-105232927D02*
X232909440Y-105232927D01*
X232909440Y-105232927D02*
X232909440Y-108382927D01*
X234609440Y-105232927D02*
X234609440Y-108382927D01*
%TO.C,D19*%
X226481440Y-88468927D02*
X226481440Y-91618927D01*
X224781440Y-88468927D02*
X224781440Y-91618927D01*
X226481440Y-88468927D02*
X224781440Y-88468927D01*
%TO.C,D20*%
X224781440Y-94056927D02*
X224781440Y-97206927D01*
X226481440Y-94056927D02*
X224781440Y-94056927D01*
X226481440Y-94056927D02*
X226481440Y-97206927D01*
%TO.C,D21*%
X226481440Y-99644927D02*
X226481440Y-102794927D01*
X226481440Y-99644927D02*
X224781440Y-99644927D01*
X224781440Y-99644927D02*
X224781440Y-102794927D01*
%TO.C,D23*%
X228845440Y-88468927D02*
X228845440Y-91618927D01*
X230545440Y-88468927D02*
X228845440Y-88468927D01*
X230545440Y-88468927D02*
X230545440Y-91618927D01*
%TO.C,D24*%
X230545440Y-94056927D02*
X228845440Y-94056927D01*
X230545440Y-94056927D02*
X230545440Y-97206927D01*
X228845440Y-94056927D02*
X228845440Y-97206927D01*
%TO.C,D25*%
X230545440Y-99644927D02*
X230545440Y-102794927D01*
X230545440Y-99644927D02*
X228845440Y-99644927D01*
X228845440Y-99644927D02*
X228845440Y-102794927D01*
%TO.C,D26*%
X230545440Y-105232927D02*
X228845440Y-105232927D01*
X230545440Y-105232927D02*
X230545440Y-108382927D01*
X228845440Y-105232927D02*
X228845440Y-108382927D01*
%TO.C,D33*%
X232577440Y-88468927D02*
X230877440Y-88468927D01*
X230877440Y-88468927D02*
X230877440Y-91618927D01*
X232577440Y-88468927D02*
X232577440Y-91618927D01*
%TO.C,D34*%
X232577440Y-94056927D02*
X230877440Y-94056927D01*
X230877440Y-94056927D02*
X230877440Y-97206927D01*
X232577440Y-94056927D02*
X232577440Y-97206927D01*
%TO.C,D15*%
X234609440Y-94056927D02*
X234609440Y-97206927D01*
X232909440Y-94056927D02*
X232909440Y-97206927D01*
X234609440Y-94056927D02*
X232909440Y-94056927D01*
%TO.C,D36*%
X232577440Y-105232927D02*
X232577440Y-108382927D01*
X230877440Y-105232927D02*
X230877440Y-108382927D01*
X232577440Y-105232927D02*
X230877440Y-105232927D01*
%TO.C,D5*%
X222749440Y-88468927D02*
X222749440Y-91618927D01*
X224449440Y-88468927D02*
X222749440Y-88468927D01*
X224449440Y-88468927D02*
X224449440Y-91618927D01*
%TO.C,D6*%
X222749440Y-94056927D02*
X222749440Y-97206927D01*
X224449440Y-94056927D02*
X224449440Y-97206927D01*
X224449440Y-94056927D02*
X222749440Y-94056927D01*
%TO.C,D7*%
X224449440Y-99644927D02*
X224449440Y-102794927D01*
X222749440Y-99644927D02*
X222749440Y-102794927D01*
X224449440Y-99644927D02*
X222749440Y-99644927D01*
%TO.C,D9*%
X228513440Y-88468927D02*
X228513440Y-91618927D01*
X228513440Y-88468927D02*
X226813440Y-88468927D01*
X226813440Y-88468927D02*
X226813440Y-91618927D01*
%TO.C,D10*%
X228513440Y-94056927D02*
X226813440Y-94056927D01*
X228513440Y-94056927D02*
X228513440Y-97206927D01*
X226813440Y-94056927D02*
X226813440Y-97206927D01*
%TO.C,D11*%
X226813440Y-99644927D02*
X226813440Y-102794927D01*
X228513440Y-99644927D02*
X228513440Y-102794927D01*
X228513440Y-99644927D02*
X226813440Y-99644927D01*
%TO.C,D12*%
X228513440Y-105232927D02*
X228513440Y-108382927D01*
X226813440Y-105232927D02*
X226813440Y-108382927D01*
X228513440Y-105232927D02*
X226813440Y-105232927D01*
%TO.C,D14*%
X234609440Y-88468927D02*
X234609440Y-91618927D01*
X234609440Y-88468927D02*
X232909440Y-88468927D01*
X232909440Y-88468927D02*
X232909440Y-91618927D01*
%TO.C,D16*%
X234609440Y-99644927D02*
X234609440Y-102794927D01*
X232909440Y-99644927D02*
X232909440Y-102794927D01*
X234609440Y-99644927D02*
X232909440Y-99644927D01*
%TO.C,C1*%
X221436000Y-78874252D02*
X221436000Y-78351748D01*
X220016000Y-78874252D02*
X220016000Y-78351748D01*
%TO.C,C6*%
X220845748Y-64568000D02*
X221368252Y-64568000D01*
X220845748Y-65988000D02*
X221368252Y-65988000D01*
%TO.C,C3*%
X233605000Y-75699252D02*
X233605000Y-75176748D01*
X235025000Y-75699252D02*
X235025000Y-75176748D01*
%TO.C,C5*%
X224334000Y-62984748D02*
X224334000Y-63507252D01*
X225754000Y-62984748D02*
X225754000Y-63507252D01*
%TO.C,C7*%
X220845748Y-58472000D02*
X221368252Y-58472000D01*
X220845748Y-59892000D02*
X221368252Y-59892000D01*
%TO.C,SW2*%
X226513000Y-78474000D02*
X226513000Y-84594000D01*
X226513000Y-84594000D02*
X222813000Y-84594000D01*
X222813000Y-78474000D02*
X226513000Y-78474000D01*
X222813000Y-84594000D02*
X222813000Y-78474000D01*
%TO.C,SW1*%
X232609000Y-84594000D02*
X228909000Y-84594000D01*
X228909000Y-78474000D02*
X232609000Y-78474000D01*
X232609000Y-78474000D02*
X232609000Y-84594000D01*
X228909000Y-84594000D02*
X228909000Y-78474000D01*
%TO.C,J1*%
X220090000Y-48800000D02*
X220090000Y-46900000D01*
X229490000Y-46900000D02*
X220090000Y-46900000D01*
X229490000Y-48800000D02*
X229490000Y-46900000D01*
X220090000Y-52700000D02*
X220090000Y-50700000D01*
X229490000Y-52700000D02*
X229490000Y-50700000D01*
%TO.C,U1*%
X233303000Y-72902000D02*
X233303000Y-72482000D01*
X233303000Y-72902000D02*
X232883000Y-72902000D01*
X233303000Y-65782000D02*
X232883000Y-65782000D01*
X226603000Y-72902000D02*
X226603000Y-74282000D01*
X233303000Y-65782000D02*
X233303000Y-66202000D01*
X226183000Y-65782000D02*
X226603000Y-65782000D01*
X226183000Y-65782000D02*
X226183000Y-66202000D01*
X226183000Y-72902000D02*
X226183000Y-72482000D01*
X226183000Y-72902000D02*
X226603000Y-72902000D01*
%TO.C,C2*%
X234113000Y-64015252D02*
X234113000Y-63492748D01*
X235533000Y-64015252D02*
X235533000Y-63492748D01*
%TO.C,D35*%
X230877440Y-99644927D02*
X230877440Y-102794927D01*
X232577440Y-99644927D02*
X230877440Y-99644927D01*
X232577440Y-99644927D02*
X232577440Y-102794927D01*
%TO.C,C4*%
X222833000Y-70858748D02*
X222833000Y-71381252D01*
X221413000Y-70858748D02*
X221413000Y-71381252D01*
D11*
%TO.C,J2*%
X240163000Y-46260000D02*
X234563000Y-46260000D01*
X240163000Y-48260000D02*
X240163000Y-46260000D01*
X234563000Y-48260000D02*
X234563000Y-46260000D01*
X234313000Y-48260000D02*
X234313000Y-60360000D01*
X240413000Y-48260000D02*
X240413000Y-60360000D01*
X240413000Y-48260000D02*
X234313000Y-48260000D01*
X240413000Y-60360000D02*
X234313000Y-60360000D01*
%TD*%
D13*
%TO.C,SW3*%
X119400000Y-62775000D03*
X110490000Y-64135000D03*
X114300000Y-60775000D03*
X116840000Y-61595000D03*
%TD*%
%TO.C,SW24*%
X186075000Y-107225000D03*
X177165000Y-108585000D03*
X183515000Y-106045000D03*
X180975000Y-105225000D03*
%TD*%
%TO.C,SW34*%
X196215000Y-111125000D03*
X205125000Y-109765000D03*
X202565000Y-108585000D03*
X200025000Y-107765000D03*
%TD*%
%TO.C,SW33*%
X186690000Y-89535000D03*
X195600000Y-88175000D03*
X190500000Y-86175000D03*
X193040000Y-86995000D03*
%TD*%
%TO.C,SW32*%
X186690000Y-70485000D03*
X195600000Y-69125000D03*
X193040000Y-67945000D03*
X190500000Y-67125000D03*
%TD*%
%TO.C,SW31*%
X186690000Y-51435000D03*
X195600000Y-50075000D03*
X193040000Y-48895000D03*
X190500000Y-48075000D03*
%TD*%
%TO.C,SW23*%
X167640000Y-86995000D03*
X176550000Y-85635000D03*
X171450000Y-83635000D03*
X173990000Y-84455000D03*
%TD*%
%TO.C,SW22*%
X167640000Y-67945000D03*
X176550000Y-66585000D03*
X173990000Y-65405000D03*
X171450000Y-64585000D03*
%TD*%
%TO.C,SW21*%
X167640000Y-48895000D03*
X176550000Y-47535000D03*
X171450000Y-45535000D03*
X173990000Y-46355000D03*
%TD*%
%TO.C,SW19*%
X129540000Y-99695000D03*
X138450000Y-98335000D03*
X133350000Y-96335000D03*
X135890000Y-97155000D03*
%TD*%
%TO.C,SW18*%
X138450000Y-79285000D03*
X129540000Y-80645000D03*
X133350000Y-77285000D03*
X135890000Y-78105000D03*
%TD*%
%TO.C,SW17*%
X129540000Y-61595000D03*
X138450000Y-60235000D03*
X135890000Y-59055000D03*
X133350000Y-58235000D03*
%TD*%
%TO.C,SW14*%
X205740000Y-92075000D03*
X214650000Y-90715000D03*
X209550000Y-88715000D03*
X212090000Y-89535000D03*
%TD*%
%TO.C,SW12*%
X214650000Y-52615000D03*
X205740000Y-53975000D03*
X209550000Y-50615000D03*
X212090000Y-51435000D03*
%TD*%
%TO.C,SW10*%
X158115000Y-108585000D03*
X167025000Y-107225000D03*
X164465000Y-106045000D03*
X161925000Y-105225000D03*
%TD*%
%TO.C,SW9*%
X157500000Y-88175000D03*
X148590000Y-89535000D03*
X154940000Y-86995000D03*
X152400000Y-86175000D03*
%TD*%
%TO.C,SW8*%
X148590000Y-70485000D03*
X157500000Y-69125000D03*
X152400000Y-67125000D03*
X154940000Y-67945000D03*
%TD*%
%TO.C,SW13*%
X205740000Y-73025000D03*
X214650000Y-71665000D03*
X212090000Y-70485000D03*
X209550000Y-69665000D03*
%TD*%
%TO.C,SW7*%
X148590000Y-51435000D03*
X157500000Y-50075000D03*
X152400000Y-48075000D03*
X154940000Y-48895000D03*
%TD*%
%TO.C,SW5*%
X110490000Y-102235000D03*
X119400000Y-100875000D03*
X114300000Y-98875000D03*
X116840000Y-99695000D03*
%TD*%
%TO.C,SW4*%
X110490000Y-83185000D03*
X119400000Y-81825000D03*
X114300000Y-79825000D03*
X116840000Y-80645000D03*
%TD*%
%TO.C,SW15*%
X228935337Y-117530365D03*
X220354643Y-114771853D03*
X225263567Y-113464887D03*
X227170818Y-115332076D03*
%TD*%
%LPC*%
D14*
%TO.C,R7*%
X228727000Y-57649000D03*
X228727000Y-59699000D03*
%TD*%
%TO.C,R6*%
X224155000Y-57649000D03*
X224155000Y-59699000D03*
%TD*%
D15*
%TO.C,R1*%
X224155000Y-74422000D03*
X222105000Y-74422000D03*
%TD*%
D16*
%TO.C,U2*%
X220157000Y-63230000D03*
X222057000Y-63230000D03*
X221107000Y-61230000D03*
%TD*%
D17*
%TO.C,D17*%
X233759440Y-105882927D03*
X233759440Y-108382927D03*
%TD*%
%TO.C,D19*%
X225631440Y-89118927D03*
X225631440Y-91618927D03*
%TD*%
%TO.C,D20*%
X225631440Y-94706927D03*
X225631440Y-97206927D03*
%TD*%
%TO.C,D21*%
X225631440Y-100294927D03*
X225631440Y-102794927D03*
%TD*%
%TO.C,D23*%
X229695440Y-89118927D03*
X229695440Y-91618927D03*
%TD*%
%TO.C,D24*%
X229695440Y-94706927D03*
X229695440Y-97206927D03*
%TD*%
%TO.C,D25*%
X229695440Y-100294927D03*
X229695440Y-102794927D03*
%TD*%
%TO.C,D26*%
X229695440Y-105882927D03*
X229695440Y-108382927D03*
%TD*%
%TO.C,D33*%
X231727440Y-89118927D03*
X231727440Y-91618927D03*
%TD*%
%TO.C,D34*%
X231727440Y-94706927D03*
X231727440Y-97206927D03*
%TD*%
%TO.C,D15*%
X233759440Y-94706927D03*
X233759440Y-97206927D03*
%TD*%
%TO.C,D36*%
X231727440Y-105882927D03*
X231727440Y-108382927D03*
%TD*%
%TO.C,D5*%
X223599440Y-89118927D03*
X223599440Y-91618927D03*
%TD*%
%TO.C,D6*%
X223599440Y-94706927D03*
X223599440Y-97206927D03*
%TD*%
%TO.C,D7*%
X223599440Y-100294927D03*
X223599440Y-102794927D03*
%TD*%
%TO.C,D9*%
X227663440Y-89118927D03*
X227663440Y-91618927D03*
%TD*%
%TO.C,D10*%
X227663440Y-94706927D03*
X227663440Y-97206927D03*
%TD*%
%TO.C,D11*%
X227663440Y-100294927D03*
X227663440Y-102794927D03*
%TD*%
%TO.C,D12*%
X227663440Y-105882927D03*
X227663440Y-108382927D03*
%TD*%
%TO.C,D14*%
X233759440Y-89118927D03*
X233759440Y-91618927D03*
%TD*%
%TO.C,D16*%
X233759440Y-100294927D03*
X233759440Y-102794927D03*
%TD*%
D18*
%TO.C,C1*%
X220726000Y-79638000D03*
X220726000Y-77588000D03*
%TD*%
D19*
%TO.C,C6*%
X220082000Y-65278000D03*
X222132000Y-65278000D03*
%TD*%
D18*
%TO.C,C3*%
X234315000Y-76463000D03*
X234315000Y-74413000D03*
%TD*%
D14*
%TO.C,C5*%
X225044000Y-62221000D03*
X225044000Y-64271000D03*
%TD*%
D19*
%TO.C,C7*%
X220082000Y-59182000D03*
X222132000Y-59182000D03*
%TD*%
D20*
%TO.C,SW2*%
X224663000Y-85434000D03*
X224663000Y-77634000D03*
%TD*%
%TO.C,SW1*%
X230759000Y-85434000D03*
X230759000Y-77634000D03*
%TD*%
D21*
%TO.C,J1*%
X227680000Y-53400000D03*
X221900000Y-53400000D03*
D22*
X228040000Y-54845000D03*
X227240000Y-54845000D03*
D23*
X226040000Y-54845000D03*
X225040000Y-54845000D03*
X224540000Y-54845000D03*
X223540000Y-54845000D03*
D22*
X222340000Y-54845000D03*
X221540000Y-54845000D03*
X221540000Y-54845000D03*
X222340000Y-54845000D03*
D23*
X223040000Y-54845000D03*
X224040000Y-54845000D03*
X225540000Y-54845000D03*
X226540000Y-54845000D03*
D22*
X227240000Y-54845000D03*
X228040000Y-54845000D03*
D24*
X229110000Y-49750000D03*
D25*
X229110000Y-53930000D03*
X220470000Y-53930000D03*
D24*
X220470000Y-49750000D03*
%TD*%
D26*
%TO.C,U1*%
X226993000Y-73692000D03*
X227493000Y-73692000D03*
X227993000Y-73692000D03*
X228493000Y-73692000D03*
X228993000Y-73692000D03*
X229493000Y-73692000D03*
X229993000Y-73692000D03*
X230493000Y-73692000D03*
X230993000Y-73692000D03*
X231493000Y-73692000D03*
X231993000Y-73692000D03*
X232493000Y-73692000D03*
D27*
X234093000Y-72092000D03*
X234093000Y-71592000D03*
X234093000Y-71092000D03*
X234093000Y-70592000D03*
X234093000Y-70092000D03*
X234093000Y-69592000D03*
X234093000Y-69092000D03*
X234093000Y-68592000D03*
X234093000Y-68092000D03*
X234093000Y-67592000D03*
X234093000Y-67092000D03*
X234093000Y-66592000D03*
D26*
X232493000Y-64992000D03*
X231993000Y-64992000D03*
X231493000Y-64992000D03*
X230993000Y-64992000D03*
X230493000Y-64992000D03*
X229993000Y-64992000D03*
X229493000Y-64992000D03*
X228993000Y-64992000D03*
X228493000Y-64992000D03*
X227993000Y-64992000D03*
X227493000Y-64992000D03*
X226993000Y-64992000D03*
D27*
X225393000Y-66592000D03*
X225393000Y-67092000D03*
X225393000Y-67592000D03*
X225393000Y-68092000D03*
X225393000Y-68592000D03*
X225393000Y-69092000D03*
X225393000Y-69592000D03*
X225393000Y-70092000D03*
X225393000Y-70592000D03*
X225393000Y-71092000D03*
X225393000Y-71592000D03*
X225393000Y-72092000D03*
%TD*%
D18*
%TO.C,C2*%
X234823000Y-64779000D03*
X234823000Y-62729000D03*
%TD*%
D17*
%TO.C,D35*%
X231727440Y-100294927D03*
X231727440Y-102794927D03*
%TD*%
D14*
%TO.C,C4*%
X222123000Y-70095000D03*
X222123000Y-72145000D03*
%TD*%
D28*
%TO.C,J2*%
X237363000Y-49860000D03*
X237363000Y-56860000D03*
D29*
X235063000Y-59560000D03*
X239663000Y-58460000D03*
X239663000Y-54460000D03*
X239663000Y-51460000D03*
%TD*%
D30*
%TO.C,SW3*%
X114300000Y-66675000D03*
D31*
X109220000Y-66675000D03*
X119380000Y-66675000D03*
D32*
X119800000Y-66675000D03*
X108800000Y-66675000D03*
%TD*%
%TO.C,SW24*%
X186475000Y-111125000D03*
D30*
X180975000Y-111125000D03*
D31*
X175895000Y-111125000D03*
D32*
X175475000Y-111125000D03*
D31*
X186055000Y-111125000D03*
%TD*%
D32*
%TO.C,SW34*%
X194525000Y-113665000D03*
D31*
X205105000Y-113665000D03*
X194945000Y-113665000D03*
D32*
X205525000Y-113665000D03*
D30*
X200025000Y-113665000D03*
%TD*%
D32*
%TO.C,SW33*%
X196000000Y-92075000D03*
X185000000Y-92075000D03*
D31*
X185420000Y-92075000D03*
D30*
X190500000Y-92075000D03*
D31*
X195580000Y-92075000D03*
%TD*%
D32*
%TO.C,SW32*%
X196000000Y-73025000D03*
X185000000Y-73025000D03*
D31*
X195580000Y-73025000D03*
X185420000Y-73025000D03*
D30*
X190500000Y-73025000D03*
%TD*%
D31*
%TO.C,SW31*%
X195580000Y-53975000D03*
X185420000Y-53975000D03*
D30*
X190500000Y-53975000D03*
D32*
X196000000Y-53975000D03*
X185000000Y-53975000D03*
%TD*%
D31*
%TO.C,SW23*%
X176530000Y-89535000D03*
D30*
X171450000Y-89535000D03*
D31*
X166370000Y-89535000D03*
D32*
X176950000Y-89535000D03*
X165950000Y-89535000D03*
%TD*%
D31*
%TO.C,SW22*%
X176530000Y-70485000D03*
D32*
X165950000Y-70485000D03*
X176950000Y-70485000D03*
D31*
X166370000Y-70485000D03*
D30*
X171450000Y-70485000D03*
%TD*%
%TO.C,SW21*%
X171450000Y-51435000D03*
D32*
X165950000Y-51435000D03*
D31*
X166370000Y-51435000D03*
X176530000Y-51435000D03*
D32*
X176950000Y-51435000D03*
%TD*%
%TO.C,SW19*%
X127850000Y-102235000D03*
X138850000Y-102235000D03*
D31*
X138430000Y-102235000D03*
D30*
X133350000Y-102235000D03*
D31*
X128270000Y-102235000D03*
%TD*%
D32*
%TO.C,SW18*%
X138850000Y-83185000D03*
D30*
X133350000Y-83185000D03*
D32*
X127850000Y-83185000D03*
D31*
X128270000Y-83185000D03*
X138430000Y-83185000D03*
%TD*%
%TO.C,SW17*%
X128270000Y-64135000D03*
D32*
X127850000Y-64135000D03*
D31*
X138430000Y-64135000D03*
D32*
X138850000Y-64135000D03*
D30*
X133350000Y-64135000D03*
%TD*%
D31*
%TO.C,SW14*%
X214630000Y-94615000D03*
D32*
X215050000Y-94615000D03*
D31*
X204470000Y-94615000D03*
D30*
X209550000Y-94615000D03*
D32*
X204050000Y-94615000D03*
%TD*%
D31*
%TO.C,SW12*%
X204470000Y-56515000D03*
D32*
X215050000Y-56515000D03*
D30*
X209550000Y-56515000D03*
D31*
X214630000Y-56515000D03*
D32*
X204050000Y-56515000D03*
%TD*%
D31*
%TO.C,SW10*%
X167005000Y-111125000D03*
X156845000Y-111125000D03*
D32*
X167425000Y-111125000D03*
X156425000Y-111125000D03*
D30*
X161925000Y-111125000D03*
%TD*%
D32*
%TO.C,SW9*%
X146900000Y-92075000D03*
D30*
X152400000Y-92075000D03*
D31*
X147320000Y-92075000D03*
X157480000Y-92075000D03*
D32*
X157900000Y-92075000D03*
%TD*%
D31*
%TO.C,SW8*%
X157480000Y-73025000D03*
D30*
X152400000Y-73025000D03*
D32*
X146900000Y-73025000D03*
D31*
X147320000Y-73025000D03*
D32*
X157900000Y-73025000D03*
%TD*%
D31*
%TO.C,SW13*%
X204470000Y-75565000D03*
D30*
X209550000Y-75565000D03*
D32*
X204050000Y-75565000D03*
X215050000Y-75565000D03*
D31*
X214630000Y-75565000D03*
%TD*%
D30*
%TO.C,SW7*%
X152400000Y-53975000D03*
D32*
X146900000Y-53975000D03*
D31*
X147320000Y-53975000D03*
X157480000Y-53975000D03*
D32*
X157900000Y-53975000D03*
%TD*%
D30*
%TO.C,SW5*%
X114300000Y-104775000D03*
D31*
X109220000Y-104775000D03*
D32*
X119800000Y-104775000D03*
X108800000Y-104775000D03*
D31*
X119380000Y-104775000D03*
%TD*%
%TO.C,SW4*%
X109220000Y-85725000D03*
D32*
X119800000Y-85725000D03*
D30*
X114300000Y-85725000D03*
D31*
X119380000Y-85725000D03*
D32*
X108800000Y-85725000D03*
%TD*%
%TO.C,SW15*%
X217708861Y-116290912D03*
X227553139Y-121199088D03*
D30*
X222631000Y-118745000D03*
D31*
X227177267Y-121011685D03*
X218084733Y-116478315D03*
%TD*%
D28*
X220726000Y-69596000D03*
X220345000Y-74422000D03*
X227965000Y-80137000D03*
X238252000Y-71755000D03*
X221996000Y-83947000D03*
X236347000Y-63627000D03*
X235712000Y-81280000D03*
X223520000Y-61214000D03*
X230505000Y-59690000D03*
X226507489Y-53279489D03*
X238315000Y-92710000D03*
X234823000Y-73025000D03*
X235966000Y-71628000D03*
X235819000Y-70592000D03*
X235616000Y-69469000D03*
X228727000Y-89118927D03*
X230505000Y-70358000D03*
X230759000Y-94706927D03*
X231295661Y-69612394D03*
X230759000Y-100294927D03*
X232035892Y-68843108D03*
X232727096Y-67934685D03*
X232791000Y-105882927D03*
X231733288Y-67744851D03*
X231039426Y-68464974D03*
X227075996Y-66802000D03*
X227035097Y-67928177D03*
X227296223Y-68893494D03*
X223773988Y-68199000D03*
X230377996Y-69215000D03*
X229743000Y-71120000D03*
X223830091Y-69450510D03*
X223647000Y-70484902D03*
M02*
