solid OpenSCAD_Model
  facet normal 0 0 -1
    outer loop
      vertex -9.52499 9.52499 0
      vertex 2.77155 5.79262 0
      vertex 2.30844 5.79262 0
    endloop
  endfacet
  facet normal 0 0 -1
    outer loop
      vertex 4.95889 0.842224 0
      vertex 5.21999 0.899994 0
      vertex 4.98849 0.837967 0
    endloop
  endfacet
  facet normal 0 0 -1
    outer loop
      vertex 1.7655 0.926605 0
      vertex 4.52277 0.643066 0
      vertex 4.26357 0.239716 0
    endloop
  endfacet
  facet normal 0 -0 -1
    outer loop
      vertex 2.30844 4.36737 0
      vertex 2.77155 4.36737 0
      vertex 1.49245 1.32219 0
    endloop
  endfacet
  facet normal 0 0 -1
    outer loop
      vertex -3.57845 3.09737 0
      vertex -1.49245 1.32219 0
      vertex -1.7655 0.926605 0
    endloop
  endfacet
  facet normal -0 0 -1
    outer loop
      vertex 1.7907 5.07999 0
      vertex -3.2038 4.25043 0
      vertex 1.93379 5.52042 0
    endloop
  endfacet
  facet normal -0 0 -1
    outer loop
      vertex 1.93379 5.52042 0
      vertex -3.57845 4.52261 0
      vertex 2.30844 5.79262 0
    endloop
  endfacet
  facet normal -0 0 -1
    outer loop
      vertex 2.30844 5.79262 0
      vertex -3.57845 4.52261 0
      vertex -9.52499 9.52499 0
    endloop
  endfacet
  facet normal 0 0 -1
    outer loop
      vertex -9.52499 9.52499 0
      vertex -3.57845 4.52261 0
      vertex -4.04153 4.52261 0
    endloop
  endfacet
  facet normal -0 0 -1
    outer loop
      vertex 17.525 9.52499 0
      vertex 2.77155 5.79262 0
      vertex -9.52499 9.52499 0
    endloop
  endfacet
  facet normal 0 0 -1
    outer loop
      vertex 3.28929 5.07999 0
      vertex 3.14619 5.52042 0
      vertex 11.9182 4.84085 0
    endloop
  endfacet
  facet normal 0 0 -1
    outer loop
      vertex 4.76999 0.779419 0
      vertex 2.77155 4.36737 0
      vertex 3.14619 4.63957 0
    endloop
  endfacet
  facet normal 0 0 -1
    outer loop
      vertex 1.7655 0.926605 0
      vertex 1.49245 1.32219 0
      vertex 4.52277 0.643066 0
    endloop
  endfacet
  facet normal 0 -0 -1
    outer loop
      vertex 13.1317 3.95917 0
      vertex 14.325 3.8 0
      vertex 12.7567 3.68672 0
    endloop
  endfacet
  facet normal 0 0 -1
    outer loop
      vertex 4.52277 0.643066 0
      vertex 2.77155 4.36737 0
      vertex 4.76999 0.779419 0
    endloop
  endfacet
  facet normal 0 0 -1
    outer loop
      vertex 1.7655 -0.926605 0
      vertex 1.93596 -0.477158 0
      vertex 4.26357 -0.239716 0
    endloop
  endfacet
  facet normal 0 0 -1
    outer loop
      vertex 2.77155 5.79262 0
      vertex 17.525 9.52499 0
      vertex 12.2932 5.1133 0
    endloop
  endfacet
  facet normal 0 0 -1
    outer loop
      vertex 3.28929 5.07999 0
      vertex 11.9182 4.84085 0
      vertex 11.775 4.40001 0
    endloop
  endfacet
  facet normal 0 0 -1
    outer loop
      vertex 3.14619 5.52042 0
      vertex 12.2932 5.1133 0
      vertex 11.9182 4.84085 0
    endloop
  endfacet
  facet normal 0 0 -1
    outer loop
      vertex 3.14619 5.52042 0
      vertex 2.77155 5.79262 0
      vertex 12.2932 5.1133 0
    endloop
  endfacet
  facet normal 0 0 -1
    outer loop
      vertex 12.2932 5.1133 0
      vertex 17.525 9.52499 0
      vertex 12.7567 5.1133 0
    endloop
  endfacet
  facet normal 0 0 -1
    outer loop
      vertex 12.7567 5.1133 0
      vertex 17.525 9.52499 0
      vertex 13.1317 4.84085 0
    endloop
  endfacet
  facet normal 0 0 -1
    outer loop
      vertex 13.1317 4.84085 0
      vertex 14.325 3.8 0
      vertex 13.275 4.40001 0
    endloop
  endfacet
  facet normal 0 0 -1
    outer loop
      vertex 17.525 9.52499 0
      vertex 15.325 0.800003 0
      vertex 15.325 1.8 0
    endloop
  endfacet
  facet normal 0 0 -1
    outer loop
      vertex 14.325 1.8 0
      vertex 12.2932 3.68672 0
      vertex 12.7567 3.68672 0
    endloop
  endfacet
  facet normal -0 0 -1
    outer loop
      vertex -1.93596 0.477158 0
      vertex -4.36417 0.460022 0
      vertex -1.7655 0.926605 0
    endloop
  endfacet
  facet normal 0 -0 -1
    outer loop
      vertex -4.5593 3.81 0
      vertex -4.41618 3.36957 0
      vertex -5.67 0.779419 0
    endloop
  endfacet
  facet normal -0 0 -1
    outer loop
      vertex -0.231537 -5.18736 0
      vertex -0.606186 -5.45956 0
      vertex -0.707047 -1.86432 0
    endloop
  endfacet
  facet normal -0 0 -1
    outer loop
      vertex -5.21999 -0.899994 0
      vertex -5.23154 -3.08737 0
      vertex -5.67 -0.779419 0
    endloop
  endfacet
  facet normal 0 0 -1
    outer loop
      vertex -9.52499 9.52499 0
      vertex -4.5593 3.81 0
      vertex -5.99942 0.449997 0
    endloop
  endfacet
  facet normal 0 0 -1
    outer loop
      vertex -9.52499 9.52499 0
      vertex -4.41618 4.25043 0
      vertex -4.5593 3.81 0
    endloop
  endfacet
  facet normal 0 0 -1
    outer loop
      vertex -9.52499 9.52499 0
      vertex -4.04153 4.52261 0
      vertex -4.41618 4.25043 0
    endloop
  endfacet
  facet normal 0 0 -1
    outer loop
      vertex -3.2038 4.25043 0
      vertex -3.57845 4.52261 0
      vertex 1.93379 5.52042 0
    endloop
  endfacet
  facet normal 0 0 -1
    outer loop
      vertex -3.0607 3.81 0
      vertex -3.2038 4.25043 0
      vertex 1.7907 5.07999 0
    endloop
  endfacet
  facet normal 0 0 -1
    outer loop
      vertex -1.13266 1.64095 0
      vertex -3.0607 3.81 0
      vertex -0.707047 1.86432 0
    endloop
  endfacet
  facet normal 0 0 -1
    outer loop
      vertex -5.21999 0.899994 0
      vertex -4.41618 3.36957 0
      vertex -4.04153 3.09737 0
    endloop
  endfacet
  facet normal 0 0 -1
    outer loop
      vertex 17.525 9.52499 0
      vertex 15.325 1.8 0
      vertex 15.325 3.8 0
    endloop
  endfacet
  facet normal 0 0 -1
    outer loop
      vertex 14.325 1.8 0
      vertex 12.7567 3.68672 0
      vertex 14.325 3.8 0
    endloop
  endfacet
  facet normal 0 0 -1
    outer loop
      vertex 12.2932 3.68672 0
      vertex 14.325 1.8 0
      vertex 14.325 0.800003 0
    endloop
  endfacet
  facet normal 0 0 -1
    outer loop
      vertex 15.325 3.8 0
      vertex 14.325 3.8 0
      vertex 13.1317 4.84085 0
    endloop
  endfacet
  facet normal 0 0 -1
    outer loop
      vertex 14.325 3.8 0
      vertex 13.1317 3.95917 0
      vertex 13.275 4.40001 0
    endloop
  endfacet
  facet normal 0 0 -1
    outer loop
      vertex 17.525 9.52499 0
      vertex 15.325 3.8 0
      vertex 13.1317 4.84085 0
    endloop
  endfacet
  facet normal 0 0 -1
    outer loop
      vertex -0.240326 1.97935 0
      vertex 1.93379 4.63957 0
      vertex 0.240326 1.97935 0
    endloop
  endfacet
  facet normal 0 0 -1
    outer loop
      vertex -9.52499 -9.52499 0
      vertex -4.76845 -4.51262 0
      vertex -0.606186 -6.34042 0
    endloop
  endfacet
  facet normal 0 0 -1
    outer loop
      vertex -0.606186 -5.45956 0
      vertex -1.13266 -1.64095 0
      vertex -0.707047 -1.86432 0
    endloop
  endfacet
  facet normal 0 0 -1
    outer loop
      vertex -4.76845 -4.51262 0
      vertex -0.749298 -5.89999 0
      vertex -0.606186 -6.34042 0
    endloop
  endfacet
  facet normal 0 0 -1
    outer loop
      vertex -1.13266 -1.64095 0
      vertex -4.25069 -3.79999 0
      vertex -4.3938 -3.35956 0
    endloop
  endfacet
  facet normal 0 0 -1
    outer loop
      vertex 17.525 -9.52499 0
      vertex 9.72501 -6.29999 0
      vertex 10.725 -6.29999 0
    endloop
  endfacet
  facet normal 0 0 -1
    outer loop
      vertex -4.76845 -3.08737 0
      vertex -4.77669 -0.781219 0
      vertex -4.72652 -0.774002 0
    endloop
  endfacet
  facet normal 0 0 -1
    outer loop
      vertex -1.93596 -0.477158 0
      vertex -4.36417 -0.460022 0
      vertex -4.2291 0 0
    endloop
  endfacet
  facet normal 0 0 -1
    outer loop
      vertex -4.76845 -3.08737 0
      vertex -4.72652 -0.774002 0
      vertex -4.3938 -3.35956 0
    endloop
  endfacet
  facet normal 0 0 -1
    outer loop
      vertex -4.72652 0.774002 0
      vertex -4.77669 0.781219 0
      vertex -4.04153 3.09737 0
    endloop
  endfacet
  facet normal -0 0 -1
    outer loop
      vertex -3.57845 3.09737 0
      vertex -4.72652 0.774002 0
      vertex -4.04153 3.09737 0
    endloop
  endfacet
  facet normal 0 -0 -1
    outer loop
      vertex -3.2038 3.36957 0
      vertex -1.49245 1.32219 0
      vertex -3.57845 3.09737 0
    endloop
  endfacet
  facet normal 0 0 -1
    outer loop
      vertex -3.2038 3.36957 0
      vertex -1.13266 1.64095 0
      vertex -1.49245 1.32219 0
    endloop
  endfacet
  facet normal 0 0 -1
    outer loop
      vertex -3.2038 3.36957 0
      vertex -3.0607 3.81 0
      vertex -1.13266 1.64095 0
    endloop
  endfacet
  facet normal 0 0 -1
    outer loop
      vertex -3.0607 3.81 0
      vertex 1.7907 5.07999 0
      vertex -0.240326 1.97935 0
    endloop
  endfacet
  facet normal 0 0 -1
    outer loop
      vertex -3.0607 3.81 0
      vertex -0.240326 1.97935 0
      vertex -0.707047 1.86432 0
    endloop
  endfacet
  facet normal 0 0 -1
    outer loop
      vertex -0.240326 1.97935 0
      vertex 1.7907 5.07999 0
      vertex 1.93379 4.63957 0
    endloop
  endfacet
  facet normal 0 0 -1
    outer loop
      vertex 0.240326 1.97935 0
      vertex 1.93379 4.63957 0
      vertex 0.707047 1.86432 0
    endloop
  endfacet
  facet normal 0 0 -1
    outer loop
      vertex 0.707047 1.86432 0
      vertex 1.93379 4.63957 0
      vertex 2.30844 4.36737 0
    endloop
  endfacet
  facet normal 0 0 -1
    outer loop
      vertex 1.13266 1.64095 0
      vertex 0.707047 1.86432 0
      vertex 2.30844 4.36737 0
    endloop
  endfacet
  facet normal 0 0 -1
    outer loop
      vertex 1.49245 1.32219 0
      vertex 1.13266 1.64095 0
      vertex 2.30844 4.36737 0
    endloop
  endfacet
  facet normal 0 0 -1
    outer loop
      vertex 1.7655 0.926605 0
      vertex 4.26357 0.239716 0
      vertex 1.93596 0.477158 0
    endloop
  endfacet
  facet normal 0 0 -1
    outer loop
      vertex 4.52277 -0.643066 0
      vertex 4.72682 -0.736252 0
      vertex 4.76999 -0.779419 0
    endloop
  endfacet
  facet normal 0 0 -1
    outer loop
      vertex 11.775 -2.59999 0
      vertex 10.725 -4.29999 0
      vertex 9.72501 -4.29999 0
    endloop
  endfacet
  facet normal 0 0 -1
    outer loop
      vertex 5.99942 0.449997 0
      vertex 5.67 0.779419 0
      vertex 11.775 4.40001 0
    endloop
  endfacet
  facet normal -0 -0 -1
    outer loop
      vertex 4.8943 -0.812729 0
      vertex 4.95889 -0.842224 0
      vertex 4.76999 -0.779419 0
    endloop
  endfacet
  facet normal 0 0 -1
    outer loop
      vertex 4.95889 -0.842224 0
      vertex 4.98849 -0.837967 0
      vertex 5.21999 -0.899994 0
    endloop
  endfacet
  facet normal 0 0 -1
    outer loop
      vertex 0.707047 -1.86432 0
      vertex 0.231537 -5.18736 0
      vertex 0.240326 -1.97935 0
    endloop
  endfacet
  facet normal 0 0 -1
    outer loop
      vertex 0.231537 -5.18736 0
      vertex -0.231537 -5.18736 0
      vertex -0.240326 -1.97935 0
    endloop
  endfacet
  facet normal 0 0 -1
    outer loop
      vertex -4.36417 0.460022 0
      vertex -1.93596 0.477158 0
      vertex -4.2291 0 0
    endloop
  endfacet
  facet normal 0 0 -1
    outer loop
      vertex -5.99942 0.449997 0
      vertex -4.5593 3.81 0
      vertex -5.67 0.779419 0
    endloop
  endfacet
  facet normal -0 0 -1
    outer loop
      vertex -5.60619 -3.35956 0
      vertex -5.7493 -3.79999 0
      vertex -5.99942 -0.449997 0
    endloop
  endfacet
  facet normal 0 -0 -1
    outer loop
      vertex -6.12 0 0
      vertex -5.99942 -0.449997 0
      vertex -9.52499 -9.52499 0
    endloop
  endfacet
  facet normal 0 0 -1
    outer loop
      vertex -9.52499 -9.52499 0
      vertex -0.606186 -6.34042 0
      vertex -0.231537 -6.61263 0
    endloop
  endfacet
  facet normal 0 0 -1
    outer loop
      vertex -9.52499 9.52499 0
      vertex -6.12 0 0
      vertex -9.52499 -9.52499 0
    endloop
  endfacet
  facet normal 0 0 -1
    outer loop
      vertex -9.52499 9.52499 0
      vertex -5.99942 0.449997 0
      vertex -6.12 0 0
    endloop
  endfacet
  facet normal -0 0 -1
    outer loop
      vertex -5.21999 0.899994 0
      vertex -5.67 0.779419 0
      vertex -4.41618 3.36957 0
    endloop
  endfacet
  facet normal 0 0 -1
    outer loop
      vertex -4.77669 0.781219 0
      vertex -5.21999 0.899994 0
      vertex -4.04153 3.09737 0
    endloop
  endfacet
  facet normal 0 0 -1
    outer loop
      vertex -4.72652 0.774002 0
      vertex -3.57845 3.09737 0
      vertex -4.36417 0.460022 0
    endloop
  endfacet
  facet normal 0 0 -1
    outer loop
      vertex -4.36417 0.460022 0
      vertex -3.57845 3.09737 0
      vertex -1.7655 0.926605 0
    endloop
  endfacet
  facet normal 0 0 -1
    outer loop
      vertex -5.67 -0.779419 0
      vertex -5.23154 -3.08737 0
      vertex -5.60619 -3.35956 0
    endloop
  endfacet
  facet normal 0 0 -1
    outer loop
      vertex -4.2291 0 0
      vertex -1.93596 0.477158 0
      vertex -1.9939 0 0
    endloop
  endfacet
  facet normal 0 0 -1
    outer loop
      vertex -1.93596 -0.477158 0
      vertex -4.2291 0 0
      vertex -1.9939 0 0
    endloop
  endfacet
  facet normal 0 0 -1
    outer loop
      vertex -1.7655 -0.926605 0
      vertex -4.36417 -0.460022 0
      vertex -1.93596 -0.477158 0
    endloop
  endfacet
  facet normal 0 0 -1
    outer loop
      vertex -4.72652 -0.774002 0
      vertex -4.36417 -0.460022 0
      vertex -4.3938 -3.35956 0
    endloop
  endfacet
  facet normal 0 0 -1
    outer loop
      vertex 11.9182 3.95917 0
      vertex 6.12 0 0
      vertex 5.99942 0.449997 0
    endloop
  endfacet
  facet normal 0 0 -1
    outer loop
      vertex 1.49245 -1.32219 0
      vertex 4.52277 -0.643066 0
      vertex 4.76999 -0.779419 0
    endloop
  endfacet
  facet normal 0 0 -1
    outer loop
      vertex 1.49245 -1.32219 0
      vertex 0.606186 -5.45956 0
      vertex 1.13266 -1.64095 0
    endloop
  endfacet
  facet normal 0 0 -1
    outer loop
      vertex 0.606186 -5.45956 0
      vertex 0.707047 -1.86432 0
      vertex 1.13266 -1.64095 0
    endloop
  endfacet
  facet normal 0 0 -1
    outer loop
      vertex 0.606186 -5.45956 0
      vertex 1.49245 -1.32219 0
      vertex 4.76999 -0.779419 0
    endloop
  endfacet
  facet normal 0 0 -1
    outer loop
      vertex 1.7655 -0.926605 0
      vertex 4.26357 -0.239716 0
      vertex 4.52277 -0.643066 0
    endloop
  endfacet
  facet normal 0 -0 -1
    outer loop
      vertex 1.7655 -0.926605 0
      vertex 4.52277 -0.643066 0
      vertex 1.49245 -1.32219 0
    endloop
  endfacet
  facet normal 0 0 -1
    outer loop
      vertex 4.26357 -0.239716 0
      vertex 1.9939 0 0
      vertex 4.26357 0.239716 0
    endloop
  endfacet
  facet normal 0 0 -1
    outer loop
      vertex 1.93596 -0.477158 0
      vertex 1.9939 0 0
      vertex 4.26357 -0.239716 0
    endloop
  endfacet
  facet normal -0 0 -1
    outer loop
      vertex 4.26357 0.239716 0
      vertex 1.9939 0 0
      vertex 1.93596 0.477158 0
    endloop
  endfacet
  facet normal 0 0 -1
    outer loop
      vertex 4.52277 0.643066 0
      vertex 1.49245 1.32219 0
      vertex 2.77155 4.36737 0
    endloop
  endfacet
  facet normal -0 0 -1
    outer loop
      vertex 4.72682 0.736252 0
      vertex 4.52277 0.643066 0
      vertex 4.76999 0.779419 0
    endloop
  endfacet
  facet normal 0 0 -1
    outer loop
      vertex 4.76999 0.779419 0
      vertex 3.14619 4.63957 0
      vertex 4.95889 0.842224 0
    endloop
  endfacet
  facet normal 0 0 -1
    outer loop
      vertex 4.76999 0.779419 0
      vertex 4.95889 0.842224 0
      vertex 4.8943 0.812729 0
    endloop
  endfacet
  facet normal 0 0 -1
    outer loop
      vertex 3.14619 4.63957 0
      vertex 3.28929 5.07999 0
      vertex 5.21999 0.899994 0
    endloop
  endfacet
  facet normal 0 0 -1
    outer loop
      vertex 3.14619 4.63957 0
      vertex 5.21999 0.899994 0
      vertex 4.95889 0.842224 0
    endloop
  endfacet
  facet normal 0 0 -1
    outer loop
      vertex 5.21999 0.899994 0
      vertex 3.28929 5.07999 0
      vertex 5.67 0.779419 0
    endloop
  endfacet
  facet normal 0 0 -1
    outer loop
      vertex 5.67 0.779419 0
      vertex 3.28929 5.07999 0
      vertex 11.775 4.40001 0
    endloop
  endfacet
  facet normal 0 0 -1
    outer loop
      vertex 5.99942 0.449997 0
      vertex 11.775 4.40001 0
      vertex 11.9182 3.95917 0
    endloop
  endfacet
  facet normal 0 0 -1
    outer loop
      vertex 6.12 0 0
      vertex 11.9182 3.95917 0
      vertex 11.9182 -2.15915 0
    endloop
  endfacet
  facet normal 0 0 -1
    outer loop
      vertex 11.9182 3.95917 0
      vertex 12.2932 -1.8867 0
      vertex 11.9182 -2.15915 0
    endloop
  endfacet
  facet normal -0 -0 -1
    outer loop
      vertex 9.72501 -4.29999 0
      vertex 9.72501 -6.29999 0
      vertex 5.21999 -0.899994 0
    endloop
  endfacet
  facet normal 0 0 -1
    outer loop
      vertex 0.606186 -5.45956 0
      vertex 4.76999 -0.779419 0
      vertex 4.95889 -0.842224 0
    endloop
  endfacet
  facet normal 0 0 -1
    outer loop
      vertex 17.525 -9.52499 0
      vertex 15.325 0.800003 0
      vertex 17.525 9.52499 0
    endloop
  endfacet
  facet normal 0 0 -1
    outer loop
      vertex 14.325 0.800003 0
      vertex 14.325 1.8 0
      vertex 15.325 0.800003 0
    endloop
  endfacet
  facet normal 0 0 -1
    outer loop
      vertex 13.1317 -2.15915 0
      vertex 14.325 -1.2 0
      vertex 13.275 -2.59999 0
    endloop
  endfacet
  facet normal 0 0 -1
    outer loop
      vertex 14.325 1.8 0
      vertex 15.325 1.8 0
      vertex 15.325 0.800003 0
    endloop
  endfacet
  facet normal 0 0 -1
    outer loop
      vertex 15.325 0.800003 0
      vertex 17.525 -9.52499 0
      vertex 15.325 -1.2 0
    endloop
  endfacet
  facet normal 0 -0 -1
    outer loop
      vertex 13.1317 -3.04083 0
      vertex 14.325 -3.2 0
      vertex 12.7567 -3.31328 0
    endloop
  endfacet
  facet normal 0 0 -1
    outer loop
      vertex 12.2932 3.68672 0
      vertex 14.325 0.800003 0
      vertex 12.2932 -1.8867 0
    endloop
  endfacet
  facet normal -0 0 -1
    outer loop
      vertex 11.9182 -3.04083 0
      vertex 10.725 -4.29999 0
      vertex 11.775 -2.59999 0
    endloop
  endfacet
  facet normal 0 -0 -1
    outer loop
      vertex 14.325 0.800003 0
      vertex 14.325 -1.2 0
      vertex 12.7567 -1.8867 0
    endloop
  endfacet
  facet normal 0 0 -1
    outer loop
      vertex 5.67 -0.779419 0
      vertex 5.99942 -0.449997 0
      vertex 9.72501 -4.29999 0
    endloop
  endfacet
  facet normal 0 0 -1
    outer loop
      vertex 11.9182 -2.15915 0
      vertex 5.99942 -0.449997 0
      vertex 6.12 0 0
    endloop
  endfacet
  facet normal 0 0 -1
    outer loop
      vertex 9.72501 -4.29999 0
      vertex 5.99942 -0.449997 0
      vertex 11.9182 -2.15915 0
    endloop
  endfacet
  facet normal 0 0 -1
    outer loop
      vertex 11.9182 3.95917 0
      vertex 12.2932 3.68672 0
      vertex 12.2932 -1.8867 0
    endloop
  endfacet
  facet normal 0 0 -1
    outer loop
      vertex 12.2932 -1.8867 0
      vertex 14.325 0.800003 0
      vertex 12.7567 -1.8867 0
    endloop
  endfacet
  facet normal 0 0 -1
    outer loop
      vertex 12.7567 -1.8867 0
      vertex 14.325 -1.2 0
      vertex 13.1317 -2.15915 0
    endloop
  endfacet
  facet normal 0 -0 -1
    outer loop
      vertex 14.325 -1.2 0
      vertex 14.325 -3.2 0
      vertex 13.275 -2.59999 0
    endloop
  endfacet
  facet normal 0 0 -1
    outer loop
      vertex 15.325 -1.2 0
      vertex 17.525 -9.52499 0
      vertex 15.325 -3.2 0
    endloop
  endfacet
  facet normal 0 0 -1
    outer loop
      vertex 14.325 -5.2 0
      vertex 12.2932 -3.31328 0
      vertex 12.7567 -3.31328 0
    endloop
  endfacet
  facet normal 0 0 -1
    outer loop
      vertex -4.3938 -3.35956 0
      vertex -1.7655 -0.926605 0
      vertex -1.49245 -1.32219 0
    endloop
  endfacet
  facet normal 0 0 -1
    outer loop
      vertex -5.99942 -0.449997 0
      vertex -5.67 -0.779419 0
      vertex -5.60619 -3.35956 0
    endloop
  endfacet
  facet normal 0 -0 -1
    outer loop
      vertex -5.23154 -4.51262 0
      vertex -4.76845 -4.51262 0
      vertex -9.52499 -9.52499 0
    endloop
  endfacet
  facet normal 0 -0 -1
    outer loop
      vertex -5.60619 -4.24042 0
      vertex -5.23154 -4.51262 0
      vertex -9.52499 -9.52499 0
    endloop
  endfacet
  facet normal 0 -0 -1
    outer loop
      vertex -5.99942 -0.449997 0
      vertex -5.7493 -3.79999 0
      vertex -9.52499 -9.52499 0
    endloop
  endfacet
  facet normal 0 -0 -1
    outer loop
      vertex -5.7493 -3.79999 0
      vertex -5.60619 -4.24042 0
      vertex -9.52499 -9.52499 0
    endloop
  endfacet
  facet normal 0 -0 -1
    outer loop
      vertex -5.21999 -0.899994 0
      vertex -4.76845 -3.08737 0
      vertex -5.23154 -3.08737 0
    endloop
  endfacet
  facet normal 0 0 -1
    outer loop
      vertex -4.76845 -3.08737 0
      vertex -5.21999 -0.899994 0
      vertex -4.77669 -0.781219 0
    endloop
  endfacet
  facet normal 0 0 -1
    outer loop
      vertex -4.3938 -3.35956 0
      vertex -4.36417 -0.460022 0
      vertex -1.7655 -0.926605 0
    endloop
  endfacet
  facet normal -0 0 -1
    outer loop
      vertex -1.13266 -1.64095 0
      vertex -4.3938 -3.35956 0
      vertex -1.49245 -1.32219 0
    endloop
  endfacet
  facet normal 0 0 -1
    outer loop
      vertex -0.606186 -5.45956 0
      vertex -4.25069 -3.79999 0
      vertex -1.13266 -1.64095 0
    endloop
  endfacet
  facet normal 0 -0 -1
    outer loop
      vertex -4.3938 -4.24042 0
      vertex -0.749298 -5.89999 0
      vertex -4.76845 -4.51262 0
    endloop
  endfacet
  facet normal 0 0 -1
    outer loop
      vertex 17.525 -9.52499 0
      vertex 15.325 -5.2 0
      vertex 15.325 -3.2 0
    endloop
  endfacet
  facet normal 0 0 -1
    outer loop
      vertex 14.325 -5.2 0
      vertex 12.7567 -3.31328 0
      vertex 14.325 -3.2 0
    endloop
  endfacet
  facet normal 0 0 -1
    outer loop
      vertex 17.525 -9.52499 0
      vertex 14.325 -5.2 0
      vertex 15.325 -5.2 0
    endloop
  endfacet
  facet normal 0 0 -1
    outer loop
      vertex 15.325 -3.2 0
      vertex 14.325 -3.2 0
      vertex 14.325 -1.2 0
    endloop
  endfacet
  facet normal 0 0 -1
    outer loop
      vertex 14.325 -3.2 0
      vertex 13.1317 -3.04083 0
      vertex 13.275 -2.59999 0
    endloop
  endfacet
  facet normal -0 -0 -1
    outer loop
      vertex 15.325 -1.2 0
      vertex 15.325 -3.2 0
      vertex 14.325 -1.2 0
    endloop
  endfacet
  facet normal 0 0 -1
    outer loop
      vertex 17.525 -9.52499 0
      vertex 10.725 -6.29999 0
      vertex 14.325 -5.2 0
    endloop
  endfacet
  facet normal 0 0 -1
    outer loop
      vertex 10.725 -4.29999 0
      vertex 12.2932 -3.31328 0
      vertex 14.325 -5.2 0
    endloop
  endfacet
  facet normal 0 0 -1
    outer loop
      vertex 0.231537 -6.61263 0
      vertex 9.72501 -6.29999 0
      vertex 17.525 -9.52499 0
    endloop
  endfacet
  facet normal 0 -0 -1
    outer loop
      vertex 11.9182 -3.04083 0
      vertex 12.2932 -3.31328 0
      vertex 10.725 -4.29999 0
    endloop
  endfacet
  facet normal -0 0 -1
    outer loop
      vertex 11.775 -2.59999 0
      vertex 9.72501 -4.29999 0
      vertex 11.9182 -2.15915 0
    endloop
  endfacet
  facet normal 0 0 -1
    outer loop
      vertex 9.72501 -4.29999 0
      vertex 5.21999 -0.899994 0
      vertex 5.67 -0.779419 0
    endloop
  endfacet
  facet normal 0 0 -1
    outer loop
      vertex 10.725 -4.29999 0
      vertex 14.325 -5.2 0
      vertex 10.725 -6.29999 0
    endloop
  endfacet
  facet normal 0 0 -1
    outer loop
      vertex -9.52499 -9.52499 0
      vertex 0.231537 -6.61263 0
      vertex 17.525 -9.52499 0
    endloop
  endfacet
  facet normal 0 0 -1
    outer loop
      vertex 4.95889 -0.842224 0
      vertex 0.749298 -5.89999 0
      vertex 0.606186 -5.45956 0
    endloop
  endfacet
  facet normal 0 0 -1
    outer loop
      vertex -9.52499 -9.52499 0
      vertex -0.231537 -6.61263 0
      vertex 0.231537 -6.61263 0
    endloop
  endfacet
  facet normal -0 0 -1
    outer loop
      vertex 0.240326 -1.97935 0
      vertex 0.231537 -5.18736 0
      vertex -0.240326 -1.97935 0
    endloop
  endfacet
  facet normal 0 0 -1
    outer loop
      vertex -4.3938 -4.24042 0
      vertex -0.606186 -5.45956 0
      vertex -0.749298 -5.89999 0
    endloop
  endfacet
  facet normal 0 0 -1
    outer loop
      vertex -4.3938 -4.24042 0
      vertex -4.25069 -3.79999 0
      vertex -0.606186 -5.45956 0
    endloop
  endfacet
  facet normal 0 0 -1
    outer loop
      vertex -0.231537 -5.18736 0
      vertex -0.707047 -1.86432 0
      vertex -0.240326 -1.97935 0
    endloop
  endfacet
  facet normal 0 0 -1
    outer loop
      vertex 0.707047 -1.86432 0
      vertex 0.606186 -5.45956 0
      vertex 0.231537 -5.18736 0
    endloop
  endfacet
  facet normal -0 0 -1
    outer loop
      vertex 5.21999 -0.899994 0
      vertex 0.749298 -5.89999 0
      vertex 4.95889 -0.842224 0
    endloop
  endfacet
  facet normal 0 -0 -1
    outer loop
      vertex 5.21999 -0.899994 0
      vertex 9.72501 -6.29999 0
      vertex 0.749298 -5.89999 0
    endloop
  endfacet
  facet normal 0 -0 -1
    outer loop
      vertex 0.749298 -5.89999 0
      vertex 9.72501 -6.29999 0
      vertex 0.606186 -6.34042 0
    endloop
  endfacet
  facet normal 0 -0 -1
    outer loop
      vertex 0.606186 -6.34042 0
      vertex 9.72501 -6.29999 0
      vertex 0.231537 -6.61263 0
    endloop
  endfacet
  facet normal 0 -0 1
    outer loop
      vertex 2.30844 5.79262 1.4
      vertex 2.77155 5.79262 1.4
      vertex -9.52499 9.52499 1.4
    endloop
  endfacet
  facet normal 0 -0 1
    outer loop
      vertex 4.98849 0.837967 1.4
      vertex 5.21999 0.899994 1.4
      vertex 4.95889 0.842224 1.4
    endloop
  endfacet
  facet normal 0 -0 1
    outer loop
      vertex 4.26357 0.239716 1.4
      vertex 4.52277 0.643066 1.4
      vertex 1.7655 0.926605 1.4
    endloop
  endfacet
  facet normal 0 0 1
    outer loop
      vertex 1.49245 1.32219 1.4
      vertex 2.77155 4.36737 1.4
      vertex 2.30844 4.36737 1.4
    endloop
  endfacet
  facet normal 0 -0 1
    outer loop
      vertex -1.7655 0.926605 1.4
      vertex -1.49245 1.32219 1.4
      vertex -3.57845 3.09737 1.4
    endloop
  endfacet
  facet normal 0 0 1
    outer loop
      vertex 1.93379 5.52042 1.4
      vertex -3.2038 4.25043 1.4
      vertex 1.7907 5.07999 1.4
    endloop
  endfacet
  facet normal 0 0 1
    outer loop
      vertex 2.30844 5.79262 1.4
      vertex -3.57845 4.52261 1.4
      vertex 1.93379 5.52042 1.4
    endloop
  endfacet
  facet normal 0 0 1
    outer loop
      vertex -9.52499 9.52499 1.4
      vertex -3.57845 4.52261 1.4
      vertex 2.30844 5.79262 1.4
    endloop
  endfacet
  facet normal 0 -0 1
    outer loop
      vertex -4.04153 4.52261 1.4
      vertex -3.57845 4.52261 1.4
      vertex -9.52499 9.52499 1.4
    endloop
  endfacet
  facet normal -0 0 1
    outer loop
      vertex -9.52499 9.52499 1.4
      vertex 2.77155 5.79262 1.4
      vertex 17.525 9.52499 1.4
    endloop
  endfacet
  facet normal 0 0 1
    outer loop
      vertex 11.9182 4.84085 1.4
      vertex 3.14619 5.52042 1.4
      vertex 3.28929 5.07999 1.4
    endloop
  endfacet
  facet normal 0 0 1
    outer loop
      vertex 3.14619 4.63957 1.4
      vertex 2.77155 4.36737 1.4
      vertex 4.76999 0.779419 1.4
    endloop
  endfacet
  facet normal 0 0 1
    outer loop
      vertex 4.52277 0.643066 1.4
      vertex 1.49245 1.32219 1.4
      vertex 1.7655 0.926605 1.4
    endloop
  endfacet
  facet normal 0 0 1
    outer loop
      vertex 12.7567 3.68672 1.4
      vertex 14.325 3.8 1.4
      vertex 13.1317 3.95917 1.4
    endloop
  endfacet
  facet normal 0 0 1
    outer loop
      vertex 4.76999 0.779419 1.4
      vertex 2.77155 4.36737 1.4
      vertex 4.52277 0.643066 1.4
    endloop
  endfacet
  facet normal 0 0 1
    outer loop
      vertex 4.26357 -0.239716 1.4
      vertex 1.93596 -0.477158 1.4
      vertex 1.7655 -0.926605 1.4
    endloop
  endfacet
  facet normal 0 -0 1
    outer loop
      vertex 12.2932 5.1133 1.4
      vertex 17.525 9.52499 1.4
      vertex 2.77155 5.79262 1.4
    endloop
  endfacet
  facet normal 0 -0 1
    outer loop
      vertex 11.775 4.40001 1.4
      vertex 11.9182 4.84085 1.4
      vertex 3.28929 5.07999 1.4
    endloop
  endfacet
  facet normal 0 -0 1
    outer loop
      vertex 11.9182 4.84085 1.4
      vertex 12.2932 5.1133 1.4
      vertex 3.14619 5.52042 1.4
    endloop
  endfacet
  facet normal 0 0 1
    outer loop
      vertex 12.2932 5.1133 1.4
      vertex 2.77155 5.79262 1.4
      vertex 3.14619 5.52042 1.4
    endloop
  endfacet
  facet normal 0 -0 1
    outer loop
      vertex 12.7567 5.1133 1.4
      vertex 17.525 9.52499 1.4
      vertex 12.2932 5.1133 1.4
    endloop
  endfacet
  facet normal 0 -0 1
    outer loop
      vertex 13.1317 4.84085 1.4
      vertex 17.525 9.52499 1.4
      vertex 12.7567 5.1133 1.4
    endloop
  endfacet
  facet normal -0 -0 1
    outer loop
      vertex 13.275 4.40001 1.4
      vertex 14.325 3.8 1.4
      vertex 13.1317 4.84085 1.4
    endloop
  endfacet
  facet normal -0 0 1
    outer loop
      vertex 15.325 1.8 1.4
      vertex 15.325 0.800003 1.4
      vertex 17.525 9.52499 1.4
    endloop
  endfacet
  facet normal 0 0 1
    outer loop
      vertex 12.7567 3.68672 1.4
      vertex 12.2932 3.68672 1.4
      vertex 14.325 1.8 1.4
    endloop
  endfacet
  facet normal 0 0 1
    outer loop
      vertex -1.7655 0.926605 1.4
      vertex -4.36417 0.460022 1.4
      vertex -1.93596 0.477158 1.4
    endloop
  endfacet
  facet normal 0 0 1
    outer loop
      vertex -5.67 0.779419 1.4
      vertex -4.41618 3.36957 1.4
      vertex -4.5593 3.81 1.4
    endloop
  endfacet
  facet normal 0 0 1
    outer loop
      vertex -0.707047 -1.86432 1.4
      vertex -0.606186 -5.45956 1.4
      vertex -0.231537 -5.18736 1.4
    endloop
  endfacet
  facet normal 0 0 1
    outer loop
      vertex -5.67 -0.779419 1.4
      vertex -5.23154 -3.08737 1.4
      vertex -5.21999 -0.899994 1.4
    endloop
  endfacet
  facet normal 0 -0 1
    outer loop
      vertex -5.99942 0.449997 1.4
      vertex -4.5593 3.81 1.4
      vertex -9.52499 9.52499 1.4
    endloop
  endfacet
  facet normal 0 -0 1
    outer loop
      vertex -4.5593 3.81 1.4
      vertex -4.41618 4.25043 1.4
      vertex -9.52499 9.52499 1.4
    endloop
  endfacet
  facet normal 0 -0 1
    outer loop
      vertex -4.41618 4.25043 1.4
      vertex -4.04153 4.52261 1.4
      vertex -9.52499 9.52499 1.4
    endloop
  endfacet
  facet normal 0 0 1
    outer loop
      vertex 1.93379 5.52042 1.4
      vertex -3.57845 4.52261 1.4
      vertex -3.2038 4.25043 1.4
    endloop
  endfacet
  facet normal 0 0 1
    outer loop
      vertex 1.7907 5.07999 1.4
      vertex -3.2038 4.25043 1.4
      vertex -3.0607 3.81 1.4
    endloop
  endfacet
  facet normal 0 0 1
    outer loop
      vertex -0.707047 1.86432 1.4
      vertex -3.0607 3.81 1.4
      vertex -1.13266 1.64095 1.4
    endloop
  endfacet
  facet normal 0 0 1
    outer loop
      vertex -4.04153 3.09737 1.4
      vertex -4.41618 3.36957 1.4
      vertex -5.21999 0.899994 1.4
    endloop
  endfacet
  facet normal -0 0 1
    outer loop
      vertex 15.325 3.8 1.4
      vertex 15.325 1.8 1.4
      vertex 17.525 9.52499 1.4
    endloop
  endfacet
  facet normal 0 0 1
    outer loop
      vertex 14.325 3.8 1.4
      vertex 12.7567 3.68672 1.4
      vertex 14.325 1.8 1.4
    endloop
  endfacet
  facet normal 0 -0 1
    outer loop
      vertex 14.325 0.800003 1.4
      vertex 14.325 1.8 1.4
      vertex 12.2932 3.68672 1.4
    endloop
  endfacet
  facet normal 0 0 1
    outer loop
      vertex 13.1317 4.84085 1.4
      vertex 14.325 3.8 1.4
      vertex 15.325 3.8 1.4
    endloop
  endfacet
  facet normal 0 0 1
    outer loop
      vertex 13.275 4.40001 1.4
      vertex 13.1317 3.95917 1.4
      vertex 14.325 3.8 1.4
    endloop
  endfacet
  facet normal -0 0 1
    outer loop
      vertex 13.1317 4.84085 1.4
      vertex 15.325 3.8 1.4
      vertex 17.525 9.52499 1.4
    endloop
  endfacet
  facet normal 0 -0 1
    outer loop
      vertex 0.240326 1.97935 1.4
      vertex 1.93379 4.63957 1.4
      vertex -0.240326 1.97935 1.4
    endloop
  endfacet
  facet normal 0 0 1
    outer loop
      vertex -0.606186 -6.34042 1.4
      vertex -4.76845 -4.51262 1.4
      vertex -9.52499 -9.52499 1.4
    endloop
  endfacet
  facet normal 0 0 1
    outer loop
      vertex -0.707047 -1.86432 1.4
      vertex -1.13266 -1.64095 1.4
      vertex -0.606186 -5.45956 1.4
    endloop
  endfacet
  facet normal 0 0 1
    outer loop
      vertex -0.606186 -6.34042 1.4
      vertex -0.749298 -5.89999 1.4
      vertex -4.76845 -4.51262 1.4
    endloop
  endfacet
  facet normal -0 0 1
    outer loop
      vertex -4.3938 -3.35956 1.4
      vertex -4.25069 -3.79999 1.4
      vertex -1.13266 -1.64095 1.4
    endloop
  endfacet
  facet normal 0 0 1
    outer loop
      vertex 10.725 -6.29999 1.4
      vertex 9.72501 -6.29999 1.4
      vertex 17.525 -9.52499 1.4
    endloop
  endfacet
  facet normal 0 0 1
    outer loop
      vertex -4.72652 -0.774002 1.4
      vertex -4.77669 -0.781219 1.4
      vertex -4.76845 -3.08737 1.4
    endloop
  endfacet
  facet normal 0 0 1
    outer loop
      vertex -4.2291 0 1.4
      vertex -4.36417 -0.460022 1.4
      vertex -1.93596 -0.477158 1.4
    endloop
  endfacet
  facet normal 0 0 1
    outer loop
      vertex -4.3938 -3.35956 1.4
      vertex -4.72652 -0.774002 1.4
      vertex -4.76845 -3.08737 1.4
    endloop
  endfacet
  facet normal 0 0 1
    outer loop
      vertex -4.04153 3.09737 1.4
      vertex -4.77669 0.781219 1.4
      vertex -4.72652 0.774002 1.4
    endloop
  endfacet
  facet normal -0 0 1
    outer loop
      vertex -4.04153 3.09737 1.4
      vertex -4.72652 0.774002 1.4
      vertex -3.57845 3.09737 1.4
    endloop
  endfacet
  facet normal -0 0 1
    outer loop
      vertex -3.57845 3.09737 1.4
      vertex -1.49245 1.32219 1.4
      vertex -3.2038 3.36957 1.4
    endloop
  endfacet
  facet normal 0 -0 1
    outer loop
      vertex -1.49245 1.32219 1.4
      vertex -1.13266 1.64095 1.4
      vertex -3.2038 3.36957 1.4
    endloop
  endfacet
  facet normal 0 0 1
    outer loop
      vertex -1.13266 1.64095 1.4
      vertex -3.0607 3.81 1.4
      vertex -3.2038 3.36957 1.4
    endloop
  endfacet
  facet normal 0 -0 1
    outer loop
      vertex -0.240326 1.97935 1.4
      vertex 1.7907 5.07999 1.4
      vertex -3.0607 3.81 1.4
    endloop
  endfacet
  facet normal 0 -0 1
    outer loop
      vertex -0.707047 1.86432 1.4
      vertex -0.240326 1.97935 1.4
      vertex -3.0607 3.81 1.4
    endloop
  endfacet
  facet normal 0 0 1
    outer loop
      vertex 1.93379 4.63957 1.4
      vertex 1.7907 5.07999 1.4
      vertex -0.240326 1.97935 1.4
    endloop
  endfacet
  facet normal 0 -0 1
    outer loop
      vertex 0.707047 1.86432 1.4
      vertex 1.93379 4.63957 1.4
      vertex 0.240326 1.97935 1.4
    endloop
  endfacet
  facet normal 0 0 1
    outer loop
      vertex 2.30844 4.36737 1.4
      vertex 1.93379 4.63957 1.4
      vertex 0.707047 1.86432 1.4
    endloop
  endfacet
  facet normal 0 0 1
    outer loop
      vertex 2.30844 4.36737 1.4
      vertex 0.707047 1.86432 1.4
      vertex 1.13266 1.64095 1.4
    endloop
  endfacet
  facet normal 0 0 1
    outer loop
      vertex 2.30844 4.36737 1.4
      vertex 1.13266 1.64095 1.4
      vertex 1.49245 1.32219 1.4
    endloop
  endfacet
  facet normal -0 -0 1
    outer loop
      vertex 1.93596 0.477158 1.4
      vertex 4.26357 0.239716 1.4
      vertex 1.7655 0.926605 1.4
    endloop
  endfacet
  facet normal 0 0 1
    outer loop
      vertex 4.76999 -0.779419 1.4
      vertex 4.72682 -0.736252 1.4
      vertex 4.52277 -0.643066 1.4
    endloop
  endfacet
  facet normal 0 0 1
    outer loop
      vertex 9.72501 -4.29999 1.4
      vertex 10.725 -4.29999 1.4
      vertex 11.775 -2.59999 1.4
    endloop
  endfacet
  facet normal 0 0 1
    outer loop
      vertex 11.775 4.40001 1.4
      vertex 5.67 0.779419 1.4
      vertex 5.99942 0.449997 1.4
    endloop
  endfacet
  facet normal 0 0 1
    outer loop
      vertex 4.76999 -0.779419 1.4
      vertex 4.95889 -0.842224 1.4
      vertex 4.8943 -0.812729 1.4
    endloop
  endfacet
  facet normal 0 0 1
    outer loop
      vertex 5.21999 -0.899994 1.4
      vertex 4.98849 -0.837967 1.4
      vertex 4.95889 -0.842224 1.4
    endloop
  endfacet
  facet normal -0 0 1
    outer loop
      vertex 0.240326 -1.97935 1.4
      vertex 0.231537 -5.18736 1.4
      vertex 0.707047 -1.86432 1.4
    endloop
  endfacet
  facet normal 0 0 1
    outer loop
      vertex -0.240326 -1.97935 1.4
      vertex -0.231537 -5.18736 1.4
      vertex 0.231537 -5.18736 1.4
    endloop
  endfacet
  facet normal 0 -0 1
    outer loop
      vertex -4.2291 0 1.4
      vertex -1.93596 0.477158 1.4
      vertex -4.36417 0.460022 1.4
    endloop
  endfacet
  facet normal 0 -0 1
    outer loop
      vertex -5.67 0.779419 1.4
      vertex -4.5593 3.81 1.4
      vertex -5.99942 0.449997 1.4
    endloop
  endfacet
  facet normal 0 0 1
    outer loop
      vertex -5.99942 -0.449997 1.4
      vertex -5.7493 -3.79999 1.4
      vertex -5.60619 -3.35956 1.4
    endloop
  endfacet
  facet normal 0 0 1
    outer loop
      vertex -9.52499 -9.52499 1.4
      vertex -5.99942 -0.449997 1.4
      vertex -6.12 0 1.4
    endloop
  endfacet
  facet normal 0 0 1
    outer loop
      vertex -0.231537 -6.61263 1.4
      vertex -0.606186 -6.34042 1.4
      vertex -9.52499 -9.52499 1.4
    endloop
  endfacet
  facet normal 0 0 1
    outer loop
      vertex -9.52499 -9.52499 1.4
      vertex -6.12 0 1.4
      vertex -9.52499 9.52499 1.4
    endloop
  endfacet
  facet normal 0 -0 1
    outer loop
      vertex -6.12 0 1.4
      vertex -5.99942 0.449997 1.4
      vertex -9.52499 9.52499 1.4
    endloop
  endfacet
  facet normal 0 0 1
    outer loop
      vertex -4.41618 3.36957 1.4
      vertex -5.67 0.779419 1.4
      vertex -5.21999 0.899994 1.4
    endloop
  endfacet
  facet normal 0 0 1
    outer loop
      vertex -4.04153 3.09737 1.4
      vertex -5.21999 0.899994 1.4
      vertex -4.77669 0.781219 1.4
    endloop
  endfacet
  facet normal 0 -0 1
    outer loop
      vertex -4.36417 0.460022 1.4
      vertex -3.57845 3.09737 1.4
      vertex -4.72652 0.774002 1.4
    endloop
  endfacet
  facet normal 0 0 1
    outer loop
      vertex -1.7655 0.926605 1.4
      vertex -3.57845 3.09737 1.4
      vertex -4.36417 0.460022 1.4
    endloop
  endfacet
  facet normal 0 -0 1
    outer loop
      vertex -5.60619 -3.35956 1.4
      vertex -5.23154 -3.08737 1.4
      vertex -5.67 -0.779419 1.4
    endloop
  endfacet
  facet normal 0 -0 1
    outer loop
      vertex -1.9939 0 1.4
      vertex -1.93596 0.477158 1.4
      vertex -4.2291 0 1.4
    endloop
  endfacet
  facet normal 0 0 1
    outer loop
      vertex -1.9939 0 1.4
      vertex -4.2291 0 1.4
      vertex -1.93596 -0.477158 1.4
    endloop
  endfacet
  facet normal 0 0 1
    outer loop
      vertex -1.93596 -0.477158 1.4
      vertex -4.36417 -0.460022 1.4
      vertex -1.7655 -0.926605 1.4
    endloop
  endfacet
  facet normal 0 -0 1
    outer loop
      vertex -4.3938 -3.35956 1.4
      vertex -4.36417 -0.460022 1.4
      vertex -4.72652 -0.774002 1.4
    endloop
  endfacet
  facet normal -0 0 1
    outer loop
      vertex 5.99942 0.449997 1.4
      vertex 6.12 0 1.4
      vertex 11.9182 3.95917 1.4
    endloop
  endfacet
  facet normal 0 0 1
    outer loop
      vertex 4.76999 -0.779419 1.4
      vertex 4.52277 -0.643066 1.4
      vertex 1.49245 -1.32219 1.4
    endloop
  endfacet
  facet normal -0 0 1
    outer loop
      vertex 1.13266 -1.64095 1.4
      vertex 0.606186 -5.45956 1.4
      vertex 1.49245 -1.32219 1.4
    endloop
  endfacet
  facet normal 0 0 1
    outer loop
      vertex 1.13266 -1.64095 1.4
      vertex 0.707047 -1.86432 1.4
      vertex 0.606186 -5.45956 1.4
    endloop
  endfacet
  facet normal 0 0 1
    outer loop
      vertex 4.76999 -0.779419 1.4
      vertex 1.49245 -1.32219 1.4
      vertex 0.606186 -5.45956 1.4
    endloop
  endfacet
  facet normal 0 0 1
    outer loop
      vertex 4.52277 -0.643066 1.4
      vertex 4.26357 -0.239716 1.4
      vertex 1.7655 -0.926605 1.4
    endloop
  endfacet
  facet normal 0 0 1
    outer loop
      vertex 1.49245 -1.32219 1.4
      vertex 4.52277 -0.643066 1.4
      vertex 1.7655 -0.926605 1.4
    endloop
  endfacet
  facet normal 0 0 1
    outer loop
      vertex 4.26357 0.239716 1.4
      vertex 1.9939 0 1.4
      vertex 4.26357 -0.239716 1.4
    endloop
  endfacet
  facet normal 0 0 1
    outer loop
      vertex 4.26357 -0.239716 1.4
      vertex 1.9939 0 1.4
      vertex 1.93596 -0.477158 1.4
    endloop
  endfacet
  facet normal 0 0 1
    outer loop
      vertex 1.93596 0.477158 1.4
      vertex 1.9939 0 1.4
      vertex 4.26357 0.239716 1.4
    endloop
  endfacet
  facet normal 0 0 1
    outer loop
      vertex 2.77155 4.36737 1.4
      vertex 1.49245 1.32219 1.4
      vertex 4.52277 0.643066 1.4
    endloop
  endfacet
  facet normal 0 0 1
    outer loop
      vertex 4.76999 0.779419 1.4
      vertex 4.52277 0.643066 1.4
      vertex 4.72682 0.736252 1.4
    endloop
  endfacet
  facet normal 0 0 1
    outer loop
      vertex 4.95889 0.842224 1.4
      vertex 3.14619 4.63957 1.4
      vertex 4.76999 0.779419 1.4
    endloop
  endfacet
  facet normal 0 -0 1
    outer loop
      vertex 4.8943 0.812729 1.4
      vertex 4.95889 0.842224 1.4
      vertex 4.76999 0.779419 1.4
    endloop
  endfacet
  facet normal 0 0 1
    outer loop
      vertex 5.21999 0.899994 1.4
      vertex 3.28929 5.07999 1.4
      vertex 3.14619 4.63957 1.4
    endloop
  endfacet
  facet normal 0 -0 1
    outer loop
      vertex 4.95889 0.842224 1.4
      vertex 5.21999 0.899994 1.4
      vertex 3.14619 4.63957 1.4
    endloop
  endfacet
  facet normal 0 0 1
    outer loop
      vertex 5.67 0.779419 1.4
      vertex 3.28929 5.07999 1.4
      vertex 5.21999 0.899994 1.4
    endloop
  endfacet
  facet normal 0 0 1
    outer loop
      vertex 11.775 4.40001 1.4
      vertex 3.28929 5.07999 1.4
      vertex 5.67 0.779419 1.4
    endloop
  endfacet
  facet normal 0 0 1
    outer loop
      vertex 11.9182 3.95917 1.4
      vertex 11.775 4.40001 1.4
      vertex 5.99942 0.449997 1.4
    endloop
  endfacet
  facet normal 0 -0 1
    outer loop
      vertex 11.9182 -2.15915 1.4
      vertex 11.9182 3.95917 1.4
      vertex 6.12 0 1.4
    endloop
  endfacet
  facet normal 0 0 1
    outer loop
      vertex 11.9182 -2.15915 1.4
      vertex 12.2932 -1.8867 1.4
      vertex 11.9182 3.95917 1.4
    endloop
  endfacet
  facet normal 0 0 1
    outer loop
      vertex 5.21999 -0.899994 1.4
      vertex 9.72501 -6.29999 1.4
      vertex 9.72501 -4.29999 1.4
    endloop
  endfacet
  facet normal 0 0 1
    outer loop
      vertex 4.95889 -0.842224 1.4
      vertex 4.76999 -0.779419 1.4
      vertex 0.606186 -5.45956 1.4
    endloop
  endfacet
  facet normal 0 0 1
    outer loop
      vertex 17.525 9.52499 1.4
      vertex 15.325 0.800003 1.4
      vertex 17.525 -9.52499 1.4
    endloop
  endfacet
  facet normal 0 0 1
    outer loop
      vertex 15.325 0.800003 1.4
      vertex 14.325 1.8 1.4
      vertex 14.325 0.800003 1.4
    endloop
  endfacet
  facet normal 0 -0 1
    outer loop
      vertex 13.275 -2.59999 1.4
      vertex 14.325 -1.2 1.4
      vertex 13.1317 -2.15915 1.4
    endloop
  endfacet
  facet normal 0 -0 1
    outer loop
      vertex 15.325 0.800003 1.4
      vertex 15.325 1.8 1.4
      vertex 14.325 1.8 1.4
    endloop
  endfacet
  facet normal -0 0 1
    outer loop
      vertex 15.325 -1.2 1.4
      vertex 17.525 -9.52499 1.4
      vertex 15.325 0.800003 1.4
    endloop
  endfacet
  facet normal 0 0 1
    outer loop
      vertex 12.7567 -3.31328 1.4
      vertex 14.325 -3.2 1.4
      vertex 13.1317 -3.04083 1.4
    endloop
  endfacet
  facet normal 0 0 1
    outer loop
      vertex 12.2932 -1.8867 1.4
      vertex 14.325 0.800003 1.4
      vertex 12.2932 3.68672 1.4
    endloop
  endfacet
  facet normal 0 0 1
    outer loop
      vertex 11.775 -2.59999 1.4
      vertex 10.725 -4.29999 1.4
      vertex 11.9182 -3.04083 1.4
    endloop
  endfacet
  facet normal 0 0 1
    outer loop
      vertex 12.7567 -1.8867 1.4
      vertex 14.325 -1.2 1.4
      vertex 14.325 0.800003 1.4
    endloop
  endfacet
  facet normal 0 0 1
    outer loop
      vertex 9.72501 -4.29999 1.4
      vertex 5.99942 -0.449997 1.4
      vertex 5.67 -0.779419 1.4
    endloop
  endfacet
  facet normal 0 0 1
    outer loop
      vertex 6.12 0 1.4
      vertex 5.99942 -0.449997 1.4
      vertex 11.9182 -2.15915 1.4
    endloop
  endfacet
  facet normal 0 0 1
    outer loop
      vertex 11.9182 -2.15915 1.4
      vertex 5.99942 -0.449997 1.4
      vertex 9.72501 -4.29999 1.4
    endloop
  endfacet
  facet normal 0 -0 1
    outer loop
      vertex 12.2932 -1.8867 1.4
      vertex 12.2932 3.68672 1.4
      vertex 11.9182 3.95917 1.4
    endloop
  endfacet
  facet normal 0 -0 1
    outer loop
      vertex 12.7567 -1.8867 1.4
      vertex 14.325 0.800003 1.4
      vertex 12.2932 -1.8867 1.4
    endloop
  endfacet
  facet normal 0 -0 1
    outer loop
      vertex 13.1317 -2.15915 1.4
      vertex 14.325 -1.2 1.4
      vertex 12.7567 -1.8867 1.4
    endloop
  endfacet
  facet normal -0 0 1
    outer loop
      vertex 13.275 -2.59999 1.4
      vertex 14.325 -3.2 1.4
      vertex 14.325 -1.2 1.4
    endloop
  endfacet
  facet normal -0 0 1
    outer loop
      vertex 15.325 -3.2 1.4
      vertex 17.525 -9.52499 1.4
      vertex 15.325 -1.2 1.4
    endloop
  endfacet
  facet normal 0 0 1
    outer loop
      vertex 12.7567 -3.31328 1.4
      vertex 12.2932 -3.31328 1.4
      vertex 14.325 -5.2 1.4
    endloop
  endfacet
  facet normal 0 0 1
    outer loop
      vertex -1.49245 -1.32219 1.4
      vertex -1.7655 -0.926605 1.4
      vertex -4.3938 -3.35956 1.4
    endloop
  endfacet
  facet normal 0 0 1
    outer loop
      vertex -5.60619 -3.35956 1.4
      vertex -5.67 -0.779419 1.4
      vertex -5.99942 -0.449997 1.4
    endloop
  endfacet
  facet normal 0 0 1
    outer loop
      vertex -9.52499 -9.52499 1.4
      vertex -4.76845 -4.51262 1.4
      vertex -5.23154 -4.51262 1.4
    endloop
  endfacet
  facet normal 0 0 1
    outer loop
      vertex -9.52499 -9.52499 1.4
      vertex -5.23154 -4.51262 1.4
      vertex -5.60619 -4.24042 1.4
    endloop
  endfacet
  facet normal 0 0 1
    outer loop
      vertex -9.52499 -9.52499 1.4
      vertex -5.7493 -3.79999 1.4
      vertex -5.99942 -0.449997 1.4
    endloop
  endfacet
  facet normal 0 0 1
    outer loop
      vertex -9.52499 -9.52499 1.4
      vertex -5.60619 -4.24042 1.4
      vertex -5.7493 -3.79999 1.4
    endloop
  endfacet
  facet normal 0 0 1
    outer loop
      vertex -5.23154 -3.08737 1.4
      vertex -4.76845 -3.08737 1.4
      vertex -5.21999 -0.899994 1.4
    endloop
  endfacet
  facet normal 0 0 1
    outer loop
      vertex -4.77669 -0.781219 1.4
      vertex -5.21999 -0.899994 1.4
      vertex -4.76845 -3.08737 1.4
    endloop
  endfacet
  facet normal 0 0 1
    outer loop
      vertex -1.7655 -0.926605 1.4
      vertex -4.36417 -0.460022 1.4
      vertex -4.3938 -3.35956 1.4
    endloop
  endfacet
  facet normal 0 0 1
    outer loop
      vertex -1.49245 -1.32219 1.4
      vertex -4.3938 -3.35956 1.4
      vertex -1.13266 -1.64095 1.4
    endloop
  endfacet
  facet normal 0 0 1
    outer loop
      vertex -1.13266 -1.64095 1.4
      vertex -4.25069 -3.79999 1.4
      vertex -0.606186 -5.45956 1.4
    endloop
  endfacet
  facet normal -0 0 1
    outer loop
      vertex -4.76845 -4.51262 1.4
      vertex -0.749298 -5.89999 1.4
      vertex -4.3938 -4.24042 1.4
    endloop
  endfacet
  facet normal 0 0 1
    outer loop
      vertex 15.325 -3.2 1.4
      vertex 15.325 -5.2 1.4
      vertex 17.525 -9.52499 1.4
    endloop
  endfacet
  facet normal 0 0 1
    outer loop
      vertex 14.325 -3.2 1.4
      vertex 12.7567 -3.31328 1.4
      vertex 14.325 -5.2 1.4
    endloop
  endfacet
  facet normal 0 0 1
    outer loop
      vertex 15.325 -5.2 1.4
      vertex 14.325 -5.2 1.4
      vertex 17.525 -9.52499 1.4
    endloop
  endfacet
  facet normal 0 0 1
    outer loop
      vertex 14.325 -1.2 1.4
      vertex 14.325 -3.2 1.4
      vertex 15.325 -3.2 1.4
    endloop
  endfacet
  facet normal 0 0 1
    outer loop
      vertex 13.275 -2.59999 1.4
      vertex 13.1317 -3.04083 1.4
      vertex 14.325 -3.2 1.4
    endloop
  endfacet
  facet normal -0 0 1
    outer loop
      vertex 14.325 -1.2 1.4
      vertex 15.325 -3.2 1.4
      vertex 15.325 -1.2 1.4
    endloop
  endfacet
  facet normal 0 0 1
    outer loop
      vertex 14.325 -5.2 1.4
      vertex 10.725 -6.29999 1.4
      vertex 17.525 -9.52499 1.4
    endloop
  endfacet
  facet normal 0 0 1
    outer loop
      vertex 14.325 -5.2 1.4
      vertex 12.2932 -3.31328 1.4
      vertex 10.725 -4.29999 1.4
    endloop
  endfacet
  facet normal 0 0 1
    outer loop
      vertex 17.525 -9.52499 1.4
      vertex 9.72501 -6.29999 1.4
      vertex 0.231537 -6.61263 1.4
    endloop
  endfacet
  facet normal 0 0 1
    outer loop
      vertex 10.725 -4.29999 1.4
      vertex 12.2932 -3.31328 1.4
      vertex 11.9182 -3.04083 1.4
    endloop
  endfacet
  facet normal 0 0 1
    outer loop
      vertex 11.9182 -2.15915 1.4
      vertex 9.72501 -4.29999 1.4
      vertex 11.775 -2.59999 1.4
    endloop
  endfacet
  facet normal 0 0 1
    outer loop
      vertex 5.67 -0.779419 1.4
      vertex 5.21999 -0.899994 1.4
      vertex 9.72501 -4.29999 1.4
    endloop
  endfacet
  facet normal 0 0 1
    outer loop
      vertex 10.725 -6.29999 1.4
      vertex 14.325 -5.2 1.4
      vertex 10.725 -4.29999 1.4
    endloop
  endfacet
  facet normal 0 0 1
    outer loop
      vertex 17.525 -9.52499 1.4
      vertex 0.231537 -6.61263 1.4
      vertex -9.52499 -9.52499 1.4
    endloop
  endfacet
  facet normal -0 0 1
    outer loop
      vertex 0.606186 -5.45956 1.4
      vertex 0.749298 -5.89999 1.4
      vertex 4.95889 -0.842224 1.4
    endloop
  endfacet
  facet normal 0 0 1
    outer loop
      vertex 0.231537 -6.61263 1.4
      vertex -0.231537 -6.61263 1.4
      vertex -9.52499 -9.52499 1.4
    endloop
  endfacet
  facet normal -0 0 1
    outer loop
      vertex -0.240326 -1.97935 1.4
      vertex 0.231537 -5.18736 1.4
      vertex 0.240326 -1.97935 1.4
    endloop
  endfacet
  facet normal 0 -0 1
    outer loop
      vertex -0.749298 -5.89999 1.4
      vertex -0.606186 -5.45956 1.4
      vertex -4.3938 -4.24042 1.4
    endloop
  endfacet
  facet normal 0 0 1
    outer loop
      vertex -0.606186 -5.45956 1.4
      vertex -4.25069 -3.79999 1.4
      vertex -4.3938 -4.24042 1.4
    endloop
  endfacet
  facet normal 0 0 1
    outer loop
      vertex -0.240326 -1.97935 1.4
      vertex -0.707047 -1.86432 1.4
      vertex -0.231537 -5.18736 1.4
    endloop
  endfacet
  facet normal -0 0 1
    outer loop
      vertex 0.231537 -5.18736 1.4
      vertex 0.606186 -5.45956 1.4
      vertex 0.707047 -1.86432 1.4
    endloop
  endfacet
  facet normal 0 0 1
    outer loop
      vertex 4.95889 -0.842224 1.4
      vertex 0.749298 -5.89999 1.4
      vertex 5.21999 -0.899994 1.4
    endloop
  endfacet
  facet normal -0 0 1
    outer loop
      vertex 0.749298 -5.89999 1.4
      vertex 9.72501 -6.29999 1.4
      vertex 5.21999 -0.899994 1.4
    endloop
  endfacet
  facet normal 0 0 1
    outer loop
      vertex 0.606186 -6.34042 1.4
      vertex 9.72501 -6.29999 1.4
      vertex 0.749298 -5.89999 1.4
    endloop
  endfacet
  facet normal 0 0 1
    outer loop
      vertex 0.231537 -6.61263 1.4
      vertex 9.72501 -6.29999 1.4
      vertex 0.606186 -6.34042 1.4
    endloop
  endfacet
  facet normal 0 1 0
    outer loop
      vertex -9.52499 9.52499 0
      vertex 17.525 9.52499 1.4
      vertex 17.525 9.52499 0
    endloop
  endfacet
  facet normal 0 1 0
    outer loop
      vertex -9.52499 9.52499 0
      vertex -9.52499 9.52499 1.4
      vertex 17.525 9.52499 1.4
    endloop
  endfacet
  facet normal -1 0 0
    outer loop
      vertex -9.52499 -9.52499 0
      vertex -9.52499 9.52499 1.4
      vertex -9.52499 9.52499 0
    endloop
  endfacet
  facet normal -1 0 0
    outer loop
      vertex -9.52499 -9.52499 0
      vertex -9.52499 -9.52499 1.4
      vertex -9.52499 9.52499 1.4
    endloop
  endfacet
  facet normal 0 -1 0
    outer loop
      vertex 17.525 -9.52499 0
      vertex -9.52499 -9.52499 1.4
      vertex -9.52499 -9.52499 0
    endloop
  endfacet
  facet normal 0 -1 0
    outer loop
      vertex 17.525 -9.52499 0
      vertex 17.525 -9.52499 1.4
      vertex -9.52499 -9.52499 1.4
    endloop
  endfacet
  facet normal 1 0 0
    outer loop
      vertex 17.525 9.52499 0
      vertex 17.525 -9.52499 1.4
      vertex 17.525 -9.52499 0
    endloop
  endfacet
  facet normal 1 0 -0
    outer loop
      vertex 17.525 9.52499 0
      vertex 17.525 9.52499 1.4
      vertex 17.525 -9.52499 1.4
    endloop
  endfacet
  facet normal 0.587786 0.809016 -0
    outer loop
      vertex 1.93379 4.63957 0
      vertex 1.93379 4.63957 1.4
      vertex 2.30844 4.36737 0
    endloop
  endfacet
  facet normal 0.587786 0.809016 0
    outer loop
      vertex 2.30844 4.36737 1.4
      vertex 2.30844 4.36737 0
      vertex 1.93379 4.63957 1.4
    endloop
  endfacet
  facet normal 0.951064 0.308995 -0
    outer loop
      vertex 1.7907 5.07999 0
      vertex 1.7907 5.07999 1.4
      vertex 1.93379 4.63957 0
    endloop
  endfacet
  facet normal 0.951064 0.308995 0
    outer loop
      vertex 1.93379 4.63957 1.4
      vertex 1.93379 4.63957 0
      vertex 1.7907 5.07999 1.4
    endloop
  endfacet
  facet normal 0.951066 -0.308989 0
    outer loop
      vertex 1.93379 5.52042 0
      vertex 1.93379 5.52042 1.4
      vertex 1.7907 5.07999 0
    endloop
  endfacet
  facet normal 0.951066 -0.308989 0
    outer loop
      vertex 1.7907 5.07999 1.4
      vertex 1.7907 5.07999 0
      vertex 1.93379 5.52042 1.4
    endloop
  endfacet
  facet normal 0.587786 -0.809016 0
    outer loop
      vertex 2.30844 5.79262 0
      vertex 2.30844 5.79262 1.4
      vertex 1.93379 5.52042 0
    endloop
  endfacet
  facet normal 0.587786 -0.809016 0
    outer loop
      vertex 1.93379 5.52042 1.4
      vertex 1.93379 5.52042 0
      vertex 2.30844 5.79262 1.4
    endloop
  endfacet
  facet normal 0 -1 0
    outer loop
      vertex 2.77155 5.79262 0
      vertex 2.77155 5.79262 1.4
      vertex 2.30844 5.79262 0
    endloop
  endfacet
  facet normal 0 -1 0
    outer loop
      vertex 2.30844 5.79262 1.4
      vertex 2.30844 5.79262 0
      vertex 2.77155 5.79262 1.4
    endloop
  endfacet
  facet normal -0.587797 -0.809009 0
    outer loop
      vertex 3.14619 5.52042 0
      vertex 3.14619 5.52042 1.4
      vertex 2.77155 5.79262 0
    endloop
  endfacet
  facet normal -0.587797 -0.809009 -0
    outer loop
      vertex 2.77155 5.79262 1.4
      vertex 2.77155 5.79262 0
      vertex 3.14619 5.52042 1.4
    endloop
  endfacet
  facet normal -0.951059 -0.309008 0
    outer loop
      vertex 3.28929 5.07999 0
      vertex 3.28929 5.07999 1.4
      vertex 3.14619 5.52042 0
    endloop
  endfacet
  facet normal -0.951059 -0.309008 -0
    outer loop
      vertex 3.14619 5.52042 1.4
      vertex 3.14619 5.52042 0
      vertex 3.28929 5.07999 1.4
    endloop
  endfacet
  facet normal -0.951057 0.309015 0
    outer loop
      vertex 3.14619 4.63957 0
      vertex 3.14619 4.63957 1.4
      vertex 3.28929 5.07999 0
    endloop
  endfacet
  facet normal -0.951057 0.309015 0
    outer loop
      vertex 3.28929 5.07999 1.4
      vertex 3.28929 5.07999 0
      vertex 3.14619 4.63957 1.4
    endloop
  endfacet
  facet normal -0.587797 0.809009 0
    outer loop
      vertex 2.77155 4.36737 0
      vertex 2.77155 4.36737 1.4
      vertex 3.14619 4.63957 0
    endloop
  endfacet
  facet normal -0.587797 0.809009 0
    outer loop
      vertex 3.14619 4.63957 1.4
      vertex 3.14619 4.63957 0
      vertex 2.77155 4.36737 1.4
    endloop
  endfacet
  facet normal 0 1 0
    outer loop
      vertex 2.30844 4.36737 0
      vertex 2.30844 4.36737 1.4
      vertex 2.77155 4.36737 0
    endloop
  endfacet
  facet normal 0 1 0
    outer loop
      vertex 2.77155 4.36737 1.4
      vertex 2.77155 4.36737 0
      vertex 2.30844 4.36737 1.4
    endloop
  endfacet
  facet normal 0.58778 0.809021 -0
    outer loop
      vertex 11.9182 3.95917 0
      vertex 11.9182 3.95917 1.4
      vertex 12.2932 3.68672 0
    endloop
  endfacet
  facet normal 0.58778 0.809021 0
    outer loop
      vertex 12.2932 3.68672 1.4
      vertex 12.2932 3.68672 0
      vertex 11.9182 3.95917 1.4
    endloop
  endfacet
  facet normal 0.95108 0.308944 -0
    outer loop
      vertex 11.775 4.40001 0
      vertex 11.775 4.40001 1.4
      vertex 11.9182 3.95917 0
    endloop
  endfacet
  facet normal 0.95108 0.308944 0
    outer loop
      vertex 11.9182 3.95917 1.4
      vertex 11.9182 3.95917 0
      vertex 11.775 4.40001 1.4
    endloop
  endfacet
  facet normal 0.95108 -0.308944 0
    outer loop
      vertex 11.9182 4.84085 0
      vertex 11.9182 4.84085 1.4
      vertex 11.775 4.40001 0
    endloop
  endfacet
  facet normal 0.95108 -0.308944 0
    outer loop
      vertex 11.775 4.40001 1.4
      vertex 11.775 4.40001 0
      vertex 11.9182 4.84085 1.4
    endloop
  endfacet
  facet normal 0.58778 -0.809021 0
    outer loop
      vertex 12.2932 5.1133 0
      vertex 12.2932 5.1133 1.4
      vertex 11.9182 4.84085 0
    endloop
  endfacet
  facet normal 0.58778 -0.809021 0
    outer loop
      vertex 11.9182 4.84085 1.4
      vertex 11.9182 4.84085 0
      vertex 12.2932 5.1133 1.4
    endloop
  endfacet
  facet normal 0 -1 0
    outer loop
      vertex 12.7567 5.1133 0
      vertex 12.7567 5.1133 1.4
      vertex 12.2932 5.1133 0
    endloop
  endfacet
  facet normal 0 -1 0
    outer loop
      vertex 12.2932 5.1133 1.4
      vertex 12.2932 5.1133 0
      vertex 12.7567 5.1133 1.4
    endloop
  endfacet
  facet normal -0.58778 -0.809021 0
    outer loop
      vertex 13.1317 4.84085 0
      vertex 13.1317 4.84085 1.4
      vertex 12.7567 5.1133 0
    endloop
  endfacet
  facet normal -0.58778 -0.809021 -0
    outer loop
      vertex 12.7567 5.1133 1.4
      vertex 12.7567 5.1133 0
      vertex 13.1317 4.84085 1.4
    endloop
  endfacet
  facet normal -0.951017 -0.309139 0
    outer loop
      vertex 13.275 4.40001 0
      vertex 13.275 4.40001 1.4
      vertex 13.1317 4.84085 0
    endloop
  endfacet
  facet normal -0.951017 -0.309139 -0
    outer loop
      vertex 13.1317 4.84085 1.4
      vertex 13.1317 4.84085 0
      vertex 13.275 4.40001 1.4
    endloop
  endfacet
  facet normal -0.951017 0.309139 0
    outer loop
      vertex 13.1317 3.95917 0
      vertex 13.1317 3.95917 1.4
      vertex 13.275 4.40001 0
    endloop
  endfacet
  facet normal -0.951017 0.309139 0
    outer loop
      vertex 13.275 4.40001 1.4
      vertex 13.275 4.40001 0
      vertex 13.1317 3.95917 1.4
    endloop
  endfacet
  facet normal -0.58778 0.809021 0
    outer loop
      vertex 12.7567 3.68672 0
      vertex 12.7567 3.68672 1.4
      vertex 13.1317 3.95917 0
    endloop
  endfacet
  facet normal -0.58778 0.809021 0
    outer loop
      vertex 13.1317 3.95917 1.4
      vertex 13.1317 3.95917 0
      vertex 12.7567 3.68672 1.4
    endloop
  endfacet
  facet normal 0 1 0
    outer loop
      vertex 12.2932 3.68672 0
      vertex 12.2932 3.68672 1.4
      vertex 12.7567 3.68672 0
    endloop
  endfacet
  facet normal 0 1 0
    outer loop
      vertex 12.7567 3.68672 1.4
      vertex 12.7567 3.68672 0
      vertex 12.2932 3.68672 1.4
    endloop
  endfacet
  facet normal 0.587786 0.809016 -0
    outer loop
      vertex -4.41618 3.36957 0
      vertex -4.41618 3.36957 1.4
      vertex -4.04153 3.09737 0
    endloop
  endfacet
  facet normal 0.587786 0.809016 0
    outer loop
      vertex -4.04153 3.09737 1.4
      vertex -4.04153 3.09737 0
      vertex -4.41618 3.36957 1.4
    endloop
  endfacet
  facet normal 0.951047 0.309047 -0
    outer loop
      vertex -4.5593 3.81 0
      vertex -4.5593 3.81 1.4
      vertex -4.41618 3.36957 0
    endloop
  endfacet
  facet normal 0.951047 0.309047 0
    outer loop
      vertex -4.41618 3.36957 1.4
      vertex -4.41618 3.36957 0
      vertex -4.5593 3.81 1.4
    endloop
  endfacet
  facet normal 0.951047 -0.309047 0
    outer loop
      vertex -4.41618 4.25043 0
      vertex -4.41618 4.25043 1.4
      vertex -4.5593 3.81 0
    endloop
  endfacet
  facet normal 0.951047 -0.309047 0
    outer loop
      vertex -4.5593 3.81 1.4
      vertex -4.5593 3.81 0
      vertex -4.41618 4.25043 1.4
    endloop
  endfacet
  facet normal 0.587758 -0.809037 0
    outer loop
      vertex -4.04153 4.52261 0
      vertex -4.04153 4.52261 1.4
      vertex -4.41618 4.25043 0
    endloop
  endfacet
  facet normal 0.587758 -0.809037 0
    outer loop
      vertex -4.41618 4.25043 1.4
      vertex -4.41618 4.25043 0
      vertex -4.04153 4.52261 1.4
    endloop
  endfacet
  facet normal 0 -1 0
    outer loop
      vertex -3.57845 4.52261 0
      vertex -3.57845 4.52261 1.4
      vertex -4.04153 4.52261 0
    endloop
  endfacet
  facet normal 0 -1 0
    outer loop
      vertex -4.04153 4.52261 1.4
      vertex -4.04153 4.52261 0
      vertex -3.57845 4.52261 1.4
    endloop
  endfacet
  facet normal -0.587758 -0.809037 0
    outer loop
      vertex -3.2038 4.25043 0
      vertex -3.2038 4.25043 1.4
      vertex -3.57845 4.52261 0
    endloop
  endfacet
  facet normal -0.587758 -0.809037 -0
    outer loop
      vertex -3.57845 4.52261 1.4
      vertex -3.57845 4.52261 0
      vertex -3.2038 4.25043 1.4
    endloop
  endfacet
  facet normal -0.951059 -0.309008 0
    outer loop
      vertex -3.0607 3.81 0
      vertex -3.0607 3.81 1.4
      vertex -3.2038 4.25043 0
    endloop
  endfacet
  facet normal -0.951059 -0.309008 -0
    outer loop
      vertex -3.2038 4.25043 1.4
      vertex -3.2038 4.25043 0
      vertex -3.0607 3.81 1.4
    endloop
  endfacet
  facet normal -0.951059 0.309008 0
    outer loop
      vertex -3.2038 3.36957 0
      vertex -3.2038 3.36957 1.4
      vertex -3.0607 3.81 0
    endloop
  endfacet
  facet normal -0.951059 0.309008 0
    outer loop
      vertex -3.0607 3.81 1.4
      vertex -3.0607 3.81 0
      vertex -3.2038 3.36957 1.4
    endloop
  endfacet
  facet normal -0.587786 0.809016 0
    outer loop
      vertex -3.57845 3.09737 0
      vertex -3.57845 3.09737 1.4
      vertex -3.2038 3.36957 0
    endloop
  endfacet
  facet normal -0.587786 0.809016 0
    outer loop
      vertex -3.2038 3.36957 1.4
      vertex -3.2038 3.36957 0
      vertex -3.57845 3.09737 1.4
    endloop
  endfacet
  facet normal 0 1 0
    outer loop
      vertex -4.04153 3.09737 0
      vertex -4.04153 3.09737 1.4
      vertex -3.57845 3.09737 0
    endloop
  endfacet
  facet normal 0 1 0
    outer loop
      vertex -3.57845 3.09737 1.4
      vertex -3.57845 3.09737 0
      vertex -4.04153 3.09737 1.4
    endloop
  endfacet
  facet normal 1 0 -0
    outer loop
      vertex 14.325 3.8 0
      vertex 14.325 3.8 1.4
      vertex 14.325 1.8 0
    endloop
  endfacet
  facet normal 1 -0 0
    outer loop
      vertex 14.325 1.8 1.4
      vertex 14.325 1.8 0
      vertex 14.325 3.8 1.4
    endloop
  endfacet
  facet normal 0 -1 0
    outer loop
      vertex 15.325 3.8 0
      vertex 15.325 3.8 1.4
      vertex 14.325 3.8 0
    endloop
  endfacet
  facet normal 0 -1 0
    outer loop
      vertex 14.325 3.8 1.4
      vertex 14.325 3.8 0
      vertex 15.325 3.8 1.4
    endloop
  endfacet
  facet normal -1 0 0
    outer loop
      vertex 15.325 1.8 0
      vertex 15.325 1.8 1.4
      vertex 15.325 3.8 0
    endloop
  endfacet
  facet normal -1 -0 -0
    outer loop
      vertex 15.325 3.8 1.4
      vertex 15.325 3.8 0
      vertex 15.325 1.8 1.4
    endloop
  endfacet
  facet normal 0 1 0
    outer loop
      vertex 14.325 1.8 0
      vertex 14.325 1.8 1.4
      vertex 15.325 1.8 0
    endloop
  endfacet
  facet normal 0 1 0
    outer loop
      vertex 15.325 1.8 1.4
      vertex 15.325 1.8 0
      vertex 14.325 1.8 1.4
    endloop
  endfacet
  facet normal 0.239303 0.970945 -0
    outer loop
      vertex -0.707047 -1.86432 0
      vertex -0.707047 -1.86432 1.4
      vertex -0.240326 -1.97935 0
    endloop
  endfacet
  facet normal 0.239303 0.970945 0
    outer loop
      vertex -0.240326 -1.97935 1.4
      vertex -0.240326 -1.97935 0
      vertex -0.707047 -1.86432 1.4
    endloop
  endfacet
  facet normal 0.464709 0.885464 -0
    outer loop
      vertex -1.13266 -1.64095 0
      vertex -1.13266 -1.64095 1.4
      vertex -0.707047 -1.86432 0
    endloop
  endfacet
  facet normal 0.464709 0.885464 0
    outer loop
      vertex -0.707047 -1.86432 1.4
      vertex -0.707047 -1.86432 0
      vertex -1.13266 -1.64095 1.4
    endloop
  endfacet
  facet normal 0.663139 0.748496 -0
    outer loop
      vertex -1.49245 -1.32219 0
      vertex -1.49245 -1.32219 1.4
      vertex -1.13266 -1.64095 0
    endloop
  endfacet
  facet normal 0.663139 0.748496 0
    outer loop
      vertex -1.13266 -1.64095 1.4
      vertex -1.13266 -1.64095 0
      vertex -1.49245 -1.32219 1.4
    endloop
  endfacet
  facet normal 0.822986 0.568061 -0
    outer loop
      vertex -1.7655 -0.926605 0
      vertex -1.7655 -0.926605 1.4
      vertex -1.49245 -1.32219 0
    endloop
  endfacet
  facet normal 0.822986 0.568061 0
    outer loop
      vertex -1.49245 -1.32219 1.4
      vertex -1.49245 -1.32219 0
      vertex -1.7655 -0.926605 1.4
    endloop
  endfacet
  facet normal 0.935011 0.354618 -0
    outer loop
      vertex -1.93596 -0.477158 0
      vertex -1.93596 -0.477158 1.4
      vertex -1.7655 -0.926605 0
    endloop
  endfacet
  facet normal 0.935011 0.354618 0
    outer loop
      vertex -1.7655 -0.926605 1.4
      vertex -1.7655 -0.926605 0
      vertex -1.93596 -0.477158 1.4
    endloop
  endfacet
  facet normal 0.992708 0.120542 -0
    outer loop
      vertex -1.9939 0 0
      vertex -1.9939 0 1.4
      vertex -1.93596 -0.477158 0
    endloop
  endfacet
  facet normal 0.992708 0.120542 0
    outer loop
      vertex -1.93596 -0.477158 1.4
      vertex -1.93596 -0.477158 0
      vertex -1.9939 0 1.4
    endloop
  endfacet
  facet normal 0.992708 -0.120542 0
    outer loop
      vertex -1.93596 0.477158 0
      vertex -1.93596 0.477158 1.4
      vertex -1.9939 0 0
    endloop
  endfacet
  facet normal 0.992708 -0.120542 0
    outer loop
      vertex -1.9939 0 1.4
      vertex -1.9939 0 0
      vertex -1.93596 0.477158 1.4
    endloop
  endfacet
  facet normal 0.935011 -0.354618 0
    outer loop
      vertex -1.7655 0.926605 0
      vertex -1.7655 0.926605 1.4
      vertex -1.93596 0.477158 0
    endloop
  endfacet
  facet normal 0.935011 -0.354618 0
    outer loop
      vertex -1.93596 0.477158 1.4
      vertex -1.93596 0.477158 0
      vertex -1.7655 0.926605 1.4
    endloop
  endfacet
  facet normal 0.822986 -0.568061 0
    outer loop
      vertex -1.49245 1.32219 0
      vertex -1.49245 1.32219 1.4
      vertex -1.7655 0.926605 0
    endloop
  endfacet
  facet normal 0.822986 -0.568061 0
    outer loop
      vertex -1.7655 0.926605 1.4
      vertex -1.7655 0.926605 0
      vertex -1.49245 1.32219 1.4
    endloop
  endfacet
  facet normal 0.663139 -0.748496 0
    outer loop
      vertex -1.13266 1.64095 0
      vertex -1.13266 1.64095 1.4
      vertex -1.49245 1.32219 0
    endloop
  endfacet
  facet normal 0.663139 -0.748496 0
    outer loop
      vertex -1.49245 1.32219 1.4
      vertex -1.49245 1.32219 0
      vertex -1.13266 1.64095 1.4
    endloop
  endfacet
  facet normal 0.464709 -0.885464 0
    outer loop
      vertex -0.707047 1.86432 0
      vertex -0.707047 1.86432 1.4
      vertex -1.13266 1.64095 0
    endloop
  endfacet
  facet normal 0.464709 -0.885464 0
    outer loop
      vertex -1.13266 1.64095 1.4
      vertex -1.13266 1.64095 0
      vertex -0.707047 1.86432 1.4
    endloop
  endfacet
  facet normal 0.239303 -0.970945 0
    outer loop
      vertex -0.240326 1.97935 0
      vertex -0.240326 1.97935 1.4
      vertex -0.707047 1.86432 0
    endloop
  endfacet
  facet normal 0.239303 -0.970945 0
    outer loop
      vertex -0.707047 1.86432 1.4
      vertex -0.707047 1.86432 0
      vertex -0.240326 1.97935 1.4
    endloop
  endfacet
  facet normal 0 -1 0
    outer loop
      vertex 0.240326 1.97935 0
      vertex 0.240326 1.97935 1.4
      vertex -0.240326 1.97935 0
    endloop
  endfacet
  facet normal 0 -1 0
    outer loop
      vertex -0.240326 1.97935 1.4
      vertex -0.240326 1.97935 0
      vertex 0.240326 1.97935 1.4
    endloop
  endfacet
  facet normal -0.239303 -0.970945 0
    outer loop
      vertex 0.707047 1.86432 0
      vertex 0.707047 1.86432 1.4
      vertex 0.240326 1.97935 0
    endloop
  endfacet
  facet normal -0.239303 -0.970945 -0
    outer loop
      vertex 0.240326 1.97935 1.4
      vertex 0.240326 1.97935 0
      vertex 0.707047 1.86432 1.4
    endloop
  endfacet
  facet normal -0.464709 -0.885464 0
    outer loop
      vertex 1.13266 1.64095 0
      vertex 1.13266 1.64095 1.4
      vertex 0.707047 1.86432 0
    endloop
  endfacet
  facet normal -0.464709 -0.885464 -0
    outer loop
      vertex 0.707047 1.86432 1.4
      vertex 0.707047 1.86432 0
      vertex 1.13266 1.64095 1.4
    endloop
  endfacet
  facet normal -0.663139 -0.748496 0
    outer loop
      vertex 1.49245 1.32219 0
      vertex 1.49245 1.32219 1.4
      vertex 1.13266 1.64095 0
    endloop
  endfacet
  facet normal -0.663139 -0.748496 -0
    outer loop
      vertex 1.13266 1.64095 1.4
      vertex 1.13266 1.64095 0
      vertex 1.49245 1.32219 1.4
    endloop
  endfacet
  facet normal -0.822986 -0.568061 0
    outer loop
      vertex 1.7655 0.926605 0
      vertex 1.7655 0.926605 1.4
      vertex 1.49245 1.32219 0
    endloop
  endfacet
  facet normal -0.822986 -0.568061 -0
    outer loop
      vertex 1.49245 1.32219 1.4
      vertex 1.49245 1.32219 0
      vertex 1.7655 0.926605 1.4
    endloop
  endfacet
  facet normal -0.935011 -0.354618 0
    outer loop
      vertex 1.93596 0.477158 0
      vertex 1.93596 0.477158 1.4
      vertex 1.7655 0.926605 0
    endloop
  endfacet
  facet normal -0.935011 -0.354618 -0
    outer loop
      vertex 1.7655 0.926605 1.4
      vertex 1.7655 0.926605 0
      vertex 1.93596 0.477158 1.4
    endloop
  endfacet
  facet normal -0.992708 -0.120542 0
    outer loop
      vertex 1.9939 0 0
      vertex 1.9939 0 1.4
      vertex 1.93596 0.477158 0
    endloop
  endfacet
  facet normal -0.992708 -0.120542 -0
    outer loop
      vertex 1.93596 0.477158 1.4
      vertex 1.93596 0.477158 0
      vertex 1.9939 0 1.4
    endloop
  endfacet
  facet normal -0.992708 0.120542 0
    outer loop
      vertex 1.93596 -0.477158 0
      vertex 1.93596 -0.477158 1.4
      vertex 1.9939 0 0
    endloop
  endfacet
  facet normal -0.992708 0.120542 0
    outer loop
      vertex 1.9939 0 1.4
      vertex 1.9939 0 0
      vertex 1.93596 -0.477158 1.4
    endloop
  endfacet
  facet normal -0.935011 0.354618 0
    outer loop
      vertex 1.7655 -0.926605 0
      vertex 1.7655 -0.926605 1.4
      vertex 1.93596 -0.477158 0
    endloop
  endfacet
  facet normal -0.935011 0.354618 0
    outer loop
      vertex 1.93596 -0.477158 1.4
      vertex 1.93596 -0.477158 0
      vertex 1.7655 -0.926605 1.4
    endloop
  endfacet
  facet normal -0.822986 0.568061 0
    outer loop
      vertex 1.49245 -1.32219 0
      vertex 1.49245 -1.32219 1.4
      vertex 1.7655 -0.926605 0
    endloop
  endfacet
  facet normal -0.822986 0.568061 0
    outer loop
      vertex 1.7655 -0.926605 1.4
      vertex 1.7655 -0.926605 0
      vertex 1.49245 -1.32219 1.4
    endloop
  endfacet
  facet normal -0.663139 0.748496 0
    outer loop
      vertex 1.13266 -1.64095 0
      vertex 1.13266 -1.64095 1.4
      vertex 1.49245 -1.32219 0
    endloop
  endfacet
  facet normal -0.663139 0.748496 0
    outer loop
      vertex 1.49245 -1.32219 1.4
      vertex 1.49245 -1.32219 0
      vertex 1.13266 -1.64095 1.4
    endloop
  endfacet
  facet normal -0.464709 0.885464 0
    outer loop
      vertex 0.707047 -1.86432 0
      vertex 0.707047 -1.86432 1.4
      vertex 1.13266 -1.64095 0
    endloop
  endfacet
  facet normal -0.464709 0.885464 0
    outer loop
      vertex 1.13266 -1.64095 1.4
      vertex 1.13266 -1.64095 0
      vertex 0.707047 -1.86432 1.4
    endloop
  endfacet
  facet normal -0.239303 0.970945 0
    outer loop
      vertex 0.240326 -1.97935 0
      vertex 0.240326 -1.97935 1.4
      vertex 0.707047 -1.86432 0
    endloop
  endfacet
  facet normal -0.239303 0.970945 0
    outer loop
      vertex 0.707047 -1.86432 1.4
      vertex 0.707047 -1.86432 0
      vertex 0.240326 -1.97935 1.4
    endloop
  endfacet
  facet normal 0 1 0
    outer loop
      vertex -0.240326 -1.97935 0
      vertex -0.240326 -1.97935 1.4
      vertex 0.240326 -1.97935 0
    endloop
  endfacet
  facet normal 0 1 0
    outer loop
      vertex 0.240326 -1.97935 1.4
      vertex 0.240326 -1.97935 0
      vertex -0.240326 -1.97935 1.4
    endloop
  endfacet
  facet normal 0.707109 0.707105 -0
    outer loop
      vertex -5.99942 -0.449997 0
      vertex -5.99942 -0.449997 1.4
      vertex -5.67 -0.779419 0
    endloop
  endfacet
  facet normal 0.707109 0.707105 0
    outer loop
      vertex -5.67 -0.779419 1.4
      vertex -5.67 -0.779419 0
      vertex -5.99942 -0.449997 1.4
    endloop
  endfacet
  facet normal 0.965924 0.258826 -0
    outer loop
      vertex -6.12 0 0
      vertex -6.12 0 1.4
      vertex -5.99942 -0.449997 0
    endloop
  endfacet
  facet normal 0.965924 0.258826 0
    outer loop
      vertex -5.99942 -0.449997 1.4
      vertex -5.99942 -0.449997 0
      vertex -6.12 0 1.4
    endloop
  endfacet
  facet normal 0.965924 -0.258826 0
    outer loop
      vertex -5.99942 0.449997 0
      vertex -5.99942 0.449997 1.4
      vertex -6.12 0 0
    endloop
  endfacet
  facet normal 0.965924 -0.258826 0
    outer loop
      vertex -6.12 0 1.4
      vertex -6.12 0 0
      vertex -5.99942 0.449997 1.4
    endloop
  endfacet
  facet normal 0.707109 -0.707105 0
    outer loop
      vertex -5.67 0.779419 0
      vertex -5.67 0.779419 1.4
      vertex -5.99942 0.449997 0
    endloop
  endfacet
  facet normal 0.707109 -0.707105 0
    outer loop
      vertex -5.99942 0.449997 1.4
      vertex -5.99942 0.449997 0
      vertex -5.67 0.779419 1.4
    endloop
  endfacet
  facet normal 0.258809 -0.965928 0
    outer loop
      vertex -5.21999 0.899994 0
      vertex -5.21999 0.899994 1.4
      vertex -5.67 0.779419 0
    endloop
  endfacet
  facet normal 0.258809 -0.965928 0
    outer loop
      vertex -5.67 0.779419 1.4
      vertex -5.67 0.779419 0
      vertex -5.21999 0.899994 1.4
    endloop
  endfacet
  facet normal -0.258805 -0.96593 0
    outer loop
      vertex -4.77669 0.781219 0
      vertex -4.77669 0.781219 1.4
      vertex -5.21999 0.899994 0
    endloop
  endfacet
  facet normal -0.258805 -0.96593 -0
    outer loop
      vertex -5.21999 0.899994 1.4
      vertex -5.21999 0.899994 0
      vertex -4.77669 0.781219 1.4
    endloop
  endfacet
  facet normal -0.142385 -0.989811 0
    outer loop
      vertex -4.72652 0.774002 0
      vertex -4.72652 0.774002 1.4
      vertex -4.77669 0.781219 0
    endloop
  endfacet
  facet normal -0.142385 -0.989811 -0
    outer loop
      vertex -4.77669 0.781219 1.4
      vertex -4.77669 0.781219 0
      vertex -4.72652 0.774002 1.4
    endloop
  endfacet
  facet normal -0.654863 -0.755748 0
    outer loop
      vertex -4.36417 0.460022 0
      vertex -4.36417 0.460022 1.4
      vertex -4.72652 0.774002 0
    endloop
  endfacet
  facet normal -0.654863 -0.755748 -0
    outer loop
      vertex -4.72652 0.774002 1.4
      vertex -4.72652 0.774002 0
      vertex -4.36417 0.460022 1.4
    endloop
  endfacet
  facet normal -0.959496 -0.281724 0
    outer loop
      vertex -4.2291 0 0
      vertex -4.2291 0 1.4
      vertex -4.36417 0.460022 0
    endloop
  endfacet
  facet normal -0.959496 -0.281724 -0
    outer loop
      vertex -4.36417 0.460022 1.4
      vertex -4.36417 0.460022 0
      vertex -4.2291 0 1.4
    endloop
  endfacet
  facet normal -0.959496 0.281724 0
    outer loop
      vertex -4.36417 -0.460022 0
      vertex -4.36417 -0.460022 1.4
      vertex -4.2291 0 0
    endloop
  endfacet
  facet normal -0.959496 0.281724 0
    outer loop
      vertex -4.2291 0 1.4
      vertex -4.2291 0 0
      vertex -4.36417 -0.460022 1.4
    endloop
  endfacet
  facet normal -0.654863 0.755748 0
    outer loop
      vertex -4.72652 -0.774002 0
      vertex -4.72652 -0.774002 1.4
      vertex -4.36417 -0.460022 0
    endloop
  endfacet
  facet normal -0.654863 0.755748 0
    outer loop
      vertex -4.36417 -0.460022 1.4
      vertex -4.36417 -0.460022 0
      vertex -4.72652 -0.774002 1.4
    endloop
  endfacet
  facet normal -0.142385 0.989811 0
    outer loop
      vertex -4.77669 -0.781219 0
      vertex -4.77669 -0.781219 1.4
      vertex -4.72652 -0.774002 0
    endloop
  endfacet
  facet normal -0.142385 0.989811 0
    outer loop
      vertex -4.72652 -0.774002 1.4
      vertex -4.72652 -0.774002 0
      vertex -4.77669 -0.781219 1.4
    endloop
  endfacet
  facet normal -0.258805 0.96593 0
    outer loop
      vertex -5.21999 -0.899994 0
      vertex -5.21999 -0.899994 1.4
      vertex -4.77669 -0.781219 0
    endloop
  endfacet
  facet normal -0.258805 0.96593 0
    outer loop
      vertex -4.77669 -0.781219 1.4
      vertex -4.77669 -0.781219 0
      vertex -5.21999 -0.899994 1.4
    endloop
  endfacet
  facet normal 0.258809 0.965928 -0
    outer loop
      vertex -5.67 -0.779419 0
      vertex -5.67 -0.779419 1.4
      vertex -5.21999 -0.899994 0
    endloop
  endfacet
  facet normal 0.258809 0.965928 0
    outer loop
      vertex -5.21999 -0.899994 1.4
      vertex -5.21999 -0.899994 0
      vertex -5.67 -0.779419 1.4
    endloop
  endfacet
  facet normal -0.142353 0.989816 0
    outer loop
      vertex 4.95889 -0.842224 0
      vertex 4.95889 -0.842224 1.4
      vertex 4.98849 -0.837967 0
    endloop
  endfacet
  facet normal -0.142353 0.989816 0
    outer loop
      vertex 4.98849 -0.837967 1.4
      vertex 4.98849 -0.837967 0
      vertex 4.95889 -0.842224 1.4
    endloop
  endfacet
  facet normal 0.415389 0.909644 -0
    outer loop
      vertex 4.8943 -0.812729 0
      vertex 4.8943 -0.812729 1.4
      vertex 4.95889 -0.842224 0
    endloop
  endfacet
  facet normal 0.415389 0.909644 0
    outer loop
      vertex 4.95889 -0.842224 1.4
      vertex 4.95889 -0.842224 0
      vertex 4.8943 -0.812729 1.4
    endloop
  endfacet
  facet normal 0.258828 0.965923 -0
    outer loop
      vertex 4.76999 -0.779419 0
      vertex 4.76999 -0.779419 1.4
      vertex 4.8943 -0.812729 0
    endloop
  endfacet
  facet normal 0.258828 0.965923 0
    outer loop
      vertex 4.8943 -0.812729 1.4
      vertex 4.8943 -0.812729 0
      vertex 4.76999 -0.779419 1.4
    endloop
  endfacet
  facet normal 0.707082 0.707131 -0
    outer loop
      vertex 4.72682 -0.736252 0
      vertex 4.72682 -0.736252 1.4
      vertex 4.76999 -0.779419 0
    endloop
  endfacet
  facet normal 0.707082 0.707131 0
    outer loop
      vertex 4.76999 -0.779419 1.4
      vertex 4.76999 -0.779419 0
      vertex 4.72682 -0.736252 1.4
    endloop
  endfacet
  facet normal 0.415413 0.909633 -0
    outer loop
      vertex 4.52277 -0.643066 0
      vertex 4.52277 -0.643066 1.4
      vertex 4.72682 -0.736252 0
    endloop
  endfacet
  facet normal 0.415413 0.909633 0
    outer loop
      vertex 4.72682 -0.736252 1.4
      vertex 4.72682 -0.736252 0
      vertex 4.52277 -0.643066 1.4
    endloop
  endfacet
  facet normal 0.84127 0.540615 -0
    outer loop
      vertex 4.26357 -0.239716 0
      vertex 4.26357 -0.239716 1.4
      vertex 4.52277 -0.643066 0
    endloop
  endfacet
  facet normal 0.84127 0.540615 0
    outer loop
      vertex 4.52277 -0.643066 1.4
      vertex 4.52277 -0.643066 0
      vertex 4.26357 -0.239716 1.4
    endloop
  endfacet
  facet normal 1 0 -0
    outer loop
      vertex 4.26357 0.239716 0
      vertex 4.26357 0.239716 1.4
      vertex 4.26357 -0.239716 0
    endloop
  endfacet
  facet normal 1 -0 0
    outer loop
      vertex 4.26357 -0.239716 1.4
      vertex 4.26357 -0.239716 0
      vertex 4.26357 0.239716 1.4
    endloop
  endfacet
  facet normal 0.84127 -0.540615 0
    outer loop
      vertex 4.52277 0.643066 0
      vertex 4.52277 0.643066 1.4
      vertex 4.26357 0.239716 0
    endloop
  endfacet
  facet normal 0.84127 -0.540615 0
    outer loop
      vertex 4.26357 0.239716 1.4
      vertex 4.26357 0.239716 0
      vertex 4.52277 0.643066 1.4
    endloop
  endfacet
  facet normal 0.415413 -0.909633 0
    outer loop
      vertex 4.72682 0.736252 0
      vertex 4.72682 0.736252 1.4
      vertex 4.52277 0.643066 0
    endloop
  endfacet
  facet normal 0.415413 -0.909633 0
    outer loop
      vertex 4.52277 0.643066 1.4
      vertex 4.52277 0.643066 0
      vertex 4.72682 0.736252 1.4
    endloop
  endfacet
  facet normal 0.707082 -0.707131 0
    outer loop
      vertex 4.76999 0.779419 0
      vertex 4.76999 0.779419 1.4
      vertex 4.72682 0.736252 0
    endloop
  endfacet
  facet normal 0.707082 -0.707131 0
    outer loop
      vertex 4.72682 0.736252 1.4
      vertex 4.72682 0.736252 0
      vertex 4.76999 0.779419 1.4
    endloop
  endfacet
  facet normal 0.258828 -0.965923 0
    outer loop
      vertex 4.8943 0.812729 0
      vertex 4.8943 0.812729 1.4
      vertex 4.76999 0.779419 0
    endloop
  endfacet
  facet normal 0.258828 -0.965923 0
    outer loop
      vertex 4.76999 0.779419 1.4
      vertex 4.76999 0.779419 0
      vertex 4.8943 0.812729 1.4
    endloop
  endfacet
  facet normal 0.415389 -0.909644 0
    outer loop
      vertex 4.95889 0.842224 0
      vertex 4.95889 0.842224 1.4
      vertex 4.8943 0.812729 0
    endloop
  endfacet
  facet normal 0.415389 -0.909644 0
    outer loop
      vertex 4.8943 0.812729 1.4
      vertex 4.8943 0.812729 0
      vertex 4.95889 0.842224 1.4
    endloop
  endfacet
  facet normal -0.142353 -0.989816 0
    outer loop
      vertex 4.98849 0.837967 0
      vertex 4.98849 0.837967 1.4
      vertex 4.95889 0.842224 0
    endloop
  endfacet
  facet normal -0.142353 -0.989816 -0
    outer loop
      vertex 4.95889 0.842224 1.4
      vertex 4.95889 0.842224 0
      vertex 4.98849 0.837967 1.4
    endloop
  endfacet
  facet normal 0.258806 -0.965929 0
    outer loop
      vertex 5.21999 0.899994 0
      vertex 5.21999 0.899994 1.4
      vertex 4.98849 0.837967 0
    endloop
  endfacet
  facet normal 0.258806 -0.965929 0
    outer loop
      vertex 4.98849 0.837967 1.4
      vertex 4.98849 0.837967 0
      vertex 5.21999 0.899994 1.4
    endloop
  endfacet
  facet normal -0.258809 -0.965928 0
    outer loop
      vertex 5.67 0.779419 0
      vertex 5.67 0.779419 1.4
      vertex 5.21999 0.899994 0
    endloop
  endfacet
  facet normal -0.258809 -0.965928 -0
    outer loop
      vertex 5.21999 0.899994 1.4
      vertex 5.21999 0.899994 0
      vertex 5.67 0.779419 1.4
    endloop
  endfacet
  facet normal -0.707109 -0.707105 0
    outer loop
      vertex 5.99942 0.449997 0
      vertex 5.99942 0.449997 1.4
      vertex 5.67 0.779419 0
    endloop
  endfacet
  facet normal -0.707109 -0.707105 -0
    outer loop
      vertex 5.67 0.779419 1.4
      vertex 5.67 0.779419 0
      vertex 5.99942 0.449997 1.4
    endloop
  endfacet
  facet normal -0.965924 -0.258826 0
    outer loop
      vertex 6.12 0 0
      vertex 6.12 0 1.4
      vertex 5.99942 0.449997 0
    endloop
  endfacet
  facet normal -0.965924 -0.258826 -0
    outer loop
      vertex 5.99942 0.449997 1.4
      vertex 5.99942 0.449997 0
      vertex 6.12 0 1.4
    endloop
  endfacet
  facet normal -0.965924 0.258826 0
    outer loop
      vertex 5.99942 -0.449997 0
      vertex 5.99942 -0.449997 1.4
      vertex 6.12 0 0
    endloop
  endfacet
  facet normal -0.965924 0.258826 0
    outer loop
      vertex 6.12 0 1.4
      vertex 6.12 0 0
      vertex 5.99942 -0.449997 1.4
    endloop
  endfacet
  facet normal -0.707109 0.707105 0
    outer loop
      vertex 5.67 -0.779419 0
      vertex 5.67 -0.779419 1.4
      vertex 5.99942 -0.449997 0
    endloop
  endfacet
  facet normal -0.707109 0.707105 0
    outer loop
      vertex 5.99942 -0.449997 1.4
      vertex 5.99942 -0.449997 0
      vertex 5.67 -0.779419 1.4
    endloop
  endfacet
  facet normal -0.258809 0.965928 0
    outer loop
      vertex 5.21999 -0.899994 0
      vertex 5.21999 -0.899994 1.4
      vertex 5.67 -0.779419 0
    endloop
  endfacet
  facet normal -0.258809 0.965928 0
    outer loop
      vertex 5.67 -0.779419 1.4
      vertex 5.67 -0.779419 0
      vertex 5.21999 -0.899994 1.4
    endloop
  endfacet
  facet normal 0.258806 0.965929 -0
    outer loop
      vertex 4.98849 -0.837967 0
      vertex 4.98849 -0.837967 1.4
      vertex 5.21999 -0.899994 0
    endloop
  endfacet
  facet normal 0.258806 0.965929 0
    outer loop
      vertex 5.21999 -0.899994 1.4
      vertex 5.21999 -0.899994 0
      vertex 4.98849 -0.837967 1.4
    endloop
  endfacet
  facet normal 1 0 -0
    outer loop
      vertex 14.325 0.800003 0
      vertex 14.325 0.800003 1.4
      vertex 14.325 -1.2 0
    endloop
  endfacet
  facet normal 1 -0 0
    outer loop
      vertex 14.325 -1.2 1.4
      vertex 14.325 -1.2 0
      vertex 14.325 0.800003 1.4
    endloop
  endfacet
  facet normal 0 -1 0
    outer loop
      vertex 15.325 0.800003 0
      vertex 15.325 0.800003 1.4
      vertex 14.325 0.800003 0
    endloop
  endfacet
  facet normal 0 -1 0
    outer loop
      vertex 14.325 0.800003 1.4
      vertex 14.325 0.800003 0
      vertex 15.325 0.800003 1.4
    endloop
  endfacet
  facet normal -1 0 0
    outer loop
      vertex 15.325 -1.2 0
      vertex 15.325 -1.2 1.4
      vertex 15.325 0.800003 0
    endloop
  endfacet
  facet normal -1 -0 -0
    outer loop
      vertex 15.325 0.800003 1.4
      vertex 15.325 0.800003 0
      vertex 15.325 -1.2 1.4
    endloop
  endfacet
  facet normal 0 1 0
    outer loop
      vertex 14.325 -1.2 0
      vertex 14.325 -1.2 1.4
      vertex 15.325 -1.2 0
    endloop
  endfacet
  facet normal 0 1 0
    outer loop
      vertex 15.325 -1.2 1.4
      vertex 15.325 -1.2 0
      vertex 14.325 -1.2 1.4
    endloop
  endfacet
  facet normal 0.58778 0.809021 -0
    outer loop
      vertex 11.9182 -3.04083 0
      vertex 11.9182 -3.04083 1.4
      vertex 12.2932 -3.31328 0
    endloop
  endfacet
  facet normal 0.58778 0.809021 0
    outer loop
      vertex 12.2932 -3.31328 1.4
      vertex 12.2932 -3.31328 0
      vertex 11.9182 -3.04083 1.4
    endloop
  endfacet
  facet normal 0.95108 0.308944 -0
    outer loop
      vertex 11.775 -2.59999 0
      vertex 11.775 -2.59999 1.4
      vertex 11.9182 -3.04083 0
    endloop
  endfacet
  facet normal 0.95108 0.308944 0
    outer loop
      vertex 11.9182 -3.04083 1.4
      vertex 11.9182 -3.04083 0
      vertex 11.775 -2.59999 1.4
    endloop
  endfacet
  facet normal 0.95108 -0.308944 0
    outer loop
      vertex 11.9182 -2.15915 0
      vertex 11.9182 -2.15915 1.4
      vertex 11.775 -2.59999 0
    endloop
  endfacet
  facet normal 0.95108 -0.308944 0
    outer loop
      vertex 11.775 -2.59999 1.4
      vertex 11.775 -2.59999 0
      vertex 11.9182 -2.15915 1.4
    endloop
  endfacet
  facet normal 0.58778 -0.809021 0
    outer loop
      vertex 12.2932 -1.8867 0
      vertex 12.2932 -1.8867 1.4
      vertex 11.9182 -2.15915 0
    endloop
  endfacet
  facet normal 0.58778 -0.809021 0
    outer loop
      vertex 11.9182 -2.15915 1.4
      vertex 11.9182 -2.15915 0
      vertex 12.2932 -1.8867 1.4
    endloop
  endfacet
  facet normal 0 -1 0
    outer loop
      vertex 12.7567 -1.8867 0
      vertex 12.7567 -1.8867 1.4
      vertex 12.2932 -1.8867 0
    endloop
  endfacet
  facet normal 0 -1 0
    outer loop
      vertex 12.2932 -1.8867 1.4
      vertex 12.2932 -1.8867 0
      vertex 12.7567 -1.8867 1.4
    endloop
  endfacet
  facet normal -0.58778 -0.809021 0
    outer loop
      vertex 13.1317 -2.15915 0
      vertex 13.1317 -2.15915 1.4
      vertex 12.7567 -1.8867 0
    endloop
  endfacet
  facet normal -0.58778 -0.809021 -0
    outer loop
      vertex 12.7567 -1.8867 1.4
      vertex 12.7567 -1.8867 0
      vertex 13.1317 -2.15915 1.4
    endloop
  endfacet
  facet normal -0.951017 -0.309139 0
    outer loop
      vertex 13.275 -2.59999 0
      vertex 13.275 -2.59999 1.4
      vertex 13.1317 -2.15915 0
    endloop
  endfacet
  facet normal -0.951017 -0.309139 -0
    outer loop
      vertex 13.1317 -2.15915 1.4
      vertex 13.1317 -2.15915 0
      vertex 13.275 -2.59999 1.4
    endloop
  endfacet
  facet normal -0.951017 0.309139 0
    outer loop
      vertex 13.1317 -3.04083 0
      vertex 13.1317 -3.04083 1.4
      vertex 13.275 -2.59999 0
    endloop
  endfacet
  facet normal -0.951017 0.309139 0
    outer loop
      vertex 13.275 -2.59999 1.4
      vertex 13.275 -2.59999 0
      vertex 13.1317 -3.04083 1.4
    endloop
  endfacet
  facet normal -0.58778 0.809021 0
    outer loop
      vertex 12.7567 -3.31328 0
      vertex 12.7567 -3.31328 1.4
      vertex 13.1317 -3.04083 0
    endloop
  endfacet
  facet normal -0.58778 0.809021 0
    outer loop
      vertex 13.1317 -3.04083 1.4
      vertex 13.1317 -3.04083 0
      vertex 12.7567 -3.31328 1.4
    endloop
  endfacet
  facet normal 0 1 0
    outer loop
      vertex 12.2932 -3.31328 0
      vertex 12.2932 -3.31328 1.4
      vertex 12.7567 -3.31328 0
    endloop
  endfacet
  facet normal 0 1 0
    outer loop
      vertex 12.7567 -3.31328 1.4
      vertex 12.7567 -3.31328 0
      vertex 12.2932 -3.31328 1.4
    endloop
  endfacet
  facet normal 0.587786 0.809016 -0
    outer loop
      vertex -5.60619 -4.24042 0
      vertex -5.60619 -4.24042 1.4
      vertex -5.23154 -4.51262 0
    endloop
  endfacet
  facet normal 0.587786 0.809016 0
    outer loop
      vertex -5.23154 -4.51262 1.4
      vertex -5.23154 -4.51262 0
      vertex -5.60619 -4.24042 1.4
    endloop
  endfacet
  facet normal 0.951053 0.309028 -0
    outer loop
      vertex -5.7493 -3.79999 0
      vertex -5.7493 -3.79999 1.4
      vertex -5.60619 -4.24042 0
    endloop
  endfacet
  facet normal 0.951053 0.309028 0
    outer loop
      vertex -5.60619 -4.24042 1.4
      vertex -5.60619 -4.24042 0
      vertex -5.7493 -3.79999 1.4
    endloop
  endfacet
  facet normal 0.951053 -0.309028 0
    outer loop
      vertex -5.60619 -3.35956 0
      vertex -5.60619 -3.35956 1.4
      vertex -5.7493 -3.79999 0
    endloop
  endfacet
  facet normal 0.951053 -0.309028 0
    outer loop
      vertex -5.7493 -3.79999 1.4
      vertex -5.7493 -3.79999 0
      vertex -5.60619 -3.35956 1.4
    endloop
  endfacet
  facet normal 0.587772 -0.809026 0
    outer loop
      vertex -5.23154 -3.08737 0
      vertex -5.23154 -3.08737 1.4
      vertex -5.60619 -3.35956 0
    endloop
  endfacet
  facet normal 0.587772 -0.809026 0
    outer loop
      vertex -5.60619 -3.35956 1.4
      vertex -5.60619 -3.35956 0
      vertex -5.23154 -3.08737 1.4
    endloop
  endfacet
  facet normal 0 -1 0
    outer loop
      vertex -4.76845 -3.08737 0
      vertex -4.76845 -3.08737 1.4
      vertex -5.23154 -3.08737 0
    endloop
  endfacet
  facet normal 0 -1 0
    outer loop
      vertex -5.23154 -3.08737 1.4
      vertex -5.23154 -3.08737 0
      vertex -4.76845 -3.08737 1.4
    endloop
  endfacet
  facet normal -0.587772 -0.809026 0
    outer loop
      vertex -4.3938 -3.35956 0
      vertex -4.3938 -3.35956 1.4
      vertex -4.76845 -3.08737 0
    endloop
  endfacet
  facet normal -0.587772 -0.809026 -0
    outer loop
      vertex -4.76845 -3.08737 1.4
      vertex -4.76845 -3.08737 0
      vertex -4.3938 -3.35956 1.4
    endloop
  endfacet
  facet normal -0.951053 -0.309028 0
    outer loop
      vertex -4.25069 -3.79999 0
      vertex -4.25069 -3.79999 1.4
      vertex -4.3938 -3.35956 0
    endloop
  endfacet
  facet normal -0.951053 -0.309028 -0
    outer loop
      vertex -4.3938 -3.35956 1.4
      vertex -4.3938 -3.35956 0
      vertex -4.25069 -3.79999 1.4
    endloop
  endfacet
  facet normal -0.951053 0.309028 0
    outer loop
      vertex -4.3938 -4.24042 0
      vertex -4.3938 -4.24042 1.4
      vertex -4.25069 -3.79999 0
    endloop
  endfacet
  facet normal -0.951053 0.309028 0
    outer loop
      vertex -4.25069 -3.79999 1.4
      vertex -4.25069 -3.79999 0
      vertex -4.3938 -4.24042 1.4
    endloop
  endfacet
  facet normal -0.587786 0.809016 0
    outer loop
      vertex -4.76845 -4.51262 0
      vertex -4.76845 -4.51262 1.4
      vertex -4.3938 -4.24042 0
    endloop
  endfacet
  facet normal -0.587786 0.809016 0
    outer loop
      vertex -4.3938 -4.24042 1.4
      vertex -4.3938 -4.24042 0
      vertex -4.76845 -4.51262 1.4
    endloop
  endfacet
  facet normal 0 1 0
    outer loop
      vertex -5.23154 -4.51262 0
      vertex -5.23154 -4.51262 1.4
      vertex -4.76845 -4.51262 0
    endloop
  endfacet
  facet normal 0 1 0
    outer loop
      vertex -4.76845 -4.51262 1.4
      vertex -4.76845 -4.51262 0
      vertex -5.23154 -4.51262 1.4
    endloop
  endfacet
  facet normal 1 0 -0
    outer loop
      vertex 14.325 -3.2 0
      vertex 14.325 -3.2 1.4
      vertex 14.325 -5.2 0
    endloop
  endfacet
  facet normal 1 -0 0
    outer loop
      vertex 14.325 -5.2 1.4
      vertex 14.325 -5.2 0
      vertex 14.325 -3.2 1.4
    endloop
  endfacet
  facet normal 0 -1 0
    outer loop
      vertex 15.325 -3.2 0
      vertex 15.325 -3.2 1.4
      vertex 14.325 -3.2 0
    endloop
  endfacet
  facet normal 0 -1 0
    outer loop
      vertex 14.325 -3.2 1.4
      vertex 14.325 -3.2 0
      vertex 15.325 -3.2 1.4
    endloop
  endfacet
  facet normal -1 0 0
    outer loop
      vertex 15.325 -5.2 0
      vertex 15.325 -5.2 1.4
      vertex 15.325 -3.2 0
    endloop
  endfacet
  facet normal -1 -0 -0
    outer loop
      vertex 15.325 -3.2 1.4
      vertex 15.325 -3.2 0
      vertex 15.325 -5.2 1.4
    endloop
  endfacet
  facet normal 0 1 0
    outer loop
      vertex 14.325 -5.2 0
      vertex 14.325 -5.2 1.4
      vertex 15.325 -5.2 0
    endloop
  endfacet
  facet normal 0 1 0
    outer loop
      vertex 15.325 -5.2 1.4
      vertex 15.325 -5.2 0
      vertex 14.325 -5.2 1.4
    endloop
  endfacet
  facet normal 1 0 -0
    outer loop
      vertex 9.72501 -4.29999 0
      vertex 9.72501 -4.29999 1.4
      vertex 9.72501 -6.29999 0
    endloop
  endfacet
  facet normal 1 -0 0
    outer loop
      vertex 9.72501 -6.29999 1.4
      vertex 9.72501 -6.29999 0
      vertex 9.72501 -4.29999 1.4
    endloop
  endfacet
  facet normal 0 -1 0
    outer loop
      vertex 10.725 -4.29999 0
      vertex 10.725 -4.29999 1.4
      vertex 9.72501 -4.29999 0
    endloop
  endfacet
  facet normal 0 -1 0
    outer loop
      vertex 9.72501 -4.29999 1.4
      vertex 9.72501 -4.29999 0
      vertex 10.725 -4.29999 1.4
    endloop
  endfacet
  facet normal -1 0 0
    outer loop
      vertex 10.725 -6.29999 0
      vertex 10.725 -6.29999 1.4
      vertex 10.725 -4.29999 0
    endloop
  endfacet
  facet normal -1 -0 -0
    outer loop
      vertex 10.725 -4.29999 1.4
      vertex 10.725 -4.29999 0
      vertex 10.725 -6.29999 1.4
    endloop
  endfacet
  facet normal 0 1 0
    outer loop
      vertex 9.72501 -6.29999 0
      vertex 9.72501 -6.29999 1.4
      vertex 10.725 -6.29999 0
    endloop
  endfacet
  facet normal 0 1 0
    outer loop
      vertex 10.725 -6.29999 1.4
      vertex 10.725 -6.29999 0
      vertex 9.72501 -6.29999 1.4
    endloop
  endfacet
  facet normal 0.587802 0.809005 -0
    outer loop
      vertex -0.606186 -6.34042 0
      vertex -0.606186 -6.34042 1.4
      vertex -0.231537 -6.61263 0
    endloop
  endfacet
  facet normal 0.587802 0.809005 0
    outer loop
      vertex -0.231537 -6.61263 1.4
      vertex -0.231537 -6.61263 0
      vertex -0.606186 -6.34042 1.4
    endloop
  endfacet
  facet normal 0.951052 0.309032 -0
    outer loop
      vertex -0.749298 -5.89999 0
      vertex -0.749298 -5.89999 1.4
      vertex -0.606186 -6.34042 0
    endloop
  endfacet
  facet normal 0.951052 0.309032 0
    outer loop
      vertex -0.606186 -6.34042 1.4
      vertex -0.606186 -6.34042 0
      vertex -0.749298 -5.89999 1.4
    endloop
  endfacet
  facet normal 0.951052 -0.309032 0
    outer loop
      vertex -0.606186 -5.45956 0
      vertex -0.606186 -5.45956 1.4
      vertex -0.749298 -5.89999 0
    endloop
  endfacet
  facet normal 0.951052 -0.309032 0
    outer loop
      vertex -0.749298 -5.89999 1.4
      vertex -0.749298 -5.89999 0
      vertex -0.606186 -5.45956 1.4
    endloop
  endfacet
  facet normal 0.587787 -0.809015 0
    outer loop
      vertex -0.231537 -5.18736 0
      vertex -0.231537 -5.18736 1.4
      vertex -0.606186 -5.45956 0
    endloop
  endfacet
  facet normal 0.587787 -0.809015 0
    outer loop
      vertex -0.606186 -5.45956 1.4
      vertex -0.606186 -5.45956 0
      vertex -0.231537 -5.18736 1.4
    endloop
  endfacet
  facet normal 0 -1 0
    outer loop
      vertex 0.231537 -5.18736 0
      vertex 0.231537 -5.18736 1.4
      vertex -0.231537 -5.18736 0
    endloop
  endfacet
  facet normal 0 -1 0
    outer loop
      vertex -0.231537 -5.18736 1.4
      vertex -0.231537 -5.18736 0
      vertex 0.231537 -5.18736 1.4
    endloop
  endfacet
  facet normal -0.587787 -0.809015 0
    outer loop
      vertex 0.606186 -5.45956 0
      vertex 0.606186 -5.45956 1.4
      vertex 0.231537 -5.18736 0
    endloop
  endfacet
  facet normal -0.587787 -0.809015 -0
    outer loop
      vertex 0.231537 -5.18736 1.4
      vertex 0.231537 -5.18736 0
      vertex 0.606186 -5.45956 1.4
    endloop
  endfacet
  facet normal -0.951052 -0.309032 0
    outer loop
      vertex 0.749298 -5.89999 0
      vertex 0.749298 -5.89999 1.4
      vertex 0.606186 -5.45956 0
    endloop
  endfacet
  facet normal -0.951052 -0.309032 -0
    outer loop
      vertex 0.606186 -5.45956 1.4
      vertex 0.606186 -5.45956 0
      vertex 0.749298 -5.89999 1.4
    endloop
  endfacet
  facet normal -0.951052 0.309032 0
    outer loop
      vertex 0.606186 -6.34042 0
      vertex 0.606186 -6.34042 1.4
      vertex 0.749298 -5.89999 0
    endloop
  endfacet
  facet normal -0.951052 0.309032 0
    outer loop
      vertex 0.749298 -5.89999 1.4
      vertex 0.749298 -5.89999 0
      vertex 0.606186 -6.34042 1.4
    endloop
  endfacet
  facet normal -0.587802 0.809005 0
    outer loop
      vertex 0.231537 -6.61263 0
      vertex 0.231537 -6.61263 1.4
      vertex 0.606186 -6.34042 0
    endloop
  endfacet
  facet normal -0.587802 0.809005 0
    outer loop
      vertex 0.606186 -6.34042 1.4
      vertex 0.606186 -6.34042 0
      vertex 0.231537 -6.61263 1.4
    endloop
  endfacet
  facet normal 0 1 0
    outer loop
      vertex -0.231537 -6.61263 0
      vertex -0.231537 -6.61263 1.4
      vertex 0.231537 -6.61263 0
    endloop
  endfacet
  facet normal 0 1 0
    outer loop
      vertex 0.231537 -6.61263 1.4
      vertex 0.231537 -6.61263 0
      vertex -0.231537 -6.61263 1.4
    endloop
  endfacet
endsolid OpenSCAD_Model
