<?xml version="1.0" standalone="no"?>
<!DOCTYPE svg PUBLIC "-//W3C//DTD SVG 1.1//EN" "http://www.w3.org/Graphics/SVG/1.1/DTD/svg11.dtd">
<svg width="131mm" height="91mm" viewBox="-45 -32 131 91" xmlns="http://www.w3.org/2000/svg" version="1.1">
<title>OpenSCAD Model</title>
<path d="
M 0.634995,50.165 L 38.735,47.625 L 85.725,41.275 L 85.725,-15.875 L 47.625,-28.575 L 28.575,-31.115
 L 9.52499,-31.115 L -28.575,-26.035 L -28.575,33.6204 L -44.2703,41.4458 L -35.7702,58.4943 z
M 12.05,-14.59 L 12.05,-28.59 L 26.05,-28.59 L 26.05,-14.59 z
M -7,-12.05 L -7,-26.05 L 7,-26.05 L 7,-12.05 z
M 31.1,-12.05 L 31.1,-26.05 L 45.1,-26.05 L 45.1,-12.05 z
M -26.05,-9.50999 L -26.05,-23.51 L -12.05,-23.51 L -12.05,-9.50999 z
M 50.15,-1.89 L 50.15,-15.89 L 64.15,-15.89 L 64.15,-1.89 z
M 69.2,0.649994 L 69.2,-13.35 L 83.2,-13.35 L 83.2,0.649994 z
M 12.05,4.45999 L 12.05,-9.53999 L 26.05,-9.53999 L 26.05,4.45999 z
M -7,7 L -7,-7 L 7,-7 L 7,7 z
M 31.1,7 L 31.1,-7 L 45.1,-7 L 45.1,7 z
M -26.05,9.53999 L -26.05,-4.45999 L -12.05,-4.45999 L -12.05,9.53999 z
M 50.15,17.16 L 50.15,3.15999 L 64.15,3.15999 L 64.15,17.16 z
M 69.2,19.7 L 69.2,5.7 L 83.2,5.7 L 83.2,19.7 z
M 12.05,23.51 L 12.05,9.50999 L 26.05,9.50999 L 26.05,23.51 z
M 31.1,26.05 L 31.1,12.05 L 45.1,12.05 L 45.1,26.05 z
M -7,26.05 L -7,12.05 L 7,12.05 L 7,26.05 z
M -26.05,28.59 L -26.05,14.59 L -12.05,14.59 L -12.05,28.59 z
M 50.15,36.21 L 50.15,22.21 L 64.15,22.21 L 64.15,36.21 z
M 69.2,38.75 L 69.2,24.75 L 83.2,24.75 L 83.2,38.75 z
M 3.15999,45.1 L 3.15999,31.1 L 17.16,31.1 L 17.16,45.1 z
M 22.21,45.1 L 22.21,31.1 L 36.21,31.1 L 36.21,45.1 z
M -15.89,47.64 L -15.89,33.64 L -1.89,33.64 L -1.89,47.64 z
M -40.8839,42.5788 L -28.3548,36.3321 L -22.1081,48.8611 L -34.6371,55.1079 z
" stroke="black" fill="lightgray" stroke-width="0.5"/>
</svg>
