solid OpenSCAD_Model
  facet normal 0 -0 -1
    outer loop
      vertex 28.575 -33.6204 0
      vertex 40.8839 -42.5788 0
      vertex 28.3548 -36.3321 0
    endloop
  endfacet
  facet normal 0 0 -1
    outer loop
      vertex -47.625 28.575 0
      vertex -28.575 31.115 0
      vertex -45.1 26.05 0
    endloop
  endfacet
  facet normal 0 0 -1
    outer loop
      vertex -12.05 28.59 0
      vertex -7 26.05 0
      vertex -12.05 14.59 0
    endloop
  endfacet
  facet normal 0 0 -1
    outer loop
      vertex -45.1 7 0
      vertex -45.1 12.05 0
      vertex -31.1 7 0
    endloop
  endfacet
  facet normal 0 0 -1
    outer loop
      vertex -45.1 -7 0
      vertex -50.15 1.89 0
      vertex -45.1 7 0
    endloop
  endfacet
  facet normal 0 0 -1
    outer loop
      vertex -7 12.05 0
      vertex -12.05 14.59 0
      vertex -7 26.05 0
    endloop
  endfacet
  facet normal 0 0 -1
    outer loop
      vertex -28.575 31.115 0
      vertex -9.52499 31.115 0
      vertex -26.05 28.59 0
    endloop
  endfacet
  facet normal 0 0 -1
    outer loop
      vertex 35.7702 -58.4943 0
      vertex -0.634995 -50.165 0
      vertex 15.89 -47.64 0
    endloop
  endfacet
  facet normal 0 0 -1
    outer loop
      vertex -9.52499 31.115 0
      vertex 28.575 26.035 0
      vertex 7 26.05 0
    endloop
  endfacet
  facet normal 0 0 -1
    outer loop
      vertex -12.05 14.59 0
      vertex -7 12.05 0
      vertex -12.05 9.53999 0
    endloop
  endfacet
  facet normal 0 -0 -1
    outer loop
      vertex 28.575 26.035 0
      vertex 28.575 -33.6204 0
      vertex 26.05 -9.53999 0
    endloop
  endfacet
  facet normal 0 0 -1
    outer loop
      vertex -28.575 31.115 0
      vertex -31.1 26.05 0
      vertex -45.1 26.05 0
    endloop
  endfacet
  facet normal 0 0 -1
    outer loop
      vertex -9.52499 31.115 0
      vertex -12.05 28.59 0
      vertex -26.05 28.59 0
    endloop
  endfacet
  facet normal 0 0 -1
    outer loop
      vertex 12.05 9.50999 0
      vertex 7 12.05 0
      vertex 12.05 23.51 0
    endloop
  endfacet
  facet normal 0 0 -1
    outer loop
      vertex 7 26.05 0
      vertex 28.575 26.035 0
      vertex 12.05 23.51 0
    endloop
  endfacet
  facet normal 0 0 -1
    outer loop
      vertex -12.05 9.53999 0
      vertex -26.05 9.53999 0
      vertex -26.05 14.59 0
    endloop
  endfacet
  facet normal 0 0 -1
    outer loop
      vertex 7 7 0
      vertex -7 7 0
      vertex -7 12.05 0
    endloop
  endfacet
  facet normal 0 -0 -1
    outer loop
      vertex -9.52499 31.115 0
      vertex -7 26.05 0
      vertex -12.05 28.59 0
    endloop
  endfacet
  facet normal 0 0 -1
    outer loop
      vertex -9.52499 31.115 0
      vertex 7 26.05 0
      vertex -7 26.05 0
    endloop
  endfacet
  facet normal 0 0 -1
    outer loop
      vertex -26.05 14.59 0
      vertex -31.1 26.05 0
      vertex -26.05 28.59 0
    endloop
  endfacet
  facet normal 0 0 -1
    outer loop
      vertex -69.2 -0.649994 0
      vertex -64.15 -3.15999 0
      vertex -69.2 -5.7 0
    endloop
  endfacet
  facet normal 0 0 -1
    outer loop
      vertex -83.2 -0.649994 0
      vertex -69.2 -5.7 0
      vertex -83.2 -5.7 0
    endloop
  endfacet
  facet normal 0 0 -1
    outer loop
      vertex -50.15 15.89 0
      vertex -64.15 15.89 0
      vertex -47.625 28.575 0
    endloop
  endfacet
  facet normal 0 0 -1
    outer loop
      vertex -31.1 12.05 0
      vertex -31.1 26.05 0
      vertex -26.05 14.59 0
    endloop
  endfacet
  facet normal 0 0 -1
    outer loop
      vertex -31.1 26.05 0
      vertex -28.575 31.115 0
      vertex -26.05 28.59 0
    endloop
  endfacet
  facet normal 0 0 -1
    outer loop
      vertex 28.575 26.035 0
      vertex 26.05 9.50999 0
      vertex 26.05 23.51 0
    endloop
  endfacet
  facet normal 0 0 -1
    outer loop
      vertex 26.05 9.50999 0
      vertex 28.575 26.035 0
      vertex 26.05 4.45999 0
    endloop
  endfacet
  facet normal 0 0 -1
    outer loop
      vertex -7 -7 0
      vertex -12.05 -4.45999 0
      vertex -7 7 0
    endloop
  endfacet
  facet normal 0 0 -1
    outer loop
      vertex 7 26.05 0
      vertex 12.05 23.51 0
      vertex 7 12.05 0
    endloop
  endfacet
  facet normal 0 0 -1
    outer loop
      vertex 28.575 26.035 0
      vertex 26.05 23.51 0
      vertex 12.05 23.51 0
    endloop
  endfacet
  facet normal 0 0 -1
    outer loop
      vertex -64.15 1.89 0
      vertex -50.15 -3.15999 0
      vertex -64.15 -3.15999 0
    endloop
  endfacet
  facet normal 0 -0 -1
    outer loop
      vertex -47.625 28.575 0
      vertex -45.1 26.05 0
      vertex -50.15 15.89 0
    endloop
  endfacet
  facet normal 0 0 -1
    outer loop
      vertex -50.15 1.89 0
      vertex -50.15 15.89 0
      vertex -45.1 7 0
    endloop
  endfacet
  facet normal 0 0 -1
    outer loop
      vertex -69.2 -19.7 0
      vertex -64.15 -17.16 0
      vertex -64.15 -22.21 0
    endloop
  endfacet
  facet normal 0 0 -1
    outer loop
      vertex -47.625 28.575 0
      vertex -64.15 15.89 0
      vertex -85.725 15.875 0
    endloop
  endfacet
  facet normal 0 0 -1
    outer loop
      vertex -69.2 13.35 0
      vertex -83.2 13.35 0
      vertex -85.725 15.875 0
    endloop
  endfacet
  facet normal 0 0 -1
    outer loop
      vertex -50.15 15.89 0
      vertex -45.1 26.05 0
      vertex -45.1 12.05 0
    endloop
  endfacet
  facet normal 0 0 -1
    outer loop
      vertex -64.15 1.89 0
      vertex -69.2 13.35 0
      vertex -64.15 15.89 0
    endloop
  endfacet
  facet normal 0 0 -1
    outer loop
      vertex -38.735 -47.625 0
      vertex -64.15 -36.21 0
      vertex -50.15 -36.21 0
    endloop
  endfacet
  facet normal -0 0 -1
    outer loop
      vertex -83.2 -19.7 0
      vertex -85.725 -41.275 0
      vertex -85.725 15.875 0
    endloop
  endfacet
  facet normal -0 -0 -1
    outer loop
      vertex -83.2 13.35 0
      vertex -83.2 -0.649994 0
      vertex -85.725 15.875 0
    endloop
  endfacet
  facet normal 0 0 -1
    outer loop
      vertex -69.2 -0.649994 0
      vertex -69.2 13.35 0
      vertex -64.15 1.89 0
    endloop
  endfacet
  facet normal 0 0 -1
    outer loop
      vertex -69.2 13.35 0
      vertex -85.725 15.875 0
      vertex -64.15 15.89 0
    endloop
  endfacet
  facet normal 0 0 -1
    outer loop
      vertex -12.05 -4.45999 0
      vertex -7 -7 0
      vertex -12.05 -9.50999 0
    endloop
  endfacet
  facet normal 0 0 -1
    outer loop
      vertex 26.05 -9.53999 0
      vertex 28.575 -33.6204 0
      vertex 26.05 -14.59 0
    endloop
  endfacet
  facet normal 0 0 -1
    outer loop
      vertex -31.1 -7 0
      vertex -26.05 -4.45999 0
      vertex -26.05 -9.50999 0
    endloop
  endfacet
  facet normal 0 0 -1
    outer loop
      vertex -26.05 14.59 0
      vertex -12.05 14.59 0
      vertex -12.05 9.53999 0
    endloop
  endfacet
  facet normal 0 -0 -1
    outer loop
      vertex -26.05 14.59 0
      vertex -26.05 9.53999 0
      vertex -31.1 12.05 0
    endloop
  endfacet
  facet normal -0 0 -1
    outer loop
      vertex -26.05 9.53999 0
      vertex -31.1 7 0
      vertex -31.1 12.05 0
    endloop
  endfacet
  facet normal 0 0 -1
    outer loop
      vertex -12.05 9.53999 0
      vertex -7 7 0
      vertex -12.05 -4.45999 0
    endloop
  endfacet
  facet normal -0 0 -1
    outer loop
      vertex 12.05 9.50999 0
      vertex 7 7 0
      vertex 7 12.05 0
    endloop
  endfacet
  facet normal 0 0 -1
    outer loop
      vertex -7 -12.05 0
      vertex -7 -7 0
      vertex 7 -12.05 0
    endloop
  endfacet
  facet normal 0 0 -1
    outer loop
      vertex -26.05 -9.50999 0
      vertex -26.05 -4.45999 0
      vertex -12.05 -9.50999 0
    endloop
  endfacet
  facet normal 0 0 -1
    outer loop
      vertex -7 7 0
      vertex -12.05 9.53999 0
      vertex -7 12.05 0
    endloop
  endfacet
  facet normal 0 0 -1
    outer loop
      vertex 7 -7 0
      vertex 7 7 0
      vertex 12.05 4.45999 0
    endloop
  endfacet
  facet normal 0 0 -1
    outer loop
      vertex 7 7 0
      vertex -7 12.05 0
      vertex 7 12.05 0
    endloop
  endfacet
  facet normal 0 0 -1
    outer loop
      vertex -45.1 -7 0
      vertex -31.1 -12.05 0
      vertex -45.1 -12.05 0
    endloop
  endfacet
  facet normal 0 0 -1
    outer loop
      vertex -31.1 7 0
      vertex -26.05 9.53999 0
      vertex -26.05 -4.45999 0
    endloop
  endfacet
  facet normal 0 0 -1
    outer loop
      vertex -50.15 -3.15999 0
      vertex -45.1 -7 0
      vertex -45.1 -12.05 0
    endloop
  endfacet
  facet normal 0 0 -1
    outer loop
      vertex -45.1 12.05 0
      vertex -31.1 12.05 0
      vertex -31.1 7 0
    endloop
  endfacet
  facet normal 0 0 -1
    outer loop
      vertex -45.1 7 0
      vertex -50.15 15.89 0
      vertex -45.1 12.05 0
    endloop
  endfacet
  facet normal 0 0 -1
    outer loop
      vertex -31.1 7 0
      vertex -26.05 -4.45999 0
      vertex -31.1 -7 0
    endloop
  endfacet
  facet normal 0 0 -1
    outer loop
      vertex 26.05 4.45999 0
      vertex 12.05 4.45999 0
      vertex 12.05 9.50999 0
    endloop
  endfacet
  facet normal 0 0 -1
    outer loop
      vertex 12.05 -28.59 0
      vertex 7 -26.05 0
      vertex 12.05 -14.59 0
    endloop
  endfacet
  facet normal 0 0 -1
    outer loop
      vertex -12.05 -9.50999 0
      vertex -7 -7 0
      vertex -7 -12.05 0
    endloop
  endfacet
  facet normal 0 -0 -1
    outer loop
      vertex 12.05 9.50999 0
      vertex 12.05 4.45999 0
      vertex 7 7 0
    endloop
  endfacet
  facet normal 0 -0 -1
    outer loop
      vertex 12.05 4.45999 0
      vertex 12.05 -9.53999 0
      vertex 7 -7 0
    endloop
  endfacet
  facet normal 0 0 -1
    outer loop
      vertex 26.05 -9.53999 0
      vertex 26.05 4.45999 0
      vertex 28.575 26.035 0
    endloop
  endfacet
  facet normal 0 0 -1
    outer loop
      vertex 26.05 4.45999 0
      vertex 12.05 9.50999 0
      vertex 26.05 9.50999 0
    endloop
  endfacet
  facet normal 0 0 -1
    outer loop
      vertex -64.15 -17.16 0
      vertex -50.15 -22.21 0
      vertex -64.15 -22.21 0
    endloop
  endfacet
  facet normal 0 0 -1
    outer loop
      vertex -64.15 1.89 0
      vertex -50.15 1.89 0
      vertex -50.15 -3.15999 0
    endloop
  endfacet
  facet normal -0 0 -1
    outer loop
      vertex -45.1 -26.05 0
      vertex -50.15 -36.21 0
      vertex -50.15 -22.21 0
    endloop
  endfacet
  facet normal 0 0 -1
    outer loop
      vertex -69.2 -0.649994 0
      vertex -64.15 1.89 0
      vertex -64.15 -3.15999 0
    endloop
  endfacet
  facet normal 0 0 -1
    outer loop
      vertex -50.15 -3.15999 0
      vertex -45.1 -12.05 0
      vertex -50.15 -17.16 0
    endloop
  endfacet
  facet normal 0 0 -1
    outer loop
      vertex -50.15 -3.15999 0
      vertex -50.15 1.89 0
      vertex -45.1 -7 0
    endloop
  endfacet
  facet normal 0 0 -1
    outer loop
      vertex -64.15 -17.16 0
      vertex -69.2 -5.7 0
      vertex -64.15 -3.15999 0
    endloop
  endfacet
  facet normal -0 0 -1
    outer loop
      vertex -69.2 -38.75 0
      vertex -85.725 -41.275 0
      vertex -83.2 -38.75 0
    endloop
  endfacet
  facet normal 0 0 -1
    outer loop
      vertex -83.2 -19.7 0
      vertex -85.725 15.875 0
      vertex -83.2 -5.7 0
    endloop
  endfacet
  facet normal 0 0 -1
    outer loop
      vertex -83.2 -5.7 0
      vertex -85.725 15.875 0
      vertex -83.2 -0.649994 0
    endloop
  endfacet
  facet normal 0 0 -1
    outer loop
      vertex -69.2 -19.7 0
      vertex -69.2 -5.7 0
      vertex -64.15 -17.16 0
    endloop
  endfacet
  facet normal 0 0 -1
    outer loop
      vertex -69.2 -5.7 0
      vertex -83.2 -0.649994 0
      vertex -69.2 -0.649994 0
    endloop
  endfacet
  facet normal 0 0 -1
    outer loop
      vertex -26.05 -23.51 0
      vertex -12.05 -23.51 0
      vertex -17.16 -31.1 0
    endloop
  endfacet
  facet normal -0 0 -1
    outer loop
      vertex 26.05 -28.59 0
      vertex 15.89 -33.64 0
      vertex 12.05 -28.59 0
    endloop
  endfacet
  facet normal 0 0 -1
    outer loop
      vertex -17.16 -45.1 0
      vertex -3.15999 -45.1 0
      vertex -0.634995 -50.165 0
    endloop
  endfacet
  facet normal 0 0 -1
    outer loop
      vertex -26.05 -4.45999 0
      vertex -12.05 -4.45999 0
      vertex -12.05 -9.50999 0
    endloop
  endfacet
  facet normal 0 0 -1
    outer loop
      vertex -31.1 -7 0
      vertex -26.05 -9.50999 0
      vertex -31.1 -12.05 0
    endloop
  endfacet
  facet normal 0 0 -1
    outer loop
      vertex -12.05 -9.50999 0
      vertex -7 -12.05 0
      vertex -12.05 -23.51 0
    endloop
  endfacet
  facet normal 0 0 -1
    outer loop
      vertex -45.1 -26.05 0
      vertex -31.1 -26.05 0
      vertex -36.21 -31.1 0
    endloop
  endfacet
  facet normal 0 0 -1
    outer loop
      vertex -31.1 -12.05 0
      vertex -26.05 -9.50999 0
      vertex -26.05 -23.51 0
    endloop
  endfacet
  facet normal 0 0 -1
    outer loop
      vertex -50.15 -36.21 0
      vertex -36.21 -31.1 0
      vertex -36.21 -45.1 0
    endloop
  endfacet
  facet normal 0 0 -1
    outer loop
      vertex -45.1 -7 0
      vertex -31.1 -7 0
      vertex -31.1 -12.05 0
    endloop
  endfacet
  facet normal 0 0 -1
    outer loop
      vertex -50.15 -17.16 0
      vertex -45.1 -12.05 0
      vertex -45.1 -26.05 0
    endloop
  endfacet
  facet normal 0 0 -1
    outer loop
      vertex -31.1 -12.05 0
      vertex -26.05 -23.51 0
      vertex -31.1 -26.05 0
    endloop
  endfacet
  facet normal -0 0 -1
    outer loop
      vertex 12.05 -9.53999 0
      vertex 7 -12.05 0
      vertex 7 -7 0
    endloop
  endfacet
  facet normal 0 0 -1
    outer loop
      vertex 1.89 -47.64 0
      vertex -3.15999 -45.1 0
      vertex 1.89 -33.64 0
    endloop
  endfacet
  facet normal -0 0 -1
    outer loop
      vertex -7 -26.05 0
      vertex -17.16 -31.1 0
      vertex -12.05 -23.51 0
    endloop
  endfacet
  facet normal 0 0 -1
    outer loop
      vertex -12.05 -23.51 0
      vertex -7 -12.05 0
      vertex -7 -26.05 0
    endloop
  endfacet
  facet normal 0 0 -1
    outer loop
      vertex 7 -26.05 0
      vertex 7 -12.05 0
      vertex 12.05 -14.59 0
    endloop
  endfacet
  facet normal 0 0 -1
    outer loop
      vertex 7 -12.05 0
      vertex -7 -7 0
      vertex 7 -7 0
    endloop
  endfacet
  facet normal 0 0 -1
    outer loop
      vertex 26.05 -14.59 0
      vertex 12.05 -14.59 0
      vertex 12.05 -9.53999 0
    endloop
  endfacet
  facet normal 0 0 -1
    outer loop
      vertex 7 -26.05 0
      vertex 1.89 -33.64 0
      vertex -3.15999 -31.1 0
    endloop
  endfacet
  facet normal 0 0 -1
    outer loop
      vertex 12.05 -14.59 0
      vertex 7 -12.05 0
      vertex 12.05 -9.53999 0
    endloop
  endfacet
  facet normal 0 0 -1
    outer loop
      vertex 26.05 -28.59 0
      vertex 26.05 -14.59 0
      vertex 28.575 -33.6204 0
    endloop
  endfacet
  facet normal 0 0 -1
    outer loop
      vertex 26.05 -14.59 0
      vertex 12.05 -9.53999 0
      vertex 26.05 -9.53999 0
    endloop
  endfacet
  facet normal 0 0 -1
    outer loop
      vertex -38.735 -47.625 0
      vertex -50.15 -36.21 0
      vertex -36.21 -45.1 0
    endloop
  endfacet
  facet normal 0 0 -1
    outer loop
      vertex -64.15 -17.16 0
      vertex -50.15 -17.16 0
      vertex -50.15 -22.21 0
    endloop
  endfacet
  facet normal 0 0 -1
    outer loop
      vertex -69.2 -24.75 0
      vertex -83.2 -24.75 0
      vertex -83.2 -19.7 0
    endloop
  endfacet
  facet normal 0 -0 -1
    outer loop
      vertex -64.15 -36.21 0
      vertex -38.735 -47.625 0
      vertex -69.2 -38.75 0
    endloop
  endfacet
  facet normal 0 0 -1
    outer loop
      vertex -69.2 -19.7 0
      vertex -64.15 -22.21 0
      vertex -69.2 -24.75 0
    endloop
  endfacet
  facet normal 0 0 -1
    outer loop
      vertex -50.15 -22.21 0
      vertex -50.15 -17.16 0
      vertex -45.1 -26.05 0
    endloop
  endfacet
  facet normal 0 0 -1
    outer loop
      vertex -64.15 -36.21 0
      vertex -69.2 -24.75 0
      vertex -64.15 -22.21 0
    endloop
  endfacet
  facet normal 0 -0 -1
    outer loop
      vertex -69.2 -38.75 0
      vertex -38.735 -47.625 0
      vertex -85.725 -41.275 0
    endloop
  endfacet
  facet normal -0 0 -1
    outer loop
      vertex -83.2 -38.75 0
      vertex -85.725 -41.275 0
      vertex -83.2 -24.75 0
    endloop
  endfacet
  facet normal -0 0 -1
    outer loop
      vertex -83.2 -24.75 0
      vertex -85.725 -41.275 0
      vertex -83.2 -19.7 0
    endloop
  endfacet
  facet normal 0 0 -1
    outer loop
      vertex -69.2 -38.75 0
      vertex -69.2 -24.75 0
      vertex -64.15 -36.21 0
    endloop
  endfacet
  facet normal 0 0 -1
    outer loop
      vertex -69.2 -24.75 0
      vertex -83.2 -19.7 0
      vertex -69.2 -19.7 0
    endloop
  endfacet
  facet normal 0 0 -1
    outer loop
      vertex -17.16 -45.1 0
      vertex -22.21 -45.1 0
      vertex -22.21 -31.1 0
    endloop
  endfacet
  facet normal 0 0 -1
    outer loop
      vertex -22.21 -45.1 0
      vertex -17.16 -45.1 0
      vertex -0.634995 -50.165 0
    endloop
  endfacet
  facet normal 0 -0 -1
    outer loop
      vertex -26.05 -23.51 0
      vertex -22.21 -31.1 0
      vertex -31.1 -26.05 0
    endloop
  endfacet
  facet normal -0 0 -1
    outer loop
      vertex 7 -26.05 0
      vertex -3.15999 -31.1 0
      vertex -7 -26.05 0
    endloop
  endfacet
  facet normal 0 0 -1
    outer loop
      vertex -3.15999 -31.1 0
      vertex -17.16 -31.1 0
      vertex -7 -26.05 0
    endloop
  endfacet
  facet normal 0 0 -1
    outer loop
      vertex -38.735 -47.625 0
      vertex -22.21 -45.1 0
      vertex -0.634995 -50.165 0
    endloop
  endfacet
  facet normal 0 0 -1
    outer loop
      vertex -22.21 -31.1 0
      vertex -17.16 -31.1 0
      vertex -17.16 -45.1 0
    endloop
  endfacet
  facet normal 0 0 -1
    outer loop
      vertex -38.735 -47.625 0
      vertex -36.21 -45.1 0
      vertex -22.21 -45.1 0
    endloop
  endfacet
  facet normal 0 -0 -1
    outer loop
      vertex -45.1 -26.05 0
      vertex -36.21 -31.1 0
      vertex -50.15 -36.21 0
    endloop
  endfacet
  facet normal 0 0 -1
    outer loop
      vertex -17.16 -31.1 0
      vertex -22.21 -31.1 0
      vertex -26.05 -23.51 0
    endloop
  endfacet
  facet normal 0 0 -1
    outer loop
      vertex -22.21 -31.1 0
      vertex -36.21 -31.1 0
      vertex -31.1 -26.05 0
    endloop
  endfacet
  facet normal 0 0 -1
    outer loop
      vertex 35.7702 -58.4943 0
      vertex 22.1081 -48.8611 0
      vertex 34.6371 -55.1079 0
    endloop
  endfacet
  facet normal 0 0 -1
    outer loop
      vertex 1.89 -33.64 0
      vertex 12.05 -28.59 0
      vertex 15.89 -33.64 0
    endloop
  endfacet
  facet normal 0 0 -1
    outer loop
      vertex -3.15999 -45.1 0
      vertex 1.89 -47.64 0
      vertex -0.634995 -50.165 0
    endloop
  endfacet
  facet normal 0 -0 -1
    outer loop
      vertex 1.89 -47.64 0
      vertex 15.89 -47.64 0
      vertex -0.634995 -50.165 0
    endloop
  endfacet
  facet normal -0 0 -1
    outer loop
      vertex 12.05 -28.59 0
      vertex 1.89 -33.64 0
      vertex 7 -26.05 0
    endloop
  endfacet
  facet normal -0 0 -1
    outer loop
      vertex 1.89 -33.64 0
      vertex -3.15999 -45.1 0
      vertex -3.15999 -31.1 0
    endloop
  endfacet
  facet normal 0 0 -1
    outer loop
      vertex 15.89 -47.64 0
      vertex 15.89 -33.64 0
      vertex 22.1081 -48.8611 0
    endloop
  endfacet
  facet normal 0 0 -1
    outer loop
      vertex 15.89 -33.64 0
      vertex 26.05 -28.59 0
      vertex 28.575 -33.6204 0
    endloop
  endfacet
  facet normal 0 0 -1
    outer loop
      vertex 35.7702 -58.4943 0
      vertex 40.8839 -42.5788 0
      vertex 44.2703 -41.4458 0
    endloop
  endfacet
  facet normal 0 0 -1
    outer loop
      vertex 35.7702 -58.4943 0
      vertex 15.89 -47.64 0
      vertex 22.1081 -48.8611 0
    endloop
  endfacet
  facet normal 0 0 -1
    outer loop
      vertex 22.1081 -48.8611 0
      vertex 15.89 -33.64 0
      vertex 28.3548 -36.3321 0
    endloop
  endfacet
  facet normal 0 0 -1
    outer loop
      vertex 28.3548 -36.3321 0
      vertex 15.89 -33.64 0
      vertex 28.575 -33.6204 0
    endloop
  endfacet
  facet normal 0 0 -1
    outer loop
      vertex 34.6371 -55.1079 0
      vertex 40.8839 -42.5788 0
      vertex 35.7702 -58.4943 0
    endloop
  endfacet
  facet normal 0 0 -1
    outer loop
      vertex 40.8839 -42.5788 0
      vertex 28.575 -33.6204 0
      vertex 44.2703 -41.4458 0
    endloop
  endfacet
  facet normal -0 0 1
    outer loop
      vertex 28.3548 -36.3321 1.6
      vertex 40.8839 -42.5788 1.6
      vertex 28.575 -33.6204 1.6
    endloop
  endfacet
  facet normal 0 -0 1
    outer loop
      vertex -45.1 26.05 1.6
      vertex -28.575 31.115 1.6
      vertex -47.625 28.575 1.6
    endloop
  endfacet
  facet normal 0 0 1
    outer loop
      vertex -12.05 14.59 1.6
      vertex -7 26.05 1.6
      vertex -12.05 28.59 1.6
    endloop
  endfacet
  facet normal 0 0 1
    outer loop
      vertex -31.1 7 1.6
      vertex -45.1 12.05 1.6
      vertex -45.1 7 1.6
    endloop
  endfacet
  facet normal 0 0 1
    outer loop
      vertex -45.1 7 1.6
      vertex -50.15 1.89 1.6
      vertex -45.1 -7 1.6
    endloop
  endfacet
  facet normal 0 0 1
    outer loop
      vertex -7 26.05 1.6
      vertex -12.05 14.59 1.6
      vertex -7 12.05 1.6
    endloop
  endfacet
  facet normal 0 -0 1
    outer loop
      vertex -26.05 28.59 1.6
      vertex -9.52499 31.115 1.6
      vertex -28.575 31.115 1.6
    endloop
  endfacet
  facet normal 0 0 1
    outer loop
      vertex 15.89 -47.64 1.6
      vertex -0.634995 -50.165 1.6
      vertex 35.7702 -58.4943 1.6
    endloop
  endfacet
  facet normal -0 -0 1
    outer loop
      vertex 7 26.05 1.6
      vertex 28.575 26.035 1.6
      vertex -9.52499 31.115 1.6
    endloop
  endfacet
  facet normal 0 0 1
    outer loop
      vertex -12.05 9.53999 1.6
      vertex -7 12.05 1.6
      vertex -12.05 14.59 1.6
    endloop
  endfacet
  facet normal -0 0 1
    outer loop
      vertex 26.05 -9.53999 1.6
      vertex 28.575 -33.6204 1.6
      vertex 28.575 26.035 1.6
    endloop
  endfacet
  facet normal 0 0 1
    outer loop
      vertex -45.1 26.05 1.6
      vertex -31.1 26.05 1.6
      vertex -28.575 31.115 1.6
    endloop
  endfacet
  facet normal 0 0 1
    outer loop
      vertex -26.05 28.59 1.6
      vertex -12.05 28.59 1.6
      vertex -9.52499 31.115 1.6
    endloop
  endfacet
  facet normal 0 0 1
    outer loop
      vertex 12.05 23.51 1.6
      vertex 7 12.05 1.6
      vertex 12.05 9.50999 1.6
    endloop
  endfacet
  facet normal 0 -0 1
    outer loop
      vertex 12.05 23.51 1.6
      vertex 28.575 26.035 1.6
      vertex 7 26.05 1.6
    endloop
  endfacet
  facet normal 0 0 1
    outer loop
      vertex -26.05 14.59 1.6
      vertex -26.05 9.53999 1.6
      vertex -12.05 9.53999 1.6
    endloop
  endfacet
  facet normal 0 0 1
    outer loop
      vertex -7 12.05 1.6
      vertex -7 7 1.6
      vertex 7 7 1.6
    endloop
  endfacet
  facet normal -0 0 1
    outer loop
      vertex -12.05 28.59 1.6
      vertex -7 26.05 1.6
      vertex -9.52499 31.115 1.6
    endloop
  endfacet
  facet normal 0 -0 1
    outer loop
      vertex -7 26.05 1.6
      vertex 7 26.05 1.6
      vertex -9.52499 31.115 1.6
    endloop
  endfacet
  facet normal 0 0 1
    outer loop
      vertex -26.05 28.59 1.6
      vertex -31.1 26.05 1.6
      vertex -26.05 14.59 1.6
    endloop
  endfacet
  facet normal 0 0 1
    outer loop
      vertex -69.2 -5.7 1.6
      vertex -64.15 -3.15999 1.6
      vertex -69.2 -0.649994 1.6
    endloop
  endfacet
  facet normal 0 0 1
    outer loop
      vertex -83.2 -5.7 1.6
      vertex -69.2 -5.7 1.6
      vertex -83.2 -0.649994 1.6
    endloop
  endfacet
  facet normal 0 0 1
    outer loop
      vertex -47.625 28.575 1.6
      vertex -64.15 15.89 1.6
      vertex -50.15 15.89 1.6
    endloop
  endfacet
  facet normal 0 0 1
    outer loop
      vertex -26.05 14.59 1.6
      vertex -31.1 26.05 1.6
      vertex -31.1 12.05 1.6
    endloop
  endfacet
  facet normal 0 0 1
    outer loop
      vertex -26.05 28.59 1.6
      vertex -28.575 31.115 1.6
      vertex -31.1 26.05 1.6
    endloop
  endfacet
  facet normal -0 0 1
    outer loop
      vertex 26.05 23.51 1.6
      vertex 26.05 9.50999 1.6
      vertex 28.575 26.035 1.6
    endloop
  endfacet
  facet normal 0 0 1
    outer loop
      vertex 26.05 4.45999 1.6
      vertex 28.575 26.035 1.6
      vertex 26.05 9.50999 1.6
    endloop
  endfacet
  facet normal 0 0 1
    outer loop
      vertex -7 7 1.6
      vertex -12.05 -4.45999 1.6
      vertex -7 -7 1.6
    endloop
  endfacet
  facet normal 0 0 1
    outer loop
      vertex 7 12.05 1.6
      vertex 12.05 23.51 1.6
      vertex 7 26.05 1.6
    endloop
  endfacet
  facet normal 0 0 1
    outer loop
      vertex 12.05 23.51 1.6
      vertex 26.05 23.51 1.6
      vertex 28.575 26.035 1.6
    endloop
  endfacet
  facet normal 0 0 1
    outer loop
      vertex -64.15 -3.15999 1.6
      vertex -50.15 -3.15999 1.6
      vertex -64.15 1.89 1.6
    endloop
  endfacet
  facet normal 0 0 1
    outer loop
      vertex -50.15 15.89 1.6
      vertex -45.1 26.05 1.6
      vertex -47.625 28.575 1.6
    endloop
  endfacet
  facet normal 0 0 1
    outer loop
      vertex -45.1 7 1.6
      vertex -50.15 15.89 1.6
      vertex -50.15 1.89 1.6
    endloop
  endfacet
  facet normal 0 -0 1
    outer loop
      vertex -64.15 -22.21 1.6
      vertex -64.15 -17.16 1.6
      vertex -69.2 -19.7 1.6
    endloop
  endfacet
  facet normal 0 0 1
    outer loop
      vertex -85.725 15.875 1.6
      vertex -64.15 15.89 1.6
      vertex -47.625 28.575 1.6
    endloop
  endfacet
  facet normal 0 0 1
    outer loop
      vertex -85.725 15.875 1.6
      vertex -83.2 13.35 1.6
      vertex -69.2 13.35 1.6
    endloop
  endfacet
  facet normal 0 -0 1
    outer loop
      vertex -45.1 12.05 1.6
      vertex -45.1 26.05 1.6
      vertex -50.15 15.89 1.6
    endloop
  endfacet
  facet normal 0 0 1
    outer loop
      vertex -64.15 15.89 1.6
      vertex -69.2 13.35 1.6
      vertex -64.15 1.89 1.6
    endloop
  endfacet
  facet normal 0 0 1
    outer loop
      vertex -50.15 -36.21 1.6
      vertex -64.15 -36.21 1.6
      vertex -38.735 -47.625 1.6
    endloop
  endfacet
  facet normal 0 0 1
    outer loop
      vertex -85.725 15.875 1.6
      vertex -85.725 -41.275 1.6
      vertex -83.2 -19.7 1.6
    endloop
  endfacet
  facet normal 0 0 1
    outer loop
      vertex -85.725 15.875 1.6
      vertex -83.2 -0.649994 1.6
      vertex -83.2 13.35 1.6
    endloop
  endfacet
  facet normal 0 0 1
    outer loop
      vertex -64.15 1.89 1.6
      vertex -69.2 13.35 1.6
      vertex -69.2 -0.649994 1.6
    endloop
  endfacet
  facet normal 0 0 1
    outer loop
      vertex -64.15 15.89 1.6
      vertex -85.725 15.875 1.6
      vertex -69.2 13.35 1.6
    endloop
  endfacet
  facet normal 0 0 1
    outer loop
      vertex -12.05 -9.50999 1.6
      vertex -7 -7 1.6
      vertex -12.05 -4.45999 1.6
    endloop
  endfacet
  facet normal -0 0 1
    outer loop
      vertex 26.05 -14.59 1.6
      vertex 28.575 -33.6204 1.6
      vertex 26.05 -9.53999 1.6
    endloop
  endfacet
  facet normal 0 -0 1
    outer loop
      vertex -26.05 -9.50999 1.6
      vertex -26.05 -4.45999 1.6
      vertex -31.1 -7 1.6
    endloop
  endfacet
  facet normal 0 -0 1
    outer loop
      vertex -12.05 9.53999 1.6
      vertex -12.05 14.59 1.6
      vertex -26.05 14.59 1.6
    endloop
  endfacet
  facet normal -0 0 1
    outer loop
      vertex -31.1 12.05 1.6
      vertex -26.05 9.53999 1.6
      vertex -26.05 14.59 1.6
    endloop
  endfacet
  facet normal 0 0 1
    outer loop
      vertex -31.1 12.05 1.6
      vertex -31.1 7 1.6
      vertex -26.05 9.53999 1.6
    endloop
  endfacet
  facet normal 0 0 1
    outer loop
      vertex -12.05 -4.45999 1.6
      vertex -7 7 1.6
      vertex -12.05 9.53999 1.6
    endloop
  endfacet
  facet normal 0 0 1
    outer loop
      vertex 7 12.05 1.6
      vertex 7 7 1.6
      vertex 12.05 9.50999 1.6
    endloop
  endfacet
  facet normal 0 0 1
    outer loop
      vertex 7 -12.05 1.6
      vertex -7 -7 1.6
      vertex -7 -12.05 1.6
    endloop
  endfacet
  facet normal 0 0 1
    outer loop
      vertex -12.05 -9.50999 1.6
      vertex -26.05 -4.45999 1.6
      vertex -26.05 -9.50999 1.6
    endloop
  endfacet
  facet normal 0 0 1
    outer loop
      vertex -7 12.05 1.6
      vertex -12.05 9.53999 1.6
      vertex -7 7 1.6
    endloop
  endfacet
  facet normal 0 0 1
    outer loop
      vertex 12.05 4.45999 1.6
      vertex 7 7 1.6
      vertex 7 -7 1.6
    endloop
  endfacet
  facet normal 0 0 1
    outer loop
      vertex 7 12.05 1.6
      vertex -7 12.05 1.6
      vertex 7 7 1.6
    endloop
  endfacet
  facet normal 0 0 1
    outer loop
      vertex -45.1 -12.05 1.6
      vertex -31.1 -12.05 1.6
      vertex -45.1 -7 1.6
    endloop
  endfacet
  facet normal 0 -0 1
    outer loop
      vertex -26.05 -4.45999 1.6
      vertex -26.05 9.53999 1.6
      vertex -31.1 7 1.6
    endloop
  endfacet
  facet normal 0 -0 1
    outer loop
      vertex -45.1 -12.05 1.6
      vertex -45.1 -7 1.6
      vertex -50.15 -3.15999 1.6
    endloop
  endfacet
  facet normal 0 -0 1
    outer loop
      vertex -31.1 7 1.6
      vertex -31.1 12.05 1.6
      vertex -45.1 12.05 1.6
    endloop
  endfacet
  facet normal 0 0 1
    outer loop
      vertex -45.1 12.05 1.6
      vertex -50.15 15.89 1.6
      vertex -45.1 7 1.6
    endloop
  endfacet
  facet normal 0 0 1
    outer loop
      vertex -31.1 -7 1.6
      vertex -26.05 -4.45999 1.6
      vertex -31.1 7 1.6
    endloop
  endfacet
  facet normal 0 0 1
    outer loop
      vertex 12.05 9.50999 1.6
      vertex 12.05 4.45999 1.6
      vertex 26.05 4.45999 1.6
    endloop
  endfacet
  facet normal 0 0 1
    outer loop
      vertex 12.05 -14.59 1.6
      vertex 7 -26.05 1.6
      vertex 12.05 -28.59 1.6
    endloop
  endfacet
  facet normal 0 -0 1
    outer loop
      vertex -7 -12.05 1.6
      vertex -7 -7 1.6
      vertex -12.05 -9.50999 1.6
    endloop
  endfacet
  facet normal -0 0 1
    outer loop
      vertex 7 7 1.6
      vertex 12.05 4.45999 1.6
      vertex 12.05 9.50999 1.6
    endloop
  endfacet
  facet normal -0 0 1
    outer loop
      vertex 7 -7 1.6
      vertex 12.05 -9.53999 1.6
      vertex 12.05 4.45999 1.6
    endloop
  endfacet
  facet normal 0 0 1
    outer loop
      vertex 28.575 26.035 1.6
      vertex 26.05 4.45999 1.6
      vertex 26.05 -9.53999 1.6
    endloop
  endfacet
  facet normal 0 0 1
    outer loop
      vertex 26.05 9.50999 1.6
      vertex 12.05 9.50999 1.6
      vertex 26.05 4.45999 1.6
    endloop
  endfacet
  facet normal 0 0 1
    outer loop
      vertex -64.15 -22.21 1.6
      vertex -50.15 -22.21 1.6
      vertex -64.15 -17.16 1.6
    endloop
  endfacet
  facet normal 0 -0 1
    outer loop
      vertex -50.15 -3.15999 1.6
      vertex -50.15 1.89 1.6
      vertex -64.15 1.89 1.6
    endloop
  endfacet
  facet normal 0 0 1
    outer loop
      vertex -50.15 -22.21 1.6
      vertex -50.15 -36.21 1.6
      vertex -45.1 -26.05 1.6
    endloop
  endfacet
  facet normal 0 -0 1
    outer loop
      vertex -64.15 -3.15999 1.6
      vertex -64.15 1.89 1.6
      vertex -69.2 -0.649994 1.6
    endloop
  endfacet
  facet normal 0 0 1
    outer loop
      vertex -50.15 -17.16 1.6
      vertex -45.1 -12.05 1.6
      vertex -50.15 -3.15999 1.6
    endloop
  endfacet
  facet normal 0 0 1
    outer loop
      vertex -45.1 -7 1.6
      vertex -50.15 1.89 1.6
      vertex -50.15 -3.15999 1.6
    endloop
  endfacet
  facet normal 0 0 1
    outer loop
      vertex -64.15 -3.15999 1.6
      vertex -69.2 -5.7 1.6
      vertex -64.15 -17.16 1.6
    endloop
  endfacet
  facet normal -0 0 1
    outer loop
      vertex -83.2 -38.75 1.6
      vertex -85.725 -41.275 1.6
      vertex -69.2 -38.75 1.6
    endloop
  endfacet
  facet normal 0 0 1
    outer loop
      vertex -83.2 -5.7 1.6
      vertex -85.725 15.875 1.6
      vertex -83.2 -19.7 1.6
    endloop
  endfacet
  facet normal 0 0 1
    outer loop
      vertex -83.2 -0.649994 1.6
      vertex -85.725 15.875 1.6
      vertex -83.2 -5.7 1.6
    endloop
  endfacet
  facet normal 0 0 1
    outer loop
      vertex -64.15 -17.16 1.6
      vertex -69.2 -5.7 1.6
      vertex -69.2 -19.7 1.6
    endloop
  endfacet
  facet normal 0 0 1
    outer loop
      vertex -69.2 -0.649994 1.6
      vertex -83.2 -0.649994 1.6
      vertex -69.2 -5.7 1.6
    endloop
  endfacet
  facet normal 0 -0 1
    outer loop
      vertex -17.16 -31.1 1.6
      vertex -12.05 -23.51 1.6
      vertex -26.05 -23.51 1.6
    endloop
  endfacet
  facet normal -0 0 1
    outer loop
      vertex 12.05 -28.59 1.6
      vertex 15.89 -33.64 1.6
      vertex 26.05 -28.59 1.6
    endloop
  endfacet
  facet normal 0 0 1
    outer loop
      vertex -0.634995 -50.165 1.6
      vertex -3.15999 -45.1 1.6
      vertex -17.16 -45.1 1.6
    endloop
  endfacet
  facet normal 0 -0 1
    outer loop
      vertex -12.05 -9.50999 1.6
      vertex -12.05 -4.45999 1.6
      vertex -26.05 -4.45999 1.6
    endloop
  endfacet
  facet normal 0 0 1
    outer loop
      vertex -31.1 -12.05 1.6
      vertex -26.05 -9.50999 1.6
      vertex -31.1 -7 1.6
    endloop
  endfacet
  facet normal 0 0 1
    outer loop
      vertex -12.05 -23.51 1.6
      vertex -7 -12.05 1.6
      vertex -12.05 -9.50999 1.6
    endloop
  endfacet
  facet normal 0 -0 1
    outer loop
      vertex -36.21 -31.1 1.6
      vertex -31.1 -26.05 1.6
      vertex -45.1 -26.05 1.6
    endloop
  endfacet
  facet normal 0 -0 1
    outer loop
      vertex -26.05 -23.51 1.6
      vertex -26.05 -9.50999 1.6
      vertex -31.1 -12.05 1.6
    endloop
  endfacet
  facet normal 0 -0 1
    outer loop
      vertex -36.21 -45.1 1.6
      vertex -36.21 -31.1 1.6
      vertex -50.15 -36.21 1.6
    endloop
  endfacet
  facet normal 0 -0 1
    outer loop
      vertex -31.1 -12.05 1.6
      vertex -31.1 -7 1.6
      vertex -45.1 -7 1.6
    endloop
  endfacet
  facet normal 0 -0 1
    outer loop
      vertex -45.1 -26.05 1.6
      vertex -45.1 -12.05 1.6
      vertex -50.15 -17.16 1.6
    endloop
  endfacet
  facet normal 0 0 1
    outer loop
      vertex -31.1 -26.05 1.6
      vertex -26.05 -23.51 1.6
      vertex -31.1 -12.05 1.6
    endloop
  endfacet
  facet normal 0 0 1
    outer loop
      vertex 7 -7 1.6
      vertex 7 -12.05 1.6
      vertex 12.05 -9.53999 1.6
    endloop
  endfacet
  facet normal 0 0 1
    outer loop
      vertex 1.89 -33.64 1.6
      vertex -3.15999 -45.1 1.6
      vertex 1.89 -47.64 1.6
    endloop
  endfacet
  facet normal 0 0 1
    outer loop
      vertex -12.05 -23.51 1.6
      vertex -17.16 -31.1 1.6
      vertex -7 -26.05 1.6
    endloop
  endfacet
  facet normal 0 -0 1
    outer loop
      vertex -7 -26.05 1.6
      vertex -7 -12.05 1.6
      vertex -12.05 -23.51 1.6
    endloop
  endfacet
  facet normal 0 0 1
    outer loop
      vertex 12.05 -14.59 1.6
      vertex 7 -12.05 1.6
      vertex 7 -26.05 1.6
    endloop
  endfacet
  facet normal 0 0 1
    outer loop
      vertex 7 -7 1.6
      vertex -7 -7 1.6
      vertex 7 -12.05 1.6
    endloop
  endfacet
  facet normal 0 0 1
    outer loop
      vertex 12.05 -9.53999 1.6
      vertex 12.05 -14.59 1.6
      vertex 26.05 -14.59 1.6
    endloop
  endfacet
  facet normal -0 0 1
    outer loop
      vertex -3.15999 -31.1 1.6
      vertex 1.89 -33.64 1.6
      vertex 7 -26.05 1.6
    endloop
  endfacet
  facet normal 0 0 1
    outer loop
      vertex 12.05 -9.53999 1.6
      vertex 7 -12.05 1.6
      vertex 12.05 -14.59 1.6
    endloop
  endfacet
  facet normal 0 0 1
    outer loop
      vertex 28.575 -33.6204 1.6
      vertex 26.05 -14.59 1.6
      vertex 26.05 -28.59 1.6
    endloop
  endfacet
  facet normal 0 0 1
    outer loop
      vertex 26.05 -9.53999 1.6
      vertex 12.05 -9.53999 1.6
      vertex 26.05 -14.59 1.6
    endloop
  endfacet
  facet normal 0 0 1
    outer loop
      vertex -36.21 -45.1 1.6
      vertex -50.15 -36.21 1.6
      vertex -38.735 -47.625 1.6
    endloop
  endfacet
  facet normal 0 -0 1
    outer loop
      vertex -50.15 -22.21 1.6
      vertex -50.15 -17.16 1.6
      vertex -64.15 -17.16 1.6
    endloop
  endfacet
  facet normal 0 0 1
    outer loop
      vertex -83.2 -19.7 1.6
      vertex -83.2 -24.75 1.6
      vertex -69.2 -24.75 1.6
    endloop
  endfacet
  facet normal -0 0 1
    outer loop
      vertex -69.2 -38.75 1.6
      vertex -38.735 -47.625 1.6
      vertex -64.15 -36.21 1.6
    endloop
  endfacet
  facet normal 0 0 1
    outer loop
      vertex -69.2 -24.75 1.6
      vertex -64.15 -22.21 1.6
      vertex -69.2 -19.7 1.6
    endloop
  endfacet
  facet normal 0 0 1
    outer loop
      vertex -45.1 -26.05 1.6
      vertex -50.15 -17.16 1.6
      vertex -50.15 -22.21 1.6
    endloop
  endfacet
  facet normal 0 0 1
    outer loop
      vertex -64.15 -22.21 1.6
      vertex -69.2 -24.75 1.6
      vertex -64.15 -36.21 1.6
    endloop
  endfacet
  facet normal -0 0 1
    outer loop
      vertex -85.725 -41.275 1.6
      vertex -38.735 -47.625 1.6
      vertex -69.2 -38.75 1.6
    endloop
  endfacet
  facet normal 0 0 1
    outer loop
      vertex -83.2 -24.75 1.6
      vertex -85.725 -41.275 1.6
      vertex -83.2 -38.75 1.6
    endloop
  endfacet
  facet normal 0 0 1
    outer loop
      vertex -83.2 -19.7 1.6
      vertex -85.725 -41.275 1.6
      vertex -83.2 -24.75 1.6
    endloop
  endfacet
  facet normal 0 0 1
    outer loop
      vertex -64.15 -36.21 1.6
      vertex -69.2 -24.75 1.6
      vertex -69.2 -38.75 1.6
    endloop
  endfacet
  facet normal 0 0 1
    outer loop
      vertex -69.2 -19.7 1.6
      vertex -83.2 -19.7 1.6
      vertex -69.2 -24.75 1.6
    endloop
  endfacet
  facet normal 0 0 1
    outer loop
      vertex -22.21 -31.1 1.6
      vertex -22.21 -45.1 1.6
      vertex -17.16 -45.1 1.6
    endloop
  endfacet
  facet normal 0 0 1
    outer loop
      vertex -0.634995 -50.165 1.6
      vertex -17.16 -45.1 1.6
      vertex -22.21 -45.1 1.6
    endloop
  endfacet
  facet normal -0 0 1
    outer loop
      vertex -31.1 -26.05 1.6
      vertex -22.21 -31.1 1.6
      vertex -26.05 -23.51 1.6
    endloop
  endfacet
  facet normal -0 0 1
    outer loop
      vertex -7 -26.05 1.6
      vertex -3.15999 -31.1 1.6
      vertex 7 -26.05 1.6
    endloop
  endfacet
  facet normal 0 0 1
    outer loop
      vertex -7 -26.05 1.6
      vertex -17.16 -31.1 1.6
      vertex -3.15999 -31.1 1.6
    endloop
  endfacet
  facet normal 0 0 1
    outer loop
      vertex -0.634995 -50.165 1.6
      vertex -22.21 -45.1 1.6
      vertex -38.735 -47.625 1.6
    endloop
  endfacet
  facet normal 0 -0 1
    outer loop
      vertex -17.16 -45.1 1.6
      vertex -17.16 -31.1 1.6
      vertex -22.21 -31.1 1.6
    endloop
  endfacet
  facet normal 0 0 1
    outer loop
      vertex -22.21 -45.1 1.6
      vertex -36.21 -45.1 1.6
      vertex -38.735 -47.625 1.6
    endloop
  endfacet
  facet normal 0 0 1
    outer loop
      vertex -50.15 -36.21 1.6
      vertex -36.21 -31.1 1.6
      vertex -45.1 -26.05 1.6
    endloop
  endfacet
  facet normal 0 0 1
    outer loop
      vertex -26.05 -23.51 1.6
      vertex -22.21 -31.1 1.6
      vertex -17.16 -31.1 1.6
    endloop
  endfacet
  facet normal 0 0 1
    outer loop
      vertex -31.1 -26.05 1.6
      vertex -36.21 -31.1 1.6
      vertex -22.21 -31.1 1.6
    endloop
  endfacet
  facet normal 0 0 1
    outer loop
      vertex 34.6371 -55.1079 1.6
      vertex 22.1081 -48.8611 1.6
      vertex 35.7702 -58.4943 1.6
    endloop
  endfacet
  facet normal 0 0 1
    outer loop
      vertex 15.89 -33.64 1.6
      vertex 12.05 -28.59 1.6
      vertex 1.89 -33.64 1.6
    endloop
  endfacet
  facet normal 0 -0 1
    outer loop
      vertex -0.634995 -50.165 1.6
      vertex 1.89 -47.64 1.6
      vertex -3.15999 -45.1 1.6
    endloop
  endfacet
  facet normal 0 0 1
    outer loop
      vertex -0.634995 -50.165 1.6
      vertex 15.89 -47.64 1.6
      vertex 1.89 -47.64 1.6
    endloop
  endfacet
  facet normal 0 0 1
    outer loop
      vertex 7 -26.05 1.6
      vertex 1.89 -33.64 1.6
      vertex 12.05 -28.59 1.6
    endloop
  endfacet
  facet normal 0 0 1
    outer loop
      vertex -3.15999 -31.1 1.6
      vertex -3.15999 -45.1 1.6
      vertex 1.89 -33.64 1.6
    endloop
  endfacet
  facet normal 0 0 1
    outer loop
      vertex 22.1081 -48.8611 1.6
      vertex 15.89 -33.64 1.6
      vertex 15.89 -47.64 1.6
    endloop
  endfacet
  facet normal 0 0 1
    outer loop
      vertex 28.575 -33.6204 1.6
      vertex 26.05 -28.59 1.6
      vertex 15.89 -33.64 1.6
    endloop
  endfacet
  facet normal 0 0 1
    outer loop
      vertex 44.2703 -41.4458 1.6
      vertex 40.8839 -42.5788 1.6
      vertex 35.7702 -58.4943 1.6
    endloop
  endfacet
  facet normal 0 0 1
    outer loop
      vertex 22.1081 -48.8611 1.6
      vertex 15.89 -47.64 1.6
      vertex 35.7702 -58.4943 1.6
    endloop
  endfacet
  facet normal 0 0 1
    outer loop
      vertex 28.3548 -36.3321 1.6
      vertex 15.89 -33.64 1.6
      vertex 22.1081 -48.8611 1.6
    endloop
  endfacet
  facet normal 0 0 1
    outer loop
      vertex 28.575 -33.6204 1.6
      vertex 15.89 -33.64 1.6
      vertex 28.3548 -36.3321 1.6
    endloop
  endfacet
  facet normal 0 -0 1
    outer loop
      vertex 35.7702 -58.4943 1.6
      vertex 40.8839 -42.5788 1.6
      vertex 34.6371 -55.1079 1.6
    endloop
  endfacet
  facet normal 0 0 1
    outer loop
      vertex 44.2703 -41.4458 1.6
      vertex 28.575 -33.6204 1.6
      vertex 40.8839 -42.5788 1.6
    endloop
  endfacet
  facet normal 0.446198 0.894934 0
    outer loop
      vertex 28.575 -33.6204 0
      vertex 44.2703 -41.4458 1.6
      vertex 44.2703 -41.4458 0
    endloop
  endfacet
  facet normal 0.446198 0.894934 -0
    outer loop
      vertex 28.575 -33.6204 0
      vertex 28.575 -33.6204 1.6
      vertex 44.2703 -41.4458 1.6
    endloop
  endfacet
  facet normal 1 0 0
    outer loop
      vertex 28.575 26.035 0
      vertex 28.575 -33.6204 1.6
      vertex 28.575 -33.6204 0
    endloop
  endfacet
  facet normal 1 0 -0
    outer loop
      vertex 28.575 26.035 0
      vertex 28.575 26.035 1.6
      vertex 28.575 -33.6204 1.6
    endloop
  endfacet
  facet normal 0.132164 0.991228 0
    outer loop
      vertex -9.52499 31.115 0
      vertex 28.575 26.035 1.6
      vertex 28.575 26.035 0
    endloop
  endfacet
  facet normal 0.132164 0.991228 -0
    outer loop
      vertex -9.52499 31.115 0
      vertex -9.52499 31.115 1.6
      vertex 28.575 26.035 1.6
    endloop
  endfacet
  facet normal 0 1 0
    outer loop
      vertex -28.575 31.115 0
      vertex -9.52499 31.115 1.6
      vertex -9.52499 31.115 0
    endloop
  endfacet
  facet normal 0 1 0
    outer loop
      vertex -28.575 31.115 0
      vertex -28.575 31.115 1.6
      vertex -9.52499 31.115 1.6
    endloop
  endfacet
  facet normal -0.132164 0.991228 0
    outer loop
      vertex -47.625 28.575 0
      vertex -28.575 31.115 1.6
      vertex -28.575 31.115 0
    endloop
  endfacet
  facet normal -0.132164 0.991228 0
    outer loop
      vertex -47.625 28.575 0
      vertex -47.625 28.575 1.6
      vertex -28.575 31.115 1.6
    endloop
  endfacet
  facet normal -0.316228 0.948683 0
    outer loop
      vertex -85.725 15.875 0
      vertex -47.625 28.575 1.6
      vertex -47.625 28.575 0
    endloop
  endfacet
  facet normal -0.316228 0.948683 0
    outer loop
      vertex -85.725 15.875 0
      vertex -85.725 15.875 1.6
      vertex -47.625 28.575 1.6
    endloop
  endfacet
  facet normal -1 0 0
    outer loop
      vertex -85.725 -41.275 0
      vertex -85.725 15.875 1.6
      vertex -85.725 15.875 0
    endloop
  endfacet
  facet normal -1 0 0
    outer loop
      vertex -85.725 -41.275 0
      vertex -85.725 -41.275 1.6
      vertex -85.725 15.875 1.6
    endloop
  endfacet
  facet normal -0.133918 -0.990992 0
    outer loop
      vertex -38.735 -47.625 0
      vertex -85.725 -41.275 1.6
      vertex -85.725 -41.275 0
    endloop
  endfacet
  facet normal -0.133918 -0.990992 0
    outer loop
      vertex -38.735 -47.625 0
      vertex -38.735 -47.625 1.6
      vertex -85.725 -41.275 1.6
    endloop
  endfacet
  facet normal -0.066519 -0.997785 0
    outer loop
      vertex -0.634995 -50.165 0
      vertex -38.735 -47.625 1.6
      vertex -38.735 -47.625 0
    endloop
  endfacet
  facet normal -0.066519 -0.997785 0
    outer loop
      vertex -0.634995 -50.165 0
      vertex -0.634995 -50.165 1.6
      vertex -38.735 -47.625 1.6
    endloop
  endfacet
  facet normal -0.223031 -0.974811 0
    outer loop
      vertex 35.7702 -58.4943 0
      vertex -0.634995 -50.165 1.6
      vertex -0.634995 -50.165 0
    endloop
  endfacet
  facet normal -0.223031 -0.974811 0
    outer loop
      vertex 35.7702 -58.4943 0
      vertex 35.7702 -58.4943 1.6
      vertex -0.634995 -50.165 1.6
    endloop
  endfacet
  facet normal 0.894934 -0.446199 0
    outer loop
      vertex 44.2703 -41.4458 0
      vertex 35.7702 -58.4943 1.6
      vertex 35.7702 -58.4943 0
    endloop
  endfacet
  facet normal 0.894934 -0.446199 0
    outer loop
      vertex 44.2703 -41.4458 0
      vertex 44.2703 -41.4458 1.6
      vertex 35.7702 -58.4943 1.6
    endloop
  endfacet
  facet normal 1 0 -0
    outer loop
      vertex -26.05 28.59 0
      vertex -26.05 28.59 1.6
      vertex -26.05 14.59 0
    endloop
  endfacet
  facet normal 1 -0 0
    outer loop
      vertex -26.05 14.59 1.6
      vertex -26.05 14.59 0
      vertex -26.05 28.59 1.6
    endloop
  endfacet
  facet normal 0 -1 0
    outer loop
      vertex -12.05 28.59 0
      vertex -12.05 28.59 1.6
      vertex -26.05 28.59 0
    endloop
  endfacet
  facet normal 0 -1 0
    outer loop
      vertex -26.05 28.59 1.6
      vertex -26.05 28.59 0
      vertex -12.05 28.59 1.6
    endloop
  endfacet
  facet normal -1 0 0
    outer loop
      vertex -12.05 14.59 0
      vertex -12.05 14.59 1.6
      vertex -12.05 28.59 0
    endloop
  endfacet
  facet normal -1 -0 -0
    outer loop
      vertex -12.05 28.59 1.6
      vertex -12.05 28.59 0
      vertex -12.05 14.59 1.6
    endloop
  endfacet
  facet normal 0 1 0
    outer loop
      vertex -26.05 14.59 0
      vertex -26.05 14.59 1.6
      vertex -12.05 14.59 0
    endloop
  endfacet
  facet normal 0 1 0
    outer loop
      vertex -12.05 14.59 1.6
      vertex -12.05 14.59 0
      vertex -26.05 14.59 1.6
    endloop
  endfacet
  facet normal 1 0 -0
    outer loop
      vertex -7 26.05 0
      vertex -7 26.05 1.6
      vertex -7 12.05 0
    endloop
  endfacet
  facet normal 1 -0 0
    outer loop
      vertex -7 12.05 1.6
      vertex -7 12.05 0
      vertex -7 26.05 1.6
    endloop
  endfacet
  facet normal 0 -1 0
    outer loop
      vertex 7 26.05 0
      vertex 7 26.05 1.6
      vertex -7 26.05 0
    endloop
  endfacet
  facet normal 0 -1 0
    outer loop
      vertex -7 26.05 1.6
      vertex -7 26.05 0
      vertex 7 26.05 1.6
    endloop
  endfacet
  facet normal -1 0 0
    outer loop
      vertex 7 12.05 0
      vertex 7 12.05 1.6
      vertex 7 26.05 0
    endloop
  endfacet
  facet normal -1 -0 -0
    outer loop
      vertex 7 26.05 1.6
      vertex 7 26.05 0
      vertex 7 12.05 1.6
    endloop
  endfacet
  facet normal 0 1 0
    outer loop
      vertex -7 12.05 0
      vertex -7 12.05 1.6
      vertex 7 12.05 0
    endloop
  endfacet
  facet normal 0 1 0
    outer loop
      vertex 7 12.05 1.6
      vertex 7 12.05 0
      vertex -7 12.05 1.6
    endloop
  endfacet
  facet normal 1 0 -0
    outer loop
      vertex -45.1 26.05 0
      vertex -45.1 26.05 1.6
      vertex -45.1 12.05 0
    endloop
  endfacet
  facet normal 1 -0 0
    outer loop
      vertex -45.1 12.05 1.6
      vertex -45.1 12.05 0
      vertex -45.1 26.05 1.6
    endloop
  endfacet
  facet normal 0 -1 0
    outer loop
      vertex -31.1 26.05 0
      vertex -31.1 26.05 1.6
      vertex -45.1 26.05 0
    endloop
  endfacet
  facet normal 0 -1 0
    outer loop
      vertex -45.1 26.05 1.6
      vertex -45.1 26.05 0
      vertex -31.1 26.05 1.6
    endloop
  endfacet
  facet normal -1 0 0
    outer loop
      vertex -31.1 12.05 0
      vertex -31.1 12.05 1.6
      vertex -31.1 26.05 0
    endloop
  endfacet
  facet normal -1 -0 -0
    outer loop
      vertex -31.1 26.05 1.6
      vertex -31.1 26.05 0
      vertex -31.1 12.05 1.6
    endloop
  endfacet
  facet normal 0 1 0
    outer loop
      vertex -45.1 12.05 0
      vertex -45.1 12.05 1.6
      vertex -31.1 12.05 0
    endloop
  endfacet
  facet normal 0 1 0
    outer loop
      vertex -31.1 12.05 1.6
      vertex -31.1 12.05 0
      vertex -45.1 12.05 1.6
    endloop
  endfacet
  facet normal 1 0 -0
    outer loop
      vertex 12.05 23.51 0
      vertex 12.05 23.51 1.6
      vertex 12.05 9.50999 0
    endloop
  endfacet
  facet normal 1 -0 0
    outer loop
      vertex 12.05 9.50999 1.6
      vertex 12.05 9.50999 0
      vertex 12.05 23.51 1.6
    endloop
  endfacet
  facet normal 0 -1 0
    outer loop
      vertex 26.05 23.51 0
      vertex 26.05 23.51 1.6
      vertex 12.05 23.51 0
    endloop
  endfacet
  facet normal 0 -1 0
    outer loop
      vertex 12.05 23.51 1.6
      vertex 12.05 23.51 0
      vertex 26.05 23.51 1.6
    endloop
  endfacet
  facet normal -1 0 0
    outer loop
      vertex 26.05 9.50999 0
      vertex 26.05 9.50999 1.6
      vertex 26.05 23.51 0
    endloop
  endfacet
  facet normal -1 -0 -0
    outer loop
      vertex 26.05 23.51 1.6
      vertex 26.05 23.51 0
      vertex 26.05 9.50999 1.6
    endloop
  endfacet
  facet normal 0 1 0
    outer loop
      vertex 12.05 9.50999 0
      vertex 12.05 9.50999 1.6
      vertex 26.05 9.50999 0
    endloop
  endfacet
  facet normal 0 1 0
    outer loop
      vertex 26.05 9.50999 1.6
      vertex 26.05 9.50999 0
      vertex 12.05 9.50999 1.6
    endloop
  endfacet
  facet normal 1 0 -0
    outer loop
      vertex -64.15 15.89 0
      vertex -64.15 15.89 1.6
      vertex -64.15 1.89 0
    endloop
  endfacet
  facet normal 1 -0 0
    outer loop
      vertex -64.15 1.89 1.6
      vertex -64.15 1.89 0
      vertex -64.15 15.89 1.6
    endloop
  endfacet
  facet normal 0 -1 0
    outer loop
      vertex -50.15 15.89 0
      vertex -50.15 15.89 1.6
      vertex -64.15 15.89 0
    endloop
  endfacet
  facet normal 0 -1 0
    outer loop
      vertex -64.15 15.89 1.6
      vertex -64.15 15.89 0
      vertex -50.15 15.89 1.6
    endloop
  endfacet
  facet normal -1 0 0
    outer loop
      vertex -50.15 1.89 0
      vertex -50.15 1.89 1.6
      vertex -50.15 15.89 0
    endloop
  endfacet
  facet normal -1 -0 -0
    outer loop
      vertex -50.15 15.89 1.6
      vertex -50.15 15.89 0
      vertex -50.15 1.89 1.6
    endloop
  endfacet
  facet normal 0 1 0
    outer loop
      vertex -64.15 1.89 0
      vertex -64.15 1.89 1.6
      vertex -50.15 1.89 0
    endloop
  endfacet
  facet normal 0 1 0
    outer loop
      vertex -50.15 1.89 1.6
      vertex -50.15 1.89 0
      vertex -64.15 1.89 1.6
    endloop
  endfacet
  facet normal 1 0 -0
    outer loop
      vertex -83.2 13.35 0
      vertex -83.2 13.35 1.6
      vertex -83.2 -0.649994 0
    endloop
  endfacet
  facet normal 1 -0 0
    outer loop
      vertex -83.2 -0.649994 1.6
      vertex -83.2 -0.649994 0
      vertex -83.2 13.35 1.6
    endloop
  endfacet
  facet normal 0 -1 0
    outer loop
      vertex -69.2 13.35 0
      vertex -69.2 13.35 1.6
      vertex -83.2 13.35 0
    endloop
  endfacet
  facet normal 0 -1 0
    outer loop
      vertex -83.2 13.35 1.6
      vertex -83.2 13.35 0
      vertex -69.2 13.35 1.6
    endloop
  endfacet
  facet normal -1 0 0
    outer loop
      vertex -69.2 -0.649994 0
      vertex -69.2 -0.649994 1.6
      vertex -69.2 13.35 0
    endloop
  endfacet
  facet normal -1 -0 -0
    outer loop
      vertex -69.2 13.35 1.6
      vertex -69.2 13.35 0
      vertex -69.2 -0.649994 1.6
    endloop
  endfacet
  facet normal 0 1 0
    outer loop
      vertex -83.2 -0.649994 0
      vertex -83.2 -0.649994 1.6
      vertex -69.2 -0.649994 0
    endloop
  endfacet
  facet normal 0 1 0
    outer loop
      vertex -69.2 -0.649994 1.6
      vertex -69.2 -0.649994 0
      vertex -83.2 -0.649994 1.6
    endloop
  endfacet
  facet normal 1 0 -0
    outer loop
      vertex -26.05 9.53999 0
      vertex -26.05 9.53999 1.6
      vertex -26.05 -4.45999 0
    endloop
  endfacet
  facet normal 1 -0 0
    outer loop
      vertex -26.05 -4.45999 1.6
      vertex -26.05 -4.45999 0
      vertex -26.05 9.53999 1.6
    endloop
  endfacet
  facet normal 0 -1 0
    outer loop
      vertex -12.05 9.53999 0
      vertex -12.05 9.53999 1.6
      vertex -26.05 9.53999 0
    endloop
  endfacet
  facet normal 0 -1 0
    outer loop
      vertex -26.05 9.53999 1.6
      vertex -26.05 9.53999 0
      vertex -12.05 9.53999 1.6
    endloop
  endfacet
  facet normal -1 0 0
    outer loop
      vertex -12.05 -4.45999 0
      vertex -12.05 -4.45999 1.6
      vertex -12.05 9.53999 0
    endloop
  endfacet
  facet normal -1 -0 -0
    outer loop
      vertex -12.05 9.53999 1.6
      vertex -12.05 9.53999 0
      vertex -12.05 -4.45999 1.6
    endloop
  endfacet
  facet normal 0 1 0
    outer loop
      vertex -26.05 -4.45999 0
      vertex -26.05 -4.45999 1.6
      vertex -12.05 -4.45999 0
    endloop
  endfacet
  facet normal 0 1 0
    outer loop
      vertex -12.05 -4.45999 1.6
      vertex -12.05 -4.45999 0
      vertex -26.05 -4.45999 1.6
    endloop
  endfacet
  facet normal 1 0 -0
    outer loop
      vertex -7 7 0
      vertex -7 7 1.6
      vertex -7 -7 0
    endloop
  endfacet
  facet normal 1 -0 0
    outer loop
      vertex -7 -7 1.6
      vertex -7 -7 0
      vertex -7 7 1.6
    endloop
  endfacet
  facet normal 0 -1 0
    outer loop
      vertex 7 7 0
      vertex 7 7 1.6
      vertex -7 7 0
    endloop
  endfacet
  facet normal 0 -1 0
    outer loop
      vertex -7 7 1.6
      vertex -7 7 0
      vertex 7 7 1.6
    endloop
  endfacet
  facet normal -1 0 0
    outer loop
      vertex 7 -7 0
      vertex 7 -7 1.6
      vertex 7 7 0
    endloop
  endfacet
  facet normal -1 -0 -0
    outer loop
      vertex 7 7 1.6
      vertex 7 7 0
      vertex 7 -7 1.6
    endloop
  endfacet
  facet normal 0 1 0
    outer loop
      vertex -7 -7 0
      vertex -7 -7 1.6
      vertex 7 -7 0
    endloop
  endfacet
  facet normal 0 1 0
    outer loop
      vertex 7 -7 1.6
      vertex 7 -7 0
      vertex -7 -7 1.6
    endloop
  endfacet
  facet normal 1 0 -0
    outer loop
      vertex -45.1 7 0
      vertex -45.1 7 1.6
      vertex -45.1 -7 0
    endloop
  endfacet
  facet normal 1 -0 0
    outer loop
      vertex -45.1 -7 1.6
      vertex -45.1 -7 0
      vertex -45.1 7 1.6
    endloop
  endfacet
  facet normal 0 -1 0
    outer loop
      vertex -31.1 7 0
      vertex -31.1 7 1.6
      vertex -45.1 7 0
    endloop
  endfacet
  facet normal 0 -1 0
    outer loop
      vertex -45.1 7 1.6
      vertex -45.1 7 0
      vertex -31.1 7 1.6
    endloop
  endfacet
  facet normal -1 0 0
    outer loop
      vertex -31.1 -7 0
      vertex -31.1 -7 1.6
      vertex -31.1 7 0
    endloop
  endfacet
  facet normal -1 -0 -0
    outer loop
      vertex -31.1 7 1.6
      vertex -31.1 7 0
      vertex -31.1 -7 1.6
    endloop
  endfacet
  facet normal 0 1 0
    outer loop
      vertex -45.1 -7 0
      vertex -45.1 -7 1.6
      vertex -31.1 -7 0
    endloop
  endfacet
  facet normal 0 1 0
    outer loop
      vertex -31.1 -7 1.6
      vertex -31.1 -7 0
      vertex -45.1 -7 1.6
    endloop
  endfacet
  facet normal 1 0 -0
    outer loop
      vertex 12.05 4.45999 0
      vertex 12.05 4.45999 1.6
      vertex 12.05 -9.53999 0
    endloop
  endfacet
  facet normal 1 -0 0
    outer loop
      vertex 12.05 -9.53999 1.6
      vertex 12.05 -9.53999 0
      vertex 12.05 4.45999 1.6
    endloop
  endfacet
  facet normal 0 -1 0
    outer loop
      vertex 26.05 4.45999 0
      vertex 26.05 4.45999 1.6
      vertex 12.05 4.45999 0
    endloop
  endfacet
  facet normal 0 -1 0
    outer loop
      vertex 12.05 4.45999 1.6
      vertex 12.05 4.45999 0
      vertex 26.05 4.45999 1.6
    endloop
  endfacet
  facet normal -1 0 0
    outer loop
      vertex 26.05 -9.53999 0
      vertex 26.05 -9.53999 1.6
      vertex 26.05 4.45999 0
    endloop
  endfacet
  facet normal -1 -0 -0
    outer loop
      vertex 26.05 4.45999 1.6
      vertex 26.05 4.45999 0
      vertex 26.05 -9.53999 1.6
    endloop
  endfacet
  facet normal 0 1 0
    outer loop
      vertex 12.05 -9.53999 0
      vertex 12.05 -9.53999 1.6
      vertex 26.05 -9.53999 0
    endloop
  endfacet
  facet normal 0 1 0
    outer loop
      vertex 26.05 -9.53999 1.6
      vertex 26.05 -9.53999 0
      vertex 12.05 -9.53999 1.6
    endloop
  endfacet
  facet normal 1 0 -0
    outer loop
      vertex -64.15 -3.15999 0
      vertex -64.15 -3.15999 1.6
      vertex -64.15 -17.16 0
    endloop
  endfacet
  facet normal 1 -0 0
    outer loop
      vertex -64.15 -17.16 1.6
      vertex -64.15 -17.16 0
      vertex -64.15 -3.15999 1.6
    endloop
  endfacet
  facet normal 0 -1 0
    outer loop
      vertex -50.15 -3.15999 0
      vertex -50.15 -3.15999 1.6
      vertex -64.15 -3.15999 0
    endloop
  endfacet
  facet normal 0 -1 0
    outer loop
      vertex -64.15 -3.15999 1.6
      vertex -64.15 -3.15999 0
      vertex -50.15 -3.15999 1.6
    endloop
  endfacet
  facet normal -1 0 0
    outer loop
      vertex -50.15 -17.16 0
      vertex -50.15 -17.16 1.6
      vertex -50.15 -3.15999 0
    endloop
  endfacet
  facet normal -1 -0 -0
    outer loop
      vertex -50.15 -3.15999 1.6
      vertex -50.15 -3.15999 0
      vertex -50.15 -17.16 1.6
    endloop
  endfacet
  facet normal 0 1 0
    outer loop
      vertex -64.15 -17.16 0
      vertex -64.15 -17.16 1.6
      vertex -50.15 -17.16 0
    endloop
  endfacet
  facet normal 0 1 0
    outer loop
      vertex -50.15 -17.16 1.6
      vertex -50.15 -17.16 0
      vertex -64.15 -17.16 1.6
    endloop
  endfacet
  facet normal 1 0 -0
    outer loop
      vertex -83.2 -5.7 0
      vertex -83.2 -5.7 1.6
      vertex -83.2 -19.7 0
    endloop
  endfacet
  facet normal 1 -0 0
    outer loop
      vertex -83.2 -19.7 1.6
      vertex -83.2 -19.7 0
      vertex -83.2 -5.7 1.6
    endloop
  endfacet
  facet normal 0 -1 0
    outer loop
      vertex -69.2 -5.7 0
      vertex -69.2 -5.7 1.6
      vertex -83.2 -5.7 0
    endloop
  endfacet
  facet normal 0 -1 0
    outer loop
      vertex -83.2 -5.7 1.6
      vertex -83.2 -5.7 0
      vertex -69.2 -5.7 1.6
    endloop
  endfacet
  facet normal -1 0 0
    outer loop
      vertex -69.2 -19.7 0
      vertex -69.2 -19.7 1.6
      vertex -69.2 -5.7 0
    endloop
  endfacet
  facet normal -1 -0 -0
    outer loop
      vertex -69.2 -5.7 1.6
      vertex -69.2 -5.7 0
      vertex -69.2 -19.7 1.6
    endloop
  endfacet
  facet normal 0 1 0
    outer loop
      vertex -83.2 -19.7 0
      vertex -83.2 -19.7 1.6
      vertex -69.2 -19.7 0
    endloop
  endfacet
  facet normal 0 1 0
    outer loop
      vertex -69.2 -19.7 1.6
      vertex -69.2 -19.7 0
      vertex -83.2 -19.7 1.6
    endloop
  endfacet
  facet normal 1 0 -0
    outer loop
      vertex -26.05 -9.50999 0
      vertex -26.05 -9.50999 1.6
      vertex -26.05 -23.51 0
    endloop
  endfacet
  facet normal 1 -0 0
    outer loop
      vertex -26.05 -23.51 1.6
      vertex -26.05 -23.51 0
      vertex -26.05 -9.50999 1.6
    endloop
  endfacet
  facet normal 0 -1 0
    outer loop
      vertex -12.05 -9.50999 0
      vertex -12.05 -9.50999 1.6
      vertex -26.05 -9.50999 0
    endloop
  endfacet
  facet normal 0 -1 0
    outer loop
      vertex -26.05 -9.50999 1.6
      vertex -26.05 -9.50999 0
      vertex -12.05 -9.50999 1.6
    endloop
  endfacet
  facet normal -1 0 0
    outer loop
      vertex -12.05 -23.51 0
      vertex -12.05 -23.51 1.6
      vertex -12.05 -9.50999 0
    endloop
  endfacet
  facet normal -1 -0 -0
    outer loop
      vertex -12.05 -9.50999 1.6
      vertex -12.05 -9.50999 0
      vertex -12.05 -23.51 1.6
    endloop
  endfacet
  facet normal 0 1 0
    outer loop
      vertex -26.05 -23.51 0
      vertex -26.05 -23.51 1.6
      vertex -12.05 -23.51 0
    endloop
  endfacet
  facet normal 0 1 0
    outer loop
      vertex -12.05 -23.51 1.6
      vertex -12.05 -23.51 0
      vertex -26.05 -23.51 1.6
    endloop
  endfacet
  facet normal 1 0 -0
    outer loop
      vertex -45.1 -12.05 0
      vertex -45.1 -12.05 1.6
      vertex -45.1 -26.05 0
    endloop
  endfacet
  facet normal 1 -0 0
    outer loop
      vertex -45.1 -26.05 1.6
      vertex -45.1 -26.05 0
      vertex -45.1 -12.05 1.6
    endloop
  endfacet
  facet normal 0 -1 0
    outer loop
      vertex -31.1 -12.05 0
      vertex -31.1 -12.05 1.6
      vertex -45.1 -12.05 0
    endloop
  endfacet
  facet normal 0 -1 0
    outer loop
      vertex -45.1 -12.05 1.6
      vertex -45.1 -12.05 0
      vertex -31.1 -12.05 1.6
    endloop
  endfacet
  facet normal -1 0 0
    outer loop
      vertex -31.1 -26.05 0
      vertex -31.1 -26.05 1.6
      vertex -31.1 -12.05 0
    endloop
  endfacet
  facet normal -1 -0 -0
    outer loop
      vertex -31.1 -12.05 1.6
      vertex -31.1 -12.05 0
      vertex -31.1 -26.05 1.6
    endloop
  endfacet
  facet normal 0 1 0
    outer loop
      vertex -45.1 -26.05 0
      vertex -45.1 -26.05 1.6
      vertex -31.1 -26.05 0
    endloop
  endfacet
  facet normal 0 1 0
    outer loop
      vertex -31.1 -26.05 1.6
      vertex -31.1 -26.05 0
      vertex -45.1 -26.05 1.6
    endloop
  endfacet
  facet normal 1 0 -0
    outer loop
      vertex -7 -12.05 0
      vertex -7 -12.05 1.6
      vertex -7 -26.05 0
    endloop
  endfacet
  facet normal 1 -0 0
    outer loop
      vertex -7 -26.05 1.6
      vertex -7 -26.05 0
      vertex -7 -12.05 1.6
    endloop
  endfacet
  facet normal 0 -1 0
    outer loop
      vertex 7 -12.05 0
      vertex 7 -12.05 1.6
      vertex -7 -12.05 0
    endloop
  endfacet
  facet normal 0 -1 0
    outer loop
      vertex -7 -12.05 1.6
      vertex -7 -12.05 0
      vertex 7 -12.05 1.6
    endloop
  endfacet
  facet normal -1 0 0
    outer loop
      vertex 7 -26.05 0
      vertex 7 -26.05 1.6
      vertex 7 -12.05 0
    endloop
  endfacet
  facet normal -1 -0 -0
    outer loop
      vertex 7 -12.05 1.6
      vertex 7 -12.05 0
      vertex 7 -26.05 1.6
    endloop
  endfacet
  facet normal 0 1 0
    outer loop
      vertex -7 -26.05 0
      vertex -7 -26.05 1.6
      vertex 7 -26.05 0
    endloop
  endfacet
  facet normal 0 1 0
    outer loop
      vertex 7 -26.05 1.6
      vertex 7 -26.05 0
      vertex -7 -26.05 1.6
    endloop
  endfacet
  facet normal 1 0 -0
    outer loop
      vertex 12.05 -14.59 0
      vertex 12.05 -14.59 1.6
      vertex 12.05 -28.59 0
    endloop
  endfacet
  facet normal 1 -0 0
    outer loop
      vertex 12.05 -28.59 1.6
      vertex 12.05 -28.59 0
      vertex 12.05 -14.59 1.6
    endloop
  endfacet
  facet normal 0 -1 0
    outer loop
      vertex 26.05 -14.59 0
      vertex 26.05 -14.59 1.6
      vertex 12.05 -14.59 0
    endloop
  endfacet
  facet normal 0 -1 0
    outer loop
      vertex 12.05 -14.59 1.6
      vertex 12.05 -14.59 0
      vertex 26.05 -14.59 1.6
    endloop
  endfacet
  facet normal -1 0 0
    outer loop
      vertex 26.05 -28.59 0
      vertex 26.05 -28.59 1.6
      vertex 26.05 -14.59 0
    endloop
  endfacet
  facet normal -1 -0 -0
    outer loop
      vertex 26.05 -14.59 1.6
      vertex 26.05 -14.59 0
      vertex 26.05 -28.59 1.6
    endloop
  endfacet
  facet normal 0 1 0
    outer loop
      vertex 12.05 -28.59 0
      vertex 12.05 -28.59 1.6
      vertex 26.05 -28.59 0
    endloop
  endfacet
  facet normal 0 1 0
    outer loop
      vertex 26.05 -28.59 1.6
      vertex 26.05 -28.59 0
      vertex 12.05 -28.59 1.6
    endloop
  endfacet
  facet normal 1 0 -0
    outer loop
      vertex -64.15 -22.21 0
      vertex -64.15 -22.21 1.6
      vertex -64.15 -36.21 0
    endloop
  endfacet
  facet normal 1 -0 0
    outer loop
      vertex -64.15 -36.21 1.6
      vertex -64.15 -36.21 0
      vertex -64.15 -22.21 1.6
    endloop
  endfacet
  facet normal 0 -1 0
    outer loop
      vertex -50.15 -22.21 0
      vertex -50.15 -22.21 1.6
      vertex -64.15 -22.21 0
    endloop
  endfacet
  facet normal 0 -1 0
    outer loop
      vertex -64.15 -22.21 1.6
      vertex -64.15 -22.21 0
      vertex -50.15 -22.21 1.6
    endloop
  endfacet
  facet normal -1 0 0
    outer loop
      vertex -50.15 -36.21 0
      vertex -50.15 -36.21 1.6
      vertex -50.15 -22.21 0
    endloop
  endfacet
  facet normal -1 -0 -0
    outer loop
      vertex -50.15 -22.21 1.6
      vertex -50.15 -22.21 0
      vertex -50.15 -36.21 1.6
    endloop
  endfacet
  facet normal 0 1 0
    outer loop
      vertex -64.15 -36.21 0
      vertex -64.15 -36.21 1.6
      vertex -50.15 -36.21 0
    endloop
  endfacet
  facet normal 0 1 0
    outer loop
      vertex -50.15 -36.21 1.6
      vertex -50.15 -36.21 0
      vertex -64.15 -36.21 1.6
    endloop
  endfacet
  facet normal 1 0 -0
    outer loop
      vertex -83.2 -24.75 0
      vertex -83.2 -24.75 1.6
      vertex -83.2 -38.75 0
    endloop
  endfacet
  facet normal 1 -0 0
    outer loop
      vertex -83.2 -38.75 1.6
      vertex -83.2 -38.75 0
      vertex -83.2 -24.75 1.6
    endloop
  endfacet
  facet normal 0 -1 0
    outer loop
      vertex -69.2 -24.75 0
      vertex -69.2 -24.75 1.6
      vertex -83.2 -24.75 0
    endloop
  endfacet
  facet normal 0 -1 0
    outer loop
      vertex -83.2 -24.75 1.6
      vertex -83.2 -24.75 0
      vertex -69.2 -24.75 1.6
    endloop
  endfacet
  facet normal -1 0 0
    outer loop
      vertex -69.2 -38.75 0
      vertex -69.2 -38.75 1.6
      vertex -69.2 -24.75 0
    endloop
  endfacet
  facet normal -1 -0 -0
    outer loop
      vertex -69.2 -24.75 1.6
      vertex -69.2 -24.75 0
      vertex -69.2 -38.75 1.6
    endloop
  endfacet
  facet normal 0 1 0
    outer loop
      vertex -83.2 -38.75 0
      vertex -83.2 -38.75 1.6
      vertex -69.2 -38.75 0
    endloop
  endfacet
  facet normal 0 1 0
    outer loop
      vertex -69.2 -38.75 1.6
      vertex -69.2 -38.75 0
      vertex -83.2 -38.75 1.6
    endloop
  endfacet
  facet normal 1 0 -0
    outer loop
      vertex -17.16 -31.1 0
      vertex -17.16 -31.1 1.6
      vertex -17.16 -45.1 0
    endloop
  endfacet
  facet normal 1 -0 0
    outer loop
      vertex -17.16 -45.1 1.6
      vertex -17.16 -45.1 0
      vertex -17.16 -31.1 1.6
    endloop
  endfacet
  facet normal 0 -1 0
    outer loop
      vertex -3.15999 -31.1 0
      vertex -3.15999 -31.1 1.6
      vertex -17.16 -31.1 0
    endloop
  endfacet
  facet normal 0 -1 0
    outer loop
      vertex -17.16 -31.1 1.6
      vertex -17.16 -31.1 0
      vertex -3.15999 -31.1 1.6
    endloop
  endfacet
  facet normal -1 0 0
    outer loop
      vertex -3.15999 -45.1 0
      vertex -3.15999 -45.1 1.6
      vertex -3.15999 -31.1 0
    endloop
  endfacet
  facet normal -1 -0 -0
    outer loop
      vertex -3.15999 -31.1 1.6
      vertex -3.15999 -31.1 0
      vertex -3.15999 -45.1 1.6
    endloop
  endfacet
  facet normal 0 1 0
    outer loop
      vertex -17.16 -45.1 0
      vertex -17.16 -45.1 1.6
      vertex -3.15999 -45.1 0
    endloop
  endfacet
  facet normal 0 1 0
    outer loop
      vertex -3.15999 -45.1 1.6
      vertex -3.15999 -45.1 0
      vertex -17.16 -45.1 1.6
    endloop
  endfacet
  facet normal 1 0 -0
    outer loop
      vertex -36.21 -31.1 0
      vertex -36.21 -31.1 1.6
      vertex -36.21 -45.1 0
    endloop
  endfacet
  facet normal 1 -0 0
    outer loop
      vertex -36.21 -45.1 1.6
      vertex -36.21 -45.1 0
      vertex -36.21 -31.1 1.6
    endloop
  endfacet
  facet normal 0 -1 0
    outer loop
      vertex -22.21 -31.1 0
      vertex -22.21 -31.1 1.6
      vertex -36.21 -31.1 0
    endloop
  endfacet
  facet normal 0 -1 0
    outer loop
      vertex -36.21 -31.1 1.6
      vertex -36.21 -31.1 0
      vertex -22.21 -31.1 1.6
    endloop
  endfacet
  facet normal -1 0 0
    outer loop
      vertex -22.21 -45.1 0
      vertex -22.21 -45.1 1.6
      vertex -22.21 -31.1 0
    endloop
  endfacet
  facet normal -1 -0 -0
    outer loop
      vertex -22.21 -31.1 1.6
      vertex -22.21 -31.1 0
      vertex -22.21 -45.1 1.6
    endloop
  endfacet
  facet normal 0 1 0
    outer loop
      vertex -36.21 -45.1 0
      vertex -36.21 -45.1 1.6
      vertex -22.21 -45.1 0
    endloop
  endfacet
  facet normal 0 1 0
    outer loop
      vertex -22.21 -45.1 1.6
      vertex -22.21 -45.1 0
      vertex -36.21 -45.1 1.6
    endloop
  endfacet
  facet normal 1 0 -0
    outer loop
      vertex 1.89 -33.64 0
      vertex 1.89 -33.64 1.6
      vertex 1.89 -47.64 0
    endloop
  endfacet
  facet normal 1 -0 0
    outer loop
      vertex 1.89 -47.64 1.6
      vertex 1.89 -47.64 0
      vertex 1.89 -33.64 1.6
    endloop
  endfacet
  facet normal 0 -1 0
    outer loop
      vertex 15.89 -33.64 0
      vertex 15.89 -33.64 1.6
      vertex 1.89 -33.64 0
    endloop
  endfacet
  facet normal 0 -1 0
    outer loop
      vertex 1.89 -33.64 1.6
      vertex 1.89 -33.64 0
      vertex 15.89 -33.64 1.6
    endloop
  endfacet
  facet normal -1 0 0
    outer loop
      vertex 15.89 -47.64 0
      vertex 15.89 -47.64 1.6
      vertex 15.89 -33.64 0
    endloop
  endfacet
  facet normal -1 -0 -0
    outer loop
      vertex 15.89 -33.64 1.6
      vertex 15.89 -33.64 0
      vertex 15.89 -47.64 1.6
    endloop
  endfacet
  facet normal 0 1 0
    outer loop
      vertex 1.89 -47.64 0
      vertex 1.89 -47.64 1.6
      vertex 15.89 -47.64 0
    endloop
  endfacet
  facet normal 0 1 0
    outer loop
      vertex 15.89 -47.64 1.6
      vertex 15.89 -47.64 0
      vertex 1.89 -47.64 1.6
    endloop
  endfacet
  facet normal 0.894935 -0.446196 0
    outer loop
      vertex 28.3548 -36.3321 0
      vertex 28.3548 -36.3321 1.6
      vertex 22.1081 -48.8611 0
    endloop
  endfacet
  facet normal 0.894935 -0.446196 0
    outer loop
      vertex 22.1081 -48.8611 1.6
      vertex 22.1081 -48.8611 0
      vertex 28.3548 -36.3321 1.6
    endloop
  endfacet
  facet normal -0.446193 -0.894937 0
    outer loop
      vertex 40.8839 -42.5788 0
      vertex 40.8839 -42.5788 1.6
      vertex 28.3548 -36.3321 0
    endloop
  endfacet
  facet normal -0.446193 -0.894937 -0
    outer loop
      vertex 28.3548 -36.3321 1.6
      vertex 28.3548 -36.3321 0
      vertex 40.8839 -42.5788 1.6
    endloop
  endfacet
  facet normal -0.894934 0.446199 0
    outer loop
      vertex 34.6371 -55.1079 0
      vertex 34.6371 -55.1079 1.6
      vertex 40.8839 -42.5788 0
    endloop
  endfacet
  facet normal -0.894934 0.446199 0
    outer loop
      vertex 40.8839 -42.5788 1.6
      vertex 40.8839 -42.5788 0
      vertex 34.6371 -55.1079 1.6
    endloop
  endfacet
  facet normal 0.446202 0.894932 -0
    outer loop
      vertex 22.1081 -48.8611 0
      vertex 22.1081 -48.8611 1.6
      vertex 34.6371 -55.1079 0
    endloop
  endfacet
  facet normal 0.446202 0.894932 0
    outer loop
      vertex 34.6371 -55.1079 1.6
      vertex 34.6371 -55.1079 0
      vertex 22.1081 -48.8611 1.6
    endloop
  endfacet
endsolid OpenSCAD_Model
