<?xml version="1.0" standalone="no"?>
<!DOCTYPE svg PUBLIC "-//W3C//DTD SVG 1.1//EN" "http://www.w3.org/Graphics/SVG/1.1/DTD/svg11.dtd">
<svg width="131mm" height="91mm" viewBox="-45 -32 131 91" xmlns="http://www.w3.org/2000/svg" version="1.1">
<title>OpenSCAD Model</title>
<path d="
M 0,50.165 L 38.1,47.625 L 85.725,41.275 L 85.725,-15.875 L 47.625,-28.575 L 28.575,-31.115
 L 9.52499,-31.115 L -28.575,-26.035 L -28.575,33.3038 L -44.9053,41.4458 L -36.4052,58.4943 z
M 12.15,-14.69 L 12.15,-28.49 L 25.95,-28.49 L 25.95,-14.69 z
M -6.89999,-12.15 L -6.89999,-25.95 L 6.89999,-25.95 L 6.89999,-12.15 z
M 31.2,-12.15 L 31.2,-25.95 L 45,-25.95 L 45,-12.15 z
M -25.95,-9.60999 L -25.95,-23.41 L -12.15,-23.41 L -12.15,-9.60999 z
M 50.25,-1.98999 L 50.25,-15.79 L 64.05,-15.79 L 64.05,-1.98999 z
M 69.3,0.549988 L 69.3,-13.25 L 83.1,-13.25 L 83.1,0.549988 z
M 12.15,4.35999 L 12.15,-9.43999 L 25.95,-9.43999 L 25.95,4.35999 z
M -6.89999,6.89999 L -6.89999,-6.89999 L 6.89999,-6.89999 L 6.89999,6.89999 z
M 31.2,6.89999 L 31.2,-6.89999 L 45,-6.89999 L 45,6.89999 z
M -25.95,9.43999 L -25.95,-4.35999 L -12.15,-4.35999 L -12.15,9.43999 z
M 50.25,17.06 L 50.25,3.25999 L 64.05,3.25999 L 64.05,17.06 z
M 69.3,19.6 L 69.3,5.79999 L 83.1,5.79999 L 83.1,19.6 z
M 12.15,23.41 L 12.15,9.60999 L 25.95,9.60999 L 25.95,23.41 z
M 31.2,25.95 L 31.2,12.15 L 45,12.15 L 45,25.95 z
M -6.89999,25.95 L -6.89999,12.15 L 6.89999,12.15 L 6.89999,25.95 z
M -25.95,28.49 L -25.95,14.69 L -12.15,14.69 L -12.15,28.49 z
M 50.25,36.11 L 50.25,22.31 L 64.05,22.31 L 64.05,36.11 z
M 69.3,38.65 L 69.3,24.85 L 83.1,24.85 L 83.1,38.65 z
M 2.625,45 L 2.625,31.2 L 16.425,31.2 L 16.425,45 z
M 21.675,45 L 21.675,31.2 L 35.475,31.2 L 35.475,45 z
M -16.425,47.54 L -16.425,33.74 L -2.625,33.74 L -2.625,47.54 z
M -41.3848,42.6237 L -29.0347,36.4662 L -22.8772,48.8163 L -35.2273,54.9738 z
" stroke="black" fill="lightgray" stroke-width="0.5"/>
</svg>
