solid OpenSCAD_Model
  facet normal 0 0 -1
    outer loop
      vertex 47.625 28.575 0
      vertex 85.725 15.875 0
      vertex 64.15 15.89 0
    endloop
  endfacet
  facet normal 0 0 -1
    outer loop
      vertex 26.05 28.59 0
      vertex 31.1 26.05 0
      vertex 26.05 14.59 0
    endloop
  endfacet
  facet normal 0 0 -1
    outer loop
      vertex 31.1 -7 0
      vertex 45.1 -12.05 0
      vertex 31.1 -12.05 0
    endloop
  endfacet
  facet normal 0 0 -1
    outer loop
      vertex 7 7 0
      vertex 7 12.05 0
      vertex 12.05 9.53999 0
    endloop
  endfacet
  facet normal 0 0 -1
    outer loop
      vertex 31.1 12.05 0
      vertex 26.05 14.59 0
      vertex 31.1 26.05 0
    endloop
  endfacet
  facet normal 0 0 -1
    outer loop
      vertex -16.525 -47.64 0
      vertex -2.52499 -47.64 0
      vertex 0 -50.165 0
    endloop
  endfacet
  facet normal 0 0 -1
    outer loop
      vertex 64.15 -22.21 0
      vertex 64.15 -17.16 0
      vertex 69.2 -19.7 0
    endloop
  endfacet
  facet normal 0 0 -1
    outer loop
      vertex -36.4052 -58.4943 0
      vertex -41.5189 -42.5788 0
      vertex -35.2722 -55.1079 0
    endloop
  endfacet
  facet normal 0 0 -1
    outer loop
      vertex 26.05 28.59 0
      vertex 12.05 28.59 0
      vertex 9.52499 31.115 0
    endloop
  endfacet
  facet normal 0 0 -1
    outer loop
      vertex -26.05 9.50999 0
      vertex -28.575 26.035 0
      vertex -26.05 23.51 0
    endloop
  endfacet
  facet normal 0 -0 -1
    outer loop
      vertex 12.05 28.59 0
      vertex 12.05 14.59 0
      vertex 7 26.05 0
    endloop
  endfacet
  facet normal 0 0 -1
    outer loop
      vertex 7 -7 0
      vertex 12.05 -4.45999 0
      vertex 12.05 -9.50999 0
    endloop
  endfacet
  facet normal 0 0 -1
    outer loop
      vertex 9.52499 31.115 0
      vertex 7 26.05 0
      vertex -7 26.05 0
    endloop
  endfacet
  facet normal -0 0 -1
    outer loop
      vertex 28.575 31.115 0
      vertex 26.05 28.59 0
      vertex 9.52499 31.115 0
    endloop
  endfacet
  facet normal -0 0 -1
    outer loop
      vertex 12.05 14.59 0
      vertex 7 12.05 0
      vertex 7 26.05 0
    endloop
  endfacet
  facet normal 0 0 -1
    outer loop
      vertex -12.05 4.45999 0
      vertex -12.05 9.50999 0
      vertex -7 7 0
    endloop
  endfacet
  facet normal 0 -0 -1
    outer loop
      vertex -7 26.05 0
      vertex -7 12.05 0
      vertex -12.05 23.51 0
    endloop
  endfacet
  facet normal 0 0 -1
    outer loop
      vertex -7 -7 0
      vertex 7 -12.05 0
      vertex -7 -12.05 0
    endloop
  endfacet
  facet normal -0 0 -1
    outer loop
      vertex -7 26.05 0
      vertex -28.575 26.035 0
      vertex 9.52499 31.115 0
    endloop
  endfacet
  facet normal -0 0 -1
    outer loop
      vertex 12.05 28.59 0
      vertex 7 26.05 0
      vertex 9.52499 31.115 0
    endloop
  endfacet
  facet normal 0 0 -1
    outer loop
      vertex 45.1 7 0
      vertex 45.1 12.05 0
      vertex 50.15 15.89 0
    endloop
  endfacet
  facet normal 0 0 -1
    outer loop
      vertex 31.1 -7 0
      vertex 26.05 -4.45999 0
      vertex 31.1 7 0
    endloop
  endfacet
  facet normal 0 0 -1
    outer loop
      vertex 12.05 9.53999 0
      vertex 12.05 14.59 0
      vertex 26.05 9.53999 0
    endloop
  endfacet
  facet normal 0 0 -1
    outer loop
      vertex 45.1 26.05 0
      vertex 31.1 26.05 0
      vertex 28.575 31.115 0
    endloop
  endfacet
  facet normal 0 0 -1
    outer loop
      vertex 31.1 26.05 0
      vertex 26.05 28.59 0
      vertex 28.575 31.115 0
    endloop
  endfacet
  facet normal 0 0 -1
    outer loop
      vertex 45.1 12.05 0
      vertex 45.1 26.05 0
      vertex 50.15 15.89 0
    endloop
  endfacet
  facet normal 0 0 -1
    outer loop
      vertex 45.1 26.05 0
      vertex 28.575 31.115 0
      vertex 47.625 28.575 0
    endloop
  endfacet
  facet normal 0 0 -1
    outer loop
      vertex 7 -26.05 0
      vertex 12.05 -23.51 0
      vertex 16.525 -31.1 0
    endloop
  endfacet
  facet normal 0 0 -1
    outer loop
      vertex -28.575 26.035 0
      vertex -26.05 -9.53999 0
      vertex -28.575 -33.3038 0
    endloop
  endfacet
  facet normal 0 -0 -1
    outer loop
      vertex -7 7 0
      vertex -7 -7 0
      vertex -12.05 4.45999 0
    endloop
  endfacet
  facet normal 0 0 -1
    outer loop
      vertex -26.05 23.51 0
      vertex -28.575 26.035 0
      vertex -12.05 23.51 0
    endloop
  endfacet
  facet normal 0 0 -1
    outer loop
      vertex -12.05 9.50999 0
      vertex -12.05 23.51 0
      vertex -7 12.05 0
    endloop
  endfacet
  facet normal 0 0 -1
    outer loop
      vertex -12.05 23.51 0
      vertex -28.575 26.035 0
      vertex -7 26.05 0
    endloop
  endfacet
  facet normal 0 0 -1
    outer loop
      vertex 64.15 15.89 0
      vertex 85.725 15.875 0
      vertex 69.2 13.35 0
    endloop
  endfacet
  facet normal 0 0 -1
    outer loop
      vertex 45.1 7 0
      vertex 31.1 7 0
      vertex 31.1 12.05 0
    endloop
  endfacet
  facet normal 0 0 -1
    outer loop
      vertex 64.15 -3.15999 0
      vertex 50.15 -3.15999 0
      vertex 50.15 1.89 0
    endloop
  endfacet
  facet normal 0 0 -1
    outer loop
      vertex 64.15 1.89 0
      vertex 69.2 13.35 0
      vertex 69.2 -0.649994 0
    endloop
  endfacet
  facet normal 0 0 -1
    outer loop
      vertex 50.15 15.89 0
      vertex 45.1 26.05 0
      vertex 47.625 28.575 0
    endloop
  endfacet
  facet normal 0 0 -1
    outer loop
      vertex 47.625 28.575 0
      vertex 64.15 15.89 0
      vertex 50.15 15.89 0
    endloop
  endfacet
  facet normal 0 0 -1
    outer loop
      vertex 85.725 15.875 0
      vertex 83.2 -0.649994 0
      vertex 83.2 13.35 0
    endloop
  endfacet
  facet normal 0 0 -1
    outer loop
      vertex 83.2 -0.649994 0
      vertex 85.725 15.875 0
      vertex 83.2 -5.7 0
    endloop
  endfacet
  facet normal 0 0 -1
    outer loop
      vertex 45.1 -12.05 0
      vertex 45.1 -7 0
      vertex 50.15 -3.15999 0
    endloop
  endfacet
  facet normal 0 0 -1
    outer loop
      vertex 64.15 15.89 0
      vertex 69.2 13.35 0
      vertex 64.15 1.89 0
    endloop
  endfacet
  facet normal 0 0 -1
    outer loop
      vertex 85.725 15.875 0
      vertex 83.2 13.35 0
      vertex 69.2 13.35 0
    endloop
  endfacet
  facet normal -0 0 -1
    outer loop
      vertex 31.1 12.05 0
      vertex 26.05 9.53999 0
      vertex 26.05 14.59 0
    endloop
  endfacet
  facet normal 0 0 -1
    outer loop
      vertex -7 7 0
      vertex -7 12.05 0
      vertex 7 7 0
    endloop
  endfacet
  facet normal 0 0 -1
    outer loop
      vertex -12.05 -9.53999 0
      vertex -7 -7 0
      vertex -7 -12.05 0
    endloop
  endfacet
  facet normal 0 0 -1
    outer loop
      vertex 12.05 9.53999 0
      vertex 7 12.05 0
      vertex 12.05 14.59 0
    endloop
  endfacet
  facet normal 0 0 -1
    outer loop
      vertex 26.05 -4.45999 0
      vertex 26.05 9.53999 0
      vertex 31.1 7 0
    endloop
  endfacet
  facet normal 0 0 -1
    outer loop
      vertex 26.05 9.53999 0
      vertex 12.05 14.59 0
      vertex 26.05 14.59 0
    endloop
  endfacet
  facet normal 0 0 -1
    outer loop
      vertex 12.05 -4.45999 0
      vertex 7 7 0
      vertex 12.05 9.53999 0
    endloop
  endfacet
  facet normal 0 0 -1
    outer loop
      vertex -26.05 -9.53999 0
      vertex -12.05 -14.59 0
      vertex -26.05 -14.59 0
    endloop
  endfacet
  facet normal 0 0 -1
    outer loop
      vertex -26.05 4.45999 0
      vertex -26.05 9.50999 0
      vertex -12.05 4.45999 0
    endloop
  endfacet
  facet normal 0 0 -1
    outer loop
      vertex -7 7 0
      vertex -12.05 9.50999 0
      vertex -7 12.05 0
    endloop
  endfacet
  facet normal 0 0 -1
    outer loop
      vertex 7 -7 0
      vertex 7 7 0
      vertex 12.05 -4.45999 0
    endloop
  endfacet
  facet normal 0 0 -1
    outer loop
      vertex 7 7 0
      vertex -7 12.05 0
      vertex 7 12.05 0
    endloop
  endfacet
  facet normal 0 0 -1
    outer loop
      vertex 31.1 -26.05 0
      vertex 26.05 -23.51 0
      vertex 31.1 -12.05 0
    endloop
  endfacet
  facet normal 0 0 -1
    outer loop
      vertex 45.1 -7 0
      vertex 45.1 7 0
      vertex 50.15 1.89 0
    endloop
  endfacet
  facet normal 0 0 -1
    outer loop
      vertex 12.05 -9.50999 0
      vertex 12.05 -4.45999 0
      vertex 26.05 -9.50999 0
    endloop
  endfacet
  facet normal 0 0 -1
    outer loop
      vertex 31.1 7 0
      vertex 26.05 9.53999 0
      vertex 31.1 12.05 0
    endloop
  endfacet
  facet normal 0 0 -1
    outer loop
      vertex 50.15 1.89 0
      vertex 45.1 7 0
      vertex 50.15 15.89 0
    endloop
  endfacet
  facet normal 0 0 -1
    outer loop
      vertex 45.1 7 0
      vertex 31.1 12.05 0
      vertex 45.1 12.05 0
    endloop
  endfacet
  facet normal -0 0 -1
    outer loop
      vertex -7 -7 0
      vertex -12.05 -9.53999 0
      vertex -12.05 4.45999 0
    endloop
  endfacet
  facet normal -0 0 -1
    outer loop
      vertex 16.525 -45.1 0
      vertex 0 -50.165 0
      vertex 2.52499 -45.1 0
    endloop
  endfacet
  facet normal -0 0 -1
    outer loop
      vertex -7 -26.05 0
      vertex -12.05 -28.59 0
      vertex -12.05 -14.59 0
    endloop
  endfacet
  facet normal -0 -0 -1
    outer loop
      vertex -26.05 9.50999 0
      vertex -26.05 4.45999 0
      vertex -28.575 26.035 0
    endloop
  endfacet
  facet normal -0 -0 -1
    outer loop
      vertex -26.05 4.45999 0
      vertex -26.05 -9.53999 0
      vertex -28.575 26.035 0
    endloop
  endfacet
  facet normal -0 -0 -1
    outer loop
      vertex -12.05 9.50999 0
      vertex -12.05 4.45999 0
      vertex -26.05 9.50999 0
    endloop
  endfacet
  facet normal 0 0 -1
    outer loop
      vertex 64.15 -3.15999 0
      vertex 64.15 1.89 0
      vertex 69.2 -0.649994 0
    endloop
  endfacet
  facet normal 0 0 -1
    outer loop
      vertex 50.15 -17.16 0
      vertex 64.15 -22.21 0
      vertex 50.15 -22.21 0
    endloop
  endfacet
  facet normal 0 0 -1
    outer loop
      vertex 50.15 1.89 0
      vertex 64.15 1.89 0
      vertex 64.15 -3.15999 0
    endloop
  endfacet
  facet normal -0 0 -1
    outer loop
      vertex 50.15 -3.15999 0
      vertex 45.1 -7 0
      vertex 50.15 1.89 0
    endloop
  endfacet
  facet normal 0 0 -1
    outer loop
      vertex 64.15 -3.15999 0
      vertex 69.2 -5.7 0
      vertex 64.15 -17.16 0
    endloop
  endfacet
  facet normal 0 0 -1
    outer loop
      vertex 85.725 -41.275 0
      vertex 83.2 -5.7 0
      vertex 85.725 15.875 0
    endloop
  endfacet
  facet normal 0 0 -1
    outer loop
      vertex 69.2 -5.7 0
      vertex 69.2 -0.649994 0
      vertex 83.2 -5.7 0
    endloop
  endfacet
  facet normal 0 0 -1
    outer loop
      vertex 64.15 -22.21 0
      vertex 69.2 -19.7 0
      vertex 69.2 -24.75 0
    endloop
  endfacet
  facet normal 0 0 -1
    outer loop
      vertex 69.2 -0.649994 0
      vertex 83.2 -0.649994 0
      vertex 83.2 -5.7 0
    endloop
  endfacet
  facet normal 0 -0 -1
    outer loop
      vertex 69.2 -0.649994 0
      vertex 69.2 -5.7 0
      vertex 64.15 -3.15999 0
    endloop
  endfacet
  facet normal 0 -0 -1
    outer loop
      vertex 69.2 -5.7 0
      vertex 69.2 -19.7 0
      vertex 64.15 -17.16 0
    endloop
  endfacet
  facet normal 0 0 -1
    outer loop
      vertex 83.2 -5.7 0
      vertex 85.725 -41.275 0
      vertex 83.2 -19.7 0
    endloop
  endfacet
  facet normal 0 0 -1
    outer loop
      vertex 16.525 -31.1 0
      vertex 26.05 -23.51 0
      vertex 21.575 -31.1 0
    endloop
  endfacet
  facet normal 0 0 -1
    outer loop
      vertex 26.05 -9.50999 0
      vertex 26.05 -4.45999 0
      vertex 31.1 -7 0
    endloop
  endfacet
  facet normal 0 -0 -1
    outer loop
      vertex 7 -26.05 0
      vertex 16.525 -31.1 0
      vertex 2.52499 -31.1 0
    endloop
  endfacet
  facet normal 0 0 -1
    outer loop
      vertex 12.05 -4.45999 0
      vertex 26.05 -4.45999 0
      vertex 26.05 -9.50999 0
    endloop
  endfacet
  facet normal 0 0 -1
    outer loop
      vertex 7 -7 0
      vertex 12.05 -9.50999 0
      vertex 7 -12.05 0
    endloop
  endfacet
  facet normal 0 0 -1
    outer loop
      vertex 26.05 -9.50999 0
      vertex 31.1 -12.05 0
      vertex 26.05 -23.51 0
    endloop
  endfacet
  facet normal 0 0 -1
    outer loop
      vertex 35.575 -31.1 0
      vertex 45.1 -26.05 0
      vertex 50.15 -36.21 0
    endloop
  endfacet
  facet normal 0 0 -1
    outer loop
      vertex 31.1 -7 0
      vertex 45.1 -7 0
      vertex 45.1 -12.05 0
    endloop
  endfacet
  facet normal 0 0 -1
    outer loop
      vertex 21.575 -31.1 0
      vertex 31.1 -26.05 0
      vertex 35.575 -31.1 0
    endloop
  endfacet
  facet normal 0 0 -1
    outer loop
      vertex 45.1 -12.05 0
      vertex 50.15 -17.16 0
      vertex 45.1 -26.05 0
    endloop
  endfacet
  facet normal 0 0 -1
    outer loop
      vertex 31.1 -12.05 0
      vertex 26.05 -9.50999 0
      vertex 31.1 -7 0
    endloop
  endfacet
  facet normal 0 0 -1
    outer loop
      vertex 45.1 -12.05 0
      vertex 50.15 -3.15999 0
      vertex 50.15 -17.16 0
    endloop
  endfacet
  facet normal 0 0 -1
    outer loop
      vertex 12.05 -23.51 0
      vertex 7 -12.05 0
      vertex 12.05 -9.50999 0
    endloop
  endfacet
  facet normal 0 0 -1
    outer loop
      vertex -16.525 -33.64 0
      vertex -12.05 -28.59 0
      vertex -2.52499 -33.64 0
    endloop
  endfacet
  facet normal 0 -0 -1
    outer loop
      vertex -7 -12.05 0
      vertex -7 -26.05 0
      vertex -12.05 -14.59 0
    endloop
  endfacet
  facet normal 0 0 -1
    outer loop
      vertex -7 -7 0
      vertex 7 -7 0
      vertex 7 -12.05 0
    endloop
  endfacet
  facet normal 0 0 -1
    outer loop
      vertex -12.05 -9.53999 0
      vertex -7 -12.05 0
      vertex -12.05 -14.59 0
    endloop
  endfacet
  facet normal 0 0 -1
    outer loop
      vertex 7 -12.05 0
      vertex 12.05 -23.51 0
      vertex 7 -26.05 0
    endloop
  endfacet
  facet normal 0 0 -1
    outer loop
      vertex -26.05 -28.59 0
      vertex -12.05 -28.59 0
      vertex -16.525 -33.64 0
    endloop
  endfacet
  facet normal 0 -0 -1
    outer loop
      vertex 2.52499 -31.1 0
      vertex 2.52499 -45.1 0
      vertex -2.52499 -33.64 0
    endloop
  endfacet
  facet normal 0 -0 -1
    outer loop
      vertex -26.05 -28.59 0
      vertex -16.525 -33.64 0
      vertex -28.575 -33.3038 0
    endloop
  endfacet
  facet normal 0 -0 -1
    outer loop
      vertex -26.05 -9.53999 0
      vertex -26.05 -14.59 0
      vertex -28.575 -33.3038 0
    endloop
  endfacet
  facet normal 0 -0 -1
    outer loop
      vertex -26.05 -14.59 0
      vertex -26.05 -28.59 0
      vertex -28.575 -33.3038 0
    endloop
  endfacet
  facet normal -0 -0 -1
    outer loop
      vertex -12.05 -9.53999 0
      vertex -12.05 -14.59 0
      vertex -26.05 -9.53999 0
    endloop
  endfacet
  facet normal 0 0 -1
    outer loop
      vertex 38.1 -47.625 0
      vertex 64.15 -36.21 0
      vertex 69.2 -38.75 0
    endloop
  endfacet
  facet normal 0 0 -1
    outer loop
      vertex 69.2 -19.7 0
      vertex 83.2 -24.75 0
      vertex 69.2 -24.75 0
    endloop
  endfacet
  facet normal 0 0 -1
    outer loop
      vertex 38.1 -47.625 0
      vertex 50.15 -36.21 0
      vertex 64.15 -36.21 0
    endloop
  endfacet
  facet normal 0 0 -1
    outer loop
      vertex 50.15 -17.16 0
      vertex 64.15 -17.16 0
      vertex 64.15 -22.21 0
    endloop
  endfacet
  facet normal 0 -0 -1
    outer loop
      vertex 50.15 -17.16 0
      vertex 50.15 -22.21 0
      vertex 45.1 -26.05 0
    endloop
  endfacet
  facet normal 0 -0 -1
    outer loop
      vertex 50.15 -22.21 0
      vertex 50.15 -36.21 0
      vertex 45.1 -26.05 0
    endloop
  endfacet
  facet normal 0 0 -1
    outer loop
      vertex 64.15 -22.21 0
      vertex 69.2 -24.75 0
      vertex 64.15 -36.21 0
    endloop
  endfacet
  facet normal 0 0 -1
    outer loop
      vertex 85.725 -41.275 0
      vertex 83.2 -38.75 0
      vertex 83.2 -24.75 0
    endloop
  endfacet
  facet normal 0 0 -1
    outer loop
      vertex 83.2 -24.75 0
      vertex 83.2 -19.7 0
      vertex 85.725 -41.275 0
    endloop
  endfacet
  facet normal 0 0 -1
    outer loop
      vertex 38.1 -47.625 0
      vertex 69.2 -38.75 0
      vertex 85.725 -41.275 0
    endloop
  endfacet
  facet normal 0 0 -1
    outer loop
      vertex 69.2 -38.75 0
      vertex 83.2 -38.75 0
      vertex 85.725 -41.275 0
    endloop
  endfacet
  facet normal 0 0 -1
    outer loop
      vertex 64.15 -36.21 0
      vertex 69.2 -24.75 0
      vertex 69.2 -38.75 0
    endloop
  endfacet
  facet normal -0 -0 -1
    outer loop
      vertex 83.2 -19.7 0
      vertex 83.2 -24.75 0
      vertex 69.2 -19.7 0
    endloop
  endfacet
  facet normal 0 0 -1
    outer loop
      vertex 0 -50.165 0
      vertex 21.575 -45.1 0
      vertex 38.1 -47.625 0
    endloop
  endfacet
  facet normal 0 -0 -1
    outer loop
      vertex 26.05 -23.51 0
      vertex 31.1 -26.05 0
      vertex 21.575 -31.1 0
    endloop
  endfacet
  facet normal 0 0 -1
    outer loop
      vertex -12.05 -28.59 0
      vertex -7 -26.05 0
      vertex -2.52499 -33.64 0
    endloop
  endfacet
  facet normal 0 0 -1
    outer loop
      vertex 2.52499 -31.1 0
      vertex -7 -26.05 0
      vertex 7 -26.05 0
    endloop
  endfacet
  facet normal 0 0 -1
    outer loop
      vertex 16.525 -45.1 0
      vertex 16.525 -31.1 0
      vertex 21.575 -45.1 0
    endloop
  endfacet
  facet normal 0 0 -1
    outer loop
      vertex 16.525 -31.1 0
      vertex 12.05 -23.51 0
      vertex 26.05 -23.51 0
    endloop
  endfacet
  facet normal 0 0 -1
    outer loop
      vertex 35.575 -45.1 0
      vertex 50.15 -36.21 0
      vertex 38.1 -47.625 0
    endloop
  endfacet
  facet normal 0 -0 -1
    outer loop
      vertex 16.525 -45.1 0
      vertex 21.575 -45.1 0
      vertex 0 -50.165 0
    endloop
  endfacet
  facet normal 0 0 -1
    outer loop
      vertex 21.575 -45.1 0
      vertex 35.575 -45.1 0
      vertex 38.1 -47.625 0
    endloop
  endfacet
  facet normal 0 0 -1
    outer loop
      vertex 16.525 -31.1 0
      vertex 21.575 -31.1 0
      vertex 21.575 -45.1 0
    endloop
  endfacet
  facet normal 0 0 -1
    outer loop
      vertex 35.575 -45.1 0
      vertex 35.575 -31.1 0
      vertex 50.15 -36.21 0
    endloop
  endfacet
  facet normal 0 0 -1
    outer loop
      vertex 35.575 -31.1 0
      vertex 31.1 -26.05 0
      vertex 45.1 -26.05 0
    endloop
  endfacet
  facet normal 0 0 -1
    outer loop
      vertex -2.52499 -47.64 0
      vertex 2.52499 -45.1 0
      vertex 0 -50.165 0
    endloop
  endfacet
  facet normal 0 0 -1
    outer loop
      vertex -16.525 -33.64 0
      vertex -22.7431 -48.8611 0
      vertex -28.9898 -36.3321 0
    endloop
  endfacet
  facet normal 0 -0 -1
    outer loop
      vertex -16.525 -47.64 0
      vertex 0 -50.165 0
      vertex -36.4052 -58.4943 0
    endloop
  endfacet
  facet normal 0 -0 -1
    outer loop
      vertex -28.575 -33.3038 0
      vertex -16.525 -33.64 0
      vertex -28.9898 -36.3321 0
    endloop
  endfacet
  facet normal 0 0 -1
    outer loop
      vertex -2.52499 -47.64 0
      vertex -2.52499 -33.64 0
      vertex 2.52499 -45.1 0
    endloop
  endfacet
  facet normal 0 0 -1
    outer loop
      vertex -2.52499 -33.64 0
      vertex -7 -26.05 0
      vertex 2.52499 -31.1 0
    endloop
  endfacet
  facet normal 0 -0 -1
    outer loop
      vertex -22.7431 -48.8611 0
      vertex -16.525 -47.64 0
      vertex -36.4052 -58.4943 0
    endloop
  endfacet
  facet normal 0 0 -1
    outer loop
      vertex -28.575 -33.3038 0
      vertex -41.5189 -42.5788 0
      vertex -44.9053 -41.4458 0
    endloop
  endfacet
  facet normal -0 -0 -1
    outer loop
      vertex -41.5189 -42.5788 0
      vertex -36.4052 -58.4943 0
      vertex -44.9053 -41.4458 0
    endloop
  endfacet
  facet normal 0 0 -1
    outer loop
      vertex -28.575 -33.3038 0
      vertex -28.9898 -36.3321 0
      vertex -41.5189 -42.5788 0
    endloop
  endfacet
  facet normal 0 -0 -1
    outer loop
      vertex -16.525 -33.64 0
      vertex -16.525 -47.64 0
      vertex -22.7431 -48.8611 0
    endloop
  endfacet
  facet normal 0 0 -1
    outer loop
      vertex -22.7431 -48.8611 0
      vertex -36.4052 -58.4943 0
      vertex -35.2722 -55.1079 0
    endloop
  endfacet
  facet normal -0 -0 1
    outer loop
      vertex 64.15 15.89 1.6
      vertex 85.725 15.875 1.6
      vertex 47.625 28.575 1.6
    endloop
  endfacet
  facet normal 0 0 1
    outer loop
      vertex 26.05 14.59 1.6
      vertex 31.1 26.05 1.6
      vertex 26.05 28.59 1.6
    endloop
  endfacet
  facet normal 0 0 1
    outer loop
      vertex 31.1 -12.05 1.6
      vertex 45.1 -12.05 1.6
      vertex 31.1 -7 1.6
    endloop
  endfacet
  facet normal 0 0 1
    outer loop
      vertex 12.05 9.53999 1.6
      vertex 7 12.05 1.6
      vertex 7 7 1.6
    endloop
  endfacet
  facet normal 0 0 1
    outer loop
      vertex 31.1 26.05 1.6
      vertex 26.05 14.59 1.6
      vertex 31.1 12.05 1.6
    endloop
  endfacet
  facet normal 0 0 1
    outer loop
      vertex 0 -50.165 1.6
      vertex -2.52499 -47.64 1.6
      vertex -16.525 -47.64 1.6
    endloop
  endfacet
  facet normal 0 0 1
    outer loop
      vertex 69.2 -19.7 1.6
      vertex 64.15 -17.16 1.6
      vertex 64.15 -22.21 1.6
    endloop
  endfacet
  facet normal 0 0 1
    outer loop
      vertex -35.2722 -55.1079 1.6
      vertex -41.5189 -42.5788 1.6
      vertex -36.4052 -58.4943 1.6
    endloop
  endfacet
  facet normal 0 0 1
    outer loop
      vertex 9.52499 31.115 1.6
      vertex 12.05 28.59 1.6
      vertex 26.05 28.59 1.6
    endloop
  endfacet
  facet normal 0 0 1
    outer loop
      vertex -26.05 23.51 1.6
      vertex -28.575 26.035 1.6
      vertex -26.05 9.50999 1.6
    endloop
  endfacet
  facet normal -0 0 1
    outer loop
      vertex 7 26.05 1.6
      vertex 12.05 14.59 1.6
      vertex 12.05 28.59 1.6
    endloop
  endfacet
  facet normal 0 -0 1
    outer loop
      vertex 12.05 -9.50999 1.6
      vertex 12.05 -4.45999 1.6
      vertex 7 -7 1.6
    endloop
  endfacet
  facet normal 0 0 1
    outer loop
      vertex -7 26.05 1.6
      vertex 7 26.05 1.6
      vertex 9.52499 31.115 1.6
    endloop
  endfacet
  facet normal -0 0 1
    outer loop
      vertex 9.52499 31.115 1.6
      vertex 26.05 28.59 1.6
      vertex 28.575 31.115 1.6
    endloop
  endfacet
  facet normal 0 0 1
    outer loop
      vertex 7 26.05 1.6
      vertex 7 12.05 1.6
      vertex 12.05 14.59 1.6
    endloop
  endfacet
  facet normal 0 0 1
    outer loop
      vertex -7 7 1.6
      vertex -12.05 9.50999 1.6
      vertex -12.05 4.45999 1.6
    endloop
  endfacet
  facet normal -0 0 1
    outer loop
      vertex -12.05 23.51 1.6
      vertex -7 12.05 1.6
      vertex -7 26.05 1.6
    endloop
  endfacet
  facet normal 0 0 1
    outer loop
      vertex -7 -12.05 1.6
      vertex 7 -12.05 1.6
      vertex -7 -7 1.6
    endloop
  endfacet
  facet normal 0 0 1
    outer loop
      vertex 9.52499 31.115 1.6
      vertex -28.575 26.035 1.6
      vertex -7 26.05 1.6
    endloop
  endfacet
  facet normal 0 0 1
    outer loop
      vertex 9.52499 31.115 1.6
      vertex 7 26.05 1.6
      vertex 12.05 28.59 1.6
    endloop
  endfacet
  facet normal 0 0 1
    outer loop
      vertex 50.15 15.89 1.6
      vertex 45.1 12.05 1.6
      vertex 45.1 7 1.6
    endloop
  endfacet
  facet normal 0 0 1
    outer loop
      vertex 31.1 7 1.6
      vertex 26.05 -4.45999 1.6
      vertex 31.1 -7 1.6
    endloop
  endfacet
  facet normal 0 0 1
    outer loop
      vertex 26.05 9.53999 1.6
      vertex 12.05 14.59 1.6
      vertex 12.05 9.53999 1.6
    endloop
  endfacet
  facet normal 0 0 1
    outer loop
      vertex 28.575 31.115 1.6
      vertex 31.1 26.05 1.6
      vertex 45.1 26.05 1.6
    endloop
  endfacet
  facet normal 0 0 1
    outer loop
      vertex 28.575 31.115 1.6
      vertex 26.05 28.59 1.6
      vertex 31.1 26.05 1.6
    endloop
  endfacet
  facet normal 0 0 1
    outer loop
      vertex 50.15 15.89 1.6
      vertex 45.1 26.05 1.6
      vertex 45.1 12.05 1.6
    endloop
  endfacet
  facet normal 0 0 1
    outer loop
      vertex 47.625 28.575 1.6
      vertex 28.575 31.115 1.6
      vertex 45.1 26.05 1.6
    endloop
  endfacet
  facet normal 0 0 1
    outer loop
      vertex 16.525 -31.1 1.6
      vertex 12.05 -23.51 1.6
      vertex 7 -26.05 1.6
    endloop
  endfacet
  facet normal 0 0 1
    outer loop
      vertex -28.575 -33.3038 1.6
      vertex -26.05 -9.53999 1.6
      vertex -28.575 26.035 1.6
    endloop
  endfacet
  facet normal -0 0 1
    outer loop
      vertex -12.05 4.45999 1.6
      vertex -7 -7 1.6
      vertex -7 7 1.6
    endloop
  endfacet
  facet normal 0 0 1
    outer loop
      vertex -12.05 23.51 1.6
      vertex -28.575 26.035 1.6
      vertex -26.05 23.51 1.6
    endloop
  endfacet
  facet normal 0 0 1
    outer loop
      vertex -7 12.05 1.6
      vertex -12.05 23.51 1.6
      vertex -12.05 9.50999 1.6
    endloop
  endfacet
  facet normal 0 0 1
    outer loop
      vertex -7 26.05 1.6
      vertex -28.575 26.035 1.6
      vertex -12.05 23.51 1.6
    endloop
  endfacet
  facet normal 0 -0 1
    outer loop
      vertex 69.2 13.35 1.6
      vertex 85.725 15.875 1.6
      vertex 64.15 15.89 1.6
    endloop
  endfacet
  facet normal 0 0 1
    outer loop
      vertex 31.1 12.05 1.6
      vertex 31.1 7 1.6
      vertex 45.1 7 1.6
    endloop
  endfacet
  facet normal 0 0 1
    outer loop
      vertex 50.15 1.89 1.6
      vertex 50.15 -3.15999 1.6
      vertex 64.15 -3.15999 1.6
    endloop
  endfacet
  facet normal 0 -0 1
    outer loop
      vertex 69.2 -0.649994 1.6
      vertex 69.2 13.35 1.6
      vertex 64.15 1.89 1.6
    endloop
  endfacet
  facet normal 0 0 1
    outer loop
      vertex 47.625 28.575 1.6
      vertex 45.1 26.05 1.6
      vertex 50.15 15.89 1.6
    endloop
  endfacet
  facet normal 0 -0 1
    outer loop
      vertex 50.15 15.89 1.6
      vertex 64.15 15.89 1.6
      vertex 47.625 28.575 1.6
    endloop
  endfacet
  facet normal -0 0 1
    outer loop
      vertex 83.2 13.35 1.6
      vertex 83.2 -0.649994 1.6
      vertex 85.725 15.875 1.6
    endloop
  endfacet
  facet normal 0 0 1
    outer loop
      vertex 83.2 -5.7 1.6
      vertex 85.725 15.875 1.6
      vertex 83.2 -0.649994 1.6
    endloop
  endfacet
  facet normal 0 0 1
    outer loop
      vertex 50.15 -3.15999 1.6
      vertex 45.1 -7 1.6
      vertex 45.1 -12.05 1.6
    endloop
  endfacet
  facet normal 0 0 1
    outer loop
      vertex 64.15 1.89 1.6
      vertex 69.2 13.35 1.6
      vertex 64.15 15.89 1.6
    endloop
  endfacet
  facet normal 0 0 1
    outer loop
      vertex 69.2 13.35 1.6
      vertex 83.2 13.35 1.6
      vertex 85.725 15.875 1.6
    endloop
  endfacet
  facet normal 0 0 1
    outer loop
      vertex 26.05 14.59 1.6
      vertex 26.05 9.53999 1.6
      vertex 31.1 12.05 1.6
    endloop
  endfacet
  facet normal 0 0 1
    outer loop
      vertex 7 7 1.6
      vertex -7 12.05 1.6
      vertex -7 7 1.6
    endloop
  endfacet
  facet normal 0 -0 1
    outer loop
      vertex -7 -12.05 1.6
      vertex -7 -7 1.6
      vertex -12.05 -9.53999 1.6
    endloop
  endfacet
  facet normal 0 0 1
    outer loop
      vertex 12.05 14.59 1.6
      vertex 7 12.05 1.6
      vertex 12.05 9.53999 1.6
    endloop
  endfacet
  facet normal 0 0 1
    outer loop
      vertex 31.1 7 1.6
      vertex 26.05 9.53999 1.6
      vertex 26.05 -4.45999 1.6
    endloop
  endfacet
  facet normal 0 0 1
    outer loop
      vertex 26.05 14.59 1.6
      vertex 12.05 14.59 1.6
      vertex 26.05 9.53999 1.6
    endloop
  endfacet
  facet normal 0 0 1
    outer loop
      vertex 12.05 9.53999 1.6
      vertex 7 7 1.6
      vertex 12.05 -4.45999 1.6
    endloop
  endfacet
  facet normal 0 0 1
    outer loop
      vertex -26.05 -14.59 1.6
      vertex -12.05 -14.59 1.6
      vertex -26.05 -9.53999 1.6
    endloop
  endfacet
  facet normal 0 0 1
    outer loop
      vertex -12.05 4.45999 1.6
      vertex -26.05 9.50999 1.6
      vertex -26.05 4.45999 1.6
    endloop
  endfacet
  facet normal 0 0 1
    outer loop
      vertex -7 12.05 1.6
      vertex -12.05 9.50999 1.6
      vertex -7 7 1.6
    endloop
  endfacet
  facet normal 0 0 1
    outer loop
      vertex 12.05 -4.45999 1.6
      vertex 7 7 1.6
      vertex 7 -7 1.6
    endloop
  endfacet
  facet normal 0 0 1
    outer loop
      vertex 7 12.05 1.6
      vertex -7 12.05 1.6
      vertex 7 7 1.6
    endloop
  endfacet
  facet normal 0 0 1
    outer loop
      vertex 31.1 -12.05 1.6
      vertex 26.05 -23.51 1.6
      vertex 31.1 -26.05 1.6
    endloop
  endfacet
  facet normal 0 0 1
    outer loop
      vertex 50.15 1.89 1.6
      vertex 45.1 7 1.6
      vertex 45.1 -7 1.6
    endloop
  endfacet
  facet normal 0 0 1
    outer loop
      vertex 26.05 -9.50999 1.6
      vertex 12.05 -4.45999 1.6
      vertex 12.05 -9.50999 1.6
    endloop
  endfacet
  facet normal 0 0 1
    outer loop
      vertex 31.1 12.05 1.6
      vertex 26.05 9.53999 1.6
      vertex 31.1 7 1.6
    endloop
  endfacet
  facet normal 0 0 1
    outer loop
      vertex 50.15 15.89 1.6
      vertex 45.1 7 1.6
      vertex 50.15 1.89 1.6
    endloop
  endfacet
  facet normal 0 0 1
    outer loop
      vertex 45.1 12.05 1.6
      vertex 31.1 12.05 1.6
      vertex 45.1 7 1.6
    endloop
  endfacet
  facet normal 0 0 1
    outer loop
      vertex -12.05 4.45999 1.6
      vertex -12.05 -9.53999 1.6
      vertex -7 -7 1.6
    endloop
  endfacet
  facet normal -0 0 1
    outer loop
      vertex 2.52499 -45.1 1.6
      vertex 0 -50.165 1.6
      vertex 16.525 -45.1 1.6
    endloop
  endfacet
  facet normal 0 0 1
    outer loop
      vertex -12.05 -14.59 1.6
      vertex -12.05 -28.59 1.6
      vertex -7 -26.05 1.6
    endloop
  endfacet
  facet normal 0 0 1
    outer loop
      vertex -28.575 26.035 1.6
      vertex -26.05 4.45999 1.6
      vertex -26.05 9.50999 1.6
    endloop
  endfacet
  facet normal 0 0 1
    outer loop
      vertex -28.575 26.035 1.6
      vertex -26.05 -9.53999 1.6
      vertex -26.05 4.45999 1.6
    endloop
  endfacet
  facet normal -0 0 1
    outer loop
      vertex -26.05 9.50999 1.6
      vertex -12.05 4.45999 1.6
      vertex -12.05 9.50999 1.6
    endloop
  endfacet
  facet normal 0 0 1
    outer loop
      vertex 69.2 -0.649994 1.6
      vertex 64.15 1.89 1.6
      vertex 64.15 -3.15999 1.6
    endloop
  endfacet
  facet normal 0 0 1
    outer loop
      vertex 50.15 -22.21 1.6
      vertex 64.15 -22.21 1.6
      vertex 50.15 -17.16 1.6
    endloop
  endfacet
  facet normal 0 -0 1
    outer loop
      vertex 64.15 -3.15999 1.6
      vertex 64.15 1.89 1.6
      vertex 50.15 1.89 1.6
    endloop
  endfacet
  facet normal 0 0 1
    outer loop
      vertex 50.15 1.89 1.6
      vertex 45.1 -7 1.6
      vertex 50.15 -3.15999 1.6
    endloop
  endfacet
  facet normal 0 0 1
    outer loop
      vertex 64.15 -17.16 1.6
      vertex 69.2 -5.7 1.6
      vertex 64.15 -3.15999 1.6
    endloop
  endfacet
  facet normal 0 0 1
    outer loop
      vertex 85.725 15.875 1.6
      vertex 83.2 -5.7 1.6
      vertex 85.725 -41.275 1.6
    endloop
  endfacet
  facet normal 0 0 1
    outer loop
      vertex 83.2 -5.7 1.6
      vertex 69.2 -0.649994 1.6
      vertex 69.2 -5.7 1.6
    endloop
  endfacet
  facet normal 0 -0 1
    outer loop
      vertex 69.2 -24.75 1.6
      vertex 69.2 -19.7 1.6
      vertex 64.15 -22.21 1.6
    endloop
  endfacet
  facet normal 0 -0 1
    outer loop
      vertex 83.2 -5.7 1.6
      vertex 83.2 -0.649994 1.6
      vertex 69.2 -0.649994 1.6
    endloop
  endfacet
  facet normal -0 0 1
    outer loop
      vertex 64.15 -3.15999 1.6
      vertex 69.2 -5.7 1.6
      vertex 69.2 -0.649994 1.6
    endloop
  endfacet
  facet normal -0 0 1
    outer loop
      vertex 64.15 -17.16 1.6
      vertex 69.2 -19.7 1.6
      vertex 69.2 -5.7 1.6
    endloop
  endfacet
  facet normal -0 0 1
    outer loop
      vertex 83.2 -19.7 1.6
      vertex 85.725 -41.275 1.6
      vertex 83.2 -5.7 1.6
    endloop
  endfacet
  facet normal 0 -0 1
    outer loop
      vertex 21.575 -31.1 1.6
      vertex 26.05 -23.51 1.6
      vertex 16.525 -31.1 1.6
    endloop
  endfacet
  facet normal 0 0 1
    outer loop
      vertex 31.1 -7 1.6
      vertex 26.05 -4.45999 1.6
      vertex 26.05 -9.50999 1.6
    endloop
  endfacet
  facet normal 0 0 1
    outer loop
      vertex 2.52499 -31.1 1.6
      vertex 16.525 -31.1 1.6
      vertex 7 -26.05 1.6
    endloop
  endfacet
  facet normal 0 -0 1
    outer loop
      vertex 26.05 -9.50999 1.6
      vertex 26.05 -4.45999 1.6
      vertex 12.05 -4.45999 1.6
    endloop
  endfacet
  facet normal 0 0 1
    outer loop
      vertex 7 -12.05 1.6
      vertex 12.05 -9.50999 1.6
      vertex 7 -7 1.6
    endloop
  endfacet
  facet normal 0 0 1
    outer loop
      vertex 26.05 -23.51 1.6
      vertex 31.1 -12.05 1.6
      vertex 26.05 -9.50999 1.6
    endloop
  endfacet
  facet normal 0 0 1
    outer loop
      vertex 50.15 -36.21 1.6
      vertex 45.1 -26.05 1.6
      vertex 35.575 -31.1 1.6
    endloop
  endfacet
  facet normal 0 -0 1
    outer loop
      vertex 45.1 -12.05 1.6
      vertex 45.1 -7 1.6
      vertex 31.1 -7 1.6
    endloop
  endfacet
  facet normal 0 0 1
    outer loop
      vertex 35.575 -31.1 1.6
      vertex 31.1 -26.05 1.6
      vertex 21.575 -31.1 1.6
    endloop
  endfacet
  facet normal 0 0 1
    outer loop
      vertex 45.1 -26.05 1.6
      vertex 50.15 -17.16 1.6
      vertex 45.1 -12.05 1.6
    endloop
  endfacet
  facet normal 0 0 1
    outer loop
      vertex 31.1 -7 1.6
      vertex 26.05 -9.50999 1.6
      vertex 31.1 -12.05 1.6
    endloop
  endfacet
  facet normal 0 -0 1
    outer loop
      vertex 50.15 -17.16 1.6
      vertex 50.15 -3.15999 1.6
      vertex 45.1 -12.05 1.6
    endloop
  endfacet
  facet normal 0 0 1
    outer loop
      vertex 12.05 -9.50999 1.6
      vertex 7 -12.05 1.6
      vertex 12.05 -23.51 1.6
    endloop
  endfacet
  facet normal 0 0 1
    outer loop
      vertex -2.52499 -33.64 1.6
      vertex -12.05 -28.59 1.6
      vertex -16.525 -33.64 1.6
    endloop
  endfacet
  facet normal -0 0 1
    outer loop
      vertex -12.05 -14.59 1.6
      vertex -7 -26.05 1.6
      vertex -7 -12.05 1.6
    endloop
  endfacet
  facet normal 0 -0 1
    outer loop
      vertex 7 -12.05 1.6
      vertex 7 -7 1.6
      vertex -7 -7 1.6
    endloop
  endfacet
  facet normal 0 0 1
    outer loop
      vertex -12.05 -14.59 1.6
      vertex -7 -12.05 1.6
      vertex -12.05 -9.53999 1.6
    endloop
  endfacet
  facet normal 0 0 1
    outer loop
      vertex 7 -26.05 1.6
      vertex 12.05 -23.51 1.6
      vertex 7 -12.05 1.6
    endloop
  endfacet
  facet normal 0 -0 1
    outer loop
      vertex -16.525 -33.64 1.6
      vertex -12.05 -28.59 1.6
      vertex -26.05 -28.59 1.6
    endloop
  endfacet
  facet normal -0 0 1
    outer loop
      vertex -2.52499 -33.64 1.6
      vertex 2.52499 -45.1 1.6
      vertex 2.52499 -31.1 1.6
    endloop
  endfacet
  facet normal -0 0 1
    outer loop
      vertex -28.575 -33.3038 1.6
      vertex -16.525 -33.64 1.6
      vertex -26.05 -28.59 1.6
    endloop
  endfacet
  facet normal 0 0 1
    outer loop
      vertex -28.575 -33.3038 1.6
      vertex -26.05 -14.59 1.6
      vertex -26.05 -9.53999 1.6
    endloop
  endfacet
  facet normal 0 0 1
    outer loop
      vertex -28.575 -33.3038 1.6
      vertex -26.05 -28.59 1.6
      vertex -26.05 -14.59 1.6
    endloop
  endfacet
  facet normal -0 0 1
    outer loop
      vertex -26.05 -9.53999 1.6
      vertex -12.05 -14.59 1.6
      vertex -12.05 -9.53999 1.6
    endloop
  endfacet
  facet normal 0 0 1
    outer loop
      vertex 69.2 -38.75 1.6
      vertex 64.15 -36.21 1.6
      vertex 38.1 -47.625 1.6
    endloop
  endfacet
  facet normal 0 0 1
    outer loop
      vertex 69.2 -24.75 1.6
      vertex 83.2 -24.75 1.6
      vertex 69.2 -19.7 1.6
    endloop
  endfacet
  facet normal 0 0 1
    outer loop
      vertex 64.15 -36.21 1.6
      vertex 50.15 -36.21 1.6
      vertex 38.1 -47.625 1.6
    endloop
  endfacet
  facet normal 0 -0 1
    outer loop
      vertex 64.15 -22.21 1.6
      vertex 64.15 -17.16 1.6
      vertex 50.15 -17.16 1.6
    endloop
  endfacet
  facet normal 0 0 1
    outer loop
      vertex 45.1 -26.05 1.6
      vertex 50.15 -22.21 1.6
      vertex 50.15 -17.16 1.6
    endloop
  endfacet
  facet normal -0 0 1
    outer loop
      vertex 45.1 -26.05 1.6
      vertex 50.15 -36.21 1.6
      vertex 50.15 -22.21 1.6
    endloop
  endfacet
  facet normal 0 0 1
    outer loop
      vertex 64.15 -36.21 1.6
      vertex 69.2 -24.75 1.6
      vertex 64.15 -22.21 1.6
    endloop
  endfacet
  facet normal 0 0 1
    outer loop
      vertex 83.2 -24.75 1.6
      vertex 83.2 -38.75 1.6
      vertex 85.725 -41.275 1.6
    endloop
  endfacet
  facet normal 0 0 1
    outer loop
      vertex 85.725 -41.275 1.6
      vertex 83.2 -19.7 1.6
      vertex 83.2 -24.75 1.6
    endloop
  endfacet
  facet normal 0 0 1
    outer loop
      vertex 85.725 -41.275 1.6
      vertex 69.2 -38.75 1.6
      vertex 38.1 -47.625 1.6
    endloop
  endfacet
  facet normal 0 0 1
    outer loop
      vertex 85.725 -41.275 1.6
      vertex 83.2 -38.75 1.6
      vertex 69.2 -38.75 1.6
    endloop
  endfacet
  facet normal 0 -0 1
    outer loop
      vertex 69.2 -38.75 1.6
      vertex 69.2 -24.75 1.6
      vertex 64.15 -36.21 1.6
    endloop
  endfacet
  facet normal -0 0 1
    outer loop
      vertex 69.2 -19.7 1.6
      vertex 83.2 -24.75 1.6
      vertex 83.2 -19.7 1.6
    endloop
  endfacet
  facet normal 0 0 1
    outer loop
      vertex 38.1 -47.625 1.6
      vertex 21.575 -45.1 1.6
      vertex 0 -50.165 1.6
    endloop
  endfacet
  facet normal 0 0 1
    outer loop
      vertex 21.575 -31.1 1.6
      vertex 31.1 -26.05 1.6
      vertex 26.05 -23.51 1.6
    endloop
  endfacet
  facet normal 0 0 1
    outer loop
      vertex -2.52499 -33.64 1.6
      vertex -7 -26.05 1.6
      vertex -12.05 -28.59 1.6
    endloop
  endfacet
  facet normal 0 0 1
    outer loop
      vertex 7 -26.05 1.6
      vertex -7 -26.05 1.6
      vertex 2.52499 -31.1 1.6
    endloop
  endfacet
  facet normal 0 0 1
    outer loop
      vertex 21.575 -45.1 1.6
      vertex 16.525 -31.1 1.6
      vertex 16.525 -45.1 1.6
    endloop
  endfacet
  facet normal 0 0 1
    outer loop
      vertex 26.05 -23.51 1.6
      vertex 12.05 -23.51 1.6
      vertex 16.525 -31.1 1.6
    endloop
  endfacet
  facet normal 0 -0 1
    outer loop
      vertex 38.1 -47.625 1.6
      vertex 50.15 -36.21 1.6
      vertex 35.575 -45.1 1.6
    endloop
  endfacet
  facet normal 0 0 1
    outer loop
      vertex 0 -50.165 1.6
      vertex 21.575 -45.1 1.6
      vertex 16.525 -45.1 1.6
    endloop
  endfacet
  facet normal 0 0 1
    outer loop
      vertex 38.1 -47.625 1.6
      vertex 35.575 -45.1 1.6
      vertex 21.575 -45.1 1.6
    endloop
  endfacet
  facet normal 0 -0 1
    outer loop
      vertex 21.575 -45.1 1.6
      vertex 21.575 -31.1 1.6
      vertex 16.525 -31.1 1.6
    endloop
  endfacet
  facet normal 0 0 1
    outer loop
      vertex 50.15 -36.21 1.6
      vertex 35.575 -31.1 1.6
      vertex 35.575 -45.1 1.6
    endloop
  endfacet
  facet normal 0 0 1
    outer loop
      vertex 45.1 -26.05 1.6
      vertex 31.1 -26.05 1.6
      vertex 35.575 -31.1 1.6
    endloop
  endfacet
  facet normal 0 -0 1
    outer loop
      vertex 0 -50.165 1.6
      vertex 2.52499 -45.1 1.6
      vertex -2.52499 -47.64 1.6
    endloop
  endfacet
  facet normal -0 0 1
    outer loop
      vertex -28.9898 -36.3321 1.6
      vertex -22.7431 -48.8611 1.6
      vertex -16.525 -33.64 1.6
    endloop
  endfacet
  facet normal 0 0 1
    outer loop
      vertex -36.4052 -58.4943 1.6
      vertex 0 -50.165 1.6
      vertex -16.525 -47.64 1.6
    endloop
  endfacet
  facet normal 0 0 1
    outer loop
      vertex -28.9898 -36.3321 1.6
      vertex -16.525 -33.64 1.6
      vertex -28.575 -33.3038 1.6
    endloop
  endfacet
  facet normal 0 0 1
    outer loop
      vertex 2.52499 -45.1 1.6
      vertex -2.52499 -33.64 1.6
      vertex -2.52499 -47.64 1.6
    endloop
  endfacet
  facet normal 0 0 1
    outer loop
      vertex 2.52499 -31.1 1.6
      vertex -7 -26.05 1.6
      vertex -2.52499 -33.64 1.6
    endloop
  endfacet
  facet normal 0 0 1
    outer loop
      vertex -36.4052 -58.4943 1.6
      vertex -16.525 -47.64 1.6
      vertex -22.7431 -48.8611 1.6
    endloop
  endfacet
  facet normal -0 0 1
    outer loop
      vertex -44.9053 -41.4458 1.6
      vertex -41.5189 -42.5788 1.6
      vertex -28.575 -33.3038 1.6
    endloop
  endfacet
  facet normal 0 0 1
    outer loop
      vertex -44.9053 -41.4458 1.6
      vertex -36.4052 -58.4943 1.6
      vertex -41.5189 -42.5788 1.6
    endloop
  endfacet
  facet normal 0 0 1
    outer loop
      vertex -41.5189 -42.5788 1.6
      vertex -28.9898 -36.3321 1.6
      vertex -28.575 -33.3038 1.6
    endloop
  endfacet
  facet normal 0 0 1
    outer loop
      vertex -22.7431 -48.8611 1.6
      vertex -16.525 -47.64 1.6
      vertex -16.525 -33.64 1.6
    endloop
  endfacet
  facet normal -0 0 1
    outer loop
      vertex -35.2722 -55.1079 1.6
      vertex -36.4052 -58.4943 1.6
      vertex -22.7431 -48.8611 1.6
    endloop
  endfacet
  facet normal 0.066519 -0.997785 0
    outer loop
      vertex 38.1 -47.625 0
      vertex 0 -50.165 1.6
      vertex 0 -50.165 0
    endloop
  endfacet
  facet normal 0.066519 -0.997785 0
    outer loop
      vertex 38.1 -47.625 0
      vertex 38.1 -47.625 1.6
      vertex 0 -50.165 1.6
    endloop
  endfacet
  facet normal 0.132164 -0.991228 0
    outer loop
      vertex 85.725 -41.275 0
      vertex 38.1 -47.625 1.6
      vertex 38.1 -47.625 0
    endloop
  endfacet
  facet normal 0.132164 -0.991228 0
    outer loop
      vertex 85.725 -41.275 0
      vertex 85.725 -41.275 1.6
      vertex 38.1 -47.625 1.6
    endloop
  endfacet
  facet normal 1 0 0
    outer loop
      vertex 85.725 15.875 0
      vertex 85.725 -41.275 1.6
      vertex 85.725 -41.275 0
    endloop
  endfacet
  facet normal 1 0 -0
    outer loop
      vertex 85.725 15.875 0
      vertex 85.725 15.875 1.6
      vertex 85.725 -41.275 1.6
    endloop
  endfacet
  facet normal 0.316228 0.948683 0
    outer loop
      vertex 47.625 28.575 0
      vertex 85.725 15.875 1.6
      vertex 85.725 15.875 0
    endloop
  endfacet
  facet normal 0.316228 0.948683 -0
    outer loop
      vertex 47.625 28.575 0
      vertex 47.625 28.575 1.6
      vertex 85.725 15.875 1.6
    endloop
  endfacet
  facet normal 0.132164 0.991228 0
    outer loop
      vertex 28.575 31.115 0
      vertex 47.625 28.575 1.6
      vertex 47.625 28.575 0
    endloop
  endfacet
  facet normal 0.132164 0.991228 -0
    outer loop
      vertex 28.575 31.115 0
      vertex 28.575 31.115 1.6
      vertex 47.625 28.575 1.6
    endloop
  endfacet
  facet normal 0 1 0
    outer loop
      vertex 9.52499 31.115 0
      vertex 28.575 31.115 1.6
      vertex 28.575 31.115 0
    endloop
  endfacet
  facet normal 0 1 0
    outer loop
      vertex 9.52499 31.115 0
      vertex 9.52499 31.115 1.6
      vertex 28.575 31.115 1.6
    endloop
  endfacet
  facet normal -0.132164 0.991228 0
    outer loop
      vertex -28.575 26.035 0
      vertex 9.52499 31.115 1.6
      vertex 9.52499 31.115 0
    endloop
  endfacet
  facet normal -0.132164 0.991228 0
    outer loop
      vertex -28.575 26.035 0
      vertex -28.575 26.035 1.6
      vertex 9.52499 31.115 1.6
    endloop
  endfacet
  facet normal -1 0 0
    outer loop
      vertex -28.575 -33.3038 0
      vertex -28.575 26.035 1.6
      vertex -28.575 26.035 0
    endloop
  endfacet
  facet normal -1 0 0
    outer loop
      vertex -28.575 -33.3038 0
      vertex -28.575 -33.3038 1.6
      vertex -28.575 26.035 1.6
    endloop
  endfacet
  facet normal -0.446198 0.894934 0
    outer loop
      vertex -44.9053 -41.4458 0
      vertex -28.575 -33.3038 1.6
      vertex -28.575 -33.3038 0
    endloop
  endfacet
  facet normal -0.446198 0.894934 0
    outer loop
      vertex -44.9053 -41.4458 0
      vertex -44.9053 -41.4458 1.6
      vertex -28.575 -33.3038 1.6
    endloop
  endfacet
  facet normal -0.894934 -0.446199 0
    outer loop
      vertex -36.4052 -58.4943 0
      vertex -44.9053 -41.4458 1.6
      vertex -44.9053 -41.4458 0
    endloop
  endfacet
  facet normal -0.894934 -0.446199 0
    outer loop
      vertex -36.4052 -58.4943 0
      vertex -36.4052 -58.4943 1.6
      vertex -44.9053 -41.4458 1.6
    endloop
  endfacet
  facet normal 0.223031 -0.974811 0
    outer loop
      vertex 0 -50.165 0
      vertex -36.4052 -58.4943 1.6
      vertex -36.4052 -58.4943 0
    endloop
  endfacet
  facet normal 0.223031 -0.974811 0
    outer loop
      vertex 0 -50.165 0
      vertex 0 -50.165 1.6
      vertex -36.4052 -58.4943 1.6
    endloop
  endfacet
  facet normal 1 0 -0
    outer loop
      vertex 12.05 28.59 0
      vertex 12.05 28.59 1.6
      vertex 12.05 14.59 0
    endloop
  endfacet
  facet normal 1 -0 0
    outer loop
      vertex 12.05 14.59 1.6
      vertex 12.05 14.59 0
      vertex 12.05 28.59 1.6
    endloop
  endfacet
  facet normal 0 -1 0
    outer loop
      vertex 26.05 28.59 0
      vertex 26.05 28.59 1.6
      vertex 12.05 28.59 0
    endloop
  endfacet
  facet normal 0 -1 0
    outer loop
      vertex 12.05 28.59 1.6
      vertex 12.05 28.59 0
      vertex 26.05 28.59 1.6
    endloop
  endfacet
  facet normal -1 0 0
    outer loop
      vertex 26.05 14.59 0
      vertex 26.05 14.59 1.6
      vertex 26.05 28.59 0
    endloop
  endfacet
  facet normal -1 -0 -0
    outer loop
      vertex 26.05 28.59 1.6
      vertex 26.05 28.59 0
      vertex 26.05 14.59 1.6
    endloop
  endfacet
  facet normal 0 1 0
    outer loop
      vertex 12.05 14.59 0
      vertex 12.05 14.59 1.6
      vertex 26.05 14.59 0
    endloop
  endfacet
  facet normal 0 1 0
    outer loop
      vertex 26.05 14.59 1.6
      vertex 26.05 14.59 0
      vertex 12.05 14.59 1.6
    endloop
  endfacet
  facet normal 1 0 -0
    outer loop
      vertex -7 26.05 0
      vertex -7 26.05 1.6
      vertex -7 12.05 0
    endloop
  endfacet
  facet normal 1 -0 0
    outer loop
      vertex -7 12.05 1.6
      vertex -7 12.05 0
      vertex -7 26.05 1.6
    endloop
  endfacet
  facet normal 0 -1 0
    outer loop
      vertex 7 26.05 0
      vertex 7 26.05 1.6
      vertex -7 26.05 0
    endloop
  endfacet
  facet normal 0 -1 0
    outer loop
      vertex -7 26.05 1.6
      vertex -7 26.05 0
      vertex 7 26.05 1.6
    endloop
  endfacet
  facet normal -1 0 0
    outer loop
      vertex 7 12.05 0
      vertex 7 12.05 1.6
      vertex 7 26.05 0
    endloop
  endfacet
  facet normal -1 -0 -0
    outer loop
      vertex 7 26.05 1.6
      vertex 7 26.05 0
      vertex 7 12.05 1.6
    endloop
  endfacet
  facet normal 0 1 0
    outer loop
      vertex -7 12.05 0
      vertex -7 12.05 1.6
      vertex 7 12.05 0
    endloop
  endfacet
  facet normal 0 1 0
    outer loop
      vertex 7 12.05 1.6
      vertex 7 12.05 0
      vertex -7 12.05 1.6
    endloop
  endfacet
  facet normal 1 0 -0
    outer loop
      vertex 31.1 26.05 0
      vertex 31.1 26.05 1.6
      vertex 31.1 12.05 0
    endloop
  endfacet
  facet normal 1 -0 0
    outer loop
      vertex 31.1 12.05 1.6
      vertex 31.1 12.05 0
      vertex 31.1 26.05 1.6
    endloop
  endfacet
  facet normal 0 -1 0
    outer loop
      vertex 45.1 26.05 0
      vertex 45.1 26.05 1.6
      vertex 31.1 26.05 0
    endloop
  endfacet
  facet normal 0 -1 0
    outer loop
      vertex 31.1 26.05 1.6
      vertex 31.1 26.05 0
      vertex 45.1 26.05 1.6
    endloop
  endfacet
  facet normal -1 0 0
    outer loop
      vertex 45.1 12.05 0
      vertex 45.1 12.05 1.6
      vertex 45.1 26.05 0
    endloop
  endfacet
  facet normal -1 -0 -0
    outer loop
      vertex 45.1 26.05 1.6
      vertex 45.1 26.05 0
      vertex 45.1 12.05 1.6
    endloop
  endfacet
  facet normal 0 1 0
    outer loop
      vertex 31.1 12.05 0
      vertex 31.1 12.05 1.6
      vertex 45.1 12.05 0
    endloop
  endfacet
  facet normal 0 1 0
    outer loop
      vertex 45.1 12.05 1.6
      vertex 45.1 12.05 0
      vertex 31.1 12.05 1.6
    endloop
  endfacet
  facet normal 1 0 -0
    outer loop
      vertex -26.05 23.51 0
      vertex -26.05 23.51 1.6
      vertex -26.05 9.50999 0
    endloop
  endfacet
  facet normal 1 -0 0
    outer loop
      vertex -26.05 9.50999 1.6
      vertex -26.05 9.50999 0
      vertex -26.05 23.51 1.6
    endloop
  endfacet
  facet normal 0 -1 0
    outer loop
      vertex -12.05 23.51 0
      vertex -12.05 23.51 1.6
      vertex -26.05 23.51 0
    endloop
  endfacet
  facet normal 0 -1 0
    outer loop
      vertex -26.05 23.51 1.6
      vertex -26.05 23.51 0
      vertex -12.05 23.51 1.6
    endloop
  endfacet
  facet normal -1 0 0
    outer loop
      vertex -12.05 9.50999 0
      vertex -12.05 9.50999 1.6
      vertex -12.05 23.51 0
    endloop
  endfacet
  facet normal -1 -0 -0
    outer loop
      vertex -12.05 23.51 1.6
      vertex -12.05 23.51 0
      vertex -12.05 9.50999 1.6
    endloop
  endfacet
  facet normal 0 1 0
    outer loop
      vertex -26.05 9.50999 0
      vertex -26.05 9.50999 1.6
      vertex -12.05 9.50999 0
    endloop
  endfacet
  facet normal 0 1 0
    outer loop
      vertex -12.05 9.50999 1.6
      vertex -12.05 9.50999 0
      vertex -26.05 9.50999 1.6
    endloop
  endfacet
  facet normal 1 0 -0
    outer loop
      vertex 50.15 15.89 0
      vertex 50.15 15.89 1.6
      vertex 50.15 1.89 0
    endloop
  endfacet
  facet normal 1 -0 0
    outer loop
      vertex 50.15 1.89 1.6
      vertex 50.15 1.89 0
      vertex 50.15 15.89 1.6
    endloop
  endfacet
  facet normal 0 -1 0
    outer loop
      vertex 64.15 15.89 0
      vertex 64.15 15.89 1.6
      vertex 50.15 15.89 0
    endloop
  endfacet
  facet normal 0 -1 0
    outer loop
      vertex 50.15 15.89 1.6
      vertex 50.15 15.89 0
      vertex 64.15 15.89 1.6
    endloop
  endfacet
  facet normal -1 0 0
    outer loop
      vertex 64.15 1.89 0
      vertex 64.15 1.89 1.6
      vertex 64.15 15.89 0
    endloop
  endfacet
  facet normal -1 -0 -0
    outer loop
      vertex 64.15 15.89 1.6
      vertex 64.15 15.89 0
      vertex 64.15 1.89 1.6
    endloop
  endfacet
  facet normal 0 1 0
    outer loop
      vertex 50.15 1.89 0
      vertex 50.15 1.89 1.6
      vertex 64.15 1.89 0
    endloop
  endfacet
  facet normal 0 1 0
    outer loop
      vertex 64.15 1.89 1.6
      vertex 64.15 1.89 0
      vertex 50.15 1.89 1.6
    endloop
  endfacet
  facet normal 1 0 -0
    outer loop
      vertex 69.2 13.35 0
      vertex 69.2 13.35 1.6
      vertex 69.2 -0.649994 0
    endloop
  endfacet
  facet normal 1 -0 0
    outer loop
      vertex 69.2 -0.649994 1.6
      vertex 69.2 -0.649994 0
      vertex 69.2 13.35 1.6
    endloop
  endfacet
  facet normal 0 -1 0
    outer loop
      vertex 83.2 13.35 0
      vertex 83.2 13.35 1.6
      vertex 69.2 13.35 0
    endloop
  endfacet
  facet normal 0 -1 0
    outer loop
      vertex 69.2 13.35 1.6
      vertex 69.2 13.35 0
      vertex 83.2 13.35 1.6
    endloop
  endfacet
  facet normal -1 0 0
    outer loop
      vertex 83.2 -0.649994 0
      vertex 83.2 -0.649994 1.6
      vertex 83.2 13.35 0
    endloop
  endfacet
  facet normal -1 -0 -0
    outer loop
      vertex 83.2 13.35 1.6
      vertex 83.2 13.35 0
      vertex 83.2 -0.649994 1.6
    endloop
  endfacet
  facet normal 0 1 0
    outer loop
      vertex 69.2 -0.649994 0
      vertex 69.2 -0.649994 1.6
      vertex 83.2 -0.649994 0
    endloop
  endfacet
  facet normal 0 1 0
    outer loop
      vertex 83.2 -0.649994 1.6
      vertex 83.2 -0.649994 0
      vertex 69.2 -0.649994 1.6
    endloop
  endfacet
  facet normal 1 0 -0
    outer loop
      vertex 12.05 9.53999 0
      vertex 12.05 9.53999 1.6
      vertex 12.05 -4.45999 0
    endloop
  endfacet
  facet normal 1 -0 0
    outer loop
      vertex 12.05 -4.45999 1.6
      vertex 12.05 -4.45999 0
      vertex 12.05 9.53999 1.6
    endloop
  endfacet
  facet normal 0 -1 0
    outer loop
      vertex 26.05 9.53999 0
      vertex 26.05 9.53999 1.6
      vertex 12.05 9.53999 0
    endloop
  endfacet
  facet normal 0 -1 0
    outer loop
      vertex 12.05 9.53999 1.6
      vertex 12.05 9.53999 0
      vertex 26.05 9.53999 1.6
    endloop
  endfacet
  facet normal -1 0 0
    outer loop
      vertex 26.05 -4.45999 0
      vertex 26.05 -4.45999 1.6
      vertex 26.05 9.53999 0
    endloop
  endfacet
  facet normal -1 -0 -0
    outer loop
      vertex 26.05 9.53999 1.6
      vertex 26.05 9.53999 0
      vertex 26.05 -4.45999 1.6
    endloop
  endfacet
  facet normal 0 1 0
    outer loop
      vertex 12.05 -4.45999 0
      vertex 12.05 -4.45999 1.6
      vertex 26.05 -4.45999 0
    endloop
  endfacet
  facet normal 0 1 0
    outer loop
      vertex 26.05 -4.45999 1.6
      vertex 26.05 -4.45999 0
      vertex 12.05 -4.45999 1.6
    endloop
  endfacet
  facet normal 1 0 -0
    outer loop
      vertex -7 7 0
      vertex -7 7 1.6
      vertex -7 -7 0
    endloop
  endfacet
  facet normal 1 -0 0
    outer loop
      vertex -7 -7 1.6
      vertex -7 -7 0
      vertex -7 7 1.6
    endloop
  endfacet
  facet normal 0 -1 0
    outer loop
      vertex 7 7 0
      vertex 7 7 1.6
      vertex -7 7 0
    endloop
  endfacet
  facet normal 0 -1 0
    outer loop
      vertex -7 7 1.6
      vertex -7 7 0
      vertex 7 7 1.6
    endloop
  endfacet
  facet normal -1 0 0
    outer loop
      vertex 7 -7 0
      vertex 7 -7 1.6
      vertex 7 7 0
    endloop
  endfacet
  facet normal -1 -0 -0
    outer loop
      vertex 7 7 1.6
      vertex 7 7 0
      vertex 7 -7 1.6
    endloop
  endfacet
  facet normal 0 1 0
    outer loop
      vertex -7 -7 0
      vertex -7 -7 1.6
      vertex 7 -7 0
    endloop
  endfacet
  facet normal 0 1 0
    outer loop
      vertex 7 -7 1.6
      vertex 7 -7 0
      vertex -7 -7 1.6
    endloop
  endfacet
  facet normal 1 0 -0
    outer loop
      vertex 31.1 7 0
      vertex 31.1 7 1.6
      vertex 31.1 -7 0
    endloop
  endfacet
  facet normal 1 -0 0
    outer loop
      vertex 31.1 -7 1.6
      vertex 31.1 -7 0
      vertex 31.1 7 1.6
    endloop
  endfacet
  facet normal 0 -1 0
    outer loop
      vertex 45.1 7 0
      vertex 45.1 7 1.6
      vertex 31.1 7 0
    endloop
  endfacet
  facet normal 0 -1 0
    outer loop
      vertex 31.1 7 1.6
      vertex 31.1 7 0
      vertex 45.1 7 1.6
    endloop
  endfacet
  facet normal -1 0 0
    outer loop
      vertex 45.1 -7 0
      vertex 45.1 -7 1.6
      vertex 45.1 7 0
    endloop
  endfacet
  facet normal -1 -0 -0
    outer loop
      vertex 45.1 7 1.6
      vertex 45.1 7 0
      vertex 45.1 -7 1.6
    endloop
  endfacet
  facet normal 0 1 0
    outer loop
      vertex 31.1 -7 0
      vertex 31.1 -7 1.6
      vertex 45.1 -7 0
    endloop
  endfacet
  facet normal 0 1 0
    outer loop
      vertex 45.1 -7 1.6
      vertex 45.1 -7 0
      vertex 31.1 -7 1.6
    endloop
  endfacet
  facet normal 1 0 -0
    outer loop
      vertex -26.05 4.45999 0
      vertex -26.05 4.45999 1.6
      vertex -26.05 -9.53999 0
    endloop
  endfacet
  facet normal 1 -0 0
    outer loop
      vertex -26.05 -9.53999 1.6
      vertex -26.05 -9.53999 0
      vertex -26.05 4.45999 1.6
    endloop
  endfacet
  facet normal 0 -1 0
    outer loop
      vertex -12.05 4.45999 0
      vertex -12.05 4.45999 1.6
      vertex -26.05 4.45999 0
    endloop
  endfacet
  facet normal 0 -1 0
    outer loop
      vertex -26.05 4.45999 1.6
      vertex -26.05 4.45999 0
      vertex -12.05 4.45999 1.6
    endloop
  endfacet
  facet normal -1 0 0
    outer loop
      vertex -12.05 -9.53999 0
      vertex -12.05 -9.53999 1.6
      vertex -12.05 4.45999 0
    endloop
  endfacet
  facet normal -1 -0 -0
    outer loop
      vertex -12.05 4.45999 1.6
      vertex -12.05 4.45999 0
      vertex -12.05 -9.53999 1.6
    endloop
  endfacet
  facet normal 0 1 0
    outer loop
      vertex -26.05 -9.53999 0
      vertex -26.05 -9.53999 1.6
      vertex -12.05 -9.53999 0
    endloop
  endfacet
  facet normal 0 1 0
    outer loop
      vertex -12.05 -9.53999 1.6
      vertex -12.05 -9.53999 0
      vertex -26.05 -9.53999 1.6
    endloop
  endfacet
  facet normal 1 0 -0
    outer loop
      vertex 50.15 -3.15999 0
      vertex 50.15 -3.15999 1.6
      vertex 50.15 -17.16 0
    endloop
  endfacet
  facet normal 1 -0 0
    outer loop
      vertex 50.15 -17.16 1.6
      vertex 50.15 -17.16 0
      vertex 50.15 -3.15999 1.6
    endloop
  endfacet
  facet normal 0 -1 0
    outer loop
      vertex 64.15 -3.15999 0
      vertex 64.15 -3.15999 1.6
      vertex 50.15 -3.15999 0
    endloop
  endfacet
  facet normal 0 -1 0
    outer loop
      vertex 50.15 -3.15999 1.6
      vertex 50.15 -3.15999 0
      vertex 64.15 -3.15999 1.6
    endloop
  endfacet
  facet normal -1 0 0
    outer loop
      vertex 64.15 -17.16 0
      vertex 64.15 -17.16 1.6
      vertex 64.15 -3.15999 0
    endloop
  endfacet
  facet normal -1 -0 -0
    outer loop
      vertex 64.15 -3.15999 1.6
      vertex 64.15 -3.15999 0
      vertex 64.15 -17.16 1.6
    endloop
  endfacet
  facet normal 0 1 0
    outer loop
      vertex 50.15 -17.16 0
      vertex 50.15 -17.16 1.6
      vertex 64.15 -17.16 0
    endloop
  endfacet
  facet normal 0 1 0
    outer loop
      vertex 64.15 -17.16 1.6
      vertex 64.15 -17.16 0
      vertex 50.15 -17.16 1.6
    endloop
  endfacet
  facet normal 1 0 -0
    outer loop
      vertex 69.2 -5.7 0
      vertex 69.2 -5.7 1.6
      vertex 69.2 -19.7 0
    endloop
  endfacet
  facet normal 1 -0 0
    outer loop
      vertex 69.2 -19.7 1.6
      vertex 69.2 -19.7 0
      vertex 69.2 -5.7 1.6
    endloop
  endfacet
  facet normal 0 -1 0
    outer loop
      vertex 83.2 -5.7 0
      vertex 83.2 -5.7 1.6
      vertex 69.2 -5.7 0
    endloop
  endfacet
  facet normal 0 -1 0
    outer loop
      vertex 69.2 -5.7 1.6
      vertex 69.2 -5.7 0
      vertex 83.2 -5.7 1.6
    endloop
  endfacet
  facet normal -1 0 0
    outer loop
      vertex 83.2 -19.7 0
      vertex 83.2 -19.7 1.6
      vertex 83.2 -5.7 0
    endloop
  endfacet
  facet normal -1 -0 -0
    outer loop
      vertex 83.2 -5.7 1.6
      vertex 83.2 -5.7 0
      vertex 83.2 -19.7 1.6
    endloop
  endfacet
  facet normal 0 1 0
    outer loop
      vertex 69.2 -19.7 0
      vertex 69.2 -19.7 1.6
      vertex 83.2 -19.7 0
    endloop
  endfacet
  facet normal 0 1 0
    outer loop
      vertex 83.2 -19.7 1.6
      vertex 83.2 -19.7 0
      vertex 69.2 -19.7 1.6
    endloop
  endfacet
  facet normal 1 0 -0
    outer loop
      vertex 12.05 -9.50999 0
      vertex 12.05 -9.50999 1.6
      vertex 12.05 -23.51 0
    endloop
  endfacet
  facet normal 1 -0 0
    outer loop
      vertex 12.05 -23.51 1.6
      vertex 12.05 -23.51 0
      vertex 12.05 -9.50999 1.6
    endloop
  endfacet
  facet normal 0 -1 0
    outer loop
      vertex 26.05 -9.50999 0
      vertex 26.05 -9.50999 1.6
      vertex 12.05 -9.50999 0
    endloop
  endfacet
  facet normal 0 -1 0
    outer loop
      vertex 12.05 -9.50999 1.6
      vertex 12.05 -9.50999 0
      vertex 26.05 -9.50999 1.6
    endloop
  endfacet
  facet normal -1 0 0
    outer loop
      vertex 26.05 -23.51 0
      vertex 26.05 -23.51 1.6
      vertex 26.05 -9.50999 0
    endloop
  endfacet
  facet normal -1 -0 -0
    outer loop
      vertex 26.05 -9.50999 1.6
      vertex 26.05 -9.50999 0
      vertex 26.05 -23.51 1.6
    endloop
  endfacet
  facet normal 0 1 0
    outer loop
      vertex 12.05 -23.51 0
      vertex 12.05 -23.51 1.6
      vertex 26.05 -23.51 0
    endloop
  endfacet
  facet normal 0 1 0
    outer loop
      vertex 26.05 -23.51 1.6
      vertex 26.05 -23.51 0
      vertex 12.05 -23.51 1.6
    endloop
  endfacet
  facet normal 1 0 -0
    outer loop
      vertex 31.1 -12.05 0
      vertex 31.1 -12.05 1.6
      vertex 31.1 -26.05 0
    endloop
  endfacet
  facet normal 1 -0 0
    outer loop
      vertex 31.1 -26.05 1.6
      vertex 31.1 -26.05 0
      vertex 31.1 -12.05 1.6
    endloop
  endfacet
  facet normal 0 -1 0
    outer loop
      vertex 45.1 -12.05 0
      vertex 45.1 -12.05 1.6
      vertex 31.1 -12.05 0
    endloop
  endfacet
  facet normal 0 -1 0
    outer loop
      vertex 31.1 -12.05 1.6
      vertex 31.1 -12.05 0
      vertex 45.1 -12.05 1.6
    endloop
  endfacet
  facet normal -1 0 0
    outer loop
      vertex 45.1 -26.05 0
      vertex 45.1 -26.05 1.6
      vertex 45.1 -12.05 0
    endloop
  endfacet
  facet normal -1 -0 -0
    outer loop
      vertex 45.1 -12.05 1.6
      vertex 45.1 -12.05 0
      vertex 45.1 -26.05 1.6
    endloop
  endfacet
  facet normal 0 1 0
    outer loop
      vertex 31.1 -26.05 0
      vertex 31.1 -26.05 1.6
      vertex 45.1 -26.05 0
    endloop
  endfacet
  facet normal 0 1 0
    outer loop
      vertex 45.1 -26.05 1.6
      vertex 45.1 -26.05 0
      vertex 31.1 -26.05 1.6
    endloop
  endfacet
  facet normal 1 0 -0
    outer loop
      vertex -7 -12.05 0
      vertex -7 -12.05 1.6
      vertex -7 -26.05 0
    endloop
  endfacet
  facet normal 1 -0 0
    outer loop
      vertex -7 -26.05 1.6
      vertex -7 -26.05 0
      vertex -7 -12.05 1.6
    endloop
  endfacet
  facet normal 0 -1 0
    outer loop
      vertex 7 -12.05 0
      vertex 7 -12.05 1.6
      vertex -7 -12.05 0
    endloop
  endfacet
  facet normal 0 -1 0
    outer loop
      vertex -7 -12.05 1.6
      vertex -7 -12.05 0
      vertex 7 -12.05 1.6
    endloop
  endfacet
  facet normal -1 0 0
    outer loop
      vertex 7 -26.05 0
      vertex 7 -26.05 1.6
      vertex 7 -12.05 0
    endloop
  endfacet
  facet normal -1 -0 -0
    outer loop
      vertex 7 -12.05 1.6
      vertex 7 -12.05 0
      vertex 7 -26.05 1.6
    endloop
  endfacet
  facet normal 0 1 0
    outer loop
      vertex -7 -26.05 0
      vertex -7 -26.05 1.6
      vertex 7 -26.05 0
    endloop
  endfacet
  facet normal 0 1 0
    outer loop
      vertex 7 -26.05 1.6
      vertex 7 -26.05 0
      vertex -7 -26.05 1.6
    endloop
  endfacet
  facet normal 1 0 -0
    outer loop
      vertex -26.05 -14.59 0
      vertex -26.05 -14.59 1.6
      vertex -26.05 -28.59 0
    endloop
  endfacet
  facet normal 1 -0 0
    outer loop
      vertex -26.05 -28.59 1.6
      vertex -26.05 -28.59 0
      vertex -26.05 -14.59 1.6
    endloop
  endfacet
  facet normal 0 -1 0
    outer loop
      vertex -12.05 -14.59 0
      vertex -12.05 -14.59 1.6
      vertex -26.05 -14.59 0
    endloop
  endfacet
  facet normal 0 -1 0
    outer loop
      vertex -26.05 -14.59 1.6
      vertex -26.05 -14.59 0
      vertex -12.05 -14.59 1.6
    endloop
  endfacet
  facet normal -1 0 0
    outer loop
      vertex -12.05 -28.59 0
      vertex -12.05 -28.59 1.6
      vertex -12.05 -14.59 0
    endloop
  endfacet
  facet normal -1 -0 -0
    outer loop
      vertex -12.05 -14.59 1.6
      vertex -12.05 -14.59 0
      vertex -12.05 -28.59 1.6
    endloop
  endfacet
  facet normal 0 1 0
    outer loop
      vertex -26.05 -28.59 0
      vertex -26.05 -28.59 1.6
      vertex -12.05 -28.59 0
    endloop
  endfacet
  facet normal 0 1 0
    outer loop
      vertex -12.05 -28.59 1.6
      vertex -12.05 -28.59 0
      vertex -26.05 -28.59 1.6
    endloop
  endfacet
  facet normal 1 0 -0
    outer loop
      vertex 50.15 -22.21 0
      vertex 50.15 -22.21 1.6
      vertex 50.15 -36.21 0
    endloop
  endfacet
  facet normal 1 -0 0
    outer loop
      vertex 50.15 -36.21 1.6
      vertex 50.15 -36.21 0
      vertex 50.15 -22.21 1.6
    endloop
  endfacet
  facet normal 0 -1 0
    outer loop
      vertex 64.15 -22.21 0
      vertex 64.15 -22.21 1.6
      vertex 50.15 -22.21 0
    endloop
  endfacet
  facet normal 0 -1 0
    outer loop
      vertex 50.15 -22.21 1.6
      vertex 50.15 -22.21 0
      vertex 64.15 -22.21 1.6
    endloop
  endfacet
  facet normal -1 0 0
    outer loop
      vertex 64.15 -36.21 0
      vertex 64.15 -36.21 1.6
      vertex 64.15 -22.21 0
    endloop
  endfacet
  facet normal -1 -0 -0
    outer loop
      vertex 64.15 -22.21 1.6
      vertex 64.15 -22.21 0
      vertex 64.15 -36.21 1.6
    endloop
  endfacet
  facet normal 0 1 0
    outer loop
      vertex 50.15 -36.21 0
      vertex 50.15 -36.21 1.6
      vertex 64.15 -36.21 0
    endloop
  endfacet
  facet normal 0 1 0
    outer loop
      vertex 64.15 -36.21 1.6
      vertex 64.15 -36.21 0
      vertex 50.15 -36.21 1.6
    endloop
  endfacet
  facet normal 1 0 -0
    outer loop
      vertex 69.2 -24.75 0
      vertex 69.2 -24.75 1.6
      vertex 69.2 -38.75 0
    endloop
  endfacet
  facet normal 1 -0 0
    outer loop
      vertex 69.2 -38.75 1.6
      vertex 69.2 -38.75 0
      vertex 69.2 -24.75 1.6
    endloop
  endfacet
  facet normal 0 -1 0
    outer loop
      vertex 83.2 -24.75 0
      vertex 83.2 -24.75 1.6
      vertex 69.2 -24.75 0
    endloop
  endfacet
  facet normal 0 -1 0
    outer loop
      vertex 69.2 -24.75 1.6
      vertex 69.2 -24.75 0
      vertex 83.2 -24.75 1.6
    endloop
  endfacet
  facet normal -1 0 0
    outer loop
      vertex 83.2 -38.75 0
      vertex 83.2 -38.75 1.6
      vertex 83.2 -24.75 0
    endloop
  endfacet
  facet normal -1 -0 -0
    outer loop
      vertex 83.2 -24.75 1.6
      vertex 83.2 -24.75 0
      vertex 83.2 -38.75 1.6
    endloop
  endfacet
  facet normal 0 1 0
    outer loop
      vertex 69.2 -38.75 0
      vertex 69.2 -38.75 1.6
      vertex 83.2 -38.75 0
    endloop
  endfacet
  facet normal 0 1 0
    outer loop
      vertex 83.2 -38.75 1.6
      vertex 83.2 -38.75 0
      vertex 69.2 -38.75 1.6
    endloop
  endfacet
  facet normal 1 0 -0
    outer loop
      vertex 2.52499 -31.1 0
      vertex 2.52499 -31.1 1.6
      vertex 2.52499 -45.1 0
    endloop
  endfacet
  facet normal 1 -0 0
    outer loop
      vertex 2.52499 -45.1 1.6
      vertex 2.52499 -45.1 0
      vertex 2.52499 -31.1 1.6
    endloop
  endfacet
  facet normal 0 -1 0
    outer loop
      vertex 16.525 -31.1 0
      vertex 16.525 -31.1 1.6
      vertex 2.52499 -31.1 0
    endloop
  endfacet
  facet normal 0 -1 0
    outer loop
      vertex 2.52499 -31.1 1.6
      vertex 2.52499 -31.1 0
      vertex 16.525 -31.1 1.6
    endloop
  endfacet
  facet normal -1 0 0
    outer loop
      vertex 16.525 -45.1 0
      vertex 16.525 -45.1 1.6
      vertex 16.525 -31.1 0
    endloop
  endfacet
  facet normal -1 -0 -0
    outer loop
      vertex 16.525 -31.1 1.6
      vertex 16.525 -31.1 0
      vertex 16.525 -45.1 1.6
    endloop
  endfacet
  facet normal 0 1 0
    outer loop
      vertex 2.52499 -45.1 0
      vertex 2.52499 -45.1 1.6
      vertex 16.525 -45.1 0
    endloop
  endfacet
  facet normal 0 1 0
    outer loop
      vertex 16.525 -45.1 1.6
      vertex 16.525 -45.1 0
      vertex 2.52499 -45.1 1.6
    endloop
  endfacet
  facet normal 1 0 -0
    outer loop
      vertex 21.575 -31.1 0
      vertex 21.575 -31.1 1.6
      vertex 21.575 -45.1 0
    endloop
  endfacet
  facet normal 1 -0 0
    outer loop
      vertex 21.575 -45.1 1.6
      vertex 21.575 -45.1 0
      vertex 21.575 -31.1 1.6
    endloop
  endfacet
  facet normal 0 -1 0
    outer loop
      vertex 35.575 -31.1 0
      vertex 35.575 -31.1 1.6
      vertex 21.575 -31.1 0
    endloop
  endfacet
  facet normal 0 -1 0
    outer loop
      vertex 21.575 -31.1 1.6
      vertex 21.575 -31.1 0
      vertex 35.575 -31.1 1.6
    endloop
  endfacet
  facet normal -1 0 0
    outer loop
      vertex 35.575 -45.1 0
      vertex 35.575 -45.1 1.6
      vertex 35.575 -31.1 0
    endloop
  endfacet
  facet normal -1 -0 -0
    outer loop
      vertex 35.575 -31.1 1.6
      vertex 35.575 -31.1 0
      vertex 35.575 -45.1 1.6
    endloop
  endfacet
  facet normal 0 1 0
    outer loop
      vertex 21.575 -45.1 0
      vertex 21.575 -45.1 1.6
      vertex 35.575 -45.1 0
    endloop
  endfacet
  facet normal 0 1 0
    outer loop
      vertex 35.575 -45.1 1.6
      vertex 35.575 -45.1 0
      vertex 21.575 -45.1 1.6
    endloop
  endfacet
  facet normal 1 0 -0
    outer loop
      vertex -16.525 -33.64 0
      vertex -16.525 -33.64 1.6
      vertex -16.525 -47.64 0
    endloop
  endfacet
  facet normal 1 -0 0
    outer loop
      vertex -16.525 -47.64 1.6
      vertex -16.525 -47.64 0
      vertex -16.525 -33.64 1.6
    endloop
  endfacet
  facet normal 0 -1 0
    outer loop
      vertex -2.52499 -33.64 0
      vertex -2.52499 -33.64 1.6
      vertex -16.525 -33.64 0
    endloop
  endfacet
  facet normal 0 -1 0
    outer loop
      vertex -16.525 -33.64 1.6
      vertex -16.525 -33.64 0
      vertex -2.52499 -33.64 1.6
    endloop
  endfacet
  facet normal -1 0 0
    outer loop
      vertex -2.52499 -47.64 0
      vertex -2.52499 -47.64 1.6
      vertex -2.52499 -33.64 0
    endloop
  endfacet
  facet normal -1 -0 -0
    outer loop
      vertex -2.52499 -33.64 1.6
      vertex -2.52499 -33.64 0
      vertex -2.52499 -47.64 1.6
    endloop
  endfacet
  facet normal 0 1 0
    outer loop
      vertex -16.525 -47.64 0
      vertex -16.525 -47.64 1.6
      vertex -2.52499 -47.64 0
    endloop
  endfacet
  facet normal 0 1 0
    outer loop
      vertex -2.52499 -47.64 1.6
      vertex -2.52499 -47.64 0
      vertex -16.525 -47.64 1.6
    endloop
  endfacet
  facet normal 0.446193 -0.894937 0
    outer loop
      vertex -28.9898 -36.3321 0
      vertex -28.9898 -36.3321 1.6
      vertex -41.5189 -42.5788 0
    endloop
  endfacet
  facet normal 0.446193 -0.894937 0
    outer loop
      vertex -41.5189 -42.5788 1.6
      vertex -41.5189 -42.5788 0
      vertex -28.9898 -36.3321 1.6
    endloop
  endfacet
  facet normal -0.894935 -0.446196 0
    outer loop
      vertex -22.7431 -48.8611 0
      vertex -22.7431 -48.8611 1.6
      vertex -28.9898 -36.3321 0
    endloop
  endfacet
  facet normal -0.894935 -0.446196 -0
    outer loop
      vertex -28.9898 -36.3321 1.6
      vertex -28.9898 -36.3321 0
      vertex -22.7431 -48.8611 1.6
    endloop
  endfacet
  facet normal -0.446199 0.894934 0
    outer loop
      vertex -35.2722 -55.1079 0
      vertex -35.2722 -55.1079 1.6
      vertex -22.7431 -48.8611 0
    endloop
  endfacet
  facet normal -0.446199 0.894934 0
    outer loop
      vertex -22.7431 -48.8611 1.6
      vertex -22.7431 -48.8611 0
      vertex -35.2722 -55.1079 1.6
    endloop
  endfacet
  facet normal 0.894937 0.446193 -0
    outer loop
      vertex -41.5189 -42.5788 0
      vertex -41.5189 -42.5788 1.6
      vertex -35.2722 -55.1079 0
    endloop
  endfacet
  facet normal 0.894937 0.446193 0
    outer loop
      vertex -35.2722 -55.1079 1.6
      vertex -35.2722 -55.1079 0
      vertex -41.5189 -42.5788 1.6
    endloop
  endfacet
endsolid OpenSCAD_Model
