<?xml version="1.0" standalone="no"?>
<!DOCTYPE svg PUBLIC "-//W3C//DTD SVG 1.1//EN" "http://www.w3.org/Graphics/SVG/1.1/DTD/svg11.dtd">
<svg width="131mm" height="91mm" viewBox="-45 -32 131 91" xmlns="http://www.w3.org/2000/svg" version="1.1">
<title>OpenSCAD Model</title>
<path d="
M 0,50.165 L 38.1,47.625 L 85.725,41.275 L 85.725,-15.875 L 47.625,-28.575 L 28.575,-31.115
 L 9.52499,-31.115 L -28.575,-26.035 L -28.575,33.3038 L -44.9053,41.4458 L -36.4052,58.4943 z
M 12.1,-14.64 L 12.1,-28.54 L 26,-28.54 L 26,-14.64 z
M -6.95,-12.1 L -6.95,-26 L 6.95,-26 L 6.95,-12.1 z
M 31.15,-12.1 L 31.15,-26 L 45.05,-26 L 45.05,-12.1 z
M -26,-9.56 L -26,-23.46 L -12.1,-23.46 L -12.1,-9.56 z
M 50.2,-1.93999 L 50.2,-15.84 L 64.1,-15.84 L 64.1,-1.93999 z
M 69.25,0.599991 L 69.25,-13.3 L 83.15,-13.3 L 83.15,0.599991 z
M 12.1,4.40999 L 12.1,-9.48999 L 26,-9.48999 L 26,4.40999 z
M -6.95,6.95 L -6.95,-6.95 L 6.95,-6.95 L 6.95,6.95 z
M 31.15,6.95 L 31.15,-6.95 L 45.05,-6.95 L 45.05,6.95 z
M -26,9.48999 L -26,-4.40999 L -12.1,-4.40999 L -12.1,9.48999 z
M 50.2,17.11 L 50.2,3.20999 L 64.1,3.20999 L 64.1,17.11 z
M 69.25,19.65 L 69.25,5.74998 L 83.15,5.74998 L 83.15,19.65 z
M 12.1,23.46 L 12.1,9.56 L 26,9.56 L 26,23.46 z
M 31.15,26 L 31.15,12.1 L 45.05,12.1 L 45.05,26 z
M -6.95,26 L -6.95,12.1 L 6.95,12.1 L 6.95,26 z
M -26,28.54 L -26,14.64 L -12.1,14.64 L -12.1,28.54 z
M 50.2,36.16 L 50.2,22.26 L 64.1,22.26 L 64.1,36.16 z
M 69.25,38.7 L 69.25,24.8 L 83.15,24.8 L 83.15,38.7 z
M 2.575,45.05 L 2.575,31.15 L 16.475,31.15 L 16.475,45.05 z
M 21.625,45.05 L 21.625,31.15 L 35.525,31.15 L 35.525,45.05 z
M -16.475,47.59 L -16.475,33.69 L -2.575,33.69 L -2.575,47.59 z
M -41.4519,42.6013 L -29.0123,36.3991 L -22.8101,48.8387 L -35.2497,55.0409 z
" stroke="black" fill="lightgray" stroke-width="0.5"/>
</svg>
