<?xml version="1.0" standalone="no"?>
<!DOCTYPE svg PUBLIC "-//W3C//DTD SVG 1.1//EN" "http://www.w3.org/Graphics/SVG/1.1/DTD/svg11.dtd">
<svg width="115mm" height="83mm" viewBox="-29 -32 115 83" xmlns="http://www.w3.org/2000/svg" version="1.1">
<title>OpenSCAD Model</title>
<path d="
M 38.1,47.625 L 85.725,41.275 L 85.725,-15.875 L 47.625,-28.575 L 28.575,-31.115 L 9.52499,-31.115
 L -28.575,-26.035 L -28.575,31.115 L -19.05,50.165 L 0,50.165 z
M 12.05,-14.59 L 12.05,-28.59 L 26.05,-28.59 L 26.05,-14.59 z
M -7,-12.05 L -7,-26.05 L 7,-26.05 L 7,-12.05 z
M 31.1,-12.05 L 31.1,-26.05 L 45.1,-26.05 L 45.1,-12.05 z
M -26.05,-9.50999 L -26.05,-23.51 L -12.05,-23.51 L -12.05,-9.50999 z
M 50.15,-1.89 L 50.15,-15.89 L 64.15,-15.89 L 64.15,-1.89 z
M 69.2,0.649994 L 69.2,-13.35 L 83.2,-13.35 L 83.2,0.649994 z
M 12.05,4.45999 L 12.05,-9.53999 L 26.05,-9.53999 L 26.05,4.45999 z
M -7,7 L -7,-7 L 7,-7 L 7,7 z
M 31.1,7 L 31.1,-7 L 45.1,-7 L 45.1,7 z
M -26.05,9.53999 L -26.05,-4.45999 L -12.05,-4.45999 L -12.05,9.53999 z
M 50.15,17.16 L 50.15,3.15999 L 64.15,3.15999 L 64.15,17.16 z
M 69.2,19.7 L 69.2,5.7 L 83.2,5.7 L 83.2,19.7 z
M 12.05,23.51 L 12.05,9.50999 L 26.05,9.50999 L 26.05,23.51 z
M 31.1,26.05 L 31.1,12.05 L 45.1,12.05 L 45.1,26.05 z
M -7,26.05 L -7,12.05 L 7,12.05 L 7,26.05 z
M -26.05,28.59 L -26.05,14.59 L -12.05,14.59 L -12.05,28.59 z
M 50.15,36.21 L 50.15,22.21 L 64.15,22.21 L 64.15,36.21 z
M 69.2,38.75 L 69.2,24.75 L 83.2,24.75 L 83.2,38.75 z
M 2.52499,45.1 L 2.52499,31.1 L 16.525,31.1 L 16.525,45.1 z
M 21.575,45.1 L 21.575,31.1 L 35.575,31.1 L 35.575,45.1 z
M -16.525,47.64 L -16.525,33.64 L -2.52499,33.64 L -2.52499,47.64 z
" stroke="black" fill="lightgray" stroke-width="0.5"/>
</svg>
