M48
;DRILL file {KiCad 5.0.2+dfsg1-1} date sam. 05 sept. 2020 17:35:23 CEST
;FORMAT={-:-/ absolute / inch / decimal}
FMAT,2
INCH,TZ
T1C0.0256
T2C0.0315
T3C0.0669
T4C0.0748
T5C0.1575
%
G90
G05
T1
X8.7362Y-2.1024
X8.9638Y-2.1024
T2
X9.345Y-1.963
X9.345Y-2.2386
T3
X7.3Y-2.125
X7.7Y-2.125
X6.925Y-4.375
X7.325Y-4.375
X8.05Y-3.725
X8.45Y-3.725
X6.55Y-3.525
X6.95Y-3.525
X5.8Y-2.875
X6.2Y-2.875
X7.3Y-3.625
X7.7Y-3.625
X8.05Y-2.225
X8.45Y-2.225
X5.05Y-2.525
X5.45Y-2.525
X4.3Y-4.125
X4.7Y-4.125
X7.3Y-2.875
X7.7Y-2.875
X6.175Y-4.375
X6.575Y-4.375
X5.05Y-4.025
X5.45Y-4.025
X8.05Y-2.975
X8.45Y-2.975
X5.8Y-2.125
X6.2Y-2.125
X5.05Y-3.275
X5.45Y-3.275
X4.3Y-3.375
X4.7Y-3.375
X6.55Y-2.025
X6.95Y-2.025
X6.55Y-2.775
X6.95Y-2.775
X4.3Y-2.625
X4.7Y-2.625
X5.8Y-3.625
X6.2Y-3.625
X7.675Y-4.475
X8.075Y-4.475
X8.586Y-4.5858
X8.944Y-4.7642
T4
X6.5335Y-3.525
X6.9665Y-3.525
X5.7835Y-2.875
X6.2165Y-2.875
X7.2835Y-3.625
X7.7165Y-3.625
X8.0335Y-2.225
X8.4665Y-2.225
X5.0335Y-2.525
X5.4665Y-2.525
X4.2835Y-4.125
X4.7165Y-4.125
X7.2835Y-2.875
X7.7165Y-2.875
X6.1585Y-4.375
X6.5915Y-4.375
X5.0335Y-4.025
X5.4665Y-4.025
X8.0335Y-2.975
X8.4665Y-2.975
X5.7835Y-2.125
X6.2165Y-2.125
X5.0335Y-3.275
X5.4665Y-3.275
X4.2835Y-3.375
X4.7165Y-3.375
X6.5335Y-2.025
X6.9665Y-2.025
X6.5335Y-2.775
X6.9665Y-2.775
X4.2835Y-2.625
X4.7165Y-2.625
X5.7835Y-3.625
X6.2165Y-3.625
X7.6585Y-4.475
X8.0915Y-4.475
X8.5712Y-4.5784
X8.9588Y-4.7716
X7.2835Y-2.125
X7.7165Y-2.125
X6.9085Y-4.375
X7.3415Y-4.375
X8.0335Y-3.725
X8.4665Y-3.725
T5
X7.5Y-2.875
X6.375Y-4.375
X5.25Y-4.025
X8.25Y-2.975
X6.Y-2.125
X5.25Y-3.275
X4.5Y-3.375
X6.75Y-2.025
X6.75Y-2.775
X4.5Y-2.625
X6.Y-3.625
X7.875Y-4.475
X8.765Y-4.675
X7.5Y-2.125
X7.125Y-4.375
X8.25Y-3.725
X6.75Y-3.525
X6.Y-2.875
X7.5Y-3.625
X8.25Y-2.225
X5.25Y-2.525
X4.5Y-4.125
T0
M30
