M48
;DRILL file {KiCad 5.0.2+dfsg1-1} date sam. 05 sept. 2020 17:35:23 CEST
;FORMAT={-:-/ absolute / inch / decimal}
FMAT,2
INCH,TZ
T1C0.0157
T2C0.0236
T3C0.0354
T4C0.0472
%
G90
G05
T1
X8.675Y-2.93
X8.69Y-2.74
X8.74Y-3.305
X8.8Y-2.41
X8.805Y-2.775
X8.81Y-2.685
X8.8122Y-2.7343
X8.9176Y-2.0976
X8.9384Y-2.6743
X8.94Y-2.63
X8.9487Y-2.7123
X8.975Y-3.155
X9.005Y-3.5086
X9.045Y-2.8
X9.07Y-2.725
X9.075Y-2.35
X9.075Y-2.77
X9.085Y-3.7286
X9.085Y-3.9486
X9.096Y-2.6955
X9.1061Y-2.7406
X9.1234Y-2.6671
X9.1353Y-2.7104
X9.1625Y-2.6746
X9.165Y-4.1686
X9.245Y-2.875
X9.2762Y-2.735
X9.28Y-3.2
X9.2842Y-2.7792
X9.29Y-2.82
X9.305Y-2.505
X9.38Y-2.825
X9.3825Y-3.65
T4
X6.225Y-4.275
X6.375Y-4.1427
X6.475Y-4.175
X6.5758Y-4.2215
X5.1Y-3.925
X5.25Y-3.7927
X5.35Y-3.825
X5.4508Y-3.8715
X8.1Y-2.875
X8.25Y-2.7427
X8.35Y-2.775
X8.4508Y-2.8215
X5.85Y-2.025
X6.Y-1.8927
X6.1Y-1.925
X6.2008Y-1.9715
X5.1Y-3.175
X5.25Y-3.0427
X5.35Y-3.075
X5.4508Y-3.1215
X4.35Y-3.275
X4.5Y-3.1427
X4.6Y-3.175
X4.7008Y-3.2215
X6.6Y-1.925
X6.75Y-1.7927
X6.85Y-1.825
X6.9508Y-1.8715
X6.6Y-2.675
X6.75Y-2.5427
X6.85Y-2.575
X6.9508Y-2.6215
X4.35Y-2.525
X4.5Y-2.3927
X4.6Y-2.425
X4.7008Y-2.4715
X5.85Y-3.525
X6.Y-3.3927
X6.1Y-3.425
X6.2008Y-3.4715
X7.725Y-4.375
X7.875Y-4.2427
X7.975Y-4.275
X8.0758Y-4.3215
X8.6754Y-4.5186
X8.8686Y-4.4671
X8.9437Y-4.5406
X9.0132Y-4.6272
X7.35Y-2.025
X7.5Y-1.8927
X7.6Y-1.925
X7.7008Y-1.9715
X6.975Y-4.275
X7.125Y-4.1427
X7.225Y-4.175
X7.3258Y-4.2215
X8.1Y-3.625
X8.25Y-3.4927
X8.35Y-3.525
X8.4508Y-3.5715
X6.6Y-3.425
X6.75Y-3.2927
X6.85Y-3.325
X6.9508Y-3.3715
X5.85Y-2.775
X6.Y-2.6427
X6.1Y-2.675
X6.2008Y-2.7215
X7.35Y-3.525
X7.5Y-3.3927
X7.6Y-3.425
X7.7008Y-3.4715
X8.1Y-2.125
X8.25Y-1.9927
X8.35Y-2.025
X8.4508Y-2.0715
X5.1Y-2.425
X5.25Y-2.2927
X5.35Y-2.325
X5.4508Y-2.3715
X4.35Y-4.025
X4.5Y-3.8927
X4.6Y-3.925
X4.7008Y-3.9715
X7.35Y-2.775
X7.5Y-2.6427
X7.6Y-2.675
X7.7008Y-2.7215
T2
X8.6799Y-1.9705G85X8.6799Y-1.9469
G05
X8.6799Y-2.1449G85X8.6799Y-2.1016
G05
X9.0201Y-1.9705G85X9.0201Y-1.9469
G05
X9.0201Y-2.1449G85X9.0201Y-2.1016
G05
T3
X9.2544Y-2.337G85X9.2544Y-2.3528
G05
X9.2544Y-2.337G85X9.2544Y-2.3528
G05
X9.4356Y-2.0181G85X9.4356Y-2.0339
G05
X9.4356Y-2.0181G85X9.4356Y-2.0339
G05
X9.4356Y-2.1362G85X9.4356Y-2.152
G05
X9.4356Y-2.1362G85X9.4356Y-2.152
G05
X9.4356Y-2.2937G85X9.4356Y-2.3094
G05
X9.4356Y-2.2937G85X9.4356Y-2.3094
G05
T0
M30
